<?xml version="1.0" encoding="utf-8"?>
<!-- Generator: Adobe Illustrator 13.0.2, SVG Export Plug-In . SVG Version: 6.00 Build 14948)  -->
<!DOCTYPE svg PUBLIC "-//W3C//DTD SVG 1.0//EN" "http://www.w3.org/TR/2001/REC-SVG-20010904/DTD/svg10.dtd">
<svg version="1.0" id="Ebene_1" xmlns="http://www.w3.org/2000/svg" xmlns:xlink="http://www.w3.org/1999/xlink" x="0px" y="0px"
	 width="409.968px" height="566.928px" viewBox="0 0 409.968 566.928" enable-background="new 0 0 409.968 566.928"
	 xml:space="preserve">
<path fill="#FFFFFF" d="M204.984,156.96c9.864,0,19.656,0.72,29.16,2.088l-29.16-21.024l-29.16,21.024
	C185.4,157.68,195.12,156.96,204.984,156.96L204.984,156.96z M258.264,164.016c87.192,23.616,151.704,103.464,151.704,197.856
	c0,112.968-92.088,205.056-204.984,205.056S0,474.84,0,361.872c0-94.392,64.512-174.24,151.776-197.856l16.776-52.056
	l-57.384-42.408l71.352-0.288L204.984,0l22.464,69.264l71.352,0.288l-57.384,42.408L258.264,164.016z"/>
<path fill="#008836" d="M204.984,564.552c111.6,0,202.608-91.008,202.608-202.68c0-111.528-91.008-202.536-202.608-202.536
	c-111.6,0-202.608,91.008-202.608,202.536C2.376,473.544,93.384,564.552,204.984,564.552z"/>
<rect x="103.32" y="330.984" fill="#FFFFFF" width="203.328" height="61.848"/>
<path fill="#008836" d="M132.192,366.696h11.664l-5.832-22.608L132.192,366.696L132.192,366.696z M122.976,383.544l11.952-43.2
	h6.192l12.168,43.2h-4.968l-3.312-12.456h-13.896l-3.168,12.456H122.976z"/>
<rect x="158.904" y="377.568" fill="#008836" width="5.112" height="5.976"/>
<path fill="#008836" d="M171.864,369.792h4.68v1.584c0,2.88,0.72,5.112,2.088,6.624c1.368,1.512,3.384,2.232,6.048,2.232
	c2.448,0,4.392-0.72,5.76-2.16c1.368-1.44,2.088-3.384,2.088-5.904c0-2.088-0.432-3.6-1.296-4.68
	c-0.864-1.08-2.736-2.232-5.688-3.312c-0.72-0.288-1.728-0.648-2.952-1.08c-3.528-1.296-5.688-2.232-6.408-2.88
	c-1.224-1.08-2.16-2.304-2.736-3.816c-0.576-1.44-0.936-3.168-0.936-5.112c0-3.744,1.08-6.696,3.168-8.784
	c2.088-2.16,5.04-3.168,8.784-3.168c3.6,0,6.336,0.936,8.352,2.88c2.088,2.016,3.096,4.68,3.096,8.136
	c0,0.144-0.072,0.36-0.072,0.576c0,0.216,0,0.432,0,0.576h-4.536V351c0-2.376-0.576-4.248-1.8-5.616
	c-1.152-1.296-2.88-1.944-5.112-1.944s-4.032,0.648-5.328,1.872c-1.296,1.296-1.944,2.952-1.944,5.112
	c0,2.016,0.432,3.6,1.296,4.752c0.864,1.152,2.808,2.232,5.832,3.312c0.36,0.144,0.864,0.288,1.584,0.576
	c4.608,1.656,7.344,2.88,8.208,3.744c1.08,1.008,1.872,2.16,2.376,3.6c0.576,1.44,0.792,3.096,0.792,5.112
	c0,4.104-1.152,7.272-3.456,9.576c-2.304,2.232-5.472,3.384-9.576,3.384c-4.032,0-7.128-1.08-9.216-3.384
	c-2.088-2.232-3.096-5.544-3.096-9.864c0-0.144,0-0.36,0-0.72C171.864,370.224,171.864,369.936,171.864,369.792z"/>
<rect x="205.272" y="377.568" fill="#008836" width="5.184" height="5.976"/>
<path fill="#008836" d="M218.016,369.792h4.68v1.584c0,2.88,0.648,5.112,2.016,6.624c1.44,1.512,3.456,2.232,6.12,2.232
	c2.448,0,4.32-0.72,5.76-2.16c1.368-1.44,2.016-3.384,2.016-5.904c0-2.088-0.36-3.6-1.224-4.68c-0.864-1.08-2.736-2.232-5.688-3.312
	c-0.72-0.288-1.728-0.648-2.952-1.08c-3.6-1.296-5.688-2.232-6.48-2.88c-1.224-1.08-2.088-2.304-2.664-3.816
	c-0.648-1.44-0.936-3.168-0.936-5.112c0-3.744,1.08-6.696,3.168-8.784c2.088-2.16,5.04-3.168,8.784-3.168
	c3.528,0,6.336,0.936,8.352,2.88c2.016,2.016,3.024,4.68,3.024,8.136c0,0.144,0,0.36,0,0.576c0,0.216-0.072,0.432-0.072,0.576
	h-4.464V351c0-2.376-0.576-4.248-1.8-5.616c-1.224-1.296-2.88-1.944-5.112-1.944c-2.232,0-4.032,0.648-5.328,1.872
	c-1.368,1.296-2.016,2.952-2.016,5.112c0,2.016,0.504,3.6,1.368,4.752c0.864,1.152,2.808,2.232,5.832,3.312
	c0.36,0.144,0.864,0.288,1.584,0.576c4.536,1.656,7.272,2.88,8.208,3.744c1.08,1.008,1.872,2.16,2.376,3.6
	c0.504,1.44,0.792,3.096,0.792,5.112c0,4.104-1.152,7.272-3.456,9.576c-2.304,2.232-5.472,3.384-9.576,3.384
	s-7.128-1.08-9.216-3.384c-2.088-2.232-3.168-5.544-3.168-9.864c0-0.144,0-0.36,0.072-0.72
	C218.016,370.224,218.016,369.936,218.016,369.792z"/>
<rect x="251.28" y="377.568" fill="#008836" width="5.184" height="5.976"/>
<polygon fill="#008836" points="265.104,383.544 265.104,340.344 286.848,340.344 286.848,344.808 269.928,344.808 269.928,358.704 
	285.696,358.704 285.696,363.096 269.928,363.096 269.928,378.936 286.992,378.936 286.992,383.544 "/>
<path fill="#FFFFFF" d="M84.6,255.744l2.448-2.448l0.792,0.792c1.656,1.512,3.168,2.304,4.68,2.376
	c1.584,0.072,3.024-0.648,4.392-2.088c1.296-1.296,1.872-2.664,1.8-4.176c-0.072-1.512-0.792-2.952-2.16-4.248
	c-1.08-1.08-2.16-1.656-3.168-1.8c-1.08-0.072-2.664,0.36-4.752,1.368c-0.504,0.216-1.224,0.576-2.16,1.008
	c-2.52,1.224-4.176,1.872-4.896,1.944c-1.152,0.072-2.304-0.144-3.456-0.576c-1.08-0.432-2.16-1.152-3.24-2.16
	c-2.016-2.016-3.096-4.104-3.168-6.336c-0.072-2.232,0.864-4.392,2.808-6.408c1.872-1.872,3.816-2.88,5.976-2.952
	c2.088,0,4.104,0.864,5.976,2.664c0.072,0.072,0.144,0.144,0.288,0.288c0.144,0.144,0.216,0.288,0.288,0.288l-2.376,2.448
	l-0.216-0.216c-1.296-1.296-2.664-1.944-3.96-2.016c-1.368-0.072-2.592,0.504-3.744,1.728c-1.152,1.224-1.728,2.52-1.728,3.816
	c0,1.368,0.576,2.664,1.728,3.744c1.152,1.08,2.232,1.656,3.312,1.8c1.008,0.144,2.664-0.36,4.824-1.368
	c0.216-0.144,0.576-0.36,1.08-0.576c3.312-1.584,5.4-2.376,6.264-2.448c1.152,0,2.232,0.144,3.24,0.648
	c1.08,0.432,2.088,1.224,3.168,2.232c2.232,2.16,3.384,4.464,3.456,6.912c0,2.376-1.008,4.68-3.096,6.912
	c-2.16,2.16-4.32,3.24-6.624,3.168c-2.304-0.072-4.68-1.224-6.984-3.528c-0.144-0.072-0.216-0.216-0.432-0.36
	C84.816,255.96,84.672,255.888,84.6,255.744z"/>
<path fill="#FFFFFF" d="M105.768,232.92l7.128-5.04l-13.392-11.52L105.768,232.92L105.768,232.92z M107.424,247.248l-11.448-31.824
	l3.816-2.664l26.064,21.528l-3.024,2.16l-7.416-6.336l-8.424,5.976l3.456,9.072L107.424,247.248z"/>
<polygon fill="#FFFFFF" points="128.952,232.344 113.112,203.76 116.352,201.96 132.192,230.544 "/>
<polygon fill="#FFFFFF" points="137.304,227.808 123.984,198 128.448,195.984 150.192,216.936 138.528,191.52 141.696,190.08 
	155.016,219.888 150.768,221.832 128.52,200.16 140.472,226.368 "/>
<polygon fill="#FFFFFF" points="166.248,216.648 158.688,188.352 150.624,190.512 149.76,187.272 168.984,182.16 169.848,185.4 
	162.288,187.416 169.92,215.712 "/>
<polygon fill="#FFFFFF" points="176.4,203.76 175.896,199.944 186.336,198.72 186.768,202.464 "/>
<polygon fill="#FFFFFF" points="192.96,211.968 192.384,179.352 208.512,179.064 208.584,182.448 196.056,182.664 196.272,193.176 
	207.936,192.96 208.008,196.272 196.344,196.488 196.488,208.512 209.16,208.296 209.232,211.68 "/>
<polygon fill="#FFFFFF" points="220.176,212.688 223.704,183.6 215.424,182.592 215.856,179.28 235.584,181.728 235.224,185.04 
	227.448,184.104 223.848,213.12 "/>
<polygon fill="#FFFFFF" points="234.792,214.848 242.136,183.024 245.736,183.888 238.392,215.712 "/>
<polygon fill="#FFFFFF" points="244.224,216.864 254.304,185.832 269.712,190.8 268.704,194.04 256.68,190.152 253.44,200.088 
	264.672,203.76 263.664,206.928 252.432,203.256 248.76,214.704 260.856,218.592 259.776,221.904 "/>
<polygon fill="#FFFFFF" points="264.456,223.776 279.288,194.688 283.68,196.92 281.016,227.016 293.4,201.888 296.568,203.472 
	281.736,232.56 277.56,230.472 280.44,199.512 267.624,225.36 "/>
<polygon fill="#FFFFFF" points="286.416,235.872 305.136,209.088 309.096,211.896 302.328,241.344 318.096,218.232 320.976,220.248 
	302.256,246.96 298.44,244.296 305.568,214.056 289.296,237.888 "/>
<polygon fill="#FFFFFF" points="306.432,250.992 329.904,228.312 341.208,239.976 338.76,242.352 329.976,233.28 322.416,240.552 
	330.624,249.048 328.248,251.352 320.04,242.856 311.4,251.208 320.256,260.352 317.808,262.728 "/>
<polygon fill="#FFFFFF" points="150.696,536.688 158.976,505.152 162.504,506.088 155.088,534.24 167.688,537.552 166.824,540.936 
	"/>
<path fill="#FFFFFF" d="M178.848,526.68c-0.72,5.184-0.72,8.856,0,11.016c0.792,2.088,2.304,3.312,4.752,3.672
	c2.448,0.288,4.32-0.432,5.544-2.232c1.224-1.8,2.232-5.4,2.88-10.656c0.72-5.328,0.72-9,0-11.016
	c-0.72-2.088-2.304-3.312-4.752-3.6c-2.448-0.36-4.248,0.432-5.544,2.304C180.504,517.968,179.496,521.496,178.848,526.68
	L178.848,526.68z M175.104,526.176c0.792-5.976,2.16-10.224,4.176-12.672c1.944-2.376,4.752-3.384,8.424-2.88s6.12,2.16,7.416,4.968
	c1.296,2.808,1.512,7.272,0.72,13.392c-0.864,6.048-2.232,10.296-4.176,12.672c-1.944,2.376-4.752,3.384-8.496,2.88
	c-3.6-0.504-6.048-2.16-7.344-5.04S174.312,532.152,175.104,526.176z"/>
<polygon fill="#FFFFFF" points="202.824,544.968 203.184,512.352 206.856,512.424 206.424,545.04 "/>
<path fill="#FFFFFF" d="M218.376,527.256l4.392-0.648c2.52-0.36,4.392-1.152,5.472-2.232c1.08-1.152,1.512-2.808,1.296-4.824
	c-0.216-2.016-0.936-3.312-2.088-4.104c-1.152-0.72-2.88-0.936-5.256-0.576l-5.112,0.72L218.376,527.256L218.376,527.256z
	 M216.72,545.256l-3.528-32.328l9.144-1.296c3.384-0.504,5.904-0.144,7.704,0.936c1.8,1.152,2.808,3.096,3.096,5.904
	c0.288,2.16-0.072,3.96-0.864,5.4c-0.864,1.44-2.304,2.592-4.32,3.384c1.872-0.072,3.24,0.288,4.248,1.152
	c1.008,0.864,1.728,2.376,2.16,4.464c0.144,0.72,0.36,1.8,0.576,3.168c0.648,3.528,1.44,5.616,2.448,6.192l-4.536,0.648
	c-0.504-0.648-1.008-2.376-1.44-5.112c-0.216-1.368-0.36-2.448-0.576-3.24c-0.432-2.232-1.152-3.672-2.232-4.32
	c-1.008-0.648-2.808-0.864-5.256-0.504l-4.608,0.72l1.512,14.328L216.72,545.256z"/>
<polygon fill="#FFFFFF" points="244.944,541.008 236.52,509.616 252.144,505.152 253.008,508.464 240.84,511.92 243.576,522 
	254.952,518.76 255.816,521.928 244.44,525.168 247.536,536.688 259.776,533.232 260.712,536.544 "/>
<polygon fill="#009EE0" points="204.984,7.56 225.792,71.568 291.744,71.856 238.68,111.096 259.056,174.168 204.984,135.144 
	150.912,174.168 171.288,111.096 118.224,71.856 184.176,71.568 "/>
<polygon fill="#FFFFFF" points="204.984,15.048 224.064,73.872 284.76,74.16 236.016,110.232 254.664,168.12 204.984,132.264 
	155.304,168.12 174.024,110.232 125.208,74.16 185.904,73.872 "/>
<polygon fill="#E2001A" points="204.984,30.096 220.68,78.552 270.72,78.696 230.544,108.432 245.88,156.024 204.984,126.576 
	164.088,156.024 179.424,108.432 139.248,78.696 189.288,78.552 "/>
<polygon fill="#FFFFFF" points="204.984,37.656 219.024,80.856 263.664,81 227.808,107.568 241.488,150.048 204.984,123.696 
	168.48,150.048 182.16,107.568 146.304,81 190.944,80.856 "/>
<path fill="#FFFFFF" d="M116.928,458.064c-26.064-23.832-42.48-58.176-42.48-96.192c0-37.944,16.416-72.288,42.48-96.12v62.208
	h-16.56v67.896h16.56V458.064z"/>
<path fill="#FFFFFF" d="M152.136,327.96v-85.32c11.016-4.896,22.896-8.352,35.28-10.008v95.328H152.136z"/>
<path fill="#FFFFFF" d="M187.416,491.256c-12.384-1.656-24.264-5.112-35.28-10.008v-85.392h35.28V491.256z"/>
<path fill="#FFFFFF" d="M293.04,265.824c26.064,23.76,42.48,58.104,42.48,96.048c0,38.016-16.416,72.288-42.48,96.192v-62.208h16.56
	V327.96h-16.56V265.824z"/>
<path fill="#FFFFFF" d="M257.832,395.856v85.392c-11.016,4.896-22.896,8.352-35.28,10.008v-95.4H257.832z"/>
<path fill="#FFFFFF" d="M222.552,232.632c12.384,1.656,24.264,5.112,35.28,10.008v85.32h-35.28V232.632z"/>
</svg>
