<?xml version="1.0" encoding="utf-8"?>
<!-- Generator: Adobe Illustrator 12.0.0, SVG Export Plug-In . SVG Version: 6.00 Build 51448)  -->
<!DOCTYPE svg PUBLIC "-//W3C//DTD SVG 1.1//EN" "http://www.w3.org/Graphics/SVG/1.1/DTD/svg11.dtd" [
	<!ENTITY ns_svg "http://www.w3.org/2000/svg">
	<!ENTITY ns_xlink "http://www.w3.org/1999/xlink">
]>
<svg  version="1.1" id="Layer_1" xmlns="&ns_svg;" xmlns:xlink="&ns_xlink;" width="185.481" height="268"
	 viewBox="0 0 185.481 268" overflow="visible" enable-background="new 0 0 185.481 268" xml:space="preserve">
<path fill="#917847" d="M0,0v177.205c0,34.418,47.759,56.485,92.74,69.989c44.981-13.503,92.74-35.571,92.74-69.989l0-177.205H0z"/>
<rect x="5.929" y="85.245" fill="#D60025" width="60.134" height="44.285"/>
<rect x="119.417" y="85.245" fill="#D60025" width="60.135" height="44.286"/>
<path fill="#D60025" d="M6.254,181.569h59.808v50.186c-13.206-5.229-24.356-10.805-33.311-16.672
	C16.887,204.688,8,193.434,6.254,181.569z"/>
<path fill="#FFFFFF" d="M69.521,233.095V178.11H5.948c-0.009-0.302-0.019-0.603-0.019-0.906v-44.217h63.592V85.245h46.438v47.743
	h63.593v44.217c0,0.303-0.009,0.604-0.019,0.906h-63.575v54.985c-7.175,2.735-14.913,5.374-23.218,7.905
	C84.436,238.469,76.697,235.831,69.521,233.095z"/>
<path fill="#D60025" d="M152.729,215.083c-8.955,5.867-20.105,11.442-33.31,16.671l-0.001-50.187h59.809
	C177.481,193.433,168.594,204.688,152.729,215.083z"/>
<path fill="#FFFFFF" d="M36.288,41.967h-4.461v-2.872h11.828v2.872h-4.508v15.921h-2.858V41.967z"/>
<path fill="#FFFFFF" d="M54.691,39.095v7.528h6.623v-7.528h2.858v18.792h-2.858v-8.281h-6.623v8.281h-2.858V39.095H54.691z"/>
<path fill="#FFFFFF" d="M87.687,48.296c0,6.302-3.184,9.898-7.506,9.898c-4.416,0-7.204-4.043-7.204-9.563
	c0-5.772,3.021-9.843,7.437-9.843C84.992,38.788,87.687,42.943,87.687,48.296z M75.998,48.575c0,3.82,1.604,6.887,4.346,6.887
	c2.765,0,4.322-3.095,4.322-7.026c0-3.541-1.464-6.915-4.322-6.915C77.509,41.521,75.998,44.699,75.998,48.575z"/>
<path fill="#FFFFFF" d="M96.493,57.887V39.095h3.252l4.044,8.058c1.046,2.091,1.953,4.266,2.672,6.302h0.048
	c-0.187-2.51-0.256-4.935-0.256-7.807v-6.552h2.649v18.792h-2.951l-4.09-8.281c-1-2.035-2.045-4.349-2.812-6.469l-0.071,0.028
	c0.117,2.426,0.14,4.907,0.14,8.002v6.719H96.493z"/>
<path fill="#FFFFFF" d="M132.44,48.296c0,6.302-3.184,9.898-7.507,9.898c-4.416,0-7.203-4.043-7.203-9.563
	c0-5.772,3.021-9.843,7.436-9.843C129.744,38.788,132.44,42.943,132.44,48.296z M120.75,48.575c0,3.82,1.603,6.887,4.346,6.887
	c2.765,0,4.322-3.095,4.322-7.026c0-3.541-1.464-6.915-4.322-6.915C122.261,41.521,120.75,44.699,120.75,48.575z"/>
<path fill="#FFFFFF" d="M141.245,57.887V39.095h3.252l4.044,8.058c1.046,2.091,1.953,4.266,2.672,6.302h0.047
	c-0.187-2.51-0.256-4.935-0.256-7.807v-6.552h2.649v18.792h-2.952l-4.09-8.281c-1-2.035-2.044-4.349-2.811-6.469l-0.071,0.028
	c0.117,2.426,0.14,4.907,0.14,8.002v6.719H141.245z"/>
<path fill="#FFFFFF" d="M34.245,79.127c-0.999,0.446-2.951,1.059-5.043,1.059c-2.649,0-4.647-0.809-6.135-2.509
	c-1.395-1.589-2.208-4.071-2.185-6.915c0-5.938,3.532-9.758,8.714-9.758c1.929,0,3.44,0.474,4.16,0.892l-0.627,2.76
	c-0.86-0.446-1.905-0.809-3.555-0.809c-3.346,0-5.694,2.37-5.694,6.748c0,4.266,2.185,6.803,5.438,6.803
	c1.022,0,1.789-0.167,2.161-0.391v-4.684h-2.766v-2.705h5.531V79.127z"/>
<path fill="#FFFFFF" d="M46.326,74.666l-1.348,5.325h-2.951l5.02-18.792h3.649l5.089,18.792h-3.067l-1.418-5.325H46.326z
	 M50.812,72.072l-1.232-4.628c-0.302-1.144-0.558-2.426-0.79-3.513h-0.047c-0.232,1.087-0.464,2.397-0.744,3.513l-1.208,4.628
	H50.812z"/>
<path fill="#FFFFFF" d="M66.843,61.199v18.792h-2.858V61.199H66.843z"/>
<polygon fill="#FFFFFF" points="83.992,77.119 78.996,77.119 78.996,61.199 76.137,61.199 76.137,79.991 85.433,79.991 
	85.433,77.119 85.433,74.037 83.992,74.037 "/>
<polygon fill="#FFFFFF" points="101.466,77.119 96.47,77.119 96.47,61.199 93.611,61.199 93.611,79.991 102.907,79.991 
	102.907,77.119 102.907,74.037 101.466,74.037 "/>
<path fill="#FFFFFF" d="M114.314,74.666l-1.348,5.325h-2.951l5.02-18.792h3.648l5.089,18.792h-3.067l-1.418-5.325H114.314z
	 M118.799,72.072l-1.232-4.628c-0.301-1.144-0.558-2.426-0.79-3.513h-0.047c-0.232,1.087-0.465,2.397-0.744,3.513l-1.208,4.628
	H118.799z"/>
<path fill="#FFFFFF" d="M131.973,61.449c1.069-0.223,2.672-0.39,4.322-0.39c2.254,0,3.788,0.446,4.833,1.505
	c0.86,0.865,1.348,2.175,1.348,3.764c0,2.426-1.371,4.071-2.835,4.712v0.083c1.115,0.502,1.79,1.813,2.185,3.625
	c0.488,2.342,0.906,4.517,1.231,5.242h-2.951c-0.233-0.558-0.605-2.091-1.046-4.433c-0.442-2.454-1.185-3.234-2.812-3.29h-1.441
	v7.723h-2.835V61.449z M134.808,69.758h1.696c1.929,0,3.137-1.227,3.137-3.095c0-2.063-1.208-3.011-3.067-3.011
	c-0.906,0-1.488,0.083-1.767,0.167V69.758z"/>
<path fill="#FFFFFF" d="M151.213,61.449c1.255-0.25,2.858-0.39,4.555-0.39c2.928,0,4.95,0.725,6.391,2.175
	c1.51,1.478,2.44,3.708,2.44,6.915c0,3.346-0.953,5.855-2.44,7.473c-1.557,1.701-4.043,2.565-7.087,2.565
	c-1.673,0-2.929-0.111-3.858-0.251V61.449z M154.071,77.37c0.395,0.084,1,0.084,1.581,0.084c3.718,0.028,5.926-2.426,5.926-7.193
	c0.023-4.154-1.976-6.525-5.555-6.525c-0.906,0-1.557,0.084-1.952,0.196V77.37z"/>
<path fill="#FFFFFF" d="M57.923,32.07c-4.017,0-5.24-1.768-5.734-6.167h14.645c0-7.466-2.942-12.309-8.946-12.309
	c-6.878,0-9.98,5.206-9.98,11.744c0,6.094,3.458,10.1,9.88,10.1c7.023,0,9.046-4.303,9.046-4.303v-3.671
	C66.834,27.464,63.698,32.07,57.923,32.07z M57.411,16.783c3.925,0,5.376,2.576,5.734,5.542H51.696
	C52.049,19.359,54.44,16.783,57.411,16.783z"/>
<path fill="#FFFFFF" d="M82.978,14.2h3.817l-7.913,21.106h-3.738L67.551,14.2h4.056l5.408,17.192h0.08L82.978,14.2z"/>
<path fill="#FFFFFF" d="M89.778,13.219V9.183h3.5v4.036H89.778z M93.278,35.306h-3.5V14.2h3.5V35.306z"/>
<path fill="#FFFFFF" d="M98.406,20.616c0.159-5.045,3.46-7.022,8.59-7.022c1.67,0,7.713,0.484,7.713,5.892v12.147
	c0,0.887,0.438,1.25,1.153,1.25c0.318,0,0.756-0.08,1.153-0.161v2.583c-0.597,0.161-1.114,0.404-1.909,0.404
	c-3.102,0-3.578-1.614-3.698-3.228c-1.352,1.493-3.458,3.43-7.515,3.43c-3.816,0-6.521-2.462-6.521-6.094
	c0-1.775,0.516-5.892,6.321-6.618l5.766-0.727c0.835-0.081,1.829-0.404,1.829-2.502c0-2.219-1.591-3.43-4.89-3.43
	c-3.977,0-4.533,2.462-4.772,4.076H98.406z M111.211,24.531c-0.557,0.444-1.432,0.767-5.765,1.332
	c-1.71,0.242-4.455,0.766-4.455,3.43c0,2.3,1.154,3.673,3.777,3.673c3.261,0,6.443-2.139,6.443-4.964V24.531z"/>
<path fill="#FFFFFF" d="M137.573,35.306h-3.5V23.063c0-3.672-1.032-5.529-4.452-5.529c-1.989,0-5.487,1.292-5.487,7.022v10.75h-3.5
	V14.2h3.301l0.08,2.894l0,0c0.755-1.13,2.703-2.894,6.281-2.894c3.221,0,7.277,1.478,7.277,7.491V35.306z"/>
<polygon fill="#917847" points="17.038,162.208 19.699,162.208 19.699,156.556 25.066,156.556 25.066,154.561 19.699,154.561 
	19.699,150.885 25.456,150.885 25.456,148.89 17.038,148.89 "/>
<path fill="#917847" d="M34.219,148.672c-4.112,0-6.925,2.885-6.925,6.975c0,3.914,2.597,6.778,6.708,6.778
	c4.025,0,6.99-2.549,6.99-7.015C40.992,151.617,38.482,148.672,34.219,148.672z M34.154,160.489c-2.554,0-4.047-2.173-4.047-4.88
	c0-2.747,1.407-5,4.047-5c2.662,0,4.025,2.391,4.025,4.9C38.179,158.296,36.729,160.489,34.154,160.489z"/>
<path fill="#917847" d="M49.453,148.672c-4.112,0-6.925,2.885-6.925,6.975c0,3.914,2.597,6.778,6.708,6.778
	c4.025,0,6.99-2.549,6.99-7.015C56.226,151.617,53.716,148.672,49.453,148.672z M49.388,160.489c-2.554,0-4.047-2.173-4.047-4.88
	c0-2.747,1.407-5,4.047-5c2.662,0,4.025,2.391,4.025,4.9C53.413,158.296,51.963,160.489,49.388,160.489z"/>
<polygon fill="#917847" points="56.571,150.925 60.726,150.925 60.726,162.208 63.388,162.208 63.388,150.925 67.586,150.925 
	67.586,148.89 56.571,148.89 "/>
<path fill="#917847" d="M76.436,155.055v-0.04c1.58-0.533,2.424-1.66,2.424-2.885c0-1.126-0.606-1.996-1.515-2.489
	c-0.996-0.632-2.208-0.85-4.177-0.85c-1.493,0-3.03,0.119-3.874,0.277v13.102c0.671,0.079,1.796,0.178,3.268,0.178
	c2.662,0,4.371-0.415,5.41-1.245c0.844-0.632,1.406-1.561,1.406-2.747C79.379,156.517,77.973,155.411,76.436,155.055z
	 M71.935,150.688c0.281-0.059,0.736-0.1,1.515-0.1c1.688,0,2.727,0.574,2.727,1.818c0,1.126-1.039,1.917-2.878,1.917h-1.363V150.688
	z M73.342,160.508c-0.606,0-1.061,0-1.407-0.059v-4.347h1.32c1.839,0,3.311,0.632,3.311,2.174
	C76.566,159.916,75.051,160.508,73.342,160.508z"/>
<path fill="#917847" d="M85.286,148.89l-4.675,13.318h2.749l1.255-3.774h4.631l1.32,3.774h2.857l-4.739-13.318H85.286z
	 M85.048,156.596l1.125-3.28c0.26-0.791,0.476-1.72,0.693-2.49h0.043c0.216,0.771,0.454,1.68,0.735,2.49l1.147,3.28H85.048z"/>
<path fill="#917847" d="M128.412,150.688c1.212,0,2.164,0.237,2.856,0.514l0.584-1.937c-0.54-0.256-1.796-0.592-3.548-0.592
	c-4.458,0-7.792,2.647-7.792,7.035c0,4.05,2.813,6.718,7.444,6.718c1.754,0,3.138-0.316,3.766-0.612l-0.433-1.917
	c-0.692,0.297-1.817,0.494-2.899,0.494c-3.204,0-5.086-1.877-5.086-4.802C123.304,152.387,125.446,150.688,128.412,150.688z"/>
<path fill="#917847" d="M152.646,156.655c0,2.609-1.146,3.814-3.072,3.814c-1.796,0-2.986-1.206-2.986-3.814v-7.766h-2.662v7.627
	c0,4.189,2.186,5.908,5.561,5.908c3.506,0,5.821-1.817,5.821-5.928v-7.607h-2.662V156.655z"/>
<path fill="#917847" d="M165.5,155.055v-0.04c1.58-0.533,2.424-1.66,2.424-2.885c0-1.126-0.605-1.996-1.515-2.489
	c-0.996-0.632-2.208-0.85-4.176-0.85c-1.494,0-3.03,0.119-3.874,0.277v13.102c0.67,0.079,1.796,0.178,3.268,0.178
	c2.662,0,4.372-0.415,5.41-1.245c0.844-0.632,1.406-1.561,1.406-2.747C168.443,156.517,167.037,155.411,165.5,155.055z
	 M160.999,150.688c0.282-0.059,0.736-0.1,1.514-0.1c1.688,0,2.728,0.574,2.728,1.818c0,1.126-1.04,1.917-2.878,1.917h-1.364V150.688
	z M162.405,160.508c-0.606,0-1.06,0-1.406-0.059v-4.347h1.32c1.839,0,3.311,0.632,3.311,2.174
	C165.63,159.916,164.115,160.508,162.405,160.508z"/>
<polygon fill="#917847" points="104.107,157.988 102.767,157.988 102.767,160.173 98.118,160.173 98.118,148.89 95.456,148.89 
	95.456,162.208 104.107,162.208 104.112,162.208 104.112,160.173 104.107,160.173 "/>
<polygon fill="#917847" points="113.438,160.173 108.786,160.173 108.786,148.89 106.124,148.89 106.124,162.208 114.78,162.208 
	114.78,160.173 114.78,157.988 113.438,157.988 "/>
<polygon fill="#917847" points="141.309,160.173 136.655,160.173 136.655,148.89 133.993,148.89 133.993,162.208 142.65,162.208 
	142.65,160.173 142.65,157.988 141.309,157.988 "/>
<path fill="#917847" d="M18.886,240.87c-0.738-0.157-2.146-0.795-3.667-1.948c-4.016-3.046-4.709-7.198-2.057-10.695
	c2.872-3.787,7.495-3.88,11.361-0.949c1.52,1.153,2.389,2.268,2.69,2.846l-1.774,1.287c-0.419-0.694-1.09-1.524-2.141-2.322
	c-2.571-1.95-5.541-1.893-7.637,0.871c-1.915,2.524-1.511,5.383,1.267,7.49c0.938,0.711,2.043,1.281,2.838,1.48L18.886,240.87z"/>
<path fill="#917847" d="M28.854,230.965c1.002,0.444,2.437,1.219,3.84,2.128c1.917,1.242,3.036,2.374,3.484,3.632
	c0.371,1.031,0.239,2.144-0.425,3.168c-1.013,1.564-2.866,1.87-4.379,1.477l-0.035,0.053c0.739,0.938,0.765,2.154,0.345,3.54
	c-0.563,1.778-1.114,3.41-1.14,4.056l-2.511-1.625c0.035-0.487,0.358-1.681,0.961-3.433c0.649-1.825,0.342-2.738-1.019-3.67
	l-1.226-0.793l-3.224,4.978l-2.412-1.561L28.854,230.965z M27.798,237.881l1.443,0.934c1.641,1.062,3.181,0.937,3.961-0.268
	c0.861-1.33,0.229-2.606-1.353-3.63c-0.771-0.5-1.3-0.765-1.573-0.865L27.798,237.881z"/>
<path fill="#917847" d="M48.876,250.477c-2.238,4.289-6.375,5.244-10.258,3.217c-3.966-2.07-5.036-6.129-3.076-9.886
	c2.05-3.929,6.209-5.283,10.176-3.213C49.83,242.742,50.777,246.833,48.876,250.477z M38.276,245.187
	c-1.356,2.599-1.005,5.439,1.458,6.724c2.484,1.297,4.982-0.08,6.378-2.755c1.258-2.41,1.14-5.393-1.427-6.733
	C42.138,241.093,39.652,242.548,38.276,245.187z"/>
<path fill="#917847" d="M56.643,245.935l-5.603,13.298l-2.669-1.125l5.603-13.298L56.643,245.935z"/>
<path fill="#917847" d="M62.732,263.404l-0.741-3.262c-0.303-1.27-0.488-2.142-0.653-3.074l-0.067-0.021
	c-0.618,0.676-1.261,1.276-2.211,2.136l-2.393,2.235l-3.156-1.033l6.749-5.472l-2.079-8.181l3.156,1.033l0.708,3.363
	c0.213,1.016,0.351,1.804,0.5,2.709l0.045,0.014c0.683-0.722,1.196-1.23,1.939-1.91l2.538-2.3l3.156,1.033l-6.603,5.25l2.29,8.521
	L62.732,263.404z"/>
<path fill="#917847" d="M75.898,252.212c1.286-0.033,2.912,0.064,4.618,0.28c2.945,0.371,4.908,1.179,6.218,2.466
	c1.377,1.316,2.098,3.134,1.791,5.577c-0.321,2.548-1.52,4.339-3.17,5.382c-1.729,1.098-4.312,1.441-7.374,1.055
	c-1.683-0.211-2.934-0.456-3.855-0.68L75.898,252.212z M77.246,264.701c0.389,0.114,0.997,0.19,1.581,0.264
	c3.737,0.493,6.192-1.097,6.649-4.729c0.422-3.161-1.36-5.22-4.959-5.673c-0.911-0.115-1.573-0.133-1.981-0.099L77.246,264.701z"/>
<path fill="#917847" d="M99.925,261.333l-5.979,0.181l0.127,4.237l6.685-0.203l0.065,2.161L91.242,268l-0.433-14.423l9.228-0.28
	l0.064,2.162l-6.332,0.192l0.112,3.723l5.979-0.181L99.925,261.333z"/>
<path fill="#917847" d="M108.804,263.777c1.023,0.285,2.495,0.411,3.947,0.102c1.819-0.386,2.668-1.376,2.423-2.528
	c-0.227-1.067-1.144-1.529-3.263-1.757c-2.735-0.294-4.634-1.182-5.065-3.213c-0.49-2.303,1.256-4.512,4.619-5.227
	c1.681-0.357,2.997-0.287,3.883-0.081l-0.25,2.219c-0.61-0.155-1.778-0.322-3.229-0.014c-1.797,0.382-2.394,1.428-2.22,2.244
	c0.232,1.089,1.237,1.4,3.466,1.693c2.891,0.349,4.468,1.305,4.899,3.335c0.481,2.261-0.985,4.651-4.994,5.503
	c-1.635,0.347-3.434,0.271-4.384-0.009L108.804,263.777z"/>
<path fill="#917847" d="M123.927,258.743l0.048,4.312l-2.826,0.978l0.084-15.3l3.495-1.209l9.595,11.951l-2.938,1.017l-2.696-3.395
	L123.927,258.743z M127.571,255.375l-2.342-2.951c-0.577-0.729-1.144-1.575-1.64-2.287l-0.044,0.016
	c0.051,0.866,0.158,1.894,0.17,2.795l0.006,3.759L127.571,255.375z"/>
<path fill="#917847" d="M139.078,257.24l-10.755-10.904l2.859-1.335l4.733,5.021c1.325,1.39,2.51,2.703,3.637,4.114l0.042-0.02
	c-0.34-1.731-0.571-3.561-0.737-5.42l-0.698-6.951l2.795-1.305l1.132,15.396L139.078,257.24z"/>
<path fill="#917847" d="M157.431,238.824c2.483,4.152,1.131,8.178-2.628,10.425c-3.84,2.295-7.859,1.081-10.034-2.557
	c-2.274-3.803-1.25-8.056,2.59-10.351C151.34,233.961,155.322,235.297,157.431,238.824z M147.374,245.085
	c1.505,2.518,4.108,3.705,6.493,2.279c2.405-1.438,2.54-4.286,0.991-6.877c-1.395-2.333-3.998-3.795-6.484-2.31
	C145.909,239.651,145.847,242.531,147.374,245.085z"/>
<path fill="#917847" d="M157.778,229.847l8.204,11.869l-2.382,1.646l-8.205-11.868L157.778,229.847z"/>
<path fill="#917847" d="M172.15,229.131l-4.749,3.635l2.577,3.366l5.31-4.065l1.314,1.717l-7.609,5.825l-8.773-11.456l7.329-5.61
	l1.315,1.717l-5.029,3.85l2.265,2.958l4.748-3.636L172.15,229.131z"/>
</svg>
