<?xml version="1.0" encoding="utf-8"?>
<!-- Generator: Adobe Illustrator 13.0.2, SVG Export Plug-In . SVG Version: 6.00 Build 14948)  -->
<!DOCTYPE svg PUBLIC "-//W3C//DTD SVG 1.0//EN" "http://www.w3.org/TR/2001/REC-SVG-20010904/DTD/svg10.dtd">
<svg version="1.0" id="Calque_1" xmlns="http://www.w3.org/2000/svg" xmlns:xlink="http://www.w3.org/1999/xlink" x="0px" y="0px"
	 width="566px" height="555.25px" viewBox="0 0 566 555.25" enable-background="new 0 0 566 555.25" xml:space="preserve">
<linearGradient id="SVGID_1_" gradientUnits="userSpaceOnUse" x1="38.4272" y1="304.8511" x2="539.2246" y2="304.8511">
	<stop  offset="0.05" style="stop-color:#666666"/>
	<stop  offset="0.0781" style="stop-color:#6C6C6C"/>
	<stop  offset="0.1148" style="stop-color:#7C7C7C"/>
	<stop  offset="0.1563" style="stop-color:#979797"/>
	<stop  offset="0.2014" style="stop-color:#BDBDBD"/>
	<stop  offset="0.2489" style="stop-color:#EDEDED"/>
	<stop  offset="0.265" style="stop-color:#FFFFFF"/>
	<stop  offset="0.2916" style="stop-color:#E7E7E7"/>
	<stop  offset="0.3402" style="stop-color:#C2C2C2"/>
	<stop  offset="0.3888" style="stop-color:#A5A5A5"/>
	<stop  offset="0.437" style="stop-color:#919191"/>
	<stop  offset="0.4843" style="stop-color:#848484"/>
	<stop  offset="0.53" style="stop-color:#808080"/>
	<stop  offset="0.5717" style="stop-color:#929292"/>
	<stop  offset="0.6558" style="stop-color:#C2C2C2"/>
	<stop  offset="0.75" style="stop-color:#FFFFFF"/>
	<stop  offset="1" style="stop-color:#666666"/>
</linearGradient>
<path fill="url(#SVGID_1_)" d="M288.835,54.453c-138.293,0-250.408,112.105-250.408,250.392
	c0,138.304,112.114,250.404,250.408,250.404c138.284,0,250.39-112.101,250.39-250.404
	C539.225,166.558,427.119,54.453,288.835,54.453z"/>
<path fill="#FFFFFF" d="M288.83,508.709c-112.597,0-203.863-91.265-203.863-203.868c0-112.577,91.266-203.849,203.863-203.849
	c112.582,0,203.855,91.272,203.855,203.849C492.686,417.445,401.412,508.709,288.83,508.709z"/>
<path fill="#CCCCCC" d="M94.397,420.329c-22.892-36.755-32.468-82.482-30.528-128.881c4.08-96.702,69.483-176.567,157.074-203.642
	l-1.845-4.104C130.019,111.514,63.585,192.84,59.45,291.261c-2.02,47.598,7.96,94.412,31.525,132.007L94.397,420.329"/>
<path fill="#CCCCCC" d="M372.52,94.84l-1.877,4.04c85.569,34.026,144.574,119.388,140.519,216.454
	c-1.648,39.187-13.396,75.585-32.548,106.841l3.62,2.582c19.62-31.953,31.676-69.166,33.387-109.217
	C519.779,216.596,459.683,129.614,372.52,94.84"/>
<path d="M250.671,69.798l4.229,24.507l-8.459,1.438l-2.756-15.996c-1.196,1.045-2.416,1.94-3.612,2.67
	c-1.18,0.748-2.693,1.493-4.57,2.273l-0.903-5.426c2.725-1.195,4.768-2.483,6.139-3.79c1.417-1.307,2.416-2.824,3.026-4.487
	L250.671,69.798"/>
<path d="M264.469,87.447l8.356-1.208c0.277,0.907,0.681,1.572,1.236,1.912c0.57,0.381,1.22,0.551,1.988,0.495
	c1.37-0.063,2.408-0.665,3.152-1.802c0.507-0.852,0.871-2.563,0.998-5.196c-0.966,0.868-2.004,1.541-3.058,1.976
	c-1.045,0.448-2.265,0.702-3.683,0.765c-2.716,0.139-5.062-0.519-7.05-2.012c-1.94-1.461-2.978-3.374-3.112-5.767
	c-0.072-1.616,0.34-3.133,1.203-4.511c0.912-1.386,2.187-2.467,3.819-3.228c1.647-0.768,3.77-1.216,6.313-1.338
	c3.026-0.139,5.505,0.154,7.391,0.918c1.885,0.752,3.422,2.008,4.641,3.778c1.189,1.767,1.87,4.159,2.005,7.137
	c0.198,4.412-0.815,7.691-3.018,9.861c-2.227,2.15-5.379,3.327-9.553,3.529c-2.392,0.115-4.317-0.008-5.75-0.372
	c-1.418-0.364-2.614-0.975-3.596-1.774C265.769,89.799,265.039,88.729,264.469,87.447 M279.606,75.814
	c-0.063-1.322-0.539-2.36-1.41-3.073c-0.872-0.713-1.917-1.03-3.081-0.975c-1.149,0.047-2.092,0.44-2.805,1.168
	c-0.689,0.721-1.021,1.75-0.966,3.113c0.071,1.374,0.515,2.42,1.339,3.101c0.823,0.689,1.798,0.998,2.931,0.954
	c1.211-0.055,2.178-0.443,2.955-1.2C279.337,78.167,279.662,77.122,279.606,75.814z"/>
<path d="M298.695,67.624l20.049,1.442l-0.389,5.426l-13.576-0.979l-1.006,3.569c0.967-0.301,1.939-0.487,2.883-0.586
	c0.903-0.107,1.806-0.123,2.717-0.087c3.058,0.226,5.474,1.148,7.24,2.764c1.798,1.604,2.63,3.529,2.463,5.79
	c-0.103,1.592-0.721,3.066-1.821,4.44c-1.069,1.402-2.534,2.392-4.365,3.022c-1.877,0.642-4.158,0.835-6.97,0.642
	c-2.013-0.139-3.724-0.419-5.149-0.828c-1.401-0.38-2.565-0.93-3.548-1.627c-0.975-0.673-1.711-1.422-2.313-2.23
	c-0.53-0.832-1.005-1.818-1.346-2.994l8.594-0.139c0.127,1.136,0.539,2.003,1.268,2.642c0.736,0.642,1.624,0.998,2.686,1.049
	c1.156,0.087,2.193-0.194,2.993-0.859c0.841-0.633,1.315-1.695,1.379-3.117c0.143-1.469-0.206-2.586-0.95-3.315
	c-0.697-0.732-1.68-1.152-2.986-1.259c-0.833-0.031-1.601,0.047-2.385,0.325c-0.585,0.202-1.268,0.57-1.965,1.128l-7.168-1.347
	L298.695,67.624"/>
<path d="M346.261,73.43l-4.832,24.373l-8.396-1.627l3.152-15.949c-1.544,0.55-2.954,0.958-4.364,1.216
	c-1.378,0.245-3.089,0.432-5.069,0.479l1.069-5.366c2.994-0.167,5.347-0.642,7.129-1.347c1.767-0.741,3.247-1.794,4.429-3.109
	L346.261,73.43"/>
<polyline points="108.655,424.128 118.651,438.157 113.749,441.658 110.382,436.945 95.396,447.645 92.1,443.059 107.103,432.343 
	103.705,427.637 108.655,424.128 "/>
<path d="M127.982,449.151l3.691,4.285l-11.05,9.521c-1.101,0.951-2.202,1.688-3.39,2.28c-1.204,0.61-2.416,0.928-3.62,1.015
	c-1.172,0.063-2.179-0.024-3.018-0.404c-1.149-0.467-2.226-1.299-3.224-2.471c-0.578-0.634-1.132-1.458-1.719-2.361
	c-0.57-0.935-0.903-1.79-0.966-2.645c-0.095-0.896,0-1.831,0.301-2.892c0.309-0.999,0.769-1.948,1.37-2.733
	c0.951-1.298,1.893-2.329,2.797-3.104l10.994-9.537l3.738,4.285l-11.311,9.759c-1.006,0.863-1.647,1.75-1.845,2.661
	c-0.191,0.912,0.031,1.751,0.704,2.487c0.634,0.769,1.403,1.085,2.313,1.006c0.935-0.039,1.917-0.521,2.947-1.394L127.982,449.151"
	/>
<path d="M117.305,473.714l16.919-17.656l6.812,6.504c1.244,1.211,2.115,2.272,2.472,3.207c0.38,0.936,0.451,1.972,0.103,3.152
	c-0.333,1.188-1.069,2.329-2.138,3.478c-0.951,0.951-1.885,1.656-2.899,2.083c-0.958,0.396-1.933,0.546-2.947,0.476
	c-0.602-0.063-1.275-0.276-2.067-0.666c0.254,0.697,0.436,1.236,0.46,1.695c0,0.27-0.08,0.785-0.27,1.545
	c-0.134,0.737-0.341,1.3-0.468,1.641l-2.955,7.018l-4.602-4.437l2.986-7.493c0.404-0.95,0.603-1.646,0.547-2.06
	c0-0.554-0.206-0.997-0.578-1.346l-0.364-0.334l-6.844,7.146L117.305,473.714 M131.531,467.116l1.688,1.664
	c0.19,0.158,0.634,0.428,1.299,0.775c0.372,0.19,0.744,0.206,1.18,0.079c0.459-0.126,0.871-0.396,1.204-0.775
	c0.547-0.563,0.871-1.126,0.871-1.68c0-0.563-0.324-1.18-1.069-1.878l-1.774-1.71L131.531,467.116z"/>
<path d="M140.054,478.434c2.487-3.16,5.077-5.045,7.794-5.773c2.685-0.713,5.164-0.127,7.517,1.734
	c2.408,1.893,3.557,4.19,3.533,6.963c-0.079,2.709-1.322,5.647-3.802,8.744c-1.75,2.233-3.493,3.857-5.172,4.848
	c-1.743,0.982-3.414,1.441-5.165,1.41c-1.679-0.063-3.319-0.721-4.935-1.98c-1.608-1.267-2.725-2.685-3.184-4.229
	c-0.539-1.544-0.539-3.311,0-5.299C137.099,482.815,138.319,480.676,140.054,478.434 M144.49,481.992
	c-1.553,1.933-2.376,3.549-2.479,4.832c-0.143,1.267,0.27,2.28,1.196,3.009c0.942,0.753,2.028,0.936,3.231,0.516
	c1.133-0.421,2.623-1.695,4.286-3.834c1.457-1.814,2.218-3.374,2.321-4.634c0.103-1.282-0.301-2.281-1.236-3.033
	c-0.871-0.706-1.948-0.864-3.168-0.437C147.413,478.832,146.034,480.011,144.49,481.992z"/>
<polyline points="164.958,482.292 169.386,485.16 167.912,500.335 175.263,488.899 179.73,491.797 166.566,512.376 162.075,509.493 
	163.548,494.411 156.229,505.754 151.738,502.872 164.958,482.292 "/>
<path d="M176.641,504.147c1.807-3.573,3.961-5.981,6.448-7.185c2.519-1.229,5.093-1.188,7.747,0.205
	c2.716,1.378,4.341,3.422,4.792,6.115c0.483,2.678-0.127,5.814-1.933,9.315c-1.315,2.55-2.685,4.476-4.167,5.781
	c-1.473,1.315-3.058,2.108-4.737,2.393c-1.703,0.277-3.422-0.016-5.26-0.934c-1.814-0.967-3.161-2.123-3.96-3.534
	c-0.808-1.393-1.149-3.152-1.046-5.228C174.621,509.018,175.294,506.689,176.641,504.147 M181.671,506.721
	c-1.141,2.201-1.64,3.976-1.505,5.243c0.135,1.275,0.705,2.17,1.782,2.709c1.061,0.579,2.178,0.538,3.248-0.087
	c1.109-0.657,2.25-2.194,3.525-4.643c1.006-2.035,1.473-3.715,1.339-4.981c-0.159-1.268-0.76-2.193-1.814-2.741
	c-1.07-0.506-2.107-0.459-3.216,0.215C183.889,503.069,182.78,504.511,181.671,506.721z"/>
<path d="M192.951,525.771l8.927-22.742l8.792,3.47c1.608,0.634,2.796,1.315,3.485,2.004c0.737,0.713,1.141,1.68,1.275,2.875
	c0.143,1.221-0.055,2.567-0.633,4.009c-0.499,1.26-1.141,2.265-1.917,3.034c-0.729,0.752-1.576,1.259-2.511,1.56
	c-0.61,0.19-1.307,0.254-2.187,0.175c0.499,0.53,0.88,0.997,1.046,1.41c0.095,0.238,0.237,0.744,0.372,1.513
	c0.135,0.744,0.198,1.314,0.158,1.703l-0.023,7.604l-5.98-2.361l-0.063-8.063c0-1.014-0.095-1.727-0.27-2.106
	c-0.237-0.5-0.609-0.864-1.085-1.03l-0.459-0.175l-3.628,9.221L192.951,525.771 M203.596,514.301l2.171,0.863
	c0.269,0.088,0.729,0.158,1.52,0.222c0.365,0.063,0.761-0.063,1.094-0.364c0.372-0.27,0.681-0.682,0.887-1.173
	c0.253-0.713,0.333-1.346,0.126-1.885c-0.206-0.49-0.768-0.967-1.742-1.323l-2.282-0.91L203.596,514.301z"/>
<path d="M231.344,513.288l5.434,1.56l-4.024,13.997c-0.404,1.387-0.942,2.646-1.616,3.826c-0.673,1.108-1.474,2.043-2.408,2.788
	c-0.974,0.713-1.877,1.156-2.749,1.313c-1.212,0.215-2.622,0.112-4.095-0.315c-0.84-0.262-1.75-0.579-2.693-1.046
	c-0.999-0.468-1.735-1.014-2.289-1.711c-0.595-0.649-0.998-1.506-1.331-2.559c-0.277-1.03-0.404-2.028-0.341-3.033
	c0.064-1.577,0.27-2.971,0.603-4.119l4.032-14.013l5.426,1.568l-4.087,14.337c-0.404,1.268-0.404,2.353-0.056,3.231
	c0.325,0.88,0.943,1.466,1.941,1.711c0.903,0.262,1.742,0.151,2.487-0.42c0.729-0.569,1.275-1.496,1.671-2.788L231.344,513.288"/>
<polyline points="240.136,515.696 247.526,516.971 247.764,532.116 253.087,517.968 260.477,519.251 256.247,543.323 
	251.645,542.524 254.869,524.139 248.12,541.907 244.033,541.176 243.685,522.183 240.508,540.56 235.898,539.767 240.136,515.696 
	"/>
<path d="M284.438,535.141l4.895,2.154c-0.355,1.854-0.935,3.375-1.671,4.611c-0.808,1.219-1.68,2.137-2.788,2.724
	c-1.109,0.603-2.456,0.888-4.096,0.84c-1.98-0.07-3.588-0.507-4.831-1.314c-1.244-0.815-2.313-2.203-3.153-4.19
	c-0.871-1.965-1.243-4.476-1.172-7.493c0.135-4.057,1.038-7.152,2.678-9.276c1.679-2.123,4.032-3.145,6.994-3.041
	c2.313,0.063,4.087,0.745,5.37,2.005c1.26,1.298,2.203,3.239,2.773,5.853l-5.063,1.331c-0.135-0.729-0.301-1.3-0.514-1.633
	c-0.302-0.608-0.634-1.077-1.093-1.378c-0.436-0.349-0.951-0.507-1.474-0.522c-1.283-0.055-2.297,0.626-3.034,1.98
	c-0.539,1.007-0.84,2.613-0.911,4.809c-0.056,2.708,0.182,4.586,0.784,5.6c0.531,1.054,1.41,1.568,2.543,1.6
	c1.077,0.049,1.885-0.349,2.447-1.133C283.701,537.85,284.169,536.654,284.438,535.141"/>
<polyline points="292.89,520.614 298.593,520.384 299.606,544.821 293.872,545.034 292.89,520.614 "/>
<polyline points="300.883,520.464 306.76,519.838 312.827,536.868 314.974,518.951 320.677,518.301 316.55,543.356 310.419,544.028 
	300.883,520.464 "/>
<polyline points="322.768,517.779 328.399,516.725 332.731,540.781 327.132,541.811 322.768,517.779 "/>
<polyline points="331.148,516.322 347.869,512.139 349.352,517.968 343.774,519.379 348.226,537.256 342.76,538.626 
	338.269,520.772 332.629,522.183 331.148,516.322 "/>
<path d="M365.882,527.561l-6.027,2.083l0.427,4.088l-5.505,1.893l-1.378-25.371l5.948-2.028l14.354,20.937l-5.625,1.924
	L365.882,527.561 M363.03,522.959l-4.689-7.684l0.927,8.967L363.03,522.959z"/>
<path d="M373.098,520.63l4.737-2.615c0.562,1.016,1.148,1.729,1.751,2.14c0.894,0.682,1.868,0.792,2.875,0.333
	c0.712-0.333,1.188-0.809,1.378-1.426c0.197-0.665,0.134-1.268-0.126-1.886c-0.23-0.577-0.674-0.998-1.252-1.299
	c-0.563-0.286-1.641-0.333-3.177-0.127c-2.591,0.349-4.633,0.166-6.107-0.539c-1.48-0.68-2.621-1.9-3.357-3.651
	c-0.539-1.147-0.785-2.345-0.737-3.597c0.063-1.242,0.468-2.383,1.163-3.413c0.746-1.014,1.99-1.917,3.731-2.709
	c2.147-0.95,4.032-1.157,5.609-0.586c1.575,0.57,3.048,1.956,4.253,4.189l-4.697,2.575c-0.563-0.982-1.172-1.585-1.807-1.821
	c-0.609-0.295-1.283-0.262-2.012,0.071c-0.61,0.27-0.975,0.649-1.141,1.116c-0.142,0.459-0.11,0.934,0.119,1.426
	c0.135,0.372,0.411,0.618,0.809,0.792c0.411,0.175,1.077,0.19,2.122,0.016c2.511-0.341,4.468-0.404,5.742-0.174
	c1.268,0.238,2.345,0.736,3.209,1.521c0.91,0.793,1.623,1.79,2.162,3.01c0.657,1.426,0.936,2.884,0.863,4.38
	c-0.032,1.482-0.451,2.757-1.251,3.858c-0.762,1.109-1.957,2.013-3.612,2.741c-2.852,1.267-5.134,1.408-6.884,0.427
	C375.695,524.432,374.246,522.808,373.098,520.63"/>
<polyline points="391.902,493.413 396.734,490.466 406.303,506.229 413.843,501.635 416.987,506.816 404.584,514.325 
	391.902,493.413 "/>
<polyline points="406.667,484.185 411.364,480.914 425.32,501.001 420.624,504.25 406.667,484.185 "/>
<path d="M414.754,478.585l8.254-6.669c1.379-1.093,2.772-1.482,4.262-1.165c1.473,0.301,2.717,1.116,3.81,2.463
	c0.896,1.134,1.426,2.282,1.521,3.534c0.104,0.791-0.063,1.631-0.498,2.494c1.314-0.499,2.511-0.531,3.658-0.15
	c1.103,0.419,2.18,1.235,3.186,2.447c0.784,0.99,1.339,2.02,1.607,3.089c0.309,1.085,0.349,2.084,0.104,3.011
	c-0.159,0.603-0.539,1.252-1.181,1.973c-0.871,0.989-1.426,1.584-1.767,1.869l-7.62,6.146L414.754,478.585 M425.187,482.451
	l1.94-1.56c0.674-0.547,1.005-1.094,1.085-1.624c0-0.539-0.27-1.103-0.713-1.695c-0.476-0.555-0.935-0.864-1.441-0.967
	c-0.522-0.087-1.125,0.151-1.814,0.682l-1.94,1.576L425.187,482.451 M431.223,489.912l2.28-1.806
	c0.737-0.603,1.109-1.211,1.148-1.813c0-0.626-0.237-1.229-0.744-1.829c-0.404-0.563-0.936-0.904-1.528-0.99
	c-0.587-0.104-1.3,0.157-2.028,0.775l-2.219,1.798L431.223,489.912z"/>
<polyline points="430.018,466.023 440.997,455.432 444.648,459.179 437.749,465.817 440.466,468.636 446.835,462.458 
	450.287,466.023 443.911,472.201 447.271,475.671 454.319,468.859 458.146,472.85 447.009,483.615 430.018,466.023 "/>
<path d="M461.742,469.072l-18.496-16.008l6.171-7.113c1.156-1.33,2.186-2.218,3.089-2.653c0.91-0.436,1.949-0.515,3.16-0.238
	c1.205,0.285,2.345,0.943,3.549,1.965c1.014,0.896,1.758,1.798,2.227,2.788c0.475,0.959,0.665,1.918,0.601,2.916
	c0,0.608-0.205,1.313-0.538,2.09c0.666-0.317,1.204-0.482,1.641-0.53c0.3,0,0.799,0.048,1.567,0.189
	c0.744,0.111,1.315,0.238,1.68,0.388l7.128,2.591l-4.173,4.832l-7.644-2.63c-0.936-0.317-1.672-0.491-2.085-0.467
	c-0.53,0.087-1.014,0.285-1.339,0.673l-0.3,0.38l7.477,6.496L461.742,469.072 M454.455,455.186l1.536-1.782
	c0.174-0.182,0.403-0.602,0.721-1.307c0.159-0.372,0.159-0.744,0.023-1.172c-0.134-0.443-0.388-0.856-0.8-1.195
	c-0.602-0.516-1.173-0.754-1.758-0.754c-0.531,0-1.142,0.388-1.806,1.157l-1.608,1.869L454.455,455.186z"/>
<path d="M479.191,440.771l-3.73,5.228l2.757,3.105l-3.398,4.704l-15.873-19.85l3.698-5.117l23.827,8.713l-3.485,4.832
	L479.191,440.771 M474.233,438.679l-8.35-3.518l6.021,6.789L474.233,438.679z"/>
<line fill="none" x1="287" y1="388.927" x2="287" y2="385.006"/>
<path d="M492.591,310.853c0.057-1.998,0.095-4,0.095-6.012c0-16.234-1.909-32.021-5.496-47.16
	c-17.907,11.462-50.714,32.459-84.741,54.238c-49.192,31.483-100.889,64.566-113.623,72.707
	c-12.735-8.141-64.431-41.224-113.621-72.707c-25.347-16.222-50.029-32.02-68.376-43.762c-6.286-4.023-11.8-7.553-16.367-10.476
	c-3.585,15.139-5.494,30.926-5.494,47.16c0,2.012,0.037,4.014,0.095,6.012l203.762,130.423L492.591,310.853z"/>
<path d="M288.83,508.709c95.757,0,176.085-66.031,197.959-155.053L288.825,480.388L90.865,353.666
	C112.742,442.683,193.063,508.709,288.83,508.709z"/>
<path fill="#5EC5ED" d="M492.669,306.147c0.002-0.437,0.017-0.868,0.017-1.306c0-14.785-1.589-29.199-4.58-43.092
	c-45.811,29.321-180.608,115.599-198.225,126.856l-1.054,0.674l-1.059-0.674c-17.615-11.258-152.411-97.533-198.223-126.855
	c-2.99,13.893-4.579,28.306-4.579,43.091c0,0.438,0.014,0.871,0.016,1.308L288.824,436.62L492.669,306.147z"/>
<path fill="#5EC5ED" d="M288.83,508.709c93.74,0,172.695-63.278,196.502-149.458L289.881,484.369l-1.058,0.675L92.32,359.251
	C116.124,445.431,195.077,508.709,288.83,508.709z"/>
<path d="M287.354,338.938c0,0,14.551-3.366,14.844-7.081c0,0-6.71-7.058-17.854-5.387c-11.137,1.664-20.879,5.062-27.921-3.025
	c0,0-10.479,6.408-15.842-3.723c-5.371-10.072-12.143-13.446-12.143-13.446s6.107-5.727,10.464-5.727
	c4.365,0,6.036,13.813,13.117,13.813c0,0,3.05-6.06-2.044-11.811c-5.038-5.711-10.06-11.445-7.723-21.191
	c2.353-9.811,13.505-20.587,29.633-20.904c0,0-10.765,7.755-5.728,17.53c0,0-10.749,5.714-9.735,15.14
	c1.006,9.426,11.105,5.728,11.105,5.728s0.333-3.708-2.685-4.063l0.966-3.025c0,0,0.673,2.376,5.078,2.709
	c0,0,1.378-4.049-3.731-5.727l1.014-4.041l7.073-1.006c0,0,6.416,3.707,8.428,10.115c0,0,4.397,3.676,9.102,3.676
	c0,0-4.705,4.736-9.775,4.736c-5.03,0-5.03,0-5.03,0s-1.679,8.072,5.394,7.422c7.098-0.682,14.804-4.063,23.604-13.83
	c0,0,7.383,3.699,20.863,3.034c13.506-0.665,24.571,6.384,20.548,20.868c-4.096,14.519-26.987,9.79-26.987,9.79l5.102-12.448
	c0,0,6.044,6.697,12.77,3.672c6.7-3.014,1.036-12.433-5.047-12.78c-6.075-0.349-9.457,1.013-9.457,1.013s-10.408,7.74-12.753,13.482
	l-1.046,12.447c0,0-6.677,10.448-12.792,10.772c-6.035,0.333-14.162-5.053-14.162-5.053L287.354,338.938"/>
<path fill="#FFE500" d="M270.11,262.727c0,0,16.752-8.848,50.21,7.025c0,0-15.003,7.933-29.964,6.146
	c-15.01-1.734-16.69-7.924-16.69-7.924l-6.178,6.19C267.488,274.165,261.325,270.62,270.11,262.727"/>
<path fill="#FFE500" d="M401.479,286.437c7.509-7.69,0.143-15.485-3.874-16.42c-4.016,0.935-11.382,8.729-3.873,16.42
	c-12.523-5.908-22.939,8.84-5.711,10.777c-6.813-5.201,5.909-8.574,6.851-2.107c-0.554,2.175-2.288,5.953-6.266,7.398
	c1.046,0.906,2.219,0.638,4.255,0.364c0.38,1.271,2.804,3.188,4.744,3.358c1.941-0.17,4.365-2.087,4.745-3.358
	c2.036,0.273,3.209,0.542,4.255-0.364c-3.978-1.445-5.712-5.224-6.266-7.398c0.941-6.467,13.663-3.094,6.851,2.107
	C424.418,295.277,414.002,280.529,401.479,286.437z"/>
<path d="M397.604,270.017v36.211c0.539-0.047,1.113-0.237,1.672-0.502v-35.024C398.69,270.371,398.12,270.137,397.604,270.017z"/>
<path fill="#FFE500" d="M183.921,286.437c7.509-7.69,0.143-15.485-3.874-16.42c-4.016,0.935-11.382,8.729-3.873,16.42
	c-12.523-5.908-22.939,8.84-5.711,10.777c-6.812-5.201,5.909-8.574,6.851-2.107c-0.554,2.175-2.289,5.953-6.266,7.398
	c1.046,0.906,2.218,0.638,4.254,0.364c0.38,1.271,2.804,3.188,4.745,3.358c1.941-0.17,4.365-2.087,4.745-3.358
	c2.036,0.273,3.208,0.542,4.254-0.364c-3.978-1.445-5.711-5.224-6.266-7.398c0.942-6.467,13.663-3.094,6.851,2.107
	C206.86,295.277,196.444,280.529,183.921,286.437z"/>
<path d="M180.047,270.017v36.211c0.539-0.047,1.113-0.237,1.672-0.502v-35.024C181.133,270.371,180.563,270.137,180.047,270.017z"/>
<path fill="#FFE500" d="M292.699,122.315c7.51-7.691,0.143-15.485-3.873-16.42c-4.017,0.935-11.383,8.729-3.874,16.42
	c-12.523-5.909-22.939,8.84-5.711,10.776c-6.812-5.2,5.909-8.574,6.852-2.107c-0.555,2.174-2.289,5.953-6.266,7.398
	c1.046,0.907,2.218,0.638,4.254,0.364c0.38,1.272,2.804,3.188,4.745,3.359c1.94-0.17,4.364-2.087,4.745-3.359
	c2.035,0.273,3.208,0.543,4.254-0.364c-3.978-1.445-5.712-5.224-6.266-7.398c0.941-6.467,13.663-3.093,6.851,2.107
	C315.639,131.155,305.223,116.406,292.699,122.315z"/>
<path d="M288.826,105.895v36.211c0.538-0.047,1.112-0.237,1.671-0.503V106.58C289.911,106.249,289.341,106.014,288.826,105.895z"/>
<polygon points="17.891,178.775 13.164,176.408 0,204.19 4.798,206.545 9.688,196.233 32.945,207.718 36.16,200.987 12.87,189.497 
	"/>
<path d="M45.935,146.966c-5.639-3.385-9.779-4.712-12.424-3.911c-2.67,0.782-5.795,4.284-9.411,10.482
	c-4.033,6.957-5.762,11.836-5.16,14.598c0.61,2.773,4.102,6.094,10.458,9.98c5.399,3.247,9.403,4.436,12.012,3.575
	c2.649-0.833,5.782-4.362,9.341-10.577c4.024-6.842,5.773-11.686,5.203-14.431C55.377,153.936,52.05,150.691,45.935,146.966z
	 M46.904,167.809c-2.466,4.202-4.326,6.501-5.649,6.886c-1.261,0.373-3.869-0.603-7.719-2.928c-5.19-3.181-8-5.393-8.467-6.644
	c-0.428-1.265,0.601-4.075,3.105-8.435c2.451-4.194,4.291-6.44,5.607-6.677c1.222-0.255,4.07,0.987,8.59,3.687
	c4.505,2.707,6.941,4.775,7.34,6.074C50.2,161.111,49.208,163.78,46.904,167.809z"/>
<path d="M76.206,116.377l-16.96-12.293l-4.289,6.114l17.083,12.333c1.972,1.437,2.905,2.771,2.85,3.937
	c-0.06,1.208-1.226,3.431-3.49,6.651c-2.205,3.152-3.851,4.972-4.911,5.485c-1.111,0.465-2.602,0.032-4.435-1.323l-17.253-12.508
	l-4.251,6.083l17.213,12.492c3.444,2.522,6.356,3.308,8.64,2.345c2.276-0.97,5.377-4.255,9.333-9.894
	c3.662-5.293,5.561-9.219,5.61-11.743C81.424,121.491,79.731,118.93,76.206,116.377z"/>
<path d="M97.447,90.368l-0.154-0.153c1.674-2.325,2.417-4.231,2.229-5.698c-0.174-1.492-1.392-3.377-3.637-5.678
	c-2.435-2.5-4.777-3.558-7.033-3.217c-2.167,0.335-4.999,2.229-8.347,5.638L66.947,95.052l22.082,22.479l5.188-5.274l-7.41-7.559
	l7.549-7.655c2.805-2.86,5.312-3.111,7.565-0.821l4.069,4.111l5.162-5.296l-4.848-4.927
	C103.615,87.348,100.672,87.403,97.447,90.368z M90.768,93.465l-7.512,7.622l-7.58-7.698l7.874-8.027
	c1.683-1.735,3.053-2.604,4.002-2.649c0.958-0.034,2.232,0.705,3.796,2.332c1.552,1.549,2.271,2.886,2.188,4.002
	C93.501,90.157,92.57,91.627,90.768,93.465z"/>
<path d="M126.105,62.676c-2.049,0.221-5.354,2.042-10.06,5.431c-3.951,2.935-6.472,4.493-7.394,4.718
	c-0.931,0.199-2-0.458-3.236-2.032c-1.028-1.327-1.238-2.531-0.707-3.6c0.479-1.101,2.106-2.757,4.86-4.95
	c2.311-1.857,3.933-2.858,4.831-2.967c0.936-0.136,1.991,0.431,3.215,1.74c0.062,0.099,0.257,0.272,0.454,0.478l5.659-4.549
	L122.925,56c-1.97-2.557-4.096-3.677-6.404-3.292c-2.251,0.393-5.732,2.434-10.299,6.106c-4.832,3.868-7.678,6.941-8.546,9.206
	c-0.878,2.246-0.194,4.823,2.078,7.74c2.222,2.88,4.32,4.177,6.324,3.981c2.002-0.217,5.529-2.142,10.512-5.784l3.348-2.354
	c1.906-1.389,3.265-2.07,4.094-2.125c0.823-0.042,1.762,0.561,2.7,1.743c1.241,1.662,1.713,2.986,1.338,3.998
	c-0.373,1.05-1.864,2.581-4.446,4.636c-3.356,2.688-5.539,4.104-6.586,4.33c-0.995,0.208-2.246-0.552-3.579-2.291l-0.425-0.522
	l-5.668,4.509l0.76,0.901c2.231,2.903,4.519,4.184,6.791,3.858c2.337-0.308,5.879-2.385,10.695-6.237
	c5.337-4.252,8.418-7.497,9.233-9.731c0.801-2.196-0.085-4.945-2.665-8.296C130.105,63.676,128.093,62.464,126.105,62.676z"/>
<polygon points="185.624,33.901 169.565,40.541 166.381,32.895 183.32,25.897 181.417,21.295 157.682,31.094 169.57,59.71 
	176.357,56.911 171.444,45.136 187.558,38.477 "/>
<path d="M220.354,12.169c-2.355-1.342-7.025-1.253-13.895,0.342c-7.759,1.811-12.422,3.869-13.962,6.187
	c-1.55,2.293-1.502,7.031,0.183,14.231c1.429,6.031,3.349,9.698,5.779,10.984c2.449,1.32,7.146,1.154,14.015-0.44
	c7.643-1.783,12.22-3.796,13.818-6.085c1.593-2.238,1.549-6.815-0.058-13.697C224.75,17.354,222.788,13.506,220.354,12.169z
	 M219.782,35.078c-0.633,1.188-3.241,2.304-7.654,3.36c-4.689,1.08-7.622,1.281-8.77,0.629c-1.181-0.662-2.242-3.165-3.293-7.5
	c-1.363-5.864-1.754-9.359-1.19-10.521c0.643-1.172,3.325-2.339,8.163-3.462c4.658-1.089,7.542-1.264,8.577-0.552
	c1.066,0.736,2.185,3.614,3.347,8.638C220.191,30.74,220.413,33.856,219.782,35.078z"/>
<path d="M263.275,4.524c-2.248-1.636-6.839-2.02-13.903-1.17c-7.866,0.949-12.713,2.516-14.512,4.64
	c-1.778,2.099-2.245,6.863-1.339,14.157c0.724,6.156,2.235,10.009,4.556,11.558c2.234,1.553,6.902,1.892,13.92,1.069
	c7.803-0.94,12.621-2.475,14.393-4.525c1.812-2.065,2.341-6.623,1.444-13.676C267.092,10.174,265.513,6.126,263.275,4.524z
	 M260.17,27.195c-0.747,1.138-3.436,1.99-7.987,2.544c-4.756,0.58-7.678,0.471-8.756-0.325c-1.078-0.779-1.907-3.375-2.41-7.818
	c-0.75-5.95-0.771-9.502-0.076-10.598c0.695-1.096,3.551-1.935,8.511-2.541c4.748-0.588,7.631-0.452,8.57,0.401
	c0.992,0.805,1.787,3.815,2.394,8.958C261.038,22.955,260.951,26.089,260.17,27.195z"/>
<path d="M333.675,16.907l0.042-0.102c3.939-0.556,5.988-2.76,6.108-6.671c0.11-3.244-0.607-5.481-2.216-6.692
	c-1.606-1.216-4.72-1.927-9.335-2.075l-19.392-0.729l-1.186,31.553l20.44,0.746c4.323,0.168,7.428-0.386,9.227-1.609
	c1.742-1.216,2.701-3.444,2.807-6.655C340.373,20.219,338.189,17.654,333.675,16.907z M316.133,5.98l10.778,0.399
	c3.605,0.125,5.364,1.45,5.321,3.966c-0.129,1.938-0.61,3.142-1.428,3.595c-0.824,0.493-2.724,0.683-5.789,0.56l-9.128-0.319
	L316.133,5.98z M331.266,27.128c-0.858,0.57-2.519,0.8-5.012,0.685l-2.641-0.053l-8.26-0.287l0.343-8.888l9.574,0.343
	c3.326,0.12,5.384,0.453,6.206,0.975c0.819,0.52,1.19,1.745,1.099,3.657C332.527,25.406,332.085,26.6,331.266,27.128z"/>
<path d="M363.603,9.071l-21.301,25.95l7.459,2.251l4.025-4.98l16.09,4.804l0.653,6.394l7.373,2.178l-3.705-33.418L363.603,9.071z
	 M356.72,28.649l10.962-13.595l1.764,17.406L356.72,28.649z"/>
<polygon points="403.931,23.354 397.207,20.464 384.822,48.844 408.258,59 410.349,54.176 393.669,46.936 "/>
<polygon points="434.996,38.126 428.546,34.595 413.601,61.764 436.061,74.004 438.603,69.398 422.617,60.667 "/>
<path d="M488.329,106.793l-0.985,1.021c-1.569,1.429-2.919,2.018-4.16,1.626c-1.257-0.37-3.16-1.946-5.753-4.694
	c-3.208-3.361-4.675-5.745-4.444-7.134c0.235-1.426,2.577-4.219,7.012-8.461c3.301-3.144,5.616-4.692,6.96-4.661
	c1.355,0.086,3.602,1.809,6.845,5.234c2.455,2.568,3.748,4.396,4.017,5.533c0.229,1.136-0.391,2.401-1.926,3.864l-0.604,0.554
	l5.302,5.531l0.478-0.557c2.992-2.797,4.285-5.355,3.965-7.699c-0.318-2.336-2.486-5.586-6.353-9.739
	c-5.463-5.695-9.626-8.852-12.507-9.515c-2.909-0.622-6.297,0.897-10.129,4.55c-6.513,6.218-9.89,10.67-10.142,13.387
	c-0.222,2.762,2.376,6.968,7.83,12.722c4.823,5.052,8.391,7.873,10.71,8.463c2.345,0.602,5.172-0.656,8.342-3.752l0.846-0.741
	L488.329,106.793z"/>
<polygon points="501.873,125.415 522.633,108.699 517.853,102.799 492.863,122.905 509.433,143.467 513.684,140.042 "/>
<path d="M552.577,160.383l-3.18-6.887l-19.497,9.039c-2.266,1.025-3.896,1.229-4.917,0.548c-1.038-0.667-2.394-2.818-4.05-6.463
	c-1.674-3.573-2.441-5.97-2.313-7.198c0.115-1.218,1.236-2.355,3.418-3.314l19.691-9.124l-3.18-6.896l-19.691,9.14
	c-3.966,1.809-6.102,3.996-6.45,6.548c-0.312,2.534,1.043,6.994,3.963,13.328c2.738,6.001,5.239,9.684,7.491,11.038
	c2.153,1.31,5.297,1.062,9.289-0.8L552.577,160.383z"/>
<path d="M564.821,189.571l-5.25-19.008l-30.936,8.514l5.526,20.029c1.147,4.221,2.632,7.005,4.306,8.344
	c1.743,1.361,4.237,1.614,7.36,0.717c4.333-1.187,6.2-4.07,5.568-8.627l0.104-0.015c1.695,3.631,4.491,4.928,8.33,3.858
	c3.148-0.867,5.12-2.245,5.826-4.194C566.302,197.234,566.048,194.021,564.821,189.571z M547.793,198.29
	c-0.25,0.962-1.344,1.681-3.199,2.189c-1.813,0.514-3.098,0.462-3.888-0.182c-0.805-0.627-1.548-2.184-2.206-4.628l-0.716-2.55
	l-2.205-8.079l8.663-2.416l2.591,9.417C547.735,195.245,548.056,197.355,547.793,198.29z M557.256,196.049
	c-1.854,0.525-3.159,0.459-3.921-0.219c-0.713-0.649-1.521-2.472-2.276-5.382l-2.442-8.979l8.027-2.199l2.847,10.476
	C560.464,193.276,559.695,195.377,557.256,196.049z"/>
<path d="M146.319,48.884c-4.768,0.522-8.171,4.853-7.64,9.587c0.526,4.769,4.797,8.227,9.563,7.692
	c4.832-0.526,8.242-4.848,7.709-9.607C155.428,51.816,151.141,48.34,146.319,48.884z"/>
<path d="M456.061,71.118c-4.894,0.19-8.663,4.271-8.487,9.154c0.194,4.896,4.274,8.706,9.175,8.517
	c4.887-0.196,8.661-4.302,8.469-9.2C465.033,74.699,460.955,70.937,456.061,71.118z"/>
<polygon points="301.503,0 271.249,1.556 271.532,6.828 282.775,6.259 284.103,31.876 291.454,31.511 290.092,5.872 301.749,5.211 
	"/>
<polygon points="192.848,190.283 192.848,200.014 180.816,200.014 180.816,190.283 165.107,190.283 165.107,200.014 
	153.075,200.014 153.075,190.283 139.333,190.283 139.333,217.967 148.323,233.674 148.323,261.723 197.601,261.723 
	197.601,233.674 206.59,217.967 206.59,190.283 "/>
<polygon points="384.806,190.283 384.806,200.014 396.837,200.014 396.837,190.283 412.546,190.283 412.546,200.014 
	424.578,200.014 424.578,190.283 438.32,190.283 438.32,217.967 429.33,233.674 429.33,261.723 380.053,261.723 380.053,233.674 
	371.063,217.967 371.063,190.283 "/>
<polygon points="268.94,150.378 268.94,160.109 280.972,160.109 280.972,150.378 296.681,150.378 296.681,160.109 308.712,160.109 
	308.712,150.378 322.455,150.378 322.455,178.063 313.465,193.77 313.465,221.818 264.187,221.818 264.187,193.77 255.197,178.063 
	255.197,150.378 "/>
</svg>
