<?xml version="1.0" encoding="utf-8"?>
<!-- Generator: Adobe Illustrator 13.0.2, SVG Export Plug-In . SVG Version: 6.00 Build 14948)  -->
<!DOCTYPE svg PUBLIC "-//W3C//DTD SVG 1.0//EN" "http://www.w3.org/TR/2001/REC-SVG-20010904/DTD/svg10.dtd">
<svg version="1.0" id="Layer_1" xmlns="http://www.w3.org/2000/svg" xmlns:xlink="http://www.w3.org/1999/xlink" x="0px" y="0px"
	 width="384.15px" height="419.25px" viewBox="0 0 384.15 419.25" enable-background="new 0 0 384.15 419.25" xml:space="preserve">
<g>
	<path fill="#7B0C15" d="M192.075,419.25c0,0,192.075-114.329,192.075-282.679c0-58.5-22.425-96.525-22.425-96.525
		S326.3,0,192.075,0C57.85,0,22.425,40.047,22.425,40.047S0,78.072,0,136.572C0,304.921,192.075,419.25,192.075,419.25z"/>
	<path fill="#FFFFFF" d="M358.45,42.49c-1.532-1.539-10.917-10.322-33.597-19.042c-23.012-8.848-64.729-19.395-132.778-19.395
		S82.309,14.601,59.296,23.448c-22.679,8.72-32.064,17.502-33.596,19.042c-2.229,4.003-21.647,40.466-21.647,94.082
		c0,37.705,9.924,75.795,29.497,113.212c15.728,30.065,37.685,59.772,65.26,88.296c41.561,42.986,83.616,70.366,93.265,76.409
		c9.648-6.043,51.704-33.423,93.265-76.409c27.575-28.523,49.531-58.23,65.26-88.296c19.573-37.417,29.497-75.507,29.497-113.212
		C380.097,82.956,360.678,46.493,358.45,42.49z M345.611,246.997c-15.442,29.558-37.036,58.799-64.182,86.908
		c-37.748,39.09-75.969,65.178-89.354,73.813c-13.386-8.636-51.607-34.724-89.354-73.813c-27.146-28.109-48.74-57.351-64.182-86.908
		C19.447,210.451,9.766,173.298,9.766,136.572c0-49.783,17.191-84.34,20.525-90.57c2.358-2.175,11.716-9.959,32.334-17.708
		c22.488-8.453,63.201-18.528,129.45-18.528s106.962,10.075,129.45,18.528c20.618,7.75,29.977,15.534,32.334,17.708
		c3.334,6.23,20.525,40.787,20.525,90.57C374.385,173.298,364.704,210.451,345.611,246.997z"/>
	<linearGradient id="SVGID_1_" gradientUnits="userSpaceOnUse" x1="192.0757" y1="407.7183" x2="192.0757" y2="9.7661">
		<stop  offset="0.1798" style="stop-color:#D30028"/>
		<stop  offset="1" style="stop-color:#7B0C15"/>
	</linearGradient>
	<path fill="url(#SVGID_1_)" d="M62.625,28.293c-20.618,7.75-29.976,15.534-32.334,17.708c-3.333,6.23-20.525,40.787-20.525,90.57
		c0,36.727,9.681,73.879,28.774,110.425c15.442,29.558,37.036,58.799,64.182,86.908c37.747,39.09,75.968,65.178,89.354,73.813
		c13.386-8.636,51.606-34.724,89.354-73.813c27.146-28.109,48.739-57.351,64.182-86.908c19.093-36.546,28.773-73.698,28.773-110.425
		c0-49.783-17.191-84.34-20.525-90.57c-2.357-2.175-11.716-9.959-32.334-17.708c-22.488-8.453-63.201-18.528-129.45-18.528
		S85.113,19.841,62.625,28.293z"/>
	<g>
		<path fill="#FFFFFF" d="M83.2,47.522H39.65v55.142H83.2c7.692,0,17.442-2.708,17.442-9.966v-36.4
			C100.642,49.255,92.084,47.522,83.2,47.522z M84.5,85.872c0,2.492-2.059,4.442-4.225,4.442H62.292v-30.55h17.983
			c2.383,0,4.225,0.975,4.225,4.117V85.872z"/>
		<polygon fill="#FFFFFF" points="124.15,47.522 124.15,102.664 151.342,102.664 151.342,81.214 170.3,81.214 178.317,68.917 
			151.342,68.917 151.342,59.764 182.542,59.764 182.542,47.522 		"/>
		<path fill="#FFFFFF" d="M224.467,47.522h43.009l-7.583,12.242h-26.705v30.55h26.705l-7.801,12.35H226.2
			c-12.892,0-20.15-2.925-20.15-10.292V57.597C206.05,49.688,215.259,47.522,224.467,47.522z"/>
		<path fill="#FFFFFF" d="M326.951,47.522h-22.75c-13.65,0-19.501,2.708-19.501,9.533v35.967c0,7.258,7.584,9.642,19.501,9.642
			h22.75c11.916,0,18.091-3.358,18.091-9.642V57.055C345.042,50.013,340.275,47.522,326.951,47.522z M326.3,86.306
			c0,2.383-1.407,4.008-4.008,4.008h-10.941c-1.841,0-3.358-1.083-3.358-3.575V63.122c0-1.95,1.191-3.358,3.358-3.358h10.941
			c2.601,0,4.008,1.408,4.008,3.358V86.306z"/>
	</g>
	<g>
		<path fill="#FFFFFF" d="M47.423,109.813c-1.354,0-7.367,0-7.367,0v12.404c0,0,5.064,0,7.367,0c2.302,0,3.25-0.677,3.25-2.627
			c0-1.95,0-6.121,0-7.15C50.673,110.355,50.023,109.813,47.423,109.813z M47.423,119.211c0,0.217-0.136,0.379-0.379,0.379
			s-3.142,0-3.142,0v-7.15c0,0,2.898,0,3.142,0s0.379,0.19,0.379,0.379S47.423,118.995,47.423,119.211z"/>
		<rect x="54.627" y="109.813" fill="#FFFFFF" width="4.523" height="12.404"/>
		<path fill="#FFFFFF" d="M65.027,109.813v9.777H62.4v2.627c0,0,2.979,0,4.55,0s2.627-0.65,2.627-2.627c0-1.734,0-9.777,0-9.777
			H65.027z"/>
		<path fill="#FFFFFF" d="M81.521,109.813h-5.146c-1.895,0-2.925,0.677-2.925,1.652c0,0.975,0,7.908,0,8.938
			c0,1.029,1.327,1.814,2.925,1.814h5.146c1.598,0,2.925-0.786,2.925-1.814c0-1.029,0-7.963,0-8.938
			C84.446,110.491,83.417,109.813,81.521,109.813z M80.573,119.076c0,0.298-0.135,0.515-0.515,0.515h-2.221
			c-0.38,0-0.515-0.217-0.515-0.515s0-5.85,0-6.094c0-0.244,0.189-0.542,0.542-0.542h2.167c0.352,0,0.542,0.298,0.542,0.542
			C80.573,113.226,80.573,118.778,80.573,119.076z"/>
		<polygon fill="#FFFFFF" points="87.75,109.813 87.75,122.218 91.677,122.218 91.677,117.018 94.792,122.218 98.8,122.218 
			98.8,109.813 94.927,109.813 94.927,114.688 92.273,109.813 		"/>
		<polygon fill="#FFFFFF" points="115.05,109.813 115.05,122.218 119.654,122.218 119.654,117.315 121.523,117.315 123.311,114.472 
			119.654,114.472 119.654,112.44 125.396,112.44 125.396,109.813 		"/>
		<path fill="#FFFFFF" d="M136.771,109.813h-5.146c-1.895,0-2.925,0.677-2.925,1.652c0,0.975,0,7.908,0,8.938
			c0,1.029,1.327,1.814,2.925,1.814h5.146c1.598,0,2.925-0.786,2.925-1.814c0-1.029,0-7.963,0-8.938
			C139.696,110.491,138.667,109.813,136.771,109.813z M135.823,119.076c0,0.298-0.135,0.515-0.515,0.515h-2.221
			c-0.38,0-0.515-0.217-0.515-0.515s0-5.85,0-6.094c0-0.244,0.189-0.542,0.542-0.542h2.167c0.352,0,0.542,0.298,0.542,0.542
			C135.823,113.226,135.823,118.778,135.823,119.076z"/>
		<path fill="#FFFFFF" d="M151.071,109.813h-5.146c-1.896,0-2.925,0.677-2.925,1.652c0,0.975,0,7.908,0,8.938
			c0,1.029,1.327,1.814,2.925,1.814h5.146c1.598,0,2.925-0.786,2.925-1.814c0-1.029,0-7.963,0-8.938
			C153.996,110.491,152.967,109.813,151.071,109.813z M150.123,119.076c0,0.298-0.135,0.515-0.514,0.515h-2.221
			c-0.379,0-0.515-0.217-0.515-0.515s0-5.85,0-6.094c0-0.244,0.189-0.542,0.542-0.542h2.167c0.352,0,0.542,0.298,0.542,0.542
			C150.123,113.226,150.123,118.778,150.123,119.076z"/>
		<polygon fill="#FFFFFF" points="165.154,122.218 165.154,112.44 168.35,112.44 168.35,109.813 157.3,109.813 157.3,112.44 
			160.496,112.44 160.496,122.218 		"/>
		<path fill="#FFFFFF" d="M182.434,114.472c0-0.921,0-1.977,0-2.816c0-1.111-0.515-1.842-3.061-1.842c-1.734,0-7.313,0-7.313,0
			v12.404c0,0,5.85,0,7.313,0c2.167,0,3.061-0.568,3.061-1.842c0-1.083,0-1.868,0-2.762c0-1.382-1.476-1.476-1.476-1.476
			S182.434,115.772,182.434,114.472z M177.883,119.022c0,0.325-0.082,0.569-0.297,0.569c-0.216,0-1.328,0-1.328,0v-2.275
			c0,0,1.111,0,1.328,0s0.297,0.163,0.297,0.352S177.883,118.697,177.883,119.022z M177.883,113.93c0,0.325,0,0.542-0.297,0.542
			c-0.163,0-1.328,0-1.328,0v-2.031c0,0,1.137,0,1.328,0c0.19,0,0.297,0.217,0.297,0.488S177.883,113.605,177.883,113.93z"/>
		<path fill="#FFFFFF" d="M193.618,109.813h-4.333c-1.896,0-2.979,0.623-2.979,2.627v9.777h4.144v-4.902h2.004v4.902h4.144v-9.777
			C196.598,110.437,195.515,109.813,193.618,109.813z M192.454,114.472h-2.004c0,0,0-1.408,0-1.625c0-0.216,0.271-0.406,0.569-0.406
			h0.866c0.298,0,0.569,0.19,0.569,0.406C192.454,113.063,192.454,114.472,192.454,114.472z"/>
		<polygon fill="#FFFFFF" points="200.851,109.813 200.851,122.218 208,122.218 208,119.591 205.4,119.591 205.4,109.813 		"/>
		<polygon fill="#FFFFFF" points="211.9,109.813 211.9,122.218 219.05,122.218 219.05,119.591 216.45,119.591 216.45,109.813 		"/>
		<path fill="#FFFFFF" d="M245.754,109.813l-1.354,2.627h-4.632v7.15h4.632l-1.354,2.627c0,0-3.467,0-5.227,0
			c-1.762,0-2.735-0.813-2.735-1.923c0-0.704,0-7.394,0-8.477c0-1.273,0.785-2.004,2.735-2.004
			C239.362,109.813,245.754,109.813,245.754,109.813z"/>
		<path fill="#FFFFFF" d="M256.371,109.813h-5.146c-1.896,0-2.926,0.677-2.926,1.652c0,0.975,0,7.908,0,8.938
			c0,1.029,1.327,1.814,2.926,1.814h5.146c1.599,0,2.925-0.786,2.925-1.814c0-1.029,0-7.963,0-8.938
			C259.296,110.491,258.267,109.813,256.371,109.813z M255.424,119.076c0,0.298-0.136,0.515-0.515,0.515h-2.222
			c-0.38,0-0.514-0.217-0.514-0.515s0-5.85,0-6.094c0-0.244,0.188-0.542,0.54-0.542h2.168c0.352,0,0.542,0.298,0.542,0.542
			C255.424,113.226,255.424,118.778,255.424,119.076z"/>
		<polygon fill="#FFFFFF" points="254.122,108.324 254.637,109.164 255.91,109.164 254.609,107.241 252.851,107.241 251.55,109.164 
			252.823,109.164 253.338,108.324 		"/>
		<polygon fill="#FFFFFF" points="270.455,122.218 270.455,112.44 273.65,112.44 273.65,109.813 262.601,109.813 262.601,112.44 
			265.796,112.44 265.796,122.218 		"/>
		<polygon fill="#FFFFFF" points="276.9,109.813 276.9,122.218 287.3,122.218 287.3,119.591 281.423,119.591 281.423,117.315 
			285.351,117.315 285.351,114.472 281.423,114.472 281.423,112.44 287.3,112.44 287.3,109.813 		"/>
		<path fill="#FFFFFF" d="M306.329,109.813c-1.354,0-7.367,0-7.367,0v12.404c0,0,5.065,0,7.367,0s3.25-0.677,3.25-2.627
			c0-1.95,0-6.121,0-7.15C309.579,110.355,308.929,109.813,306.329,109.813z M306.329,119.211c0,0.217-0.136,0.379-0.38,0.379
			c-0.243,0-3.142,0-3.142,0v-7.15c0,0,2.898,0,3.142,0c0.244,0,0.38,0.19,0.38,0.379S306.329,118.995,306.329,119.211z"/>
		<path fill="#FFFFFF" d="M313.95,113.091h1.272v-2.438c0,0,0.65,0,0.65-1.057c0-1.571-0.136-1.625-1.272-1.625
			c-1.246,0-1.301,0.054-1.301,1.842c0,1.137,0.65,1.165,0.65,1.165V113.091z"/>
		<path fill="#FFFFFF" d="M327.222,109.813h-5.146c-1.896,0-2.925,0.677-2.925,1.652c0,0.975,0,7.908,0,8.938
			c0,1.029,1.326,1.814,2.925,1.814h5.146c1.598,0,2.925-0.786,2.925-1.814c0-1.029,0-7.963,0-8.938
			C330.146,110.491,329.116,109.813,327.222,109.813z M326.273,119.076c0,0.298-0.135,0.515-0.515,0.515h-2.221
			c-0.38,0-0.515-0.217-0.515-0.515s0-5.85,0-6.094c0-0.244,0.189-0.542,0.541-0.542h2.167c0.353,0,0.542,0.298,0.542,0.542
			C326.273,113.226,326.273,118.778,326.273,119.076z"/>
		<path fill="#FFFFFF" d="M344.473,115.095c0-0.92,0-2.816,0-3.575s-0.487-1.707-1.706-1.707s-8.666,0-8.666,0v12.404h4.496v-3.9
			l1.977,3.9h3.899l-3.142-5.444C343.579,116.774,344.473,116.368,344.473,115.095z M339.95,114.011c0,0.271-0.081,0.46-0.244,0.46
			c-0.162,0-1.028,0-1.028,0v-2.031c0,0,0.866,0,1.028,0c0.163,0,0.244,0.135,0.244,0.325S339.95,113.741,339.95,114.011z"/>
	</g>
	<g>
		<g>
			<g>
				<path fill="#FFFFFF" d="M167.09,140.96h-7.719l0.66,1.12l0,0l0.106,0.18l0,0l2.321,3.941h1.91v13.69h7.84v-15.966
					C172.208,142.382,170.991,140.96,167.09,140.96L167.09,140.96z M161.646,142.26h5.444c1.426,0,3.818,0.216,3.818,1.665v14.666
					h-5.24v-12.39v-1.3h-1.3h-1.167L161.646,142.26L161.646,142.26z"/>
			</g>
		</g>
		<g>
			<g>
				<path fill="#FFFFFF" d="M183.991,140.959c3.9,0,5.119,1.422,5.119,2.965v13c0,1.544-1.219,2.966-5.119,2.966h-5.769l-2.763-5.2
					h5.891v-1.666h-2.641c-3.9,0-5.119-1.422-5.119-2.965v-6.135c0-1.543,1.219-2.965,5.119-2.965H183.991 M180.737,148.048h1.063
					c0.02,0,0.037-0.017,0.037-0.037v-1.834c0-0.021-0.017-0.037-0.037-0.037h-1.063c-0.021,0-0.037,0.017-0.037,0.037v1.834
					C180.701,148.032,180.717,148.048,180.737,148.048 M183.991,142.259h-5.281c-1.426,0-3.819,0.216-3.819,1.666v6.135
					c0,1.449,2.393,1.666,3.819,1.666h2.641h1.3v1.3v1.666v1.3h-1.3h-3.728l1.381,2.601h4.987c1.426,0,3.819-0.217,3.819-1.666v-13
					C187.81,142.476,185.417,142.259,183.991,142.259L183.991,142.259z M180.737,149.349c-0.737,0-1.336-0.6-1.336-1.337v-1.834
					c0-0.737,0.6-1.337,1.336-1.337h1.063c0.737,0,1.337,0.6,1.337,1.337v1.834c0,0.737-0.6,1.337-1.337,1.337H180.737
					L180.737,149.349z"/>
			</g>
		</g>
		<g>
			<g>
				<path fill="#FFFFFF" d="M200.891,140.959c3.9,0,5.119,1.422,5.119,2.965v13c0,1.544-1.219,2.966-5.119,2.966h-5.769l-2.763-5.2
					h5.891v-1.666h-2.641c-3.9,0-5.119-1.422-5.119-2.965v-6.135c0-1.543,1.219-2.965,5.119-2.965H200.891 M197.637,148.048h1.064
					c0.02,0,0.036-0.017,0.036-0.037v-1.834c0-0.021-0.017-0.037-0.036-0.037h-1.064c-0.021,0-0.036,0.017-0.036,0.037v1.834
					C197.601,148.032,197.616,148.048,197.637,148.048 M200.891,142.259h-5.281c-1.426,0-3.819,0.216-3.819,1.666v6.135
					c0,1.449,2.393,1.666,3.819,1.666h2.641h1.3v1.3v1.666v1.3h-1.3h-3.728l1.381,2.601h4.987c1.427,0,3.819-0.217,3.819-1.666v-13
					C204.71,142.476,202.317,142.259,200.891,142.259L200.891,142.259z M197.637,149.349c-0.736,0-1.336-0.6-1.336-1.337v-1.834
					c0-0.737,0.6-1.337,1.336-1.337h1.064c0.736,0,1.336,0.6,1.336,1.337v1.834c0,0.737-0.6,1.337-1.336,1.337H197.637
					L197.637,149.349z"/>
			</g>
		</g>
		<g>
			<g>
				<path fill="#FFFFFF" d="M215.356,144.84h-1.063c-0.737,0-1.337,0.6-1.337,1.337v1.835c0,0.737,0.6,1.337,1.337,1.337h1.063
					c0.737,0,1.337-0.6,1.337-1.337v-1.835C216.693,145.44,216.094,144.84,215.356,144.84L215.356,144.84z M214.257,146.177
					c0-0.02,0.015-0.037,0.036-0.037h1.063c0.021,0,0.037,0.017,0.037,0.037v1.835l0,0l0,0c0,0.02-0.017,0.037-0.037,0.037h-1.063
					c-0.021,0-0.036-0.017-0.036-0.037V146.177L214.257,146.177L214.257,146.177z"/>
			</g>
			<g>
				<g>
					<path fill="#FFFFFF" d="M215.356,151.34h-1.063c-0.737,0-1.337,0.6-1.337,1.337v1.835c0,0.737,0.6,1.337,1.337,1.337h1.063
						c0.737,0,1.337-0.6,1.337-1.337v-1.835C216.693,151.94,216.094,151.34,215.356,151.34L215.356,151.34z M214.257,152.677
						c0-0.02,0.015-0.037,0.036-0.037h1.063c0.021,0,0.037,0.017,0.037,0.037v1.835l0,0l0,0c0,0.02-0.017,0.037-0.037,0.037h-1.063
						c-0.021,0-0.036-0.017-0.036-0.037V152.677L214.257,152.677L214.257,152.677z"/>
				</g>
			</g>
			<path fill="#FFFFFF" d="M222.909,149.125v-5.2c0-1.543-1.219-2.965-5.118-2.965h-5.932c-3.899,0-5.118,1.422-5.118,2.965v5.2
				c0,0.65,0.771,1.239,1.238,1.239c-0.467,0-1.238,0.589-1.238,1.239v5.322c0,1.544,1.219,2.966,5.118,2.966h5.932
				c3.899,0,5.118-1.422,5.118-2.966v-5.322c0-0.65-0.771-1.239-1.238-1.239C222.138,150.364,222.909,149.775,222.909,149.125z
				 M221.609,148.997c0,0.453-1.056,1.367-1.939,1.367c0.884,0,1.939,0.883,1.939,1.367c0,0.244,0,5.194,0,5.194
				c0,1.449-2.393,1.666-3.818,1.666h-5.932c-1.426,0-3.818-0.217-3.818-1.666c0,0,0-4.95,0-5.194c0-0.483,1.056-1.367,1.939-1.367
				c-0.884,0-1.939-0.914-1.939-1.367c0-0.243,0-5.072,0-5.072c0-1.449,2.393-1.666,3.818-1.666h5.932
				c1.426,0,3.818,0.217,3.818,1.666C221.609,143.925,221.609,148.754,221.609,148.997z"/>
		</g>
	</g>
	<path fill="#7B0C15" d="M17.659,142.476c0.379-1.192,1.625-2.004,2.383-2.004c1.3,0,1.192,0.542,2.6,0.542s10.4-1.842,27.3-1.842
		c34.712,1.104,56.202,7.597,70.471,12.675c13.03,4.637,20.15,7.869,23.563,9.317c7.15,3.033,10.942,7.637,14.409,12.242
		c3.466,4.604,22.316,19.879,31.85,54.058c2.911-11.203,6.286-21.905,9.966-32.066c1.321-3.647,3.385-7.431,4.875-10.838
		c1.244-2.843,1.813-5.424,3.819-7.444c1.158-1.192,6.251-2.925,13.049-5.769c10.599-4.433,25.343-10.527,35.782-13.487
		c36.006-10.21,61.587-13.163,78.542-13.163c12.999,0,24.375,2.275,24.375,2.275s-0.055-1.517,1.517-1.517
		c2.058,0,1.733,2.167,1.733,2.167s1.246,0,2.383,0c1.138,0,1.95,1.029,1.95,2.275c0,1.841-0.867,4.117-1.625,4.117
		c0,0,0.65,2.329,0.65,4.008c0,10.616-8.396,17.225-10.942,17.225c0,8.667-6.067,17.225-13,17.225c0,3.359-9.479,16.9-19.066,16.9
		c0,2.872-9.371,14.192-29.684,14.192c-2.979,0-6.392,0-6.392,0s-13.055,5.199-22.425,5.199c-7.367,0-17.875-3.357-17.875-3.357
		c0,25.891-15.735,48.153-30.658,57.2c2.653,3.709,2.6,7.609,2.6,22.75c5.011,2.49,29.467,22.722,29.467,27.841
		c0,3.737-7.638,9.425-10.833,9.425c0,1.706-5.823,4.442-9.642,4.442c-0.312,1.149-3.088,3.899-6.283,3.899
		c-0.705,0-1.95,0.84-1.95,1.408s0.406,0.65,1.191,0.65c1.598,0,7.61-3.575,10.292-3.575c2.355,0,5.85,2.763,5.85,6.825
		c0,4.875-3.088,7.584-5.309,7.584c-1.842,0-2.166-3.143-2.166-3.143s-2.438,1.843-4.225,1.843
		c2.342,2.342,6.933,8.097,6.933,11.808c0,3.114-2.41,6.392-3.575,6.392c-1.814,0-3.683-1.058-3.683-1.842
		c0-2.573,1.625-2.356,1.625-3.033c0-0.678-0.569-2.167-1.409-2.167c-0.866,0-0.136,0.867-2.383,0.867
		c-2.303,0-6.392-5.146-6.392-7.367c-5.255,0-8.531-2.465-10.616-4.55c0,2.383-2.357,4.55-5.093,4.55
		c-0.515,0-0.758,0.65-0.758,1.192c0,0.541,0.976,0.784,0.976,2.058c0,1.408-0.759,2.383-1.843,2.383c-2.14,0-4.55-3.764-4.55-6.065
		c0-6.365,3.087-9.154,4.658-9.75c0-1.084-0.866-1.95-0.866-1.95s-3.332,4.766-9.316,7.691c1.571,1.57,2.708,4.631,2.708,7.584
		c0,1.841-0.975,3.141-0.975,3.141s2.275,0.487,2.275,3.359c0,3.222-1.517,11.591-6.825,11.591c-1.273,0-2.925-0.487-2.925-2.383
		c0-2.005,2.275-2.466,2.275-3.575c0-1.111-2.925-1.273-2.925-4.008c0-0.678,0.975-3.034,0.975-3.034s-3.954,2.167-5.417,2.167
		c-2.194,0-5.958-2.601-5.958-2.601s-4.198,3.358-9.208,3.358c-2.303,0-3.9-2.058-3.9-2.058s-1.192,0.946-1.192,1.625
		c0,0.677,0.65,0.459,0.65,1.3c0,1.245-1.679,1.95-2.817,1.95c-1.137,0-3.141-1.138-3.141-2.383c0-6.245,4.609-8.833,8.517-10.441
		c2.059-0.848,3.328-2.019,4.917-2.019c-1.815-1.813-2.925-3.899-2.925-3.899s-0.46,1.625-2.492,1.625
		c-1.381,0-3.358-2.031-3.358-4.55c0-1.138,1.408-4.116,1.408-4.116c-2.275,0-2.925-2.275-2.925-2.275
		c-12.432,0-14.625-6.066-14.625-6.066c-8.856,0-14.3-9.372-14.3-12.025c0-8.505,26.894-32.311,34.775-35.75
		c-0.555-0.556-2.383-5.742-2.383-5.742s-9.967,6.935-12.892,6.935c-1.869,0-3.58-1.289-7.545-3.511
		c-8.081-4.528-21.126-14.792-32.863-38.957c-13.298,0-28.492-14.842-28.492-27.407c-15.032-4.903-21.044-15.791-23.4-24.267
		c-6.5-1.68-16.141-10.455-16.141-19.934c-6.609-0.352-11.592-11.483-11.592-19.175c-8.017-3.196-9.967-12.864-9.967-17.55
		C17.226,146.159,17.28,143.668,17.659,142.476z"/>
	<linearGradient id="SVGID_2_" gradientUnits="userSpaceOnUse" x1="191.6558" y1="360.7134" x2="191.6557" y2="147.46">
		<stop  offset="0.0056" style="stop-color:#7B0C15"/>
		<stop  offset="0.8146" style="stop-color:#D30028"/>
	</linearGradient>
	<path fill="url(#SVGID_2_)" d="M35.75,147.459c26.65,0,91.975,16.087,107.413,26c9.239,9.239,22.579,24.541,31.521,37.695
		c6.157,9.059,9.971,17.357,9.971,20.913c-4.791,0-9.965,3.502-13.479,6.437c-1.929,1.612-3.801,1.852-3.801,3.802
		c0,2.058,1.733,5.74,1.733,6.933c0,1.19-6.663,7.149-6.663,9.154c0,5.254,11.429,35.966,31.038,35.966
		c10.509,0,24.971-22.912,24.971-37.916c0-8.504-5.388-9.52-9.588-11.159c2.059-1.028,3.359-2.545,3.359-3.737
		c0-1.841-5.092-3.141-6.338-7.203c-3.629,0-8.115-1.434-10.888-3.034c6.608-22.912,24.159-49.887,24.159-49.887
		s50.592-16.683,88.129-22.858c-0.461,0.46-0.38,0.925-0.38,1.192c0,1.95,2.059,4.117,4.117,4.117c8.775,0,11.429,0.65,11.429,1.354
		c0,1.462-9.642,6.5-9.642,6.5s-11.537-4.929-18.796-4.929c-4.008,0-7.123,2.816-7.123,5.552c0,1.219,1.165,1.977,1.978,1.977
		c13.055,0,16.142,1.029,16.142,1.571c-9.025,4.609-13.596,6.717-13.596,6.717s-9.425-5.309-14.842-5.309
		c-4.874,0-5.471,3.792-5.471,4.983c0,4.117,6.581,1.814,9.371,4.604c-5.845,2.654-20.909,6.175-20.909,6.175
		s-5.308-4.008-7.691-4.008c-2.383,0-3.25,2.438-3.25,3.25s1.246,2.6,1.246,2.6c-3.673,0.336-9.046,0.704-9.046,3.846
		c0,1.733,1.084,2.058,2.438,2.058c3.63,0,15.627-1.977,15.627-1.977c10.428,8.043,19.257,19.256,19.257,19.256
		s-2.438,1.57-14.03,1.57c-9.316,0-16.52-1.842-16.52-1.842s1.029-11.7-2.33-11.7c-1.734,0-2.221,1.083-2.221,2.6
		c0,7.8-1.191,13.65-1.191,13.65c-6.879-13.758-21.287-29.954-24.809-29.954c-0.921,0-2.112,1.354-2.112,2.33
		c0,1.95,24.104,28.383,24.104,41.275c0,3.032-5.688,13.649-6.121,13.649c-1.517-8.45-5.014-13.615-8.229-18.954
		c-1.611-2.674-1.412-5.231-3.606-5.231c-1.219,0-2.14,1.11-2.14,2.141c0,2.22,8.612,27.57,8.612,31.742
		c-6.77,11.645-17.657,19.554-17.657,20.962c0,4.55,4.116,14.95,4.116,24.483c0,4.657-1.084,10.074-1.084,10.833
		c0,0.758,1.03,1.219,2.086,1.219c2.194,0,4.145-4.145,4.145-4.145s16.087,14.682,21.883,21.234c0,0.758-3.467,1.733-3.467,1.733
		s-12.675-19.338-16.467-19.338c-1.3,0-1.949,1.138-1.949,2.763c0,1.624,13.054,16.034,13.054,20.475
		c0,0.866-3.034,1.408-3.034,1.408s-9.045-15.438-12.457-15.438c-1.68,0-1.409,1.593-1.409,2.275s4.454,8.324,6.987,13.217
		c-3.249,0-7.746,3.195-7.746,3.195s-1.57-5.903-3.683-5.903c-1.029,0-2.384,1.787-2.384,4.278c0,2.492,1.409,5.579,1.409,5.579
		s-0.704-0.324-1.518-0.324c-1.57,0-3.357,3.142-4.225,2.274c-8.287-13.92-5.688-22.967-9.533-22.967
		c-2.112,0-3.033,3.847-3.033,6.392c0,3.847,1.733,7.747,1.733,8.775c0,5.797-7.096,16.305-7.096,16.305l-0.217-2.763
		c0,0,3.738-4.712,3.738-10.888c0-4.009-0.812-5.146-2.059-5.146c-2.112,0-4.875,10.237-4.875,10.237s-1.462-2.328-4.387-2.328
		c-0.731-0.731,4.008-3.846,4.008-11.267c0-2.979-0.866-4.171-3.088-4.171c-2.003,0-2.826,4.647-4.756,8.928
		c-1.93,4.279-4.235,8.188-4.235,9.488c0,1.95,1.88,1.68,2.491,1.68c0.611,0,2.654-1.896,2.654-1.896s-1.462,4.008-1.462,5.471
		c0,1.461,0.921,2.274,0.921,2.274l3.087,2.167l-1.841,0.271c-3.869-4.77-7.552-7.171-10.436-8.883
		c-3.536-2.099-4.19-1.246-5.869-2.925c2.492-6.608,9.045-16.143,9.045-22.534c0-1.624-0.92-2.003-2.112-2.003
		c-2.166,0-9.1,14.57-12.458,23.074c-1.409,0-6.662-2.22-6.662-3.196c7.096-10.732,20.908-29.033,20.908-33.096
		c0-1.139-0.921-1.842-2.438-1.842c-1.517,0-22.1,29.305-24.429,31.634c-1.246,0-7.096-5.254-7.096-6.284
		c1.882-2.177,25.892-28.708,29.413-28.708c0,0,0.271,0.813,1.896,0.813c1.625,0,3.25-4.766,3.25-7.258
		c0-3.358-5.092-14.084-6.934-14.084c-2.708,0-14.462,8.396-14.462,8.396c-6.987-4.279-15.573-12.269-16.575-13.271
		c2.663-7.65,17.279-39.975,17.279-42.846c0-1.571-0.758-2.274-2.167-2.274c-6.066,0-19.121,39.542-19.121,39.542
		s-12.025-14.68-12.025-17.604c1.57,0,4.929-0.108,4.929-2.33c0-1.787-3.359-1.625-3.359-1.625
		c12.567-30.387,37.809-39.271,37.809-42.574c0-1.246-0.867-2.546-2.167-2.546c-2.058,0-33.367,13.217-42.413,39.975
		c-1.788,0-7.746-23.563-11.267-23.563c-1.354,0-2.383,1.246-2.383,2.438c0,3.143,7.637,22.48,7.637,22.48
		c-13.162-6.541-17.34-14.023-19.933-19.554c0.979-0.98,1.3-1.302,1.3-2.168s-0.325-1.571-0.325-1.571s17.225-12.837,28.438-15.438
		c1.571,0,11.104,4.009,14.029,4.009c1.517,0,2.817-0.65,2.817-2.004c0-2.979-7.367-3.63-7.367-4.604
		c0-1.95,10.942-0.758,10.942-4.442c0-2.058-2.708-4.117-4.983-4.117c-6.717,0-16.142,4.875-16.142,4.875s-14.3-8.017-18.309-12.025
		c0,0,6.066-1.462,11.05-1.462c2.167,0,3.466,0.325,4.983,0.325c2.6,0,3.466-1.896,3.466-3.467s-2.274-3.467-5.092-3.467
		c-6.717,0-19.933,4.008-19.933,4.008s-10.156-8.098-12.188-11.158c6.337-1.029,15.763,1.462,19.716,1.462
		c2.546,0,2.763-1.733,2.763-3.413c0-3.304-7.691-3.9-11.917-3.9c-5.524,0-15.221,0.921-15.221,0.921s-6.554-7.042-7.637-9.587
		c4.442,0,8.342,2.004,10.887,2.004c1.788,0,2.979-1.516,2.979-3.575c0-3.25-5.85-4.658-8.667-4.658
		c-2.167,0-9.262,0.758-9.262,0.758c-2.085-2.085-2.546-7.881-5.39-7.881c-1.219,0-2.356,1.056-2.356,2.356
		c0,1.3,1.842,5.58,1.842,5.58c-3.684,0-22.317,3.358-22.317,3.358s0.108-2.112-2.058-2.112c-1.3,0-1.246,1.138-1.246,1.138
		s-6.066-7.529-6.066-12.133C22.805,147.676,29.521,147.459,35.75,147.459z M34.017,165.822c-0.542,0,0,0.569-0.108,0.975
		s-0.867,0.271-0.867,1.083c0,3.142,6.175,10.292,6.175,10.292s0.434-0.65,1.408-0.65c1.409,0,1.625,1.3,1.625,1.3
		s12.025-4.225,20.692-5.091c0,0-4.875-6.284-5.958-11.159C49.942,162.572,46.042,165.822,34.017,165.822z M54.492,197.563
		c0,0,0.758-0.65,1.625-0.65c1.733,0,2.167,2.167,2.167,2.167s10.996-5.146,19.716-7.8c0,0-8.504-7.854-11.05-12.566
		c-1.246,0-18.091,4.55-22.75,5.417C45.555,189.276,54.492,197.563,54.492,197.563z M61.154,205.852
		c4.225,7.042,16.088,16.087,16.088,16.087s0.054-3.143,2.275-3.143c1.842,0,2.492,2.817,2.492,2.817s9.75-10.563,21.883-14.3
		c0,0-14.029-5.363-20.258-11.592c-0.75,0-9.927,3.792-16.837,6.934c-1.57,0.714-3.022,0.599-4.233,1.299
		C61.788,204.404,62.048,204.958,61.154,205.852z M314.925,157.453c6.5,0.813,12.398,2.739,14.138,3.087
		c2.275-1.3,6.013-5.362,6.013-5.362S323.538,155.503,314.925,157.453z M337.351,163.06c4.956,1.016,14.137,4.956,14.137,4.956
		s0.325-1.788,2.031-1.788c1.057,0,1.869,1.056,1.869,1.056s5.119-6.418,5.119-13.568c0,0-10.969,0.006-17.063,0.568
		C342.591,156.153,340.885,159.525,337.351,163.06z M322.807,175.897c5.85,2.519,16.128,8.815,16.128,8.815s0.771-1.991,1.99-1.991
		s2.113,1.707,2.113,1.707s5.85-5.2,6.987-9.587c0-0.731,0-1.057-0.569-1.625c-3.006-2.031-11.06-4.47-16.574-5.85
		C330.932,169.315,326.382,173.378,322.807,175.897z M321.182,201.409c0,0,1.056-1.3,2.112-1.3s1.869,1.3,1.869,1.3
		s7.048-5.708,9.953-9.547c0,0-1.26-0.447-1.26-1.259s0-1.95,0-1.95s-9.669-3.413-17.875-8.531
		c-1.869,1.097-10.969,6.094-14.625,7.719C309.888,192.472,321.182,201.409,321.182,201.409z M288.601,216.278
		c0,0,0.324-0.813,1.625-0.813c1.949,0,2.274,1.544,2.274,1.544s19.825-2.682,24.456-9.831c0,0-13.894-12.919-23.644-16.575
		c-1.138,0-16.087,5.281-26.894,7.231C272.269,202.384,288.601,216.278,288.601,216.278z M193.781,290.622
		c8.288,0,19.581-21.531,19.581-31.769c0-2.844-0.406-5.606-0.894-5.606c-2.852,0-5.276-0.014-7.345,0.568
		c-8.83,2.49-11.147,9.426-12.399,9.426c-1.381,0-0.946-0.956-2.438-2.11c-2.274-1.761-6.399-3.983-11.7-3.983
		c-6.825,0-10.888,2.6-10.888,3.493c0,3.302,3.041,11.159,8.037,17.706C180.945,285.17,188.225,290.622,193.781,290.622z
		 M176.475,254.14c12.919,0,16.169,5.038,16.169,5.038s4.062-8.531,16.9-8.531c-3.9-2.682-9.466-1.991-12.188-4.713
		c0-0.731,4.672-1.341,4.672-1.341s-1.26-0.609-1.26-1.259c2.031-2.682,4.713-2.275,4.713-2.763s-0.65-0.813-1.706-0.813
		c-2.925,0-3.494,1.3-6.5,1.3c0,0-0.65-1.787,1.3-4.631c-5.2,0-5.85-1.057-9.019-1.057c-2.356,0-3.413,2.193-9.506,2.193
		c0,2.601-1.95,3.413-4.469,3.413c-2.113,0-2.438,0.649-2.438,0.649s1.543,0.895,1.543,1.95c0,1.544-2.031,2.031-2.031,3.737
		c2.113,0,2.682-1.625,5.444-0.975c0,4.307-6.987,4.55-8.043,9.182C170.057,255.522,173.307,254.14,176.475,254.14z"/>
	<path fill="#7B0C15" d="M171.492,302.973c4.116,0,10.291,13.162,10.291,18.199c0,2.275-0.975,9.588-3.304,9.588
		c-3.034,0-2.621-7.034-4.55-13.729c-1.674-5.81-4.225-10.593-4.225-11.839C169.705,304.164,170.084,302.973,171.492,302.973z"/>
	<path fill="#7B0C15" d="M214.987,317.11c0.922,0,2.004,1.679,2.004,4.063c0,3.413-1.137,18.254-5.524,18.254
		c-0.976,0-1.354-0.921-1.354-2.221c0-3.357,3.196-7.529,3.196-18.904C213.309,317.76,213.688,317.11,214.987,317.11z"/>
	<g>
		<path fill="#FFFFFF" d="M171.438,263.241c0-0.488,2.113-0.976,3.738-0.976c16.656,0,15.356,16.737,15.356,16.737
			s-2.438-5.85-5.119-8.531c-4.55,0-6.744-2.193-6.744-5.85C174.119,263.525,171.438,264.377,171.438,263.241z"/>
		<path fill="#FFFFFF" d="M210.925,258.69c-16.656,0-14.787,19.825-14.787,19.825s1.463-5.281,4.55-9.1
			c4.063,0,5.281-3.656,5.281-7.313C208.86,260.404,210.925,259.828,210.925,258.69z"/>
		<path fill="#7B0C15" d="M178.669,264.622c-3.413-0.822-5.774-0.549-6.741-0.839c0,0,4.507,1.61,6.904,4.008
			c0,1.95,2.356,5.281,4.712,5.281c0.975,0,1.706-0.65,1.706-0.65c3.778,3.778,5.038,7.8,5.038,7.8s0.244-0.324,0.244-1.219
			c0,0-2.438-5.85-5.119-8.531C180.863,270.471,178.669,268.278,178.669,264.622z"/>
		<path fill="#7B0C15" d="M210.506,259.51c-0.741,0.703-2.414,1.346-4.537,2.593c0,3.656-1.219,7.313-5.281,7.313
			c-3.087,3.818-4.55,9.1-4.55,9.1c0,0.487,0.244,1.057,0.244,1.057s1.922-6.429,5.199-8.369c5.281-2.925,4.995-5.85,4.995-7.762
			C208.787,261.231,210.17,259.847,210.506,259.51z"/>
		<path fill="#FFFFFF" d="M193.7,280.14c-1.056,0-1.869,2.438-1.869,3.737c0,2.763,1.381,4.145,2.194,4.145
			c1.219,0,1.544-2.438,1.544-3.9S194.757,280.14,193.7,280.14z"/>
		<path fill="#7B0C15" d="M194.025,288.022c-0.679,0-1.744-0.978-2.08-2.905c-0.002,0.067-0.005,0.135-0.005,0.203
			c0,2.009,0.797,3.636,1.78,3.636c0.983,0,1.78-1.626,1.781-3.633C195.355,286.632,194.945,288.022,194.025,288.022z"/>
		<path fill="#FFFFFF" d="M215.584,251.406c0,0-2.709-3.576-11.592-5.092c1.95-2.601,5.85-2.492,5.85-4.442
			c0-0.634-1.58-1.269-2.764-2.33c-1.444-1.295-2.544-2.978-2.544-2.978s-2.432-0.062-5.092-1.192
			c-1.713-0.728-4.226-2.708-5.2-2.708c-14.733,0-18.372,4.374-21.663,7.037c-1.708,1.381-2.929,1.955-2.929,1.955
			c0,4.116,1.408,6.283,1.408,7.475c0,1.625-6.608,8.124-6.608,9.208c0,9.643,14.733,34.343,29.033,34.343
			c11.483,0,22.967-22.968,22.967-35.101C216.45,255.739,215.584,251.406,215.584,251.406z M178.1,246.34
			c-2.762-0.65-3.331,0.975-5.444,0.975c0-1.706,2.031-2.193,2.031-3.737c0-1.056-1.543-1.95-1.543-1.95s0.325-0.649,2.438-0.649
			c2.519,0,4.469-0.813,4.469-3.413c6.094,0,7.15-2.193,9.506-2.193c3.168,0,3.818,1.057,9.019,1.057
			c-1.95,2.844-1.3,4.631-1.3,4.631c3.006,0,3.575-1.3,6.5-1.3c1.056,0,1.706,0.325,1.706,0.813s-2.682,0.081-4.713,2.763
			c0,0.649,1.26,1.259,1.26,1.259s-4.672,0.609-4.672,1.341c2.722,2.722,8.287,2.031,12.188,4.713c-12.838,0-16.9,8.531-16.9,8.531
			s-3.25-5.038-16.169-5.038c-3.168,0-6.418,1.382-6.418,1.382C171.113,250.89,178.1,250.647,178.1,246.34z M193.781,290.622
			c-5.557,0-12.836-5.451-18.044-12.275c-4.996-6.547-8.037-14.404-8.037-17.706c0-0.894,4.063-3.493,10.888-3.493
			c5.3,0,9.425,2.223,11.7,3.983c1.492,1.154,1.056,2.11,2.438,2.11c1.251,0,3.569-6.936,12.399-9.426
			c2.068-0.582,4.493-0.568,7.345-0.568c0.487,0,0.894,2.763,0.894,5.606C213.362,269.09,202.069,290.622,193.781,290.622z"/>
	</g>
	<g>
		<path fill="#FFFFFF" d="M156.325,379.671c0,0-0.569-0.894-0.569-1.787c0-9.994,16.981-9.344,16.981-9.344
			c0-3.413-2.194-5.281-2.681-5.281c-3.25,0-5.038-1.788-5.038-4.063c0-1.057,0.731-2.763,0.731-2.763
			c-3.25,0-4.712,6.094-4.712,6.094s-0.731-1.219-0.731-2.112c0-3.007,2.6-6.663,4.793-6.663c3.494,0,7.8,9.101,12.269,9.101
			c1.381,0,3.494-0.569,3.494-0.569s-2.519-4.387-2.519-6.337c0-0.813,1.219-2.682,1.219-2.682s-0.081-0.528-0.528-0.528
			c-1.097,0-2.966,4.348-2.966,4.348s-0.081-8.044,2.763-8.044c2.681,0,5.403,7.759,7.069,14.219c1.787,0.813,4.306,2.6,4.306,7.394
			c0,2.519-0.894,3.088-0.894,3.737c1.057,0.65,2.113,2.112,2.113,6.175c0,6.094-5.769,6.419-5.769,6.419s3.656-3.737,3.656-5.769
			c-1.706-0.487-3.737-2.112-3.737-4.063c0-1.219,1.788-3.088,1.788-3.088s-0.244-1.056-1.056-1.056
			c-1.95,0-2.438,2.112-7.719,2.112c-2.844,0-4.957-2.031-6.256-2.031c-2.925,0-3.819,3.656-7.638,3.656
			c-2.762,0-3.819-3.494-4.712-3.494C158.275,373.252,156.325,379.671,156.325,379.671z"/>
		<path fill="#FFFFFF" d="M232.132,351.64c-3.088,0-8.207,3.9-11.944,3.9c-2.681,0-3.656-2.762-3.656-4.632
			c5.769,0,3.819-6.012,7.476-6.012c0.73,0,1.137,0.568,1.137,1.137c0,1.463-2.315,3.697-2.315,3.697s4.104-0.122,4.104-4.104
			c0-1.381-1.463-3.25-3.331-3.25c-1.569,0-2.828,1.056-3.857,1.382c-5.582,1.767-5.649,6.581-9.062,6.581
			c-5.2,0-4.956,4.469-6.419,4.469c-8.044-12.594-7.8-25.35-9.588-25.35c-1.056,0-1.219,3.168-1.219,5.118
			c0,3.211,0.704,6.216,1.732,8.9c-3.839,12.661-8.801,17.993-8.801,17.993s10.237-2.6,10.237-13.324
			c0-0.489-0.01-1.001-0.025-1.514c2.876,5.59,6.688,9.15,6.688,9.15l-0.406,2.275c0,0-5.606,0.568-5.606,8.206
			c0,3.331,3.006,4.388,3.006,4.388s-1.056-1.544-1.056-3.331c0-0.976,0.649-2.031,2.438-2.031c1.381,0,2.355-0.487,2.355-3.088
			c0-1.3,0.976-2.844,1.788-2.844c1.625,0,4.225,4.632,7.394,4.632c2.844,0,2.031-0.65,3.494-0.65c1.462,0,3.006,0.813,3.006,2.519
			c0,3.494,2.438,6.581,4.55,6.581c1.382,0,1.95-1.219,2.519-1.219c0.569,0,2.682,1.707,2.682,4.713
			c0,1.625-0.975,3.412-0.975,3.412s2.844-1.543,2.844-4.712c0-3.25-2.083-4.341-3.771-6.371c-2.813-3.382-2.974-5.085-8.417-8.335
			c1.462-0.406,1.056-1.788,1.787-1.788s5.769,0,7.231,0c3.331,0,3.331-3.412,5.2-3.412c0.73,0,0.813,1.3,0.813,2.031
			c0,1.868-1.463,4.55-1.463,4.55s3.656-1.625,3.656-5.688C236.356,353.265,233.838,351.64,232.132,351.64z"/>
		<path fill="#FFFFFF" d="M212.713,344.958c-0.452-2.189-0.406-4.937-1.95-4.937c-0.731,0-0.813,1.462-0.813,2.355
			c0,2.52,1.787,6.338,2.844,6.338c0.487,0,0.731-0.406,0.731-1.544C213.525,346.693,212.901,345.875,212.713,344.958z"/>
		<path fill="#FFFFFF" d="M183.219,354.403c0,0,5.119,0,5.119-9.263c0-1.219-0.325-2.925-0.975-2.925
			C186.144,342.215,183.219,354.403,183.219,354.403z"/>
		<path fill="#FFFFFF" d="M176.708,340.683c-1.852,4.563-4.133,9.495-4.133,9.495s8.125-3.656,8.125-13.163
			c0-1.868-0.325-3.087-1.056-3.087C178.425,333.928,178.08,337.302,176.708,340.683z"/>
		<path fill="#FFFFFF" d="M175.717,317.218c-1.803-6.056-5.146-11.971-4.279-11.971c0.705,0,8.45,5.578,8.45,16.304
			c0,4.442-1.246,7.313-1.788,7.313S177.428,322.962,175.717,317.218z"/>
		<path fill="#FFFFFF" d="M213.362,328.582c-0.533,3.03-1.077,2.915-1.949,9.22c0,0,4.333-3.575,4.333-14.028
			c0-1.788-0.162-5.146-0.162-5.146C214.175,318.626,214.228,323.668,213.362,328.582z"/>
		<path fill="#FFFFFF" d="M147.388,165.497c0,0-44.038-24.457-97.906-24.457c-15.112,0-29.9,1.869-29.9,1.869
			s-0.391,2.9-0.018,2.997c-0.222,1.007-0.47,2.41-0.47,3.666c0,11.492,6.622,14.675,10.314,15.535
			c-0.182,1.137-0.32,2.361-0.32,3.478c0,11.024,8.185,14.438,11.07,14.611c0.317,13.791,10.74,18.832,16.175,20.521
			c3.031,17.096,18.207,22.268,23.035,23.611c0.103,0.029,0.198,0.063,0.291,0.097c0.999,8.981,5.994,24.328,28.123,27.68
			c8.963,19.121,23.22,37.375,39.931,42.586c1.95,0,13.081-7.8,13.081-7.8s4.55,9.994,4.55,11.132
			c-10.237,4.428-27.787,18.769-34.612,33.719c0,1.543,1.462,10.399,12.188,10.399c0,0,4.144,6.338,10.888,6.338
			c1.381,0,2.681-0.406,2.681-0.406s3.494,3.331,4.793,3.331c0.65,0,2.6-1.381,2.6-2.112s-3.534-0.609-5.85-2.925
			c0-0.65,11.781-21.531,8.856-23.238c-1.141-0.428-11.862,23.481-11.862,23.481s-5.444-0.975-10.156-4.875
			c2.356-2.356,23.725-32.622,22.019-33.719c-1.097-1.097-23.4,30.469-24.7,32.744c-0.813,0-9.587-6.906-9.587-9.182
			c0.608-0.894,22.344-25.188,32.216-31.565c0.447,0,0.528,1.178,1.178,1.178c0.65,0,1.381-1.787,1.381-3.98
			c0-5.119-4.956-12.838-5.931-12.838c-2.275,0-13.65,8.287-13.65,8.287c-6.499-3.903-12.663-9.21-18.398-15.541
			c1.104-1.891,2.732-6.253,4.856-11.217c5.501-12.856,12.804-31.261,12.242-31.823c-0.846-0.846-10.151,11.409-18.227,41.767
			c-5.549-6.32-10.676-13.602-15.303-21.487c0.191-0.563,0.399-1.122,0.606-1.681c1.134,0.058,2.301,0.089,3.51,0.089
			c0.487,0,0.65-0.162,0.65-0.813c0-0.438-1.324-0.728-3.433-1.146c4.483-11.059,12.012-21.262,19.847-28.756
			c9.522-9.105,18.793-14.271,18.523-14.541c-0.25-0.25-7.938,2.991-16.799,9.1c-9.589,6.612-20.542,16.784-24.94,33.506
			c-0.136-0.03-0.278-0.063-0.417-0.094c-4.569-8.331-8.595-17.23-11.957-26.343c1.277,7.687,3.966,16.493,7.792,25.26
			c-4.285-1.285-9.082-3.32-13.073-6.816c-3.706-3.245-7.398-7.771-9.588-12.039c-0.893-1.74-1.596-3.427-2.16-4.976
			c0.928-0.082,1.673-0.292,1.673-0.292c-0.558-0.332-1.092-0.665-1.627-0.996c2.836-1.888,9.7-7.23,19.479-12.225
			c3.887-1.984,8.059-3.82,12.094-5.356c8.626,2.773,14.579,3.383,14.579,3.383c0-1.122-4.394-1.96-10.964-4.693
			c5.732-1.965,10.889-3.188,14.133-3.188c0.487,0,1.056-0.325,1.056-1.056c0-1.625-1.95-2.194-3.575-2.194
			c-3.89,0-6.933,1.286-9.712,2.356c-2.043,0.787-3.946,1.498-5.938,2.272l0,0c-6.511-3.154-14.354-8.326-22.712-14.835
			c4.874-0.668,12.446-1.574,17.726-1.574c2.844,0,4.306,0.081,4.306-1.544c0-1.056-1.788-1.625-3.331-1.625
			c-7.556,0-15.285,2.335-19.721,3.946c-1.191-0.938-2.391-1.901-3.598-2.89c-4.917-4.027-9.188-8.102-12.861-11.997
			c2.252-0.097,5.099-0.19,7.743-0.19c9.262,0,11.781,1.503,15.722,1.503c0.486,0,0.859-0.243,1.069-0.584
			c0.063-0.094,0.107-0.206,0.139-0.333c0.03-0.111,0.051-0.225,0.051-0.342c0-0.01-0.003-0.02-0.003-0.03
			c0-0.018,0.003-0.033,0.003-0.052c0-0.2-0.075-0.389-0.207-0.567c-0.721-1.094-3.464-1.789-9.218-1.789
			c-8.427,0-13.395,0.728-16.206,1.414c-4.874-5.27-8.627-10.162-11.356-14.089c0.209,0,0.435,0,0.667,0
			c3.9,0,11.131,2.153,14.097,2.153c0.853,0,1.422-0.528,1.422-1.422c0-1.462-2.6-2.681-10.156-2.681
			c-1.753,0-4.988,0.649-6.673,1.016c-3.42-5.026-5.027-8.247-5.027-8.247c0.884,2.785,1.873,5.43,2.935,7.97
			c-5.74-0.319-23.735,1.287-27.035,4.382c-0.247-1.741-0.194-2.765-0.194-2.765s-0.298,1.054-0.599,2.521
			c-7.144-7.466-9.094-14.626-9.615-17.549c20.508,0.026,39.34,1.609,56.782,4.997c39.024,7.581,67.589,20.676,67.589,20.676
			s4.162,4.846,10.442,11.986c6.556,7.453,15.384,17.443,22.437,28.786c3.803,6.115,6.718,11.96,8.883,18.865h0.813
			C187.038,203.414,147.388,165.497,147.388,165.497z M108.728,207.7c-2.645,1.007-5.015,1.692-7.153,2.646
			c-11.177,4.993-16.003,9.046-20.52,16.155c-0.035-0.023-0.072-0.045-0.107-0.067c-1.064-3.3-1.404-5.606-1.404-5.606
			s-0.217,1.836-0.05,4.666c-12.68-8.293-18.677-16.279-21.44-21.301c0.933,0.223,1.503,0.305,1.503,0.305
			c-0.458-0.359-0.899-0.714-1.336-1.069c17.096-5.64,23.111-8.517,25.22-9.833C92.112,200.421,101.119,204.854,108.728,207.7z
			 M81.722,192.204c-3.558,0.962-17.732,5.007-24.522,10.1l0.058,0.327c-0.005-0.004-0.012-0.01-0.017-0.015
			c-1.124-2.336-1.422-3.725-1.422-3.725c0.034,0.929,0.111,1.819,0.208,2.69c-9.535-8.303-13.211-15.382-14.593-19.14
			c8.765-0.436,23.82-4.936,25.916-5.573C71.752,182.933,76.655,188.001,81.722,192.204z M51.834,161.516
			c3.151-0.685,5.452-0.899,6.222-0.956c2.383,5.472,5.148,10.385,8.188,14.777c-0.059,0.003-0.118,0.008-0.177,0.011
			c-0.378-0.013-0.75-0.02-1.066-0.02c-7.466,0-18.02,2.874-22.556,5.456c-0.496,0.263-0.939,0.527-1.311,0.792
			c-0.418-1.3-0.509-2.023-0.509-2.023s-0.436,1.037-0.479,2.744c-6.208-6.533-8.509-12.891-9.356-16.945
			c0.417,0.049,0.731,0.063,0.897,0.063c-0.373-0.346-0.732-0.692-1.082-1.038c-0.005-0.024-0.009-0.051-0.014-0.076
			C41.423,164.792,46.124,162.756,51.834,161.516z"/>
		<path fill="#FFFFFF" d="M366.356,149.897c0-0.229-1.184-0.669-3.558-1.144c-0.301-0.704-0.505-1.131-0.505-1.131
			s0.033,0.411,0.077,1.047c-4.479-0.852-12.759-1.779-24.939-1.779c-59.719,0-125.531,30.631-125.531,30.631
			s-11.294,15.681-19.256,52.243v1.625c11.619-30.631,25.106-51.512,25.106-51.512s58.119-21.71,121.879-26.804
			c-3.291,3.565-6.798,6.843-10.46,9.862c-5.564-3.218-15.946-4.264-18.144-4.264c-1.463,0-2.275,0.569-2.275,1.138
			c0,1.3,1.706,2.031,3.575,2.031c3.04,0,10.649,1.378,15.365,2.293c-4.729,3.768-9.696,7.12-14.785,10.103
			c-3.734-2.021-11.37-5.327-18.455-5.327c-3.9,0-5.281,1.3-5.281,3.332c0,0,9.555-0.274,22.653,2.622
			c-6.973,4.003-14.146,7.337-21.216,10.137c-3.551-3.735-11.275-5.935-14.193-5.935c-2.52,0-3.413,1.869-3.413,2.925
			c0,2.167,7.245,2.11,15.141,3.966c-10.489,3.992-20.657,6.848-29.465,9.026c-1.789-1.498-4.919-3.933-6.354-3.933
			c-1.016,0-1.585,1.016-1.585,1.584c0,1.138,0.895,1.95,1.625,1.95c0.731,0,0.569-0.406,1.219-0.406
			c0.808,0,1.953,0.603,3.572,1.176c-5.22,1.269-9.935,2.309-13.891,3.211c0,0.569,0.487,0.406,1.057,0.406
			c4.975,0,10.146-1.117,15.394-2.044c12.385,11.104,19.947,19.68,22.265,22.409c-4.952,1.132-11.898,2.304-19.459,2.304
			c-6.364,0-13.161-1.469-16.675-2.354c0.02-3.189-0.109-6.526-0.414-10.023c-0.46,3.341-0.888,6.522-1.33,9.563
			c-0.436-0.12-0.675-0.192-0.675-0.192s0.211,0.195,0.628,0.514c-0.499,3.407-1.021,6.636-1.639,9.687
			c-2.682-12.818-23.873-34.413-25.396-34.413c-1.197,0.559,15.246,15.556,23.99,40.353c-0.229,0.83-0.469,1.65-0.725,2.453
			c-2.567,8.017-5.846,14.632-9.103,20.081c0.119-1.26,0.219-2.703,0.219-4.063c0-11.05-10.075-25.188-10.075-25.188
			s5.77,23.896,8.686,31.166c-1.188,1.896-2.362,3.638-3.485,5.236c-6.054,8.618-11.11,13.08-13.677,15.11
			c-0.916,0.725-1.436,0.691-1.436,0.922c0,1.678,4.387,16.303,4.387,25.35c0,2.328-0.92,9.263-0.92,9.263s1.863-1.687,2.559-6.862
			c4.146,4.167,21.87,21.938,26.691,26.091c0,0.975-5.309,4.279-7.908,4.929c-1.734-7.529-12.297-20.962-14.246-20.962
			c-0.65,0-0.704,0.433-0.704,0.975c0,1.408,10.021,13,13.379,21.612c0,0.325-3.575,2.492-5.633,2.926
			c-0.919-1.27-8.83-16.521-11.43-16.521c-0.487,0-0.596,0.216-0.596,1.083c0,1.842,2.406,4.647,4.794,8.206
			c2.808,4.188,5.104,8.639,7.068,8.639c7.258,0,7.8-3.737,7.8-4.603c4.063,0,9.967-4.442,9.967-6.122
			c0-1.279-2.487-3.799-5.656-7.335c-6.294-7.026-15.952-16.869-23.348-20.807c0.047-0.702,0.079-1.438,0.079-2.246
			c0-16.087-4.171-20.745-4.171-22.153c0-1.861,31.538-16.326,32.303-61.618c3.14,1.877,9.429,4.634,19.291,4.634
			c11.176,0,18.167-3.311,21.662-5.596l0.933-0.204c0.077,0.407,1.144,1.007,5.437,1.007c21.503,0,27.91-8.729,29.68-14.072
			c0.196,0.059,0.41,0.097,0.626,0.097c7.664-1.163,17.286-8.378,18.046-16.742c6.208-0.098,12.829-5.536,12.829-16.083
			c0-0.597-0.002-1.149-0.011-1.654c3.003-0.854,10.979-3.996,10.979-13.296c0-2.035-0.601-4.407-1.266-6.412
			c0.396-0.002,0.79-0.007,1.185-0.007C365.219,152.009,366.356,151.034,366.356,149.897z M288.152,219.076l0.529-0.116
			c0,0-0.2-0.192-0.559-0.531c0.925-0.706,1.371-1.176,1.371-1.176s-0.701,0.249-1.957,0.625
			c-3.874-3.631-16.886-15.529-26.741-21.134c0.525-0.09,1.05-0.18,1.576-0.263c7.703-1.206,19.074-3.154,31.705-7.745
			c3.851,2.788,14.646,7.963,25.659,18.233C312.918,214.306,302.093,217.756,288.152,219.076z M338.963,189.546
			c-3.345,5.706-10.049,11.624-15.757,15.193c0.337-1.542,0.265-2.584,0.169-2.68c-0.492,0.857-1.037,1.662-1.605,2.444
			c-6.771-6.771-19.638-13.952-24.98-16.787c4.398-1.71,8.925-3.746,13.482-6.189c2.218-1.19,4.329-2.442,6.342-3.732
			c4.032,4.013,17.638,9.72,22.67,10.644c-0.741,0.328-1.512,0.646-2.339,0.946C336.944,189.64,337.778,189.606,338.963,189.546z
			 M341.498,187.366c-0.082-0.892-0.265-1.791-0.573-2.694c-0.195,1.034-0.572,2.105-1.081,3.193
			c-3.906-4.201-15.931-9.625-21.076-11.494c5.21-3.541,9.669-7.317,13.347-10.946c4.014,1.387,15.486,5.263,20.738,6.127
			C351.171,178.329,348.477,183.602,341.498,187.366z M362.619,154.122c0,8.687-5.823,14.76-8.314,16.961
			c-0.057-1.849-0.227-2.905-0.704-2.905c-0.196,0.989-0.403,1.948-0.626,2.881c-3.468-2.677-12.247-5.743-19.371-7.139
			c0.544-0.563,1.077-1.124,1.582-1.676c3.128-3.415,5.703-6.373,6.862-9.358c6.805-0.497,13.664-0.799,20.518-0.862
			C362.598,152.767,362.619,153.498,362.619,154.122z"/>
	</g>
</g>
</svg>
