<?xml version="1.0" encoding="UTF-8"?>
<!DOCTYPE svg PUBLIC "-//W3C//DTD SVG 1.1//EN" "http://www.w3.org/Graphics/SVG/1.1/DTD/svg11.dtd">
<!-- Creator: CorelDRAW -->
<svg xmlns="http://www.w3.org/2000/svg" xml:space="preserve" width="2246px" height="2394px" style="shape-rendering:geometricPrecision; text-rendering:geometricPrecision; image-rendering:optimizeQuality; fill-rule:evenodd; clip-rule:evenodd"
viewBox="0 0 2298.6 2450.06"
 xmlns:xlink="http://www.w3.org/1999/xlink">
 <defs>
  <style type="text/css">
   <![CDATA[
    .fil3 {fill:black}
    .fil0 {fill:white}
    .fil2 {fill:#C2323D}
    .fil1 {fill:black;fill-rule:nonzero}
   ]]>
  </style>
 </defs>
 <g id="Ebene_x0020_1">
  <metadata id="CorelCorpID_0Corel-Layer"/>
  <g id="_76353744">
   <path id="_72598360" class="fil0" d="M1149.3 2436.28c191.189,-115.808 400.252,-200.193 567.676,-359.504 412.183,-392.215 569.788,-943.907 569.788,-1520.32l0 -544.617 -1137.46 0 -1137.46 0 0 544.617c0,576.414 157.603,1128.11 569.788,1520.32 167.424,159.312 376.486,243.696 567.676,359.504z"/>
   <path id="_74750976" class="fil1" d="M1039.19 1641.65c0.247747,1.90947 -1.1058,5.67885 -4.06063,11.3094 -22.5196,32.8537 -63.6468,81.6357 -123.384,146.347 1.15414,14.8056 10.5226,35.2417 28.1054,61.3083 11.5595,17.1393 20.5183,27.7223 26.8703,31.7491 9.94856,6.27827 26.7386,7.68016 50.3748,4.20807 11.2163,-1.85266 34.6387,-11.4169 70.2647,-28.6915 32.5262,-15.706 54.3231,-27.2921 65.3931,-34.7583 1.42726,-0.963192 4.94406,-2.29619 10.5492,-3.999 0,0 -24.023,25.037 -72.0739,75.1109 -28.9526,30.4378 -50.457,57.6719 -64.5121,81.6985 4.11139,9.17752 11.8834,21.8573 23.3209,38.0419 7.34902,11.6671 21.7377,32.6132 43.1648,62.8407 27.6727,36.4031 48.5185,53.2523 62.4504,50.6093 3.22192,-0.616346 10.8139,-4.95615 22.6864,-12.9638 8.90077,-5.48427 15.3627,-8.80408 19.2989,-9.90021 -1.17831,2.87387 -1.16139,5.97977 0.0507579,9.3165l-105.563 61.8546c-30.1188,19.2759 -58.1323,41.288 -84.0406,66.0349 -4.15973,3.84552 -8.62402,6.85595 -13.3904,9.0337 0.108767,-2.15238 1.44539,-9.02766 4.00988,-20.6295 1.7439,-8.96844 1.70643,-15.9573 -0.112393,-20.9642 -13.9705,-43.0488 -43.3557,-97.7803 -88.152,-164.195 -22.6392,-33.5643 -47.3173,-68.6114 -74.0341,-105.14 -15.5223,-20.702 -28.9767,-34.4876 -40.3634,-41.3532 -15.5779,-9.2319 -34.5831,-11.2211 -57.0132,-5.96285 -4.75674,3.72708 -10.7063,8.00163 -17.8475,12.8188l-10.687 11.8846c-3.61348,-5.35738 -1.55899,-11.9378 6.16346,-19.7436 30.0523,-31.7007 58.5372,-65.7194 85.457,-102.062 20.5183,-27.3477 41.2154,-54.8137 62.0902,-82.4019 3.12282,3.08898 7.26322,6.53085 12.42,10.3244 1.19644,0.232036 5.24861,-1.46231 12.1565,-5.08184 18.7007,-10.0162 45.7389,-24.6176 81.1136,-43.8017 26.5573,-15.3156 49.883,-31.569 69.9771,-48.759 -0.704568,2.03394 -0.931771,4.00746 -0.682815,5.91693zm374.065 -258.422c0.248956,1.90826 -1.10459,5.67764 -4.06063,11.3081 -22.5196,32.8549 -63.6468,81.6357 -123.384,146.347 1.15535,14.8068 10.5238,35.2417 28.1054,61.3083 11.5595,17.1393 20.5183,27.7223 26.8703,31.7503 9.94976,6.27827 26.7398,7.67895 50.3748,4.20687 11.2175,-1.85266 34.6399,-11.4169 70.2647,-28.6915 32.5274,-15.7047 54.3231,-27.2909 65.3931,-34.7583 1.42847,-0.963192 4.94527,-2.29619 10.5504,-3.999 0,0 -24.0242,25.0382 -72.0739,75.1121 -28.9526,30.4366 -50.457,57.6719 -64.5133,81.6985 4.11139,9.17631 11.8846,21.8561 23.3209,38.0407 7.34902,11.6671 21.7377,32.6144 43.1648,62.8407 27.674,36.4043 48.5185,53.2535 62.4516,50.6093 3.22192,-0.615138 10.8126,-4.95615 22.6852,-12.9638 8.90198,-5.48427 15.3639,-8.80288 19.3001,-9.90021 -1.17952,2.87387 -1.1626,5.97977 0.0495494,9.31771l-105.563 61.8534c-30.1188,19.2759 -58.1311,41.2892 -84.0406,66.0361 -4.15973,3.84431 -8.62281,6.85474 -13.3892,9.0325 0.108767,-2.15238 1.44539,-9.02766 4.00988,-20.6295 1.7439,-8.96844 1.70643,-15.9561 -0.113601,-20.9642 -13.9693,-43.0488 -43.3545,-97.7803 -88.1508,-164.193 -22.6405,-33.5643 -47.3185,-68.6126 -74.0353,-105.141 -15.5223,-20.7008 -28.9767,-34.4864 -40.3622,-41.352 -15.5791,-9.23311 -34.5843,-11.2211 -57.0132,-5.96406 -4.75795,3.72829 -10.7075,8.00283 -17.8487,12.8188l-10.687 11.8846c-3.61227,-5.35738 -1.55899,-11.9378 6.16346,-19.7436 30.0523,-31.7007 58.5384,-65.7194 85.4582,-102.062 20.5183,-27.3477 41.2154,-54.8137 62.0902,-82.4019 3.12161,3.08898 7.26201,6.53206 12.4188,10.3256 1.19765,0.232036 5.24982,-1.46352 12.1577,-5.08304 18.6995,-10.0162 45.7389,-24.6164 81.1136,-43.8017 26.5561,-15.3144 49.8818,-31.569 69.9771,-48.759 -0.704568,2.03394 -0.932979,4.00746 -0.684024,5.91813zm610.666 45.1178c-20.1992,64.0203 -42.6608,118.913 -67.3787,164.678 -8.27838,15.4546 -16.5737,27.8045 -24.8871,37.0485 -6.6505,7.08194 -14.6171,13.7566 -23.9009,20.018 -29.9943,20.2307 -60.3995,30.6082 -91.2181,31.134 -59.4823,1.15776 -108.693,-9.02887 -147.635,-30.5587 -32.2289,-17.7447 -61.5911,-46.2562 -88.0831,-85.532 -5.53987,-8.21312 -11.5958,-23.3523 -18.1653,-45.4163 -5.23169,-17.7701 -8.0971,-28.5646 -8.59743,-32.3848 -1.67864,-23.2858 6.28794,-63.4668 23.8973,-120.542 14.089,-45.3522 28.6275,-85.0304 43.6156,-119.038 11.0918,-25.1457 27.9471,-50.8014 50.5609,-76.966 22.6151,-26.1633 45.8852,-47.3136 69.8091,-63.4498 7.49767,-5.05767 24.8363,-12.8563 52.016,-23.397 32.5443,-12.5988 50.7422,-16.0419 54.5962,-10.3304 1.68589,2.50164 2.96571,29.4311 3.84068,80.7933 0.493077,24.6043 6.6795,53.4215 18.5665,86.4468 13.7288,20.3515 18.407,35.3783 14.0406,45.0791 -9.75882,-15.2395 -33.9571,-28.0075 -72.5984,-38.3114 -38.6401,-10.3027 -68.4555,-12.5324 -89.45,-6.68434 -20.992,5.84804 -32.8005,9.13764 -35.4254,9.86758 -10.015,3.63886 -21.27,9.6706 -33.7685,18.1012 -50.7036,34.2 -53.5351,84.686 -8.49712,151.458 23.1202,34.2773 57.1812,59.3614 102.183,75.2426 28.1284,10.1214 64.0384,12.5251 107.731,7.21125 43.6929,-5.31146 78.2144,-16.5193 103.566,-33.6187 21.4247,-14.4515 39.057,-34.1359 52.9006,-59.0593 11.4568,-23.8333 22.8568,-47.368 34.2,-70.6043 1.06229,-2.27686 3.69083,-2.23093 7.8844,0.135354 -2.44122,12.5578 -6.89825,27.512 -13.3759,44.8688 -9.65488,25.7355 -15.1319,40.3393 -16.4262,43.8101z"/>
   <path id="_47030944" class="fil2" d="M128.773 1346.26l220.521 -151.95c-123.749,-115.318 -201.179,-279.694 -201.179,-462.144 0,-348.784 282.852,-631.637 631.637,-631.637 264.674,0 491.34,162.903 585.29,393.873l700.322 -482.562 -916.062 0 -1137.46 0 0 544.617c0,273.644 35.5209,541.719 116.935,789.802z"/>
   <path id="_70606040" class="fil3" d="M447.378 1914.31l1825.94 -1258.18c-8.65544,266.65 -52.7592,526.108 -142.157,764.641 -90.6863,241.973 -228.032,462.562 -422.327,647.444 -116.615,110.963 -254.286,185.577 -391.846,260.126 -56.1238,30.4173 -112.231,60.8249 -167.69,94.1681 -55.4603,-33.3431 -111.568,-63.7508 -167.69,-94.1681 -137.56,-74.5489 -275.234,-149.162 -391.846,-260.126 -51.3827,-48.892 -98.781,-100.286 -142.387,-153.909zm230.503 -503.502l-75.6523 55.6102c2.60074,-12.4454 -1.26653,-26.3301 -11.603,-41.6553l-90.7661 -108.753c-3.04427,8.16357 -3.61227,26.5657 -1.7016,55.2113 1.75961,26.608 5.32354,55.6645 10.6894,87.1683 5.23653,33.1196 10.7824,58.5493 16.6377,76.2868 -0.97286,2.18259 -3.55789,4.68786 -7.75509,7.52063 0.209074,-0.142606 -3.2896,-4.19599 -10.496,-12.165 -1.76686,-2.16688 -3.28597,-3.73917 -4.55371,-4.71324 -37.9331,-27.2558 -63.7713,-45.4126 -77.5158,-54.4669 -34.6048,-22.7782 -61.6503,-37.0642 -81.1378,-42.859 19.0101,47.6545 50.9694,126.28 95.8781,235.879 10.5274,24.6635 17.4631,53.7357 20.8035,87.2191 -6.54173,-2.00252 -9.81441,-3.45879 -9.82045,-4.37243 0.71182,-11.1704 -2.04965,-28.3954 -8.28684,-51.6788 -5.94714,-21.9504 -11.8653,-38.4225 -17.7544,-49.4177 -12.4272,-25.2146 -30.0705,-60.6557 -52.9321,-106.323 -17.7496,-35.371 -35.6152,-66.3865 -53.5992,-93.0478 -0.98978,-1.46835 -2.54756,-3.77784 -4.67094,-6.92725 -2.1983,-3.70895 -3.79113,-6.30003 -4.78212,-7.76959 -14.5844,-21.6217 -36.8213,-36.2508 -66.7128,-43.8851 -1.4043,-0.273126 -12.9904,0.2127 -34.7547,1.45264 2.22006,-4.85705 8.99987,-11.1087 20.3346,-18.7551 19.1043,-12.8865 44.0434,-37.4956 74.8184,-73.8323 30.4318,17.0414 64.2185,37.4727 101.359,61.2902 39.1863,25.4926 66.8579,45.0078 83.0134,58.5444 0.419357,-0.282794 1.06713,-0.566797 1.9433,-0.852008 0.877387,-0.28642 1.6303,-0.642934 2.25994,-1.06713 -6.22389,-46.8097 -13.0097,-94.0037 -20.36,-141.58 -6.55019,-42.3152 -12.2157,-83.5439 -16.9979,-123.69 2.7373,-0.0157108 4.70961,0.641725 5.90967,1.96989 40.7381,46.3601 68.0144,77.0602 81.8617,92.1559 31.3346,34.6834 59.6937,64.5 85.1102,89.5056 23.7583,22.9946 37.5597,35.9838 41.3665,38.9108 19.4947,13.9596 36.9627,16.9906 52.3713,9.03975l4.96582 2.60799c-30.5273,17.2311 -46.3505,26.3772 -47.4695,27.4371zm186.357 -135.051l-20.6065 27.1869c-6.13567,8.10798 -10.6749,13.1548 -13.614,15.138 -4.82805,3.25576 -9.15214,2.50648 -12.9687,-2.24785 -0.709403,-1.049 -1.3475,-1.99527 -1.91188,-2.83398l-15.0002 -26.9936c-5.01174,21.0972 -8.14181,33.4386 -9.38538,37.0279 -5.45769,16.8142 -11.5462,27.4878 -18.2644,32.0174 -6.50789,4.39056 -17.0909,8.16961 -31.7527,11.3396 -2.52339,0.785539 -4.20445,1.46352 -5.04437,2.02911 -3.86606,-0.751701 -8.95515,-3.20017 -15.2624,-7.34419 -6.30969,-4.14523 -10.948,-8.42098 -13.9222,-12.8297 -6.08854,-9.02766 -8.00888,-19.7968 -5.75861,-32.3098 1.62425,-11.1752 5.88913,-21.3824 12.791,-30.6191 12.3414,-16.5725 26.6987,-36.9457 43.0729,-61.1246 0.566797,0.839923 -0.2127,-0.313007 -2.33607,-3.46362 -1.2762,-1.88892 -5.1906,-5.2039 -11.7493,-9.94493 -13.2539,-9.68872 -28.6988,-8.58655 -46.3323,3.30773 -4.61897,3.11436 -9.7854,8.58534 -15.5029,16.4129 -5.71631,7.82518 -10.0307,15.4691 -12.9384,22.9281 -0.810918,-7.08919 -0.31905,-13.3771 1.47802,-18.8638 1.17589,-3.23884 3.08052,-8.34122 5.71027,-15.3071 8.6216,-29.3333 19.6482,-48.5294 33.0833,-57.5921 27.5011,-18.5484 52.0196,-10.4996 73.5567,24.1475l37.8376 61.5295c6.09337,9.93889 12.6629,16.9628 19.7074,21.0658 8.80892,5.361 17.3749,4.92835 25.6968,-1.29554l4.02196 3.24247 -4.60568 5.39726zm-99.1399 -40.3368c1.88892,-1.27499 -2.88958,4.54525 -14.3367,17.4595 -9.14489,10.444 -15.4183,18.7998 -18.8276,25.0684 -5.62809,11.1281 -5.75257,20.679 -0.371016,28.6565 4.67336,6.92846 12.0272,9.90867 22.0652,8.94065 7.65115,-0.884638 14.6243,-3.44912 20.9231,-7.6995 7.34782,-4.95494 12.3293,-12.0586 14.9482,-21.3062 2.61887,-9.25003 1.45023,-17.549 -3.50471,-24.8968l-18.691 -27.709 -2.20555 1.48648zm165.943 -198.41c0.84234,-0.566797 1.4744,-0.534167 1.89738,0.0942647l0.6381 0.946273 1.91067 2.83398c-3.62678,4.58393 -8.99624,11.5643 -16.1084,20.9449 -0.489452,0.634474 -0.94023,1.55053 -1.35596,2.74576l0 0c12.5275,4.98878 21.7643,11.8931 27.7126,20.7092 6.51394,9.65609 10.0609,22.8399 10.6435,39.5525 0.25379,8.07655 -1.22544,16.6341 -4.44494,25.6751 -3.21588,9.04337 -6.55623,17.7858 -10.0223,26.2334 -3.04185,9.076 -9.50382,21.6833 -19.3907,37.8183 11.5559,-5.96164 23.113,-11.9221 34.6677,-17.8861 13.5923,-6.1115 26.1101,-9.51711 37.5536,-10.2096 20.6416,-1.09492 36.1324,6.02086 46.4677,21.3461 5.80574,8.60468 8.63368,18.4566 8.48262,29.5544 -0.149857,11.0967 -5.18577,28.0861 -15.1065,50.9634 -8.46328,19.1478 -14.7005,31.0699 -18.7152,35.7614 -4.01229,4.69269 -10.4271,10.0114 -19.2433,15.9597 -15.3253,10.3365 -29.7562,17.016 -43.2953,20.0385 -16.9749,3.8141 -29.0372,0.648976 -36.1856,-9.49536 -1.55658,-2.31069 -3.06119,-7.70916 -4.51262,-16.199 -2.03032,-12.0683 0.265875,-29.042 6.88979,-50.9199l8.59622 -7.63182c-4.20687,14.1385 -4.32893,24.1487 -0.364974,30.0257 3.25818,4.82926 9.66818,8.44636 19.2336,10.8513 19.1817,1.72335 39.3011,-5.12897 60.356,-20.5521 12.3136,-8.91527 15.5186,-19.7835 9.62105,-32.6047 -1.34871,-2.45088 -2.80015,-4.83046 -4.35793,-7.13995 -11.3263,-16.7948 -27.8008,-24.0097 -49.4189,-21.6434 -7.64995,0.882221 -14.7657,3.24005 -21.3461,7.06865l-52.9321 30.2034 -1.38376 -2.73005c0.839923,-0.568005 4.03646,-6.92362 9.58962,-19.0693 5.55195,-12.1432 9.29716,-20.8543 11.2344,-26.1331 -17.1598,8.52129 -33.3371,10.5746 -48.5306,6.16226 -13.2273,-4.21291 -24.3699,-13.0363 -33.4314,-26.4727 -16.4262,-24.3505 -17.2045,-51.3151 -2.33487,-80.8924 1.86838,-4.92715 4.50537,-10.9794 7.90736,-18.1629 6.81486,-12.5372 14.489,-21.9891 23.0236,-28.3556 9.16302,-6.7931 21.2144,-12.02 36.1529,-15.6818 4.55975,-0.939022 11.6006,-4.31201 21.1201,-10.1238 9.58962,-6.16105 15.8486,-11.1462 18.778,-14.9555l0.00483409 1.37046zm-68.9136 74.4317c-8.62764,2.15359 -15.6697,5.06975 -21.1274,8.75212 -3.14941,2.12337 -5.36705,4.15369 -6.65654,6.09337 -1.28949,1.93726 -0.756535,6.23718 1.59646,12.8961 1.7874,5.81903 3.67149,10.1987 5.65468,13.1378 9.91109,14.6944 22.8314,23.7728 38.7573,27.2328 15.9247,3.46 31.4457,0.0942647 46.5619,-10.1008 0.628432,-0.4254 1.51911,-1.25565 2.67204,-2.49197 1.15172,-1.2339 2.00736,-2.11612 2.56569,-2.64666 0.559546,-0.530541 -0.462864,-4.65039 -3.06965,-12.362 -2.60437,-7.71037 -5.18094,-13.4557 -7.72971,-17.2335 -14.8672,-22.0434 -34.6097,-29.8022 -59.2248,-23.2773zm268.245 -3.26784c-9.78057,-16.3114 -16.4734,-26.9138 -20.082,-31.8107 -3.99175,14.9107 -7.37561,25.7439 -10.148,32.5008 -4.71082,12.0369 -10.5589,21.4779 -17.5441,28.3278 -23.4067,9.67906 -45.8356,11.064 -67.2941,4.15611 -19.2083,-6.28552 -34.4042,-17.7218 -45.5903,-34.3051 -11.0459,-16.3743 -15.9283,-33.2392 -14.6533,-50.5924 1.2762,-17.3544 8.62039,-38.9555 22.0362,-64.8022 5.69577,-11.4785 16.2075,-22.3867 31.5328,-32.7219 7.76596,-5.24015 14.6316,-8.64698 20.5908,-10.2265l-0.211491 -0.313007 -10.6193 -15.7446c-6.58765,-10.2181 -13.585,-18.3284 -20.9389,-24.3638 -11.8181,-10.0477 -22.1873,-12.0635 -31.0034,-6.11754 -1.62788,1.09976 -3.16391,2.44001 -4.509,3.95791 -0.771037,0.215117 -1.77411,-0.025379 -3.11194,-0.650185l-1.58921 -1.67743c20.5038,-26.6588 38.1821,-56.1455 53.0372,-88.4614l0.454404 6.10787 0 0c1.62063,1.04416 2.26115,2.44484 1.91913,4.20324 -1.45989,2.81707 -1.617,6.43417 -0.467698,10.8525 0.581299,3.57843 2.6805,8.73037 6.29882,15.451 22.9245,44.4023 43.4512,80.4973 61.5815,108.28 4.32651,7.77201 8.75695,15.4751 13.2925,23.1045 8.0125,14.1445 15.3821,25.9724 22.1051,35.4883 20.3153,29.6668 35.6176,41.0317 45.9033,34.0936 2.31069,-1.55779 5.55316,-5.57733 9.73223,-12.0611 -2.39287,-0.830255 -4.00988,-1.41881 -4.85463,-1.76444 0.902766,-1.83333 1.63392,-2.78323 2.19709,-2.85695 2.67446,1.24961 6.15742,2.56569 10.4489,3.94583 -22.4,39.2395 -37.5899,61.5512 -45.5673,66.9316 -1.05021,0.706986 -2.03153,1.06592 -2.94517,1.06833zm-143.506 -102.04c-6.92121,5.58579 -10.7981,10.0307 -11.6212,13.336 -2.73247,14.0612 0.926937,28.5429 10.9806,43.4488 10.7607,15.9549 27.28,25.275 49.5579,27.9628 21.2229,2.48593 39.6033,-1.51186 55.1376,-11.9897 4.40748,-2.97296 8.56238,-7.45658 12.4635,-13.446 -1.41639,-2.10041 -8.46812,-13.6853 -21.1528,-34.7559 -8.71586,-14.2811 -16.0794,-25.1965 -22.0894,-32.7485 -4.24191,-5.38518 -7.98229,-8.6651 -11.2199,-9.84221 -5.41901,-2.14754 -16.0153,-0.651394 -31.789,4.49208 -14.5844,4.64193 -24.6732,9.15697 -30.2674,13.5427zm252.917 -156.348c1.90101,0.551086 4.50416,1.69556 7.81551,3.43462 2.1125,1.32212 2.47264,2.76026 1.078,4.31322 -12.1976,17.694 -24.4967,35.458 -36.901,53.2946 -14.5663,20.5135 -28.0256,38.1458 -40.3767,52.891 11.8641,12.1565 26.5379,17.8366 44.0228,17.0377 14.182,-0.706986 27.7803,-5.45285 40.7961,-14.2316 14.0648,-9.4869 24.272,-24.4641 30.624,-44.9377 1.40672,0.274335 2.65391,0.652602 3.74521,1.13964 1.0913,0.484617 2.3397,0.864093 3.74642,1.13843 -7.28256,29.9556 -12.3789,48.666 -15.2878,56.1262 -7.7575,20.198 -18.7333,35.8496 -32.931,46.9511 -0.911226,0.00604261 -2.34816,0.363765 -4.31201,1.078 -13.0992,6.39067 -23.7934,9.32979 -32.0838,8.81134 -13.6986,-0.837506 -27.1543,-5.05041 -40.3634,-12.6339 -13.2091,-7.58348 -23.6363,-17.0438 -31.2826,-28.3809 -21.6652,-32.1177 -18.2294,-72.3071 10.3027,-120.571 4.94044,-8.52492 11.7154,-15.6902 20.3213,-21.496 10.7063,-7.21971 22.5015,-11.3577 35.3819,-12.4103 12.8828,-1.05383 24.9947,1.62063 36.3354,8.01975l-0.630849 0.4254zm-93.0949 53.8614c-1.99406,1.8007 -2.87628,4.00021 -2.65271,6.59853 0.285211,13.5524 4.10777,25.7874 11.4713,36.704 2.12337,3.1482 4.45461,5.69939 6.99372,7.65236 4.61776,-3.11557 11.8435,-11.1958 21.6748,-24.2417 8.99745,-11.5656 15.7591,-21.0138 20.2838,-28.3423 3.20258,-5.21477 4.73257,-7.9267 4.59118,-8.13577 -19.0125,-9.16906 -37.7542,-7.52184 -56.2289,4.93802 -2.09799,1.41639 -4.14402,3.02493 -6.13325,4.82684zm293.978 -57.4121c-9.23674,19.3642 -16.2534,33.4132 -21.0525,42.1472 -9.53041,17.1175 -18.3804,29.807 -26.5524,38.0685 -11.5269,11.4411 -30.5635,23.5178 -57.1123,36.2315 -3.49746,-10.1637 -9.67664,-22.9462 -18.5375,-38.3512 -3.4032,-5.94956 -11.5184,-19.566 -24.3445,-40.8468 -18.0722,-29.9605 -39.4558,-62.1168 -64.152,-96.4655 -8.5648,-12.2447 -16.2667,-20.9461 -23.1069,-26.1077 -10.9311,-8.508 -20.5968,-9.93043 -28.9924,-4.26608 -1.67985,1.13118 -3.21829,2.47505 -4.61293,4.0268 -0.982529,0.356514 -2.07141,0.32751 -3.26664,-0.0882221l-1.80312 -1.99044c20.7141,-26.8014 38.3948,-56.2869 53.0384,-88.4626l0.76862 5.89517 0 0c1.41276,1.18798 2.05207,2.58745 1.91913,4.20445 -3.54943,6.05953 -1.38618,16.5108 6.49097,31.3563 4.81959,8.05238 12.084,20.4071 21.7957,37.0702 6.5236,11.4822 12.8635,21.5612 19.0197,30.2384 9.34188,12.9409 16.17,22.3842 20.4857,28.3314l2.9077 -7.91703c6.09579,-15.4135 10.6072,-25.4805 13.5306,-30.2034 5.15072,-8.6651 13.0798,-16.6087 23.7861,-23.8309 17.213,-11.6091 35.4605,-13.9911 54.7412,-7.14358 16.7453,5.81058 30.4282,16.587 41.0487,32.3316 6.37133,9.44702 11.3214,21.9903 14.8479,37.6334 3.60381,17.1175 3.32102,29.8287 -0.847174,38.1385zm-127.225 -52.0897c-4.61897,3.11557 -8.00767,6.47043 -10.1637,10.0634 -6.0547,10.4972 0.618763,30.126 20.018,58.8865 16.8492,24.9802 28.0897,38.4745 33.7178,40.4807 11.4689,3.8709 24.7614,0.709403 39.8764,-9.4869 9.23674,-6.22993 14.6932,-13.1946 16.3743,-20.8941 1.67743,-7.6995 0.369808,-18.8058 -3.92045,-33.3214 -2.36387,-8.48503 -6.02448,-16.4009 -10.9794,-23.7487 -10.1951,-15.115 -22.6803,-25.02 -37.4533,-29.7164 -16.8142,-5.45769 -32.6386,-2.87749 -47.4695,7.73696zm350.556 -95.5228c-6.41,9.5159 -14.489,21.9903 -24.2393,37.4231 -3.68358,6.76168 -9.39384,15.9585 -17.126,27.5881 -2.23093,3.03097 -7.07832,9.2029 -14.5434,18.5146 -7.01064,-10.8477 -11.4362,-17.6384 -13.278,-20.366 -4.67215,-6.92846 -8.10556,-11.7903 -10.2966,-14.5869 -5.56404,22.9946 -8.90198,35.9354 -10.009,38.8202 -5.26311,13.9355 -13.1415,24.4412 -23.6375,31.5219 -16.1652,10.9021 -30.7363,11.2634 -43.7135,1.07921 -5.99548,-4.81234 -12.6436,-13.3107 -19.9442,-25.4902 -2.19588,-3.71137 -5.52778,-9.5582 -9.99569,-17.5393 -3.61832,-6.72301 -6.27706,-11.3444 -7.97625,-13.8642 -1.98198,-2.93792 -6.22752,-8.77991 -12.7354,-17.5224 -3.53976,-5.24982 -9.05667,-12.0659 -16.5459,-20.453 -4.09085,-3.34882 -13.5113,1.47681 -28.2601,14.4793 -0.780705,-1.61096 -1.843,-3.18566 -3.18566,-4.72291 6.69763,-8.1817 14.2859,-20.4796 22.7649,-36.8889 4.79421,-9.64763 12.6496,-24.7203 23.565,-45.2157 2.43155,8.13335 6.84386,18.749 13.2357,31.8482 6.81486,13.7288 10.7244,22.2404 11.7239,25.5361l19.9007 36.9723c5.30783,7.41791 8.77387,12.1046 10.4005,14.0612 3.60381,3.9845 8.29288,7.54118 14.0696,10.6688 4.29509,2.29498 10.4416,2.57778 18.4384,0.849591 6.8064,-1.23028 12.0985,-3.12161 15.8764,-5.67039l4.72532 -3.18566c5.66676,-3.82256 10.1286,-9.88692 13.3856,-18.1907 2.4255,-5.9133 -5.42264,-22.3045 -23.5493,-49.1748l-14.8672 -22.0434c-2.40617,-3.56756 -6.32057,-6.42692 -11.7384,-8.57567 -6.61666,-2.56086 -12.2327,-2.28532 -16.8504,0.830255 -1.46956,0.990988 -5.59667,4.38452 -12.3765,10.1794 -1.13239,-1.67864 -2.19588,-3.25455 -3.18566,-4.72291 6.69642,-8.1817 14.2847,-20.4784 22.7661,-36.8889 4.58272,-9.50503 12.3318,-24.5064 23.2483,-45.003 2.85695,8.763 6.90912,17.9417 12.1577,27.5338 2.62249,4.3398 6.13446,11.1341 10.5395,20.3817 11.719,24.1656 24.1874,44.0083 37.4038,59.5294 3.96033,4.9634 10.3848,11.3202 19.2771,19.0681 7.18708,4.31322 14.9784,3.64128 23.3764,-2.02307 8.18532,-5.52174 14.3282,-12.7185 18.4227,-21.5915l2.77598 6.83419zm61.5416 -186.401c-2.30465,2.47143 -10.6471,11.6115 -25.0285,27.4202 -8.09952,8.82342 -17.9224,17.1296 -29.4686,24.9161 22.6078,37.5935 33.0628,55.1292 31.3636,52.6094 22.2296,32.9588 42.6633,45.1395 61.2975,36.5397 1.25928,-0.849591 4.27092,-2.27081 9.03612,-4.26246l4.51746 -2.13183c1.40309,-0.639308 2.10283,-0.959567 2.10283,-0.959567 1.67985,-1.13239 2.91254,-0.437485 3.69687,2.08833 0.4254,0.628432 0.67919,1.67985 0.756535,3.15424 -33.5353,19.566 -66.3152,42.2874 -98.3399,68.1643 -1.67985,1.1348 -4.28663,-0.0108767 -7.81551,-3.43341 4.89089,-4.52108 7.86023,-7.59194 8.90439,-9.21377 2.50889,-3.52526 3.50592,-7.70916 2.98747,-12.5529 3.15908,-13.4303 -1.21094,-28.9622 -13.104,-46.5958l-27.1881 -40.3066c-14.159,-20.992 -27.222,-27.4528 -39.1863,-19.3811 -1.46956,0.990988 -5.73444,4.62864 -12.7934,10.919 -1.13359,-1.67985 -2.19588,-3.25455 -3.18687,-4.72411 6.9768,-8.67598 14.8781,-21.641 23.704,-38.8951 4.86189,-9.99931 13.0291,-25.7403 24.5004,-47.2218 2.78806,9.11468 6.949,18.6777 12.4792,28.6915 2.3397,3.92045 5.53382,10.0126 9.58237,18.2777l9.43614 -66.8397c2.18138,0.971652 3.66182,2.26235 4.44374,3.87331l0.322675 1.15776c0.282794,0.419357 0.495494,0.734782 0.636891,0.945064 3.96395,5.87704 10.1468,9.26816 18.5436,10.1709 8.39681,0.901558 15.5356,-0.62964 21.4138,-4.5948 2.30828,-1.55779 6.39671,-5.23048 12.2653,-11.0217 3.07569,-2.68534 5.55679,-5.12293 7.43966,-7.30914l0.630849 -0.4254c0.419357,-0.282794 3.22796,-0.648976 8.42219,-1.09734 -6.33266,10.9903 -13.7904,21.67 -22.3722,32.0391zm169.88 -139.906c0.841132,-0.565588 1.47319,-0.534167 1.89738,0.0954733l0.636891 0.945064 1.91188 2.83398c-3.62678,4.58393 -8.99624,11.5656 -16.1096,20.9449 -0.489452,0.634474 -0.939022,1.55053 -1.35475,2.74576l0 0c12.5275,4.98999 21.7643,11.8931 27.7126,20.7092 6.51273,9.65609 10.0609,22.8411 10.6435,39.5525 0.252581,8.07655 -1.22665,16.6341 -4.44494,25.6751 -3.21588,9.04337 -6.55623,17.787 -10.0235,26.2334 -3.04064,9.076 -9.50382,21.6833 -19.3895,37.8183 11.5559,-5.96043 23.1118,-11.9221 34.6677,-17.8861 13.591,-6.1115 26.1101,-9.5159 37.5536,-10.2096 20.6416,-1.09492 36.1312,6.02086 46.4677,21.3461 5.80574,8.60468 8.63247,18.4578 8.48141,29.5556 -0.149857,11.0967 -5.18456,28.0861 -15.1053,50.9634 -8.46328,19.1478 -14.7017,31.0687 -18.7164,35.7602 -4.01109,4.69269 -10.4259,10.0114 -19.2421,15.9597 -15.3253,10.3365 -29.7574,17.016 -43.2953,20.0397 -16.9749,3.8141 -29.0384,0.647768 -36.1868,-9.49657 -1.55537,-2.30949 -3.05998,-7.70796 -4.51141,-16.199 -2.03032,-12.0683 0.265875,-29.042 6.88858,-50.9199l8.59743 -7.63182c-4.20807,14.1385 -4.32893,24.1487 -0.364974,30.0257 3.25818,4.82926 9.66697,8.44636 19.2336,10.8525 19.1805,1.72214 39.3011,-5.12897 60.356,-20.5521 12.3136,-8.91527 15.5186,-19.7847 9.61984,-32.6059 -1.3475,-2.45088 -2.79894,-4.83046 -4.35672,-7.13874 -11.3275,-16.7948 -27.8021,-24.0097 -49.4189,-21.6446 -7.64995,0.882221 -14.7657,3.24005 -21.3461,7.06865l-52.9321 30.2046 -1.38497 -2.73126c0.841132,-0.568005 4.03767,-6.92242 9.58962,-19.0681 5.55316,-12.1444 9.29716,-20.8555 11.2356,-26.1343 -17.1598,8.52129 -33.3383,10.5758 -48.5318,6.16226 -13.2261,-4.21291 -24.3686,-13.0363 -33.4314,-26.4715 -16.425,-24.3517 -17.2045,-51.3163 -2.33366,-80.8936 1.86838,-4.92594 4.50537,-10.9794 7.90736,-18.1629 6.81365,-12.536 14.489,-21.9891 23.0223,-28.3556 9.16302,-6.7919 21.2144,-12.0188 36.1542,-15.6818 4.55975,-0.939022 11.6006,-4.31201 21.1201,-10.1226 9.58842,-6.16105 15.8474,-11.1474 18.7768,-14.9567l0.00604261 1.37046zm-68.9148 74.4317c-8.62764,2.15359 -15.6685,5.06975 -21.1262,8.75212 -3.15062,2.12337 -5.36826,4.15369 -6.65775,6.09337 -1.28828,1.93847 -0.756535,6.23839 1.59767,12.8961 1.7862,5.82024 3.67149,10.1999 5.65468,13.1391 9.91109,14.6944 22.8302,23.7716 38.7573,27.2328 15.9247,3.45879 31.4457,0.0930562 46.5607,-10.102 0.62964,-0.424191 1.52032,-1.25565 2.67204,-2.49076 1.15293,-1.23511 2.00856,-2.11733 2.56569,-2.64787 0.559546,-0.529333 -0.462864,-4.65039 -3.06844,-12.362 -2.60557,-7.71037 -5.18094,-13.4557 -7.72971,-17.2335 -14.8684,-22.0422 -34.6109,-29.801 -59.2261,-23.2773zm212.051 -143.911c1.8998,0.551086 4.50416,1.69677 7.81431,3.43462 2.11371,1.32212 2.47264,2.76026 1.078,4.31322 -12.1964,17.694 -24.4955,35.458 -36.8998,53.2946 -14.5675,20.5135 -28.0256,38.1458 -40.3767,52.891 11.8629,12.1565 26.5379,17.8366 44.0216,17.0377 14.1832,-0.706986 27.7815,-5.45285 40.7961,-14.2316 14.066,-9.4869 24.2732,-24.4641 30.624,-44.9377 1.40672,0.274335 2.65391,0.652602 3.74642,1.13964 1.09009,0.484617 2.33849,0.864093 3.74521,1.13843 -7.28135,29.9569 -12.3789,48.6672 -15.2866,56.1262 -7.75871,20.198 -18.7345,35.8496 -32.931,46.9523 -0.912434,0.00483409 -2.34937,0.362557 -4.31322,1.078 -13.098,6.38946 -23.7922,9.32858 -32.0826,8.81013 -13.6986,-0.837506 -27.1543,-5.05041 -40.3646,-12.6339 -13.2091,-7.58348 -23.6363,-17.0438 -31.2826,-28.3809 -21.664,-32.1177 -18.2294,-72.3071 10.3027,-120.571 4.94044,-8.52492 11.7154,-15.6902 20.3213,-21.496 10.7075,-7.21971 22.5015,-11.3577 35.3819,-12.4103 12.8828,-1.05262 24.9947,1.62063 36.3366,8.01975l-0.630849 0.4254zm-93.0961 53.8614c-1.99406,1.80191 -2.87628,4.00142 -2.65271,6.59853 0.285211,13.5524 4.10777,25.7874 11.4713,36.704 2.12458,3.1482 4.45461,5.69939 6.99493,7.65236 4.61656,-3.11557 11.8423,-11.1958 21.6736,-24.2417 8.99866,-11.5656 15.7591,-21.0138 20.2838,-28.3423 3.20379,-5.21477 4.73378,-7.9267 4.59238,-8.13577 -19.0125,-9.16906 -37.7554,-7.52184 -56.2289,4.93802 -2.0992,1.41639 -4.14523,3.02493 -6.13446,4.82684zm222.575 -144.538c-2.30465,2.47022 -10.6459,11.6115 -25.0273,27.4202 -8.10072,8.82342 -17.9236,17.1284 -29.4686,24.9161 22.6066,37.5923 33.0615,55.128 31.3636,52.6082 22.2296,32.9588 42.662,45.1395 61.2975,36.5397 1.25807,-0.849591 4.26971,-2.27081 9.03491,-4.26125l4.51866 -2.13304c1.40189,-0.6381 2.10283,-0.958358 2.10283,-0.958358 1.67864,-1.13239 2.91254,-0.437485 3.69687,2.08712 0.4254,0.62964 0.677981,1.68105 0.756535,3.15424 -33.5365,19.566 -66.3165,42.2886 -98.3411,68.1655 -1.67864,1.13359 -4.28542,-0.0120852 -7.81431,-3.43462 4.89089,-4.52108 7.85902,-7.59073 8.90318,-9.21257 2.50889,-3.52526 3.50592,-7.70916 2.98868,-12.5529 3.15908,-13.4303 -1.21094,-28.9622 -13.1052,-46.5958l-27.1881 -40.3078c-14.159,-20.992 -27.2208,-27.4516 -39.1863,-19.3811 -1.46956,0.990988 -5.73444,4.62985 -12.7922,10.919 -1.1348,-1.67864 -2.19588,-3.25334 -3.18687,-4.72291 6.97559,-8.67598 14.8769,-21.641 23.7027,-38.8963 4.86189,-9.99931 13.0291,-25.7391 24.5016,-47.2206 2.78806,9.11347 6.949,18.6777 12.4792,28.6903 2.3397,3.92165 5.53262,10.0138 9.58237,18.2789l9.43614 -66.841c2.18017,0.971652 3.66182,2.26235 4.44374,3.87331l0.322675 1.15776c0.282794,0.419357 0.494286,0.73599 0.635683,0.945064 3.96395,5.87704 10.148,9.26816 18.5448,10.1709 8.3956,0.902766 15.5343,-0.628432 21.4126,-4.59359 2.30828,-1.55779 6.39671,-5.23169 12.2653,-11.0217 3.0769,-2.68655 5.55679,-5.12293 7.44087,-7.31035l0.630849 -0.4254c0.419357,-0.281586 3.22675,-0.648976 8.42098,-1.09734 -6.33266,10.9903 -13.7892,21.67 -22.3722,32.0403zm-324.539 -188.485l-526.075 362.495c-24.7421,-38.3645 -53.4735,-73.9193 -85.6166,-106.061 -115.703,-115.705 -275.537,-187.28 -452.051,-187.28 -176.514,0 -336.35,71.5747 -452.053,187.28 -115.705,115.704 -187.28,275.538 -187.28,452.053 0,141.941 46.29,273.086 124.584,379.182l-160.587 110.652c-55.8531,-212.188 -80.7402,-436.869 -80.7402,-665.543l0 -532.778 1125.62 0 694.193 0zm-515.311 2325.48c-58.4151,31.6572 -116.811,63.3072 -172.776,97.2051l-6.10545 3.69687 -6.10545 -3.69687c-55.9655,-33.9003 -114.364,-65.5478 -172.776,-97.2051 -138.952,-75.3042 -278.018,-150.671 -396.933,-263.826 -196.995,-187.45 -336.233,-411.063 -428.152,-656.321 -101.6,-271.097 -145.334,-568.473 -145.334,-872.554l0 -544.617 0 -11.8375 11.8375 0 1137.46 0 1137.46 0 11.8375 0 0 11.8375 0 544.617c0,304.079 -43.734,601.456 -145.334,872.553 -91.919,245.26 -231.156,468.87 -428.152,656.322 -118.916,113.155 -257.982,188.522 -396.933,263.826zm-1014.68 -1414.29l118.884 61.1416 154.711 -106.606 -41.9961 -279.493 -144.62 -80.7982 -134.121 112.661 47.142 293.094zm104.536 71.0273l-115.677 -59.4931 -86.6933 52.6976c17.3556,36.6013 38.17,71.2412 62.0141,103.509l140.357 -96.7132zm656.58 -823.701l-46.7094 88.8228 -172.13 32.1805 -158.703 -80.264 -12.3765 -107.513c30.9926,-4.73862 62.7356,-7.19917 95.0515,-7.19917 106.648,0 207.054,26.7833 294.867,73.9724zm-725.073 98.097l64.3236 67.5419 -21.5008 168.027 -134.644 113.1 -90.7238 -15.0062c23.9577,-124.879 85.1537,-236.537 171.58,-322.962 3.61106,-3.61227 7.26684,-7.17741 10.9649,-10.7003zm79.2331 71.8128l258.279 -117.032 158.936 80.3812 -29.1061 150.82 -262.829 131.07 -146.208 -81.6852 20.928 -163.554zm600.735 -65.769l173.338 178.78 -227.885 157.025 -143.22 -151.78 29.4396 -152.555 168.327 -31.4699z"/>
  </g>
 </g>
</svg>
