<?xml version="1.0" encoding="utf-8"?>
<!-- Generator: Adobe Illustrator 13.0.2, SVG Export Plug-In . SVG Version: 6.00 Build 14948)  -->
<!DOCTYPE svg PUBLIC "-//W3C//DTD SVG 1.0//EN" "http://www.w3.org/TR/2001/REC-SVG-20010904/DTD/svg10.dtd">
<svg version="1.0" id="Layer_1" xmlns="http://www.w3.org/2000/svg" xmlns:xlink="http://www.w3.org/1999/xlink" x="0px" y="0px"
	 width="343.895px" height="343.896px" viewBox="0 0 343.895 343.896" enable-background="new 0 0 343.895 343.896"
	 xml:space="preserve">
<path fill="#FFFFFF" d="M0,171.949c0,94.812,77.137,171.947,171.949,171.947c94.811,0,171.945-77.135,171.945-171.947
	c0-45.93-17.885-89.109-50.361-121.586S217.877,0,171.949,0C77.137,0,0,77.137,0,171.949z"/>
<circle fill="#092857" cx="171.948" cy="171.949" r="141.333"/>
<path fill="#88B7E1" d="M301.822,170.277c0,0-17.541-13.33-51.207-13.33c-15.334,0-16,3.668-29.334,3.668
	c-9.334,0-19.666-4-19.666-21.668c0-20.332,25-51,25-51s-45,33.668-45,64.668c0,23,20.666,32.333,37,32.333
	c15,0,14.666-2.668,31.666-2.668c40.666,0,47.516,15.049,47.516,15.049s-21.85-10.381-42.516-10.381c-40,0-51,14-81.668,14
	c-30.332,0-40.332-14-82-14c-28.332,0-45.471,10.545-45.471,10.545c29.139-30.546,98.139-4.213,98.139-89.212
	c0-32.666-10.334-47-10.334-47s4,15.668,4,28.666c0,37.668-23.334,64.668-52,64.668c-22.664,0-43.938,13.998-43.938,13.998h-0.002
	c-0.041-1.328-0.061-2.662-0.061-3.998c0-71.797,58.203-130,130-130c71.799,0,130.002,58.203,130.002,130
	c0,1.887-0.041,3.766-0.121,5.633L301.822,170.277z"/>
<g>
	<polygon fill="#88B7E1" points="94.426,212.583 115.918,212.583 112.713,229.91 125.252,229.91 128.455,212.583 149.947,212.583 
		140.254,265.029 118.762,265.029 122.053,247.22 109.516,247.22 106.227,265.029 84.734,265.029 	"/>
	<path fill="#88B7E1" d="M176.195,212.583h25.023l11.82,52.445h-24.047l-0.621-6.375h-15.51l-2.887,6.375h-24.174L176.195,212.583z
		 M178.627,245.923h8.506l-1.504-15.457L178.627,245.923z"/>
	<path fill="#88B7E1" d="M252.486,211.595c-14.824,0-36.418,10.943-36.418,32.734c0,12.039,9.852,21.59,26.566,21.59
		c13.531,0,15.887-2.691,15.887-2.691l3.602-19.496c0,0-6.555,4.977-13.418,4.977c-6.168,0-9.852-4.873-9.852-8.16
		c0-5.869,6.668-11.543,13.234-11.543c5.871,0,11.82,5.072,11.82,5.072l3.672-19.879
		C267.58,214.199,262.236,211.595,252.486,211.595z"/>
</g>
<g>
	<circle fill="#092857" cx="145.947" cy="167.781" r="13.5"/>
	<circle fill="#092857" cx="98.281" cy="133.281" r="9"/>
	<circle fill="#092857" cx="239.947" cy="141.615" r="9"/>
	<circle fill="#092857" cx="216.114" cy="143.781" r="6.167"/>
	<circle fill="#092857" cx="157.613" cy="138.947" r="6"/>
	<circle fill="#092857" cx="120.114" cy="177.115" r="3.167"/>
	<circle fill="#092857" cx="114.613" cy="125.947" r="4"/>
	<circle fill="#092857" cx="212.364" cy="130.031" r="3.749"/>
	<circle fill="#092857" cx="215.114" cy="119.449" r="3.167"/>
	<circle fill="#092857" cx="157.947" cy="113.947" r="4"/>
	<circle fill="#092857" cx="152.447" cy="93.449" r="3.166"/>
	<circle fill="#092857" cx="236.282" cy="78.281" r="3.667"/>
	<circle fill="#092857" cx="247.78" cy="71.115" r="2.833"/>
	<circle fill="#092857" cx="130.947" cy="48.281" r="3.666"/>
</g>
<g>
	<path d="M153.521,59.25c0,21.047,17.123,38.17,38.17,38.17s38.17-17.123,38.17-38.17s-17.123-38.168-38.17-38.168
		S153.521,38.203,153.521,59.25z"/>
	<path fill="#FFFFFF" d="M155.285,59.25c0,20.074,16.33,36.406,36.406,36.406c20.074,0,36.404-16.332,36.404-36.406
		s-16.33-36.404-36.404-36.404C171.615,22.846,155.285,39.176,155.285,59.25z"/>
	<path d="M223.553,68.205c0.998-4.293,1.377-14.031,0.033-18.617c0.779-1.713,1.193-3.877,1.348-5.398
		c-1.072-2.496-5.881-10.158-9.271-13.012c-1.436-0.479-3.592-0.523-5.824-0.145c-3.42-3.045-10.234-5.957-15.666-5.906
		c-1.129-2.154-2.893-2.797-5.064-3.574c-3.566-0.178-14.258,3.387-16.756,6.416c-0.295,1.176-0.455,3.063-0.012,4.395
		c-3.588,2.578-8.898,9.73-9.658,13.809c-2.285,0.211-4.48,1.475-6.014,3.008c-1.428,3.031-1.783,13.189-1.428,15.863
		c1.211,2.939,3.438,4.705,6.658,6.762c1.395,4.441,5.795,10.461,9.172,13.084c-0.131,1.885-0.094,4.223,0.391,5.998
		c4.098,2.496,14.438,5.525,17.824,6.061c1.727-1.254,3.586-3.061,4.74-4.205c4.574,0.279,13.094-2.398,16.549-5.541
		c1.217,0.361,2.855,0.801,4.732,0.656c1.961-1.783,8.732-10.873,10.338-14.082C225.195,71.666,224.588,70.049,223.553,68.205z
		 M194.318,26.555c5.105,0,11.723,2.822,14.799,5.74c0.221,3.143,1.311,7.225,2.938,11.48c-2.098,1.076-6.811,4.322-8.768,5.887
		c-1.984-1.496-9.287-3.92-12.488-4.006c-0.879-3.295-3.275-9.131-4.977-12.404C189.004,31.234,192.461,28.76,194.318,26.555z
		 M173.455,33.318c2.717,0.615,7.35,0.654,10.9,0.203c1.65,3.064,4.146,9.113,5.043,12.412c-2.246,1.283-7.746,8.566-9.318,11.535
		h-12.443c-0.547-4.322-1.697-7.912-3.58-10.896C164.605,43.002,170.061,35.502,173.455,33.318z M172.203,83.965
		c-3.23-2.357-8.066-8.889-9.123-13.184c2.002-2.91,3.668-6.678,4.502-11.889h12.104c0.531,2.492,6.395,11.053,8.816,12.918
		c-0.637,3.586-2.621,9.35-4.324,12.092C179.865,83.154,175.355,83.141,172.203,83.965z M193.65,91.291v0.002
		c-2.076-2.605-3.939-4.559-8.029-7.018c1.754-3.037,3.6-8.496,4.26-12.088c2.986-0.254,11.502-3.537,13.773-5.18
		c2.215,1.693,6.846,5.648,8.875,7.859c-1.344,3.334-2.219,7.787-2.619,11.014C207.105,88.791,198.064,91.834,193.65,91.291z
		 M213.258,73.563c-2.291-2.402-6.648-6.092-8.816-7.74c0.848-2.969,0.492-11.918-0.396-14.941c1.828-1.492,7.148-5.156,8.947-5.98
		l-0.002-0.012c2.748,1.998,6.777,4.406,9.279,5.273c1.135,4.141,0.9,13.016-0.025,17.379
		C219.271,69.02,216.748,70.725,213.258,73.563z"/>
</g>
<g>
	<path fill="#FFFFFF" d="M149.496,280.373l-1.152,3.398c0,0,1.5,0,2.074,0c-0.156,1.137-1.459,10.656-1.459,10.656h3.525
		l1.922-14.055H149.496z"/>
	<path fill="#FFFFFF" d="M160.969,280.587c-0.705,0.365-1.262,0.875-1.648,1.516c-0.387,0.639-0.584,1.324-0.584,2.035
		c0,0.715,0.205,1.385,0.605,1.992c0,0,0.232,0.211,0.48,0.438c-0.482,0.279-0.982,0.57-0.982,0.57
		c-0.002,0-1.063,1.512-1.063,1.512l-0.4,1.834c0,1.176,0.445,2.195,1.324,3.027c0.869,0.826,1.977,1.244,3.293,1.244
		c0.982,0,1.875-0.205,2.654-0.607c0.789-0.408,1.41-0.988,1.844-1.721c0.428-0.729,0.645-1.557,0.645-2.463
		c0-0.844-0.217-1.588-0.645-2.213c-0.26-0.377-0.697-0.574-1.078-0.83c0.49-0.305,1.033-0.58,1.33-0.99
		c0.457-0.639,0.689-1.348,0.689-2.109c0-1.027-0.402-1.926-1.197-2.67c-0.783-0.734-1.791-1.107-2.992-1.107
		C162.43,280.044,161.666,280.228,160.969,280.587z M162.424,284.917l-0.193-0.555l0.271-0.648c0.184-0.186,0.404-0.271,0.693-0.271
		l0.488,0.178l0.178,0.566l-0.268,0.65c-0.002,0-0.67,0.27-0.67,0.27L162.424,284.917z M161.268,291.041v-0.002
		c-0.238-0.234-0.35-0.506-0.35-0.857c0-0.5,0.152-0.904,0.463-1.232c0.303-0.318,0.658-0.475,1.086-0.475
		c0.324,0,0.592,0.121,0.838,0.379c0.248,0.264,0.369,0.584,0.369,0.977c0,0.445-0.143,0.811-0.436,1.113
		c-0.291,0.299-0.639,0.445-1.068,0.445C161.795,291.388,161.508,291.277,161.268,291.041z"/>
	<path fill="#FFFFFF" d="M170.469,280.373l-0.424,3.367c0,0,3.68,0,4.975,0c-0.799,1.416-5.406,9.58-5.406,9.58l2.973,1.637
		l6.859-12.268l0.207-2.316H170.469z"/>
	<path fill="#FFFFFF" d="M183.246,280.626c-0.676,0.391-1.223,0.967-1.625,1.715c-0.393,0.732-0.609,1.588-0.648,2.543l-0.023,0.59
		h3.436l0.074-0.48c0.123-0.801,0.314-1.154,0.453-1.309c0.168-0.188,0.355-0.273,0.605-0.273l0.584,0.234
		c-0.004-0.004,0.23,0.604,0.23,0.604l-0.205,0.875c-0.133,0.307-0.508,0.924-1.564,2.152l-4.432,4.627l-0.029,0.191l-0.301,2.332
		h9.135l0.438-3.336c0,0-2.43,0-3.709,0c1.609-1.707,2.773-3.063,3.258-3.9c0.6-1.039,0.902-2.031,0.902-2.951
		c0-1.182-0.41-2.189-1.223-2.99s-1.848-1.205-3.074-1.205C184.686,280.044,183.918,280.24,183.246,280.626z"/>
</g>
<g>
	<path fill="#092857" d="M52.551,262.226l1.104,1.311l-5.182,3.158l5.58,6.619l5.184-3.158l1.105,1.311l-12.756,7.77l-1.105-1.311
		l6.359-3.875l-5.58-6.619l-6.361,3.875l-1.105-1.311L52.551,262.226z"/>
	<path fill="#092857" d="M63.934,292.068l-0.809-0.83l1.084-0.805c-1.467-0.008-2.664-0.49-3.594-1.445
		c-0.844-0.869-1.26-1.859-1.24-2.967s0.471-2.088,1.355-2.949c1.021-0.99,2.254-1.479,3.697-1.461
		c1.441,0.02,2.645,0.521,3.604,1.51c0.52,0.535,0.863,1.111,1.033,1.734c0.168,0.621,0.145,1.297-0.07,2.025l1.373-1.018
		l0.822,0.846L63.934,292.068z M61.438,288.353c0.514,0.529,1.107,0.887,1.779,1.078c0.674,0.191,1.369,0.184,2.09-0.02
		c0.713-0.199,1.354-0.572,1.906-1.109c0.662-0.645,0.998-1.377,1.006-2.201c0.01-0.822-0.311-1.568-0.961-2.238
		c-0.764-0.789-1.703-1.184-2.818-1.188c-1.115-0.006-2.088,0.395-2.922,1.205c-0.68,0.66-1.025,1.406-1.039,2.23
		C60.469,286.933,60.787,287.683,61.438,288.353z"/>
	<path fill="#092857" d="M79.09,293.142l0.936,0.701l-2.121,6.553l6.92-2.947l1.021,0.77l-9.498,4.045l-0.172-0.129L79.09,293.142z"
		/>
	<path fill="#092857" d="M93.928,303.181l0.904,0.693l-0.807,0.797c0.504-0.152,1.002-0.188,1.494-0.113
		c0.49,0.08,0.918,0.254,1.281,0.533c0.256,0.197,0.479,0.467,0.666,0.801l-1.074,0.508c-0.154-0.27-0.311-0.457-0.461-0.574
		c-0.318-0.244-0.719-0.377-1.201-0.395s-0.984,0.109-1.502,0.387c-0.52,0.273-1.219,0.842-2.098,1.709l-2.721,2.688l-0.887-0.682
		L93.928,303.181z"/>
	<path fill="#092857" d="M110.777,317.228l-6.807-4.137c-0.572,0.906-0.773,1.77-0.605,2.59s0.654,1.473,1.463,1.965
		c0.537,0.326,1.102,0.516,1.695,0.57c0.596,0.053,1.166-0.031,1.713-0.254l0.377,1.027c-0.66,0.254-1.377,0.344-2.146,0.27
		c-0.771-0.074-1.502-0.322-2.191-0.742c-1.197-0.729-1.869-1.648-2.02-2.752c-0.148-1.107,0.059-2.125,0.623-3.055
		c0.461-0.758,1.107-1.365,1.939-1.822s1.705-0.674,2.619-0.652c0.916,0.02,1.77,0.271,2.561,0.752
		c0.977,0.594,1.586,1.416,1.822,2.467c0.24,1.055,0.049,2.09-0.576,3.115C111.131,316.757,110.975,316.976,110.777,317.228z
		 M110.395,315.833c0.408-0.736,0.514-1.467,0.324-2.193c-0.195-0.727-0.641-1.303-1.344-1.73c-0.76-0.463-1.564-0.658-2.408-0.582
		c-0.842,0.074-1.611,0.412-2.313,1.018L110.395,315.833z"/>
	<path fill="#092857" d="M137.742,315.208l1.404,15.717l-1.688-0.473l-0.457-5.143l-6.648-1.855l-4.314,3.809l-1.842-0.514
		l13.178-11.645L137.742,315.208z M136.363,318.144l-4.758,4.205l5.262,1.471L136.363,318.144z"/>
	<path fill="#092857" d="M151.607,320.162l1.129,0.08l-0.686,3.309l1.779,0.129l-0.201,0.98l-1.781-0.129l-1.625,7.852l-1.148-0.082
		l1.639-7.85l-1.537-0.111l0.211-0.979l1.529,0.109L151.607,320.162z"/>
	<path fill="#092857" d="M170.123,324.949c-0.576-0.566-1.316-0.85-2.225-0.85c-1.189,0-2.246,0.535-3.168,1.604l0.65-4.816h-0.004
		l0.521-3.842h-1.121l-2.197,16.229h0.006h1.115h0.006l0.521-3.871c0.158-1.156,0.377-2,0.66-2.533s0.684-0.955,1.203-1.27
		c0.521-0.311,1.072-0.465,1.656-0.465c0.627,0,1.131,0.188,1.516,0.566s0.578,0.877,0.578,1.49c0.014,0.49-0.037,1.148-0.146,1.977
		l-0.557,4.105h1.121l0.555-4.107c0.113-0.844,0.17-1.518,0.17-2.014C170.984,326.244,170.697,325.511,170.123,324.949z"/>
	<polygon fill="#092857" points="183.875,316.917 182.762,317.021 182.068,333.384 183.186,333.281 	"/>
	<path fill="#092857" d="M202.123,326.396l-7.92,0.855c0.102,1.068,0.463,1.875,1.096,2.424c0.631,0.551,1.416,0.771,2.357,0.67
		c0.623-0.066,1.189-0.26,1.691-0.578c0.504-0.32,0.908-0.734,1.201-1.242l0.926,0.584c-0.365,0.604-0.881,1.111-1.537,1.521
		c-0.658,0.41-1.389,0.656-2.191,0.742c-1.396,0.152-2.484-0.17-3.275-0.955c-0.791-0.789-1.248-1.723-1.365-2.803
		c-0.096-0.883,0.049-1.758,0.434-2.627c0.381-0.869,0.941-1.572,1.682-2.111c0.738-0.541,1.568-0.861,2.488-0.961
		c1.135-0.123,2.121,0.16,2.951,0.85c0.826,0.691,1.305,1.629,1.434,2.824C202.119,325.806,202.129,326.076,202.123,326.396z
		 M200.967,325.523c-0.119-0.834-0.479-1.479-1.072-1.939c-0.596-0.459-1.301-0.645-2.117-0.557
		c-0.889,0.096-1.643,0.428-2.266,1.002c-0.621,0.57-1.031,1.309-1.221,2.215L200.967,325.523z"/>
	<path fill="#092857" d="M212.156,315.369l1.121-0.168l0.051,3.379l1.766-0.264l0.016,1l-1.766,0.264l0.127,8.018l-1.135,0.17
		l-0.115-8.02l-1.527,0.229l-0.008-1.002l1.518-0.227L212.156,315.369z"/>
	<path fill="#092857" d="M223.777,315.425l1.063-0.188l0.391,9.006l-1.104,0.193L223.777,315.425z M224.031,311.642
		c0.252-0.043,0.484,0.008,0.691,0.158c0.209,0.145,0.338,0.344,0.383,0.594c0.043,0.252-0.01,0.486-0.158,0.693
		c-0.146,0.211-0.346,0.334-0.596,0.379c-0.254,0.045-0.486-0.006-0.695-0.152c-0.203-0.146-0.332-0.348-0.375-0.6
		c-0.045-0.25,0.008-0.482,0.148-0.689C223.576,311.812,223.779,311.687,224.031,311.642z"/>
	<path fill="#092857" d="M242.85,309.751l-0.693,0.848c-0.994-0.773-2.133-0.924-3.404-0.449c-0.742,0.277-1.352,0.695-1.838,1.252
		c-0.49,0.559-0.797,1.195-0.916,1.908c-0.123,0.717-0.061,1.412,0.189,2.078c0.225,0.592,0.549,1.072,0.98,1.449
		c0.434,0.371,0.926,0.598,1.484,0.674c0.559,0.08,1.15,0.002,1.781-0.234c0.643-0.242,1.211-0.602,1.701-1.08
		c0.488-0.479,0.824-0.982,0.996-1.514l1.119,0.291c-0.33,0.809-0.768,1.471-1.309,1.992c-0.547,0.52-1.25,0.939-2.104,1.26
		c-1.322,0.496-2.488,0.523-3.494,0.076c-1.014-0.441-1.744-1.264-2.195-2.469c-0.5-1.332-0.439-2.654,0.176-3.967
		c0.617-1.311,1.631-2.229,3.043-2.76c0.844-0.314,1.658-0.416,2.438-0.299C241.59,308.923,242.268,309.24,242.85,309.751z"/>
	<path fill="#092857" d="M262.609,290.714l-0.109,1.52c-2.098-0.439-4-0.135-5.686,0.91c-1.105,0.686-1.967,1.594-2.59,2.727
		c-0.625,1.137-0.92,2.326-0.896,3.574c0.029,1.248,0.371,2.396,1.021,3.447c0.58,0.938,1.301,1.641,2.166,2.109
		c0.867,0.473,1.822,0.668,2.861,0.594c1.043-0.074,2.064-0.424,3.078-1.053c1.539-0.955,2.672-2.342,3.389-4.16l1.32,0.563
		c-0.582,1.277-1.162,2.252-1.729,2.926c-0.574,0.67-1.326,1.297-2.262,1.877c-1.729,1.07-3.406,1.51-5.031,1.314
		c-2.164-0.266-3.848-1.371-5.049-3.311c-1.24-2.002-1.572-4.146-0.992-6.438s1.945-4.105,4.09-5.434
		c0.98-0.607,1.967-1.006,2.965-1.195C260.15,290.494,261.301,290.503,262.609,290.714z"/>
	<polygon fill="#092857" points="268.137,281.417 267.221,282.064 274.766,296.599 275.68,295.955 	"/>
	<path fill="#092857" d="M278.473,281.013l0.873-0.766l2.064,3.164c0.604,0.936,1.01,1.508,1.203,1.727
		c0.439,0.504,0.953,0.779,1.547,0.82s1.145-0.16,1.66-0.613c0.428-0.375,0.689-0.826,0.795-1.35
		c0.096-0.525,0.035-1.043-0.18-1.563c-0.107-0.262-0.434-0.795-0.977-1.602l-2.49-3.76l0.85-0.744l1.904,2.83
		c0.91,1.355,1.502,2.365,1.777,3.029c0.275,0.668,0.336,1.357,0.174,2.084c-0.156,0.717-0.555,1.359-1.199,1.924
		c-0.73,0.641-1.535,0.928-2.422,0.859c-0.881-0.068-1.637-0.461-2.26-1.172c-0.25-0.287-0.516-0.641-0.795-1.063l-0.457-0.65
		l-0.186-0.283L278.473,281.013z"/>
	<path fill="#092857" d="M295.404,263.765c-1.1,0.055-2.059,0.537-2.865,1.436c-0.881,0.984-1.279,2.219-1.186,3.697l-5.656-6.631
		c0,0-0.748,0.832-0.74,0.84l-0.039,0.043l10.615,12.457l0.748-0.836l0.037-0.041l0.01-0.012l-1.117-1.311
		c0.752,0.156,1.432,0.129,2.043-0.08c0.609-0.209,1.162-0.588,1.658-1.143c0.918-1.025,1.33-2.252,1.242-3.686
		c-0.086-1.434-0.658-2.627-1.723-3.58C297.512,264.097,296.506,263.71,295.404,263.765z M299.088,268.593
		c0.072,1.115-0.258,2.078-0.99,2.896c-0.619,0.691-1.342,1.061-2.164,1.109c-0.697,0.041-1.348-0.172-1.949-0.609l-0.002-0.002
		c-0.105-0.078-0.213-0.148-0.32-0.242c-0.127-0.113-0.244-0.234-0.359-0.357c-0.037-0.043-0.072-0.09-0.109-0.133
		c-0.068-0.086-0.137-0.168-0.201-0.26c-0.037-0.053-0.076-0.109-0.111-0.164c-0.063-0.088-0.113-0.184-0.168-0.277
		c-0.025-0.053-0.059-0.102-0.082-0.152c-0.078-0.154-0.148-0.313-0.209-0.479c-0.25-0.701-0.301-1.395-0.154-2.082
		c0.145-0.689,0.463-1.301,0.949-1.846c0.627-0.699,1.352-1.074,2.174-1.117c0.818-0.045,1.586,0.25,2.293,0.885
		C298.545,266.535,299.016,267.478,299.088,268.593z"/>
</g>
</svg>
