<?xml version="1.0" encoding="utf-8"?>
<!-- Generator: Adobe Illustrator 13.0.2, SVG Export Plug-In . SVG Version: 6.00 Build 14948)  -->
<!DOCTYPE svg PUBLIC "-//W3C//DTD SVG 1.0//EN" "http://www.w3.org/TR/2001/REC-SVG-20010904/DTD/svg10.dtd">
<svg version="1.0" id="Ebene_1" xmlns="http://www.w3.org/2000/svg" xmlns:xlink="http://www.w3.org/1999/xlink" x="0px" y="0px"
	 width="385.307px" height="561.259px" viewBox="0 0 385.307 561.259" enable-background="new 0 0 385.307 561.259"
	 xml:space="preserve">
<path fill-rule="evenodd" clip-rule="evenodd" fill="#008ACB" d="M9.274,399.253l28.084-37.269c2.164-2.871,2.72-6.234,1.652-10.09
	l20.864,15.724c-0.806,0.038-1.465,0.404-1.979,1.087c-0.677,0.899-1.28,2.013-1.815,3.325l-14.795,40.453l0.188,0.141
	l34.818-25.362c1.058-0.803,1.953-1.696,2.685-2.669c0.535-0.712,0.7-1.438,0.51-2.197l21.231,15.999
	c-4,0.035-7.083,1.497-9.246,4.368l-28.084,37.269c-1.03,1.365-1.68,2.912-1.964,4.649c-0.265,1.734-0.176,3.563,0.286,5.479
	l-16.516-12.445c4.318-0.34,8.074-2.64,11.288-6.905l26.316-34.922l-0.149-0.111l-42.694,30.952c-0.794,0.545-1.4,1.099-1.824,1.661
	c-0.804,1.063-1.248,2.065-1.334,2.997L24.075,421.8c0.901-0.316,1.746-1.014,2.55-2.08c0.205-0.272,0.4-0.609,0.592-1.02
	c0.193-0.413,0.353-0.82,0.464-1.219l17.805-47.584l-0.151-0.111l-25.292,33.565c-3.214,4.266-4.39,8.511-3.536,12.747L0,403.66
	c1.868-0.044,3.618-0.439,5.259-1.198C6.894,401.714,8.231,400.639,9.274,399.253L9.274,399.253z M87.223,426.637l6.111-16.605
	c1.088,1.21,2.114,1.986,3.091,2.347c0.22,0.079,1.326,0.264,3.311,0.533l5.487,0.858c1.806,0.375,3.702,0.926,5.681,1.652
	c5.527,2.033,9.032,4.784,10.541,8.247c1.509,3.46,1.144,8.218-1.088,14.285l-6.303,17.133c-1.084,2.947-1.61,5.461-1.573,7.532
	c0.025,2.068,0.508,4.143,1.434,6.205l-9.649-3.551c-0.891-0.328-1.434-0.715-1.62-1.157c-0.198-0.445-0.229-1.245-0.089-2.402
	l0.428-3.299c-4.226,3.448-9.435,4.04-15.611,1.767c-2.694-0.99-4.96-2.423-6.785-4.28c-1.837-1.86-3.047-3.964-3.625-6.325
	c-0.579-2.358-0.393-4.837,0.565-7.438c1.299-3.53,3.357-6.003,6.173-7.45c2.832-1.456,7.283-2.127,13.354-2.039
	c3.872,0.091,6.737,0.07,8.603-0.053c1.857-0.129,3.207-0.404,4.024-0.829c0.832-0.431,1.428-1.134,1.784-2.101
	c0.526-1.43,0.381-2.769-0.412-4.008c-0.794-1.228-2.3-2.256-4.499-3.064c-2.572-0.946-5.446-1.066-8.61-0.372
	C94.777,422.928,91.204,424.396,87.223,426.637L87.223,426.637z M106.427,443.896l1.295-3.516l-0.176-0.064
	c-1.649,0.952-5.153,1.424-10.522,1.433c-2.701,0.015-4.768,0.343-6.183,0.967c-1.421,0.639-2.413,1.708-2.971,3.226
	s-0.494,2.9,0.202,4.166c0.681,1.263,1.916,2.215,3.696,2.871c1.518,0.56,3.157,0.75,4.903,0.583
	c1.758-0.167,3.532-1.022,5.314-2.575C103.778,449.436,105.258,447.075,106.427,443.896L106.427,443.896z M128.675,461.336
	l9.59-41.546c0.536-2.317,0.684-4.266,0.432-5.824c-0.253-1.562-1.027-3.255-2.322-5.092l16.307,0.111l-12.688,54.964
	c-0.858,3.718-0.205,7.233,1.975,10.55l-19.695-4.547C125.681,467.952,127.809,465.078,128.675,461.336L128.675,461.336z
	 M156.009,468.101l0.885-25.292c0.085-2.47-0.149-4.433-0.709-5.906c-0.558-1.462-1.63-2.95-3.231-4.436l13.988-3.264l-0.224,6.451
	c2.342-2.367,4.544-3.979,6.624-4.831c2.068-0.864,4.789-1.228,8.136-1.11c3.359,0.117,6.324,0.794,8.905,2.021
	c2.583,1.239,4.453,3.015,5.625,5.317c1.947-2.347,4.092-4.017,6.444-5.001c2.355-0.996,5.218-1.424,8.599-1.307
	c6.557,0.231,11.127,1.934,13.696,5.118c2.575,3.193,3.46,8.25,3.501,15.17l0.111,18.437c0.023,3.817,1.181,7.143,3.952,9.981
	l-20.3-0.264c2.962-2.616,4.635-5.839,4.649-9.68l0.085-21.993c0.012-2.684-0.621-4.676-2.145-5.982s-3.34-1.989-5.446-2.063
	c-3.173-0.111-5.745,0.82-7.729,2.798c-1.975,1.972-3.138,4.488-3.12,7.532l0.111,19.154c0.023,3.876,1.178,7.201,3.952,9.981
	l-20.459-0.108c2.999-2.613,4.682-5.836,4.698-9.677l0.082-19.57c0.012-2.692-0.073-4.805-0.492-6.354
	c-0.422-1.562-1.206-2.739-2.373-3.53c-1.157-0.776-2.758-1.207-4.806-1.28c-1.708-0.059-3.362,0.305-4.983,1.104
	c-1.611,0.8-2.955,2.027-4.02,3.703c-1.066,1.673-1.641,3.668-1.721,5.985l-0.674,19.298c-0.135,3.876,1.179,7.201,3.952,9.981
	l-20.2-0.706C154.333,475.203,155.874,471.974,156.009,468.101L156.009,468.101z M235.562,453.728
	c-0.905-3.914-1.169-7.556-0.8-10.907c0.366-3.354,1.295-6.261,2.792-8.722c1.5-2.461,3.551-4.559,6.158-6.278
	c2.607-1.731,5.622-2.991,9.032-3.779c7.189-1.658,13.254-0.943,18.196,2.133c4.931,3.091,8.358,8.769,10.263,17.016
	c1.207,5.238,1.286,9.896,0.246,13.98c-1.037,4.099-3.07,7.477-6.085,10.143s-6.803,4.529-11.344,5.575
	c-4.518,1.043-8.707,1.063-12.568,0.067c-3.861-1.008-7.16-3.12-9.908-6.331S236.804,459.113,235.562,453.728L235.562,453.728z
	 M247.415,450.992c0.949,4.107,2.156,7.207,3.627,9.305c1.471,2.101,3.132,3.413,4.969,3.926c0.938,0.252,1.893,0.393,2.862,0.422
	c0.979,0.026,2.03-0.097,3.161-0.357c2.968-0.686,5.256-2.487,6.853-5.405c1.597-2.927,1.731-7.239,0.413-12.94
	c-0.949-4.122-2.177-7.251-3.662-9.36c-1.482-2.109-3.146-3.431-4.972-3.946c-1.828-0.516-3.812-0.527-5.947-0.035
	c-1.813,0.419-3.442,1.324-4.893,2.704c-1.447,1.38-2.44,3.378-2.962,5.959C246.334,443.861,246.519,447.101,247.415,450.992
	L247.415,450.992z M236.218,416.486c-0.378-1.632-0.117-3.155,0.791-4.591c0.908-1.424,2.177-2.329,3.809-2.707
	c1.576-0.363,3.103-0.103,4.553,0.776c1.456,0.888,2.37,2.145,2.748,3.776c0.378,1.641,0.12,3.17-0.765,4.6
	c-0.896,1.421-2.156,2.323-3.8,2.704c-1.632,0.375-3.17,0.117-4.611-0.765C237.498,419.389,236.596,418.132,236.218,416.486
	L236.218,416.486z M252.305,412.774c-0.375-1.632-0.114-3.158,0.768-4.588c0.899-1.421,2.156-2.326,3.8-2.704
	c1.632-0.378,3.158-0.117,4.588,0.768c1.421,0.896,2.326,2.153,2.701,3.785c0.381,1.644,0.12,3.17-0.765,4.603
	c-0.899,1.421-2.156,2.323-3.788,2.698c-1.585,0.369-3.1,0.105-4.553-0.773C253.6,415.671,252.686,414.415,252.305,412.774
	L252.305,412.774z M316.09,445.261l-23.332-40.415c-1.799-3.114-4.679-4.939-8.646-5.461l31.896-18.416
	c1.846-1.066,3.398-2.502,4.638-4.313l10.248,17.748c-2.979-2.229-6.103-3.281-9.39-3.167c-3.272,0.117-6.853,1.292-10.737,3.533
	c-2.777,1.605-4.427,3.152-4.963,4.638s-0.255,3.164,0.826,5.039l5.101,8.833l4.998-2.681c2.748-1.588,4.655-3.108,5.728-4.553
	c1.063-1.436,1.89-3.592,2.449-6.457l10.02,17.353c-2.159-0.932-4.313-1.242-6.448-0.914c-2.145,0.316-4.494,1.213-7.061,2.695
	c-0.495,0.284-1.365,0.817-2.604,1.6s-1.98,1.251-2.215,1.386l10.066,17.432c0.853,1.482,2.03,2.698,3.51,3.627
	c1.5,0.932,3.217,1.564,5.162,1.887l-18.812,10.863c0.686-1.737,1.005-3.501,0.949-5.309
	C317.423,448.411,316.957,446.761,316.09,445.261L316.09,445.261z M366.873,414.145l-32.997-33c-2.543-2.54-5.798-3.56-9.762-3.038
	l26.042-26.042c1.506-1.509,2.631-3.296,3.36-5.367l14.49,14.493c-3.451-1.383-6.738-1.591-9.885-0.63
	c-3.132,0.958-6.284,3.021-9.457,6.193c-2.271,2.268-3.463,4.189-3.595,5.763s0.571,3.123,2.104,4.652l7.213,7.213l4.131-3.882
	c2.244-2.244,3.694-4.207,4.356-5.88c0.653-1.664,0.894-3.958,0.694-6.873l14.168,14.168c-2.326-0.34-4.488-0.082-6.466,0.788
	c-1.986,0.858-4.025,2.335-6.12,4.43c-0.404,0.404-1.11,1.143-2.104,2.218c-0.993,1.078-1.588,1.723-1.778,1.913l14.232,14.235
	c1.21,1.207,2.657,2.077,4.33,2.59c1.69,0.516,3.513,0.68,5.476,0.489l-15.36,15.36c0.214-1.854,0.064-3.642-0.457-5.373
	C368.977,416.843,368.098,415.37,366.873,414.145L366.873,414.145z M220.034,545.474l-9.094-15.812l9.114-15.847h-18.229
	l-9.079-15.788l-9.148,15.788h-18.328l9.166,15.812l-9.185,15.847h18.368l9.148,15.785l9.079-15.785H220.034L220.034,545.474z"/>
<path fill-rule="evenodd" clip-rule="evenodd" fill="#008ACB" d="M192.653,394.531c67.541-21.105,118.04-77.988,147.428-144.111
	c21.442-48.252,30.976-101.426,30.976-149.206V0h-47.218v26.416H293.66V0h-47.218v26.416h-30.179V0h-47.218v26.416h-30.18V0H91.646
	l0.001,26.416H61.469V0H14.25v101.213c0,47.78,9.535,100.954,30.979,149.206C74.612,316.542,125.112,373.425,192.653,394.531
	L192.653,394.531z"/>
<polygon fill-rule="evenodd" clip-rule="evenodd" fill="#FFFFFF" points="52.563,35.317 100.553,35.317 100.553,8.903 
	129.958,8.903 129.958,35.317 177.949,35.317 177.949,8.903 207.357,8.903 207.357,35.317 255.349,35.317 255.349,8.903 
	284.757,8.903 284.757,35.317 332.745,35.317 332.745,8.903 362.15,8.903 362.15,97.768 23.156,97.768 23.156,8.903 52.563,8.903 
	52.563,35.317 "/>
<path fill-rule="evenodd" clip-rule="evenodd" fill="#008ACB" d="M235.348,60.396c3.715,0,6.747,3.019,6.747,6.721
	s-3.032,6.721-6.747,6.721s-6.744-3.019-6.744-6.721S231.633,60.396,235.348,60.396L235.348,60.396z M170.287,60.85
	c3.713,0,6.744,3.019,6.744,6.721s-3.031,6.721-6.744,6.721c-3.716,0-6.747-3.019-6.747-6.721S166.57,60.85,170.287,60.85
	L170.287,60.85z M95.565,93.51V39.444h16.383l12.46,38.613l12.494-38.613h16.266V93.51H142.66V50.952L129.803,93.51h-10.915
	l-13.157-42.558V93.51H95.565L95.565,93.51z M252.545,93.51V39.444h37.198v9.148h-27.167v12.801h23.575v9.139h-23.575V93.51H252.545
	L252.545,93.51z M185.351,93.51V39.444h37.197v9.148h-27.165v12.801h23.573v9.139h-23.573V93.51H185.351L185.351,93.51z"/>
<path fill-rule="evenodd" clip-rule="evenodd" fill="#FFFFFF" d="M246.442,106.661v249.625
	c-14.338,11.707-39.085,23.689-53.789,28.289c-14.704-4.6-39.451-16.582-53.788-28.289V106.661H246.442L246.442,106.661z"/>
</svg>
