<?xml version="1.0" encoding="utf-8"?>
<!-- Generator: Adobe Illustrator 13.0.2, SVG Export Plug-In . SVG Version: 6.00 Build 14948)  -->
<!DOCTYPE svg PUBLIC "-//W3C//DTD SVG 1.0//EN" "http://www.w3.org/TR/2001/REC-SVG-20010904/DTD/svg10.dtd">
<svg version="1.0" id="Ebene_1" xmlns="http://www.w3.org/2000/svg" xmlns:xlink="http://www.w3.org/1999/xlink" x="0px" y="0px"
	 width="410.298px" height="561.259px" viewBox="0 0 410.298 561.259" enable-background="new 0 0 410.298 561.259"
	 xml:space="preserve">
<path fill-rule="evenodd" clip-rule="evenodd" fill="#004E2B" d="M67.153,275.104c-0.029-75.379,61.336-136.733,136.796-136.768
	c36.782-0.015,71.303,14.341,97.21,40.425c25.585,25.761,39.683,59.934,39.7,96.223c0.026,75.379-61.339,136.733-136.799,136.768
	c-36.781,0.015-71.303-14.341-97.21-40.424C81.267,345.564,67.167,311.395,67.153,275.104L67.153,275.104z"/>
<polygon fill-rule="evenodd" clip-rule="evenodd" fill="#004E2B" points="345.81,561.259 345.81,496.46 58.11,496.46 58.11,561.259 
	345.81,561.259 "/>
<path fill-rule="evenodd" clip-rule="evenodd" fill="#004E2B" d="M205.217,59.051C98.421,58.916,42.174,127.816,42.174,127.816
	L0,86.134C0,86.134,74.297-0.041,205.217,0c130.919,0.042,205.081,86.134,205.081,86.134l-42.108,41.682
	C368.19,127.816,312.01,59.187,205.217,59.051L205.217,59.051z"/>
<path fill-rule="evenodd" clip-rule="evenodd" fill="#FFFFFF" d="M162.442,338.017c0-18.401-14.917-33.319-33.319-33.319
	c-18.401,0-33.319,14.918-33.319,33.319s14.918,33.319,33.319,33.319C147.526,371.336,162.442,356.418,162.442,338.017
	L162.442,338.017z"/>
<path fill-rule="evenodd" clip-rule="evenodd" fill="#004E2B" d="M129.029,161.656c0,0-4.541,3.599-4.632,3.671
	c-0.022-0.018-0.237,0.028-0.237,0.028l-2.723,0.69c-5.593,1.897-9.87,5.396-11.735,9.598c0,0-0.791,1.781-1.008,2.272
	c-2.93-0.366-4.774-1.061-4.792-1.068l-3.105-1.223l-0.614,3.275c0,0.003-0.287,3.171-0.287,3.171c0,1.501,0.236,3.057,0.687,4.819
	c-0.075,0.035-0.164,0.081-0.164,0.081c-6.605,3.209-9.458,8.353-10.689,12.101c-0.697,2.124-1.052,4.307-1.052,6.483
	c0,2.499,0.495,4.872,1.358,6.516c0,0,1.008,1.915,1.062,2.019c-4.787,4.198-12.543,12.896-12.543,25.223l0.214,3.502l0.732,6.004
	l4.042-4.501c0.841-0.938,1.827-1.852,2.949-2.786c-6.193,7.459-10.25,15.911-10.799,23.313l-0.069,1.843
	c0,5.694,2.058,10.586,5.95,14.15l3.067,2.808l1.381-3.923c1.745-4.958,4.094-9.037,7.056-12.586
	c-5.174,7.696-8.555,17.438-8.555,25.854c0,4.225,0.801,7.784,2.379,10.579c0,0,0.461,0.82,0.64,1.137
	c-2.008,2.877-3.335,7.321-3.335,10.758c0,0.952,0.101,1.819,0.313,2.558c0.687,2.358,1.605,3.905,2.276,5.033l0.665,1.274
	c0.056,0.281,0.081,0.586,0.081,0.905c0,1.075-0.278,2.32-0.548,3.536c-0.281,1.26-0.543,2.432-0.543,3.586
	c0,0.272,0.015,0.545,0.045,0.814c0.205,1.699,0.87,3.056,1.91,4.096c-0.026,0.264-0.145,1.538-0.145,1.538
	c-0.01,0.132-0.016,0.275-0.016,0.425c0,2.528,1.522,7.96,8.855,8.637l6.12,0.568c0,0-0.16-0.217-0.318-0.431
	c1.868,0.437,3.729,0.457,5.544-0.208l2.421-0.894l-0.741-2.47c-0.763-2.558-1.714-4.187-2.457-5.227
	c0.823-0.75,1.308-1.79,1.308-2.895c0,0-0.009-0.079-0.012-0.103c0.226,0.009,0.372,0.018,0.536,0.023
	c1.641,2.78,6.22,5.446,10.781,5.098l3.775-0.29l-1.708-3.97l-0.521-1.269c-0.661-1.737-1.667-4.383-3.529-6.272
	c-0.001,0-0.445-0.384-0.649-0.56c-0.041-0.278-0.256-1.743-0.256-1.743s-0.041-0.146-0.101-0.354
	c1.881,1.898,4.532,2.988,6.362,3.671l4.494,1.737l0.199-3.838c0.006-0.199,0.01-0.398,0.01-0.589c0-7.008-3.812-9.935-5.325-10.825
	c-0.003-0.331-0.013-1.069-0.013-1.069c-0.022-1.605-0.917-3.24-2.512-4.963c1.285-0.469,2.372-1.213,3.205-2.391
	c0,0,0.242-0.337,0.401-0.565c1.86,0.079,3.605,0.249,4.608,1.251l5.539,5.543l-0.864-7.787c0,0-0.387-1.491-0.624-2.402
	c5.439,0.331,10.474,2.81,10.692,2.921c0,0,4.601,2.379,4.853,2.508c2.13,6.179,6.127,11.168,11.791,14.332
	c0,0,2.477,1.392,2.862,1.605c0.021,0.51,0.286,7.137,0.286,7.137l0.126,4.729c-0.706,6.021-2.566,16.547-4.062,25.005l-1.657,9.609
	c-0.422,2.678-1.422,4.441-2.82,4.963c-1.449,0.548-3.476-0.103-5.424-1.734l-0.778-0.653c-5.032-4.23-11.278-9.413-17.906-4.374
	c-0.073-0.059-0.322-0.255-0.322-0.255l-1.271,0.281c-2.574,0.568-7.225,3.053-6.387,8.394l0.415,2.648l2.656-0.349
	c1.412-0.185,2.725-0.48,3.68-0.768c-0.199,0.167-0.48,0.255-0.652,0.445c-1.355,1.509-1.95,3.507-1.95,5.405
	c0,1.685,0.469,3.29,1.288,4.395l2.035,2.748c0,0,2.502-2.874,2.503-2.874s0.639-0.642,0.639-0.642l2.804-1.166
	c0.038-0.021,0.866-0.771,1.362-1.228c0.092,0.088,0.196,0.185,0.196,0.185s0.286,0.164,0.565,0.331
	c-1.144,1.635-1.929,3.894-1.929,5.915c0,0.059,0,0.114,0.001,0.17c0.044,2.156,0.902,3.873,2.414,4.84l2.127,1.359l1.532-2.007
	c0,0,0.769-0.952,1.166-1.444c0.419,0.252,1.232,0.741,1.232,0.741c1.542,0.929,4.015,1.324,7.611,1.813
	c1.522,0.208,3.605,0.489,4.192,0.741c5.922,2.514,10.579,1.436,12.458-2.889c0.763-1.767,0.981-1.729,2.023-1.553
	c0.891,0.152,3.253,0.551,4.553-1.646c9.76-16.541,15.696-31.863,18.029-38.408c0.274,0.378,0.551,0.759,0.551,0.759l2.332,4.488
	l2.495-4.4c0.728-1.28,1.097-3.015,1.097-5.159c0-1.597-0.245-3.434-0.694-5.613c2.01,0.466,3.921,0.387,5.799-0.398l5.169-2.168
	c0,0-3.138-1.772-4.132-2.338c1.981-0.196,3.575-0.765,4.504-1.922l2.59-3.223l-3.971-1.14c-0.31-0.088-1.054-0.75-1.843-1.652
	c12.734,3.196,15.945-0.68,16.267-1.143l1.995-2.874c0,0-2.306-0.888-2.88-1.11c2.763-0.384,5.071-1.014,6.715-2.074
	c0,0,0.129-0.088,0.24-0.164c0.17,0.296,0.352,0.609,0.352,0.609c0.026,0.05,2.938,4.904,12.179,7.869
	c0.044,0.352,0.138,1.084,0.138,1.084c1.485,11.446,10.512,20.016,15.932,24.217c0,0.003-0.006,0.026-0.006,0.026
	c-1.857,6.932-10.028,17.077-21.516,22.219c-9.993,4.474-15.103,9.152-16.087,14.725l-0.302,1.717
	c0.012-0.097-0.138,0.103-0.138,0.103c-0.844,1.33-1.743,3.612-1.743,6.026c0,2.449,0.879,4.547,2.613,6.237l2.669,2.599
	l1.696-3.316c1.087-2.13,1.819-2.675,1.916-2.739c0.469-0.1,1.271-0.272,1.271-0.272s0.129-0.416,0.152-0.483
	c0.442,0.905,1.456,2.968,1.456,2.968s0.759-1.98,1.099-2.859c0.445,1.195,1.055,2.247,1.966,3l3.141,2.59l1.23-3.876
	c0.352-1.119,1.081-2.631,1.318-2.912c-0.021,0.023,0.413-0.516,0.794-0.987c0.22,0.58,0.633,1.682,0.633,1.682l2.625-1.102
	c1.916-0.8,3.431-2.262,3.595-2.423c0,0,0.091-0.085,0.17-0.167c0.999,0.791,2.133,1.348,3.425,1.576l3.759,0.665l-0.563-3.776
	c-0.076-0.527-0.111-0.999-0.111-1.409c0-0.548,0.094-0.791,0.164-1.131c0.05-0.015,1.679-0.501,1.679-0.501
	c3.721-1.113,8.994-5.505,11.745-8.936c0.776-0.97,1.251-1.937,1.547-2.892c1.415,1.228,3.563,2.417,6.548,2.083
	c0,0,1.954-0.217,2.186-0.243c0.226,0.108,0.976,0.475,0.976,0.475l3.123,1.163l0.548-3.284c0.545-3.272,1.808-5.247,1.816-5.268
	c0,0,0.284-0.425,0.51-0.768c0.012,0.009,0.674,0.469,0.674,0.469s0.188-1.424,0.272-2.071c0.287,0.894,0.445,1.834,0.97,2.628
	c1.33,2.007,3.085,3.155,4.822,3.149l4.57-0.012l-2.156-4.031c-0.624-1.169,0.313-3.404,0.838-4.248l-0.158,0.393l1.538-0.176
	c7.559-0.855,26.077-24.463,28.849-39.246c0.753-4.002,1.119-7.301,1.119-10.084c0-3.709-0.662-6.463-2.019-8.414
	c-1.91-2.745-4.582-3.205-6.354-3.51l-0.519-0.091c-1.395-0.267-1.887-0.794-2.18-1.277c-0.419-0.688-0.633-1.72-0.633-3.053
	c0-1.934,0.454-4.459,1.359-7.5l1.151-3.545c1.562-4.626,3.507-10.389,3.507-16.222c0-2.875-0.545-5.666-1.617-8.294
	c0.032,0.195,0.152-2.43,0.152-2.43c-0.305-3.155-2.071-6.281-5.118-9.363c0.035,0.006,1.181,0.144,1.181,0.144l-3.472-5.021
	c-1.031-1.491-2.569-3.069-4.535-4.765c1.031-0.193,2.033-0.393,2.789-0.826c3.047-1.745,4.951-5.109,6.363-11.254l0.413-3.608
	c0-11.49-11.988-20.821-18.694-22.818c-10.603-3.154-21.19-2.247-30.536-1.449c-4.992,0.426-9.703,0.828-13.767,0.539
	c-8.974-0.633-15.311-4.187-17.382-9.753c-1.324-3.548-0.536-7.355,2.054-9.93c3.627-3.611,9.814-4.141,17.004-1.528
	c-0.018,0.113-0.067,0.423-0.067,0.423c0,2.275,0.601,4.564,1.737,6.617c2.065,3.731,5.728,6.438,9.8,7.244
	c3.832,0.759,5.566,0.264,7.096-0.174c0.006-0.001,2.959-0.419,2.959-0.419c1.623,0.04,2.405,0.655,3.592,1.585
	c1.813,1.427,4.553,3.583,9.99,1.462l3.779-1.474c0,0-0.527-0.565-0.542-0.579c1.315,0.041,2.602-0.211,4.037-0.621l7.825-1.758
	l-1.017-3.023c-0.369-0.905-0.861-1.633-1.365-2.366c0.155-0.001,0.311-0.001,0.311-0.001l-0.908-3.417
	c-2.007-7.557-7.324-8.804-11.203-9.715c-1.403-0.328-2.728-0.639-3.574-1.182l-2.027-1.784c-2.309-2.197-5.487-5.219-9.636-5.848
	c-5.092-0.771-11.405,0.083-14.241,4.591c-14.121-4.679-26.001-3.447-33.454,3.523c-6.214,5.81-8.288,14.965-5.276,23.326
	c3.551,9.869,13.025,16.207,25.345,16.957c0.021,0,13.189,0.154,13.189,0.154c11.019-0.056,26.086-0.132,31.664,2.336
	c5.188,2.297,7.072,6.116,6.63,8.881c-0.454,2.877-3.428,4.872-7.945,5.336c-1.131,0.116-3.976-0.437-6.984-1.02
	c-9.721-1.881-25.983-5.029-44.294,0.154c-18.337,5.19-43.024,7.972-57.415,2.703c1.866-1.529,3.215-3.434,3.828-5.807l0.416-1.611
	l-1.236-1.115c0,0-0.126-0.107-0.25-0.212c0.221-0.192,0.442-0.384,0.442-0.384c0.633-0.943,1.31-2.625,1.31-4.667
	c0-1.188-0.23-2.496-0.832-3.853l-2.027-4.553c0,0-5.183,7.764-5.906,8.846c0.013-0.188,0.054-0.376,0.054-0.561
	c0-3.519-2.522-6.595-2.845-6.971c0,0-0.398-0.467-0.557-0.653c0.113-0.066,4.144-2.383,4.144-2.383
	c3.757-2.162,4.616-5.355,4.701-5.713c0,0,0.026-0.107,0.048-0.198c1.135,0.029,2.139-0.126,3.108-0.349
	c-0.016,0.311-0.038,0.601-0.038,0.964c0,0.85,0.057,1.819,0.231,2.799l0.732,4.119l3.489-2.309c3.259-2.156,3.857-4.84,3.913-5.137
	l0.007,0.012c2.177-0.957,3.667-3.13,4.09-5.962c0.519-3.483-0.636-7.216-2.807-9.079l-1.598-1.37l-1.932,1.332
	c0,0-0.407,0.278-0.725,0.494c-0.469-0.649-0.935-1.228-1.396-1.72c0.04-0.044,0.208-0.234,0.208-0.234l2.947-3.817l-0.229-0.281
	c-5.919-7.239-9.097-8.205-11.417-8.911c-1.044-0.316-1.395-0.423-2.039-1.165l-1.403-1.651c-3.07-3.659-5.102-6.078-14.033-9.945
	c-0.031-0.012-0.605-0.167-0.655-0.18c-0.101-0.441-0.549-2.442-0.549-2.442c-0.883-3.946-4.629-11.049-12.475-9.702
	c0,0-1.088,0.186-1.315,0.226C141.236,154.771,133.729,157.931,129.029,161.656L129.029,161.656z M157.976,230.618
	c-0.872-0.853-2.32-2.691-2.24-5.429c0.17-5.716,5.332-13.649,13.352-13.583c1.578,0.012,3.587,0.595,5.84,1.299
	c0.051,0.334,0.136,0.902,0.136,0.902c0.223,1.308,0.365,2.77,0.365,3.63c0,0.23-0.01,0.417-0.032,0.546
	c0,0-0.639,3.812-0.743,4.424c-0.942-1.106-2.641-3.1-2.641-3.1l-0.93,5.905c-0.4,2.54-1.518,4.764-1.645,5.008
	c0,0-0.523,0.989-0.684,1.296c-0.375,0.054-1.932,0.278-1.932,0.278l-5.208,0.612C160.595,232.458,159.119,231.738,157.976,230.618
	L157.976,230.618z"/>
<path fill-rule="evenodd" clip-rule="evenodd" fill="#FFFFFF" d="M120.324,191.484c-3.618,4.261-6.101,8.761-11.038,12.006
	c-4.796,3.154-12.309,5.439-16.816,7.299c-2.219-4.222-1.646-16.102,9.151-21.35c0,0,3.658,7.182,7.308,7.324
	c0,0-7.73-8.229-6.042-17.364c0,0,4.037,1.62,9.907,1.478c3.083-0.075,12.88,0.286,15.412,3.872
	c-2.35,1.365-4.222,2.892-5.827,4.496c0,0-6.508-5.648-12.895-4.957C117.587,186.53,120.324,191.484,120.324,191.484
	L120.324,191.484z"/>
<path fill-rule="evenodd" clip-rule="evenodd" fill="#FFFFFF" d="M232.674,324.983c7.093-4.061,24.935-24.384,40.646-14.332
	c-0.519,11.631,3.199,12.419,3.199,12.419c0.577-0.287,0.601-0.926,0.601-0.926s0.979,5.435,2.06,7.002
	c-9.097,15.179,1.995,23.552,3.533,25.166c-11.558,6.615-18.896,10.072-16.79,20.016c0.226,1.055-3.085,3.973-0.012,8.52
	c1.096,1.623-0.217,3.393-0.858,4.198c-2.698,3.363-7.494,7.157-10.392,8.021c-2.253-3.155-5.997-4.424-5.997-4.424
	s-2.341-4.099,4.746-8.654c-5.01-0.668-8.303,5.701-8.675,9.381c-1.559,3.691-0.891,6.999,0.267,9.114c0,0-1.254,1.233-2.73,1.849
	c-2.531-6.697-6.797-6.867-6.797-6.867s-1.459-5.2,5.063-7.731c-8.382-0.973-9.047,8.651-9.062,10.04
	c-0.012,1.389-1.266,4.69-1.266,4.69s-1.989-4.184-6.571-5.496c0.718-4.055,4.635-8.271,14.505-12.688
	c12.785-5.725,21.1-16.749,23.048-24.023c1.474-0.021,3.094-0.021,3.094-0.021s-16.98-10.116-18.949-25.277
	c0,0,3.492-0.199,5.063-1.717C236.331,331.323,232.674,324.983,232.674,324.983L232.674,324.983z"/>
<path fill-rule="evenodd" clip-rule="evenodd" fill="#FFFFFF" d="M177.776,213.353c0,0,0.598,3.501,0.333,5.084
	c2.846-1.636,3.397-3.962,3.397-3.962C179.416,213.902,177.776,213.353,177.776,213.353L177.776,213.353z"/>
<path fill-rule="evenodd" clip-rule="evenodd" fill="#FFFFFF" d="M190.15,213.652c0,0,0.967,0.073,1.616,0.163
	c0.639,0.16,1.203,0.661,1.203,0.661s-0.349,1.79-2.733,3.369C189.864,215.764,190.15,213.652,190.15,213.652L190.15,213.652z"/>
<path fill-rule="evenodd" clip-rule="evenodd" fill="#FFFFFF" d="M171.866,231.507c0,0,3.221-0.038,4.044,0.142
	c0.571-2.861-2.111-6.01-2.111-6.01C173.298,228.823,171.866,231.507,171.866,231.507L171.866,231.507z"/>
<path fill-rule="evenodd" clip-rule="evenodd" fill="#FFFFFF" d="M180.974,232.904c0,0,2.665,0.822,2.95,1.107
	c0,0,1.646-2.505,0.18-5.796C182.852,230.291,180.974,232.904,180.974,232.904L180.974,232.904z"/>
<path fill-rule="evenodd" clip-rule="evenodd" fill="#FFFFFF" d="M119.01,299.29c-3.498-0.05-5.145,3.457-9.294,2.956
	c-7.327-0.885-12.064-2.865-18.892,2.792c-2.505,2.074-4.589,9.018-3.662,12.217c1.015,3.495,2.634,4.913,2.946,6.39
	c0.716,3.363-1.151,6.952-0.88,9.199c0.451,3.753,3.466,3.437,3.466,3.437s-0.009-5.839,2.133-6.674
	c-1.14,6.703,3.063,7.928,3.063,7.928s1.879-2.941,7.929-0.331c0.535-0.466,0.4-1.055,0.4-1.055s-7.881-5.851-4.332-11.561
	c0.959,8.572,6.899,8.859,6.899,8.859s0.787-5.798,5.893-5.818c-0.669-4.559-5.464-6.563-6.129-8.985
	c3.098,0.062,6.595,2.839,6.595,2.839s0.368-5.353,5.131-5.481c-0.041-2.877-5.48-6.313-8.063-8.191
	c1.652-0.267,6.662,2.88,9.262-0.791C119.09,304.463,119.01,299.29,119.01,299.29L119.01,299.29z"/>
<path fill-rule="evenodd" clip-rule="evenodd" fill="#FFFFFF" d="M91.002,339.028c0,0-0.429,5.476,6.353,6.103
	c-1.022-1.38-1.666-4.277-1.666-4.277s-0.215-1.324-2.183-1.538C92.647,339.245,91.002,339.028,91.002,339.028L91.002,339.028z"/>
<path fill-rule="evenodd" clip-rule="evenodd" fill="#FFFFFF" d="M104.706,339.851c-0.608-0.606-3.146-0.967-4.15-0.894
	c-2.398,0.179-2.228,2.751-1.646,3.612c0.967,1.433,4.509,4.151,8.588,2.648C106.567,342.107,105.315,340.46,104.706,339.851
	L104.706,339.851z"/>
<path fill-rule="evenodd" clip-rule="evenodd" fill="#FFFFFF" d="M111.576,334.414c0.608,1.86,4.652,4.471,8.499,4.178
	c-0.699-0.888-1.522-4.896-3.729-7.134C113.88,328.958,110.643,331.557,111.576,334.414L111.576,334.414z"/>
<path fill-rule="evenodd" clip-rule="evenodd" fill="#FFFFFF" d="M121.022,319.062c-2.612-1.014-3.809,3.709-2.076,5.689
	c1.753,2.004,5.26,3.006,6.659,3.601C125.78,322.499,122.776,319.742,121.022,319.062L121.022,319.062z"/>
<path fill-rule="evenodd" clip-rule="evenodd" fill="#FFFFFF" d="M123.384,300.133c-2.146,0.36-1.717,4.365-0.376,5.101
	c2.594,0.088,5.635,0.088,7.663,2.115C130.11,302.319,126.066,299.688,123.384,300.133L123.384,300.133z"/>
<path fill-rule="evenodd" clip-rule="evenodd" fill="#FFFFFF" d="M268.821,376.311c-2.531,1.242,0.097,9.589,6.164,8.915
	c-1.775-1.233-2.414-3.993-2.684-6.337C272.111,377.216,271.396,376.982,268.821,376.311L268.821,376.311z"/>
<path fill-rule="evenodd" clip-rule="evenodd" fill="#FFFFFF" d="M281.65,379.282c0,0-2.766-2.637-4.339-2.971
	c-1.043-0.22-1.345-0.126-1.573,0.812c-1.576,6.536,3.674,8.493,3.674,8.493C280.08,381.608,281.65,379.282,281.65,379.282
	L281.65,379.282z"/>
<path fill-rule="evenodd" clip-rule="evenodd" fill="#FFFFFF" d="M292.106,374.457c0,0-1.579-2.057-4.195-1.585
	c-1.772,4.157,1.424,8.593,3.267,8.587C289.572,378.458,292.106,374.457,292.106,374.457L292.106,374.457z"/>
<path fill-rule="evenodd" clip-rule="evenodd" fill="#FFFFFF" d="M226.812,404.512c0,0,0.442-3.618-1.919-5.373
	c-0.727-0.539-1.397-0.428-2.077,0.645c-0.68,1.075-2.862,5.581,0.466,8.824C225.321,404.615,226.812,404.512,226.812,404.512
	L226.812,404.512z"/>
<path fill-rule="evenodd" clip-rule="evenodd" fill="#FFFFFF" d="M235.34,407.354c0.357-1.128,1.315-3.372,1.969-3.993
	c1.395-1.321,1.324-1.896,0.785-3.111c-0.8-1.819-2.824-2.792-3.721-0.894C233.706,400.774,232.8,405.259,235.34,407.354
	L235.34,407.354z"/>
<path fill-rule="evenodd" clip-rule="evenodd" fill="#FFFFFF" d="M251.597,395.793c0,0-1.283-1.872-1.98-2.414
	c-1.146-0.894-2.147-0.322-2.719,1.395c-0.264,0.8-0.357,5.581,4.102,6.372C250.475,397.636,251.597,395.793,251.597,395.793
	L251.597,395.793z"/>
<path fill-rule="evenodd" clip-rule="evenodd" fill="#FFFFFF" d="M129.737,373.402c0,0-4.922,1.084-4.264,5.285
	c1.739-0.229,3.262-0.601,3.743-0.8c1.039-0.431,1.167-1.11,1.181-1.898C130.433,373.95,129.737,373.402,129.737,373.402
	L129.737,373.402z"/>
<path fill-rule="evenodd" clip-rule="evenodd" fill="#FFFFFF" d="M130.403,389.257c-1.08-1.459-1.116-4.535,0.494-6.325
	c2.919-3.243,7.658,1.359,3.901,3.65c-1.712,1.043-2.291,0.858-2.934,1.251C131.219,388.226,130.755,388.871,130.403,389.257
	L130.403,389.257z"/>
<path fill-rule="evenodd" clip-rule="evenodd" fill="#FFFFFF" d="M140.263,396.851c-2.246-1.433-0.814-6.691,1.083-8.016
	c4.937-3.448,4.509,3.255,2.577,4.436C142.381,394.211,141.989,394.595,140.263,396.851L140.263,396.851z"/>
<path fill-rule="evenodd" clip-rule="evenodd" fill="#FFFFFF" d="M195.166,202.055c0,0-1.437,1.22-3.198,2.18
	c-3.391-6.113-5.464-5.218-5.464-5.218c0.212,0.823-0.133,1.717-0.133,1.717s-3.376-0.75-4.33-6.604
	c3.53-1.017,10.062,1.979,10.062,1.979c-8.536-10.438-10.247-6.381-13.402-10.009c-3.99-4.588-4.866-6.727-14.455-10.876
	c-10.009-3.5-20.684-1.277-17.251,6.883c-8.225-6.312,3.797-15.041,14.458-11.427c0,0-1.986-8.856-9.33-7.595
	c0,0,2.571,2.773,2.6,4.689c-10.753-11.537-19.245-7.721-23.987-3.964c3.883-0.18,12.47,3.828,13.66,7.137
	c-14.07-7.673-28.74-1.948-32.183,5.811c9.955-0.103,15.751,5.049,17.257,7.332c3.217-1.496,12.448-2.783,16.723,1.983
	c-16.583-3.693-18.3,5.467-24.312,11.908c-6.012,6.439-17.461,10.733-23.902,14.455c-6.441,3.721-18.319,14.956-16.482,30.045
	c9.756-10.866,26.52-14.256,32.915-21.003c9.044-9.543,16.415-31.012,29.783-27.149c-10.053-0.5-17.833,18.929-20.382,21.899
	c-7.228,8.421-13.012,9.236-24.117,16.723C83,244.207,71.168,267.584,83.43,278.81c8.824-25.061,27.999-24.015,39.453-36.605
	c10.591-11.641,10.317-43.772,33.299-37.307c-20.609,0.571-17.234,21.99-26.445,33.025c-10.862,13.012-17.874,14.156-28.466,23.603
	c-11.364,10.138-17.413,31.058-11.974,40.696c0,0,6.584-4.104,10.781-3.911c7.742,0.352,12.139-0.911,12.139-0.911
	c-6.224-21.8,14.684-30.268,24.715-40.254c14.146-14.083,1.551-30.4,12.659-42.078c-6.527,17.547,2.774,15.543-2.665,30.649
	c-3.319,9.214-7.702,11.685-20.465,22.964c-12.309,10.878-10.181,22.375-9.646,26.738c0,0,3.3-0.164,4.997,0.923
	c0,0,4.887-1.468,9.062,5.481c6.989-0.27,13.857,3.302,13.857,3.302s-2.098-9.296,4.395-19.579c0,0-7.32,5.528-12.393,5.484
	c13.058-7.893,31.09-22.349,27.983-44.587c-5.336-0.231-8.771,5.635-9.86,9.379c0.086-15.05,15.114-14.764,19.854-10.567
	c0,0,7.711-0.475,9.394-7.003c-7.837-7.069-14.402-3.501-22.321-3.103c-3.693,0.185-8.972-4-8.792-10.042
	c0.212-7.173,6.564-16.329,16.121-16.251c7.585,0.06,19.321,9.445,23.455-2.972c0.876,1.97-0.333,5.55-0.333,5.55
	s1.351,0.284,2.332,1.056C198.031,210.971,197.748,204.271,195.166,202.055L195.166,202.055z M163.651,189.705
	c-3.794-4.652-8.528-4.559-8.528-4.559c2.874-6.201,10.459-0.905,13.392-2.376c-0.691,2.392-4.598,2.112-4.598,2.112
	s-0.101,1.028-0.731,1.982C163.185,186.864,164.15,188.439,163.651,189.705L163.651,189.705z M169.581,203.048
	c0.438,0.227,0.771,0.706,0.771,0.706s-3.338-0.955-6.435-1.17c0,0,1.236-1.311,3.267-0.792c2.071-6.148,9.467-6.579,10.327-5.481
	C176.889,196.548,171.067,196.406,169.581,203.048L169.581,203.048z"/>
<path fill-rule="evenodd" clip-rule="evenodd" fill="#FFFFFF" d="M316.384,317.489c-3.955-0.753-6.964-3.911-3.577-15.313
	c2.265-7.623,8.253-20.088,1.157-29.902c0,0,0.996,0,1.931,0.396c-0.656-6.705-10.263-12.352-10.263-12.352s0.732-0.842,3.331-0.529
	c-3.647-5.273-12.724-10.371-12.724-10.371c10.125,3.188,14.312,2.708,16.925-8.653c2.458-10.677-9.416-21.103-16.389-23.175
	c-15.721-4.677-31.752,0.041-43.711-0.803c-31.213-2.203-24.272-36.768,3.199-26.421c1.295-1.545,1.998-0.661,1.998-0.661
	c-2.42,6.343,2.159,13.428,8.672,14.716c5.452,1.08,5.279-0.747,9.589-0.643c5.941,0.142,5.584,5.94,12.519,3.233
	c-7.078-7.455-8.429-10.437-16.811-7.813c-4.307,1.349-9.161,0.716-10.307-3.076c3.079,2.29,4.723,2.29,10.521,0.142
	c8.859-3.281,11.52,3.146,12.809,4.151c9.018,7.012,7.872,3.936,16.318,2.719c-3.293-8.016-8.373-1.645-16.603-9.589
	c-2.259-2.18-5.01-5.868-9.85-4.831c4.266-1.538,7.772-1.753,11.994,3.041c2.323,2.635,4.509,5.369,12.39,5.284
	c-2.297-8.647-9.598-6.715-13.605-9.29c-2.288-1.474-5.868-6.513-10.591-7.228c-3.483-0.529-9.732-0.429-11.848,3.7
	c2.76,1.595,3.267,3.105,3.267,3.105c-49.526-21.691-56.109,33.841-18.469,36.13c10.86,0.661,37.069-1.144,45.8,2.72
	c11.399,5.045,11.493,18.066-2.147,19.465c-5.581,0.571-26.452-7.849-50.81-0.955c-16.119,4.563-43.364,8.827-59.793,2.42
	c-2.128,0.825-3.665,1.652-3.665,1.652c1.632,2.13,1.4,3.829,1.4,3.829c-7.037-6.816-11.219-5.946-11.219-5.946
	c4.961,13.406-3.814,26.67-9.968,31.641c-10.329,8.345-13.695,34.053,3.598,43.727c0,0,1.601-18.07,6.929-20.209
	c-4.66,19.793-1.758,31.969-2.265,36.328c-1.061,9.129-4.712,28.295-5.736,34.796c-1.336,8.493-7.632,9.158-12.721,4.904
	c-5.421-4.538-10.321-9.103-15.59-4.758c0.832,1.57,1.266,4.758,1.266,4.758s7.343-4.998,10.945,0.416
	c-7.037-1.503-8.014,2.291-8.014,2.291s2.981,2.121,3.333,5.35c-0.064,0.111,1.318-1.034,2.82-1.629
	c1.742-3.126,10.806-4.559,13.437,0.311c-7.305-2.147-9.461,0.987-9.461,0.987s3.587,4.21-0.133,9.911
	c2.098,1.266,9.36,1.485,11.459,2.379c1.087,0.463,6.955,2.941,8.862-1.456c2.496-5.754,5.77-1.875,6.731-3.501
	c13.021-22.061,19.119-41.745,19.119-41.745s2.776,1.365,4.266,4.228c2.326-4.104-1.532-14.93-1.532-14.93s3.954,4.717,9.062,2.578
	c-2.626-1.485-5.197-5.616-5.197-5.616s7.723,2.414,9.66,0c-2.891-0.832-8.998-7.605-5.373-16.907
	c1.559-3.999,5.535-13.503,2.575-22.131c5.439,4.717,4.206,15.56,2.1,19.315c-3.53,6.296-2.824,11.977-0.235,12.656
	c11.016,2.897,13.857,0.064,13.857,0.064s-4.846-1.846-6.706-4.752c1.576,0,9.305,0.524,13.313-2.054
	c14.745-9.478,22.898-25.283,44.9-15.65c0.103-2.818-0.627-13.069-13.195-19.356c14.476,0.753,16.383,16.403,16.125,20.08
	c-0.346,4.878-0.302,8.836,0,10.567c0,0,2.646-3.275,4.462-2.312c-3.059,12.586,9.059,21.557,20.924,21.999
	c-0.779,0.964-2.733,1.055-2.733,1.055s-2.165,8.807-11.373,13.723c-5.481,2.927-20.467,9.659-17.543,20.429
	c1.333,0.199,2.599,0.199,2.599,0.199s-0.586-10.755,9.434-10.611c-8.159,5.083-5.569,9.686-5.569,9.686s4.21,0.478,6.732,2.244
	c0.161-1.236,1.342-2.912,1.863-4.225c0.527-1.318-0.308-3.984-0.237-4.269c0.542-2.156,4.582-10.09,11.309-8.874
	c-11.092,5.511-7.339,11.291-7.339,11.291s4.978,0.229,6.926,3.832c5.9-0.668,23.742-22.521,26.461-37.02
	C325.411,318.016,319.733,318.125,316.384,317.489L316.384,317.489z M182.421,362.43c3.34-8.206,2.616-17.104,2.616-17.104
	S191.773,354.415,182.421,362.43L182.421,362.43z M230.875,303.054c-5.897,5.941-11.859,5.813-11.859,5.813
	s11.115-4.644,15.261-17.836c0.527,2.985-0.533,7.597-0.533,7.597s7.072-0.413,10.456-9.445
	C244.2,289.182,245.205,299.457,230.875,303.054L230.875,303.054z M265.657,275.18c0,0,12.656,0.04,12.727,14.134
	C274.115,279.132,265.657,275.18,265.657,275.18L265.657,275.18z M316.226,336.344c-0.129,6.524-3.662,9.246-3.662,9.246
	s2.771-7.969-0.334-12.349c1.198,0.179,2.464,1.518,2.464,1.518s2.742-2.862,0.604-8.982
	C320.773,329.987,316.226,336.344,316.226,336.344L316.226,336.344z"/>
<path fill-rule="evenodd" clip-rule="evenodd" fill="#A4332D" d="M395.729,283.373v-16.658h-27.056
	c-1.887-38.13-16.711-73.91-42.346-102.217l19.134-19.132l-11.777-11.779l-19.137,19.134
	c-28.31-25.645-64.049-40.463-102.214-42.347V83.32h-16.658v27.059c-39.196,1.961-74.821,17.676-102.155,42.4l-19.194-19.192
	l-11.78,11.779l19.192,19.192c-24.725,27.334-40.441,62.965-42.401,102.157H12.283v16.658h27.051
	c1.887,38.13,16.711,73.91,42.346,102.217l-19.132,19.134L74.326,416.5l19.134-19.134c28.308,25.646,64.05,40.462,102.215,42.346
	v27.053h16.658v-27.059c39.196-1.963,74.821-17.675,102.152-42.398l19.198,19.192l11.777-11.777l-19.192-19.192
	c24.729-27.337,40.441-62.968,42.404-102.158H395.729L395.729,283.373z M204.063,420.91c-39.24,0.018-76.071-15.302-103.711-43.128
	c-27.3-27.486-42.343-63.949-42.359-102.674c-0.032-80.43,65.442-145.896,145.951-145.931c39.242-0.018,76.074,15.3,103.712,43.128
	c27.299,27.488,42.343,63.951,42.36,102.675C350.049,355.408,284.574,420.875,204.063,420.91L204.063,420.91z"/>
<path fill-rule="evenodd" clip-rule="evenodd" fill="#FFFFFF" d="M54.36,82.349l6.042-2.542c0.929,1.709,1.472,3.338,1.63,4.89
	s-0.053,3.007-0.631,4.37c-0.577,1.362-1.638,2.716-3.182,4.058c-1.888,1.644-3.688,2.684-5.398,3.126
	c-1.711,0.442-3.653,0.289-5.826-0.458s-4.276-2.291-6.313-4.633c-2.717-3.122-4.042-6.185-3.971-9.192
	c0.069-3.004,1.493-5.717,4.271-8.136c2.181-1.897,4.314-2.908,6.4-3.031c2.084-0.126,4.299,0.545,6.643,2.007l-3.731,5.253
	c-0.662-0.432-1.197-0.702-1.608-0.812c-0.687-0.183-1.352-0.207-1.994-0.07c-0.642,0.138-1.233,0.441-1.774,0.911
	c-1.207,1.052-1.671,2.389-1.39,4.011c0.195,1.214,1.028,2.665,2.498,4.354c1.818,2.089,3.356,3.27,4.613,3.539
	s2.41-0.053,3.461-0.97c1.02-0.885,1.516-1.868,1.494-2.949C55.569,84.993,55.16,83.752,54.36,82.349L54.36,82.349z"/>
<polygon fill-rule="evenodd" clip-rule="evenodd" fill="#FFFFFF" points="53.53,64.244 58.671,60.485 73.43,80.678 68.288,84.437 
	53.53,64.244 "/>
<path fill-rule="evenodd" clip-rule="evenodd" fill="#FFFFFF" d="M91.384,69.051l-5.052,3.16l-1.564-2.502
	c-0.114,1.494-0.417,2.697-0.91,3.608s-1.299,1.718-2.42,2.42c-1.488,0.93-2.959,1.175-4.411,0.735
	c-1.452-0.441-2.808-1.668-4.069-3.686l-6.117-9.784l5.43-3.396l5.281,8.445c0.602,0.964,1.194,1.545,1.777,1.743
	c0.582,0.199,1.169,0.114,1.759-0.255c0.649-0.406,1.012-1.009,1.091-1.808c0.079-0.801-0.319-1.901-1.192-3.299l-4.62-7.387
	l5.401-3.376L91.384,69.051L91.384,69.051z"/>
<path fill-rule="evenodd" clip-rule="evenodd" fill="#FFFFFF" d="M95.367,53.121c0.185-0.875,0.668-1.506,1.449-1.897
	c0.646-0.325,1.348-0.3,2.105,0.07c0.757,0.369,1.456,1.197,2.098,2.476c0.728,1.453,1.011,2.603,0.851,3.453
	c-0.158,0.848-0.582,1.444-1.27,1.789c-0.738,0.371-1.507,0.366-2.31-0.015c-0.8-0.381-1.548-1.267-2.246-2.66
	C95.407,55.068,95.183,53.996,95.367,53.121L95.367,53.121z M94.415,67.352l5.347-2.678l-1.203-2.401
	c1.236,0.636,2.263,0.979,3.079,1.027c1.059,0.053,2.089-0.173,3.091-0.674c1.173-0.587,2.073-1.455,2.7-2.6
	c0.624-1.146,0.872-2.528,0.744-4.15c-0.129-1.62-0.637-3.315-1.522-5.083c-1.329-2.653-2.943-4.39-4.841-5.213
	c-1.9-0.822-3.757-0.779-5.574,0.132c-0.888,0.444-1.611,1.011-2.174,1.699c-0.561,0.688-0.964,1.501-1.21,2.439l-3.88-7.746
	l-5.757,2.886L94.415,67.352L94.415,67.352z"/>
<path fill-rule="evenodd" clip-rule="evenodd" fill="#FFFFFF" d="M119.726,46.468l6.243-2.546c0.514,1.091,1.083,1.865,1.701,2.32
	c1.021,0.732,2.175,0.885,3.461,0.461c0.962-0.319,1.623-0.81,1.979-1.472c0.357-0.664,0.428-1.32,0.215-1.969
	c-0.205-0.617-0.633-1.087-1.286-1.411c-0.655-0.324-1.956-0.404-3.902-0.242c-3.188,0.248-5.607-0.021-7.255-0.807
	c-1.671-0.778-2.813-2.098-3.426-3.958c-0.403-1.222-0.458-2.481-0.17-3.781c0.29-1.301,0.987-2.477,2.09-3.529
	c1.1-1.052,2.786-1.953,5.055-2.701c2.776-0.916,5.083-1.052,6.918-0.407c1.837,0.645,3.3,2.149,4.392,4.518l-6.22,2.499
	c-0.526-1.011-1.138-1.668-1.84-1.976c-0.699-0.306-1.526-0.305-2.477,0.01c-0.779,0.256-1.308,0.631-1.588,1.125
	c-0.28,0.495-0.334,1.002-0.164,1.521c0.126,0.379,0.406,0.665,0.842,0.855c0.419,0.211,1.266,0.255,2.544,0.133
	c3.177-0.281,5.517-0.277,7.02,0.012c1.504,0.29,2.72,0.861,3.649,1.717c0.929,0.857,1.608,1.932,2.036,3.229
	c0.502,1.525,0.579,3.054,0.23,4.597c-0.347,1.54-1.107,2.871-2.276,3.993c-1.172,1.124-2.813,2.033-4.932,2.732
	c-3.708,1.223-6.53,1.292-8.47,0.208C122.158,50.514,120.7,48.804,119.726,46.468L119.726,46.468z"/>
<path fill-rule="evenodd" clip-rule="evenodd" fill="#FFFFFF" d="M149.101,33.476c0.387-0.797,0.979-1.285,1.772-1.463
	c0.751-0.168,1.458,0.025,2.118,0.58c0.659,0.554,1.15,1.545,1.471,2.972c0.349,1.548,0.349,2.701,0.001,3.46
	c-0.349,0.759-0.886,1.219-1.613,1.381c-0.831,0.188-1.595,0.004-2.297-0.546c-0.699-0.551-1.207-1.523-1.521-2.918
	C148.693,35.427,148.715,34.27,149.101,33.476L149.101,33.476z M152.578,52.462l-1.906-8.47c0.781,0.56,1.607,0.929,2.477,1.104
	c0.87,0.179,1.792,0.158,2.758-0.06c1.982-0.445,3.448-1.588,4.397-3.426s1.093-4.229,0.432-7.167
	c-0.599-2.662-1.696-4.762-3.294-6.302s-3.488-2.067-5.67-1.575c-1.103,0.248-2.046,0.734-2.83,1.459
	c-0.592,0.541-1.166,1.452-1.72,2.732l-0.592-2.631l-5.833,1.311l5.496,24.435L152.578,52.462L152.578,52.462z"/>
<path fill-rule="evenodd" clip-rule="evenodd" fill="#FFFFFF" d="M170.15,29.379c0.501-0.85,1.216-1.334,2.147-1.455
	c0.873-0.114,1.654,0.171,2.342,0.854c0.69,0.683,1.135,1.8,1.339,3.352c0.215,1.667,0.081,2.914-0.406,3.744
	c-0.486,0.829-1.189,1.304-2.108,1.422c-0.908,0.12-1.711-0.166-2.405-0.854c-0.694-0.687-1.146-1.83-1.354-3.428
	C169.501,31.441,169.649,30.229,170.15,29.379L170.15,29.379z M167.3,40.591c1.83,1.252,4.071,1.705,6.727,1.359
	c2.982-0.387,5.202-1.573,6.656-3.555c1.455-1.983,2.002-4.356,1.642-7.119c-0.319-2.457-1.266-4.437-2.842-5.941
	c-1.966-1.865-4.604-2.581-7.913-2.15c-2.893,0.375-5.076,1.563-6.545,3.56s-2.024,4.365-1.67,7.104
	C163.739,36.791,165.053,39.038,167.3,40.591L167.3,40.591z"/>
<path fill-rule="evenodd" clip-rule="evenodd" fill="#FFFFFF" d="M185.369,22.112l5.968-0.327l0.164,2.979
	c0.498-1.315,1.037-2.229,1.619-2.747c0.582-0.516,1.321-0.797,2.219-0.847c0.943-0.053,1.988,0.204,3.138,0.772l-1.707,5.073
	c-0.769-0.3-1.368-0.437-1.799-0.415c-0.841,0.047-1.469,0.456-1.882,1.23c-0.601,1.093-0.822,3.086-0.662,5.981l0.333,6.062
	l-6.396,0.352L185.369,22.112L185.369,22.112z"/>
<path fill-rule="evenodd" clip-rule="evenodd" fill="#FFFFFF" d="M209.952,14.604l-0.064,6.87l3.507,0.032l-0.05,5.082l-3.506-0.034
	l-0.06,6.434c-0.007,0.773,0.054,1.288,0.188,1.54c0.201,0.388,0.562,0.586,1.083,0.59c0.466,0.004,1.122-0.138,1.978-0.426
	l0.41,4.789c-1.57,0.36-3.044,0.535-4.42,0.52c-1.579-0.015-2.742-0.248-3.487-0.697s-1.298-1.129-1.652-2.036
	s-0.521-2.372-0.504-4.395l0.06-6.378l-2.325-0.022l0.048-5.08l2.325,0.021l0.031-3.313L209.952,14.604L209.952,14.604z"/>
<polygon fill-rule="evenodd" clip-rule="evenodd" fill="#FFFFFF" points="230.498,15.466 239.747,16.818 241.083,32.389 
	246.831,17.855 256.056,19.204 252.438,43.951 246.702,43.112 249.464,24.23 242.254,42.461 237.051,41.701 235.375,22.17 
	232.613,41.052 226.876,40.211 230.498,15.466 "/>
<path fill-rule="evenodd" clip-rule="evenodd" fill="#FFFFFF" d="M268.868,40.509c-0.22,0.838-0.521,1.484-0.908,1.942
	c-0.384,0.457-0.923,0.79-1.614,0.996c-0.694,0.207-1.383,0.22-2.068,0.04c-0.665-0.173-1.122-0.472-1.368-0.896
	c-0.249-0.422-0.305-0.899-0.17-1.427c0.12-0.461,0.404-0.831,0.841-1.103c0.422-0.265,1.313-0.416,2.669-0.448
	c0.984-0.013,1.948-0.07,2.9-0.174L268.868,40.509L268.868,40.509z M266.043,33.195c0.592-0.22,1.4-0.196,2.423,0.07
	c0.8,0.211,1.315,0.521,1.544,0.933c0.231,0.409,0.24,1.025,0.023,1.847c-0.858,0.127-1.658,0.205-2.402,0.227
	c-0.741,0.022-2.338-0.015-4.79-0.116c-2.039-0.088-3.53,0.205-4.471,0.877c-0.955,0.669-1.605,1.67-1.954,3.003
	c-0.372,1.422-0.188,2.748,0.557,3.98c0.744,1.23,2.083,2.098,4.014,2.603c1.444,0.379,2.777,0.469,3.999,0.271
	c0.888-0.154,1.852-0.549,2.889-1.182c-0.067,0.527-0.094,0.918-0.085,1.176c0.009,0.255,0.067,0.642,0.182,1.157l5.774,1.512
	c-0.129-0.81-0.179-1.46-0.152-1.953c0.032-0.494,0.152-1.151,0.372-1.978l2.027-7.743c0.214-0.826,0.29-1.73,0.223-2.717
	c-0.064-0.989-0.299-1.8-0.697-2.435c-0.563-0.911-1.377-1.626-2.443-2.147c-1.066-0.52-2.525-1.024-4.377-1.509
	c-1.148-0.299-2.241-0.486-3.284-0.561c-1.043-0.073-1.887-0.015-2.54,0.176c-0.917,0.264-1.667,0.659-2.253,1.189
	c-0.589,0.532-1.137,1.326-1.652,2.383l5.704,2.232C265.115,33.798,265.575,33.365,266.043,33.195L266.043,33.195z"/>
<path fill-rule="evenodd" clip-rule="evenodd" fill="#FFFFFF" d="M282.274,33.379l5.646,1.958l-0.976,2.82
	c0.958-1.027,1.805-1.671,2.537-1.928c0.732-0.258,1.526-0.239,2.376,0.056c0.891,0.309,1.761,0.943,2.61,1.903l-3.501,4.049
	c-0.598-0.568-1.102-0.924-1.509-1.065c-0.794-0.275-1.532-0.135-2.209,0.426c-0.97,0.782-1.928,2.543-2.877,5.282l-1.989,5.738
	l-6.05-2.099L282.274,33.379L282.274,33.379z"/>
<path fill-rule="evenodd" clip-rule="evenodd" fill="#FFFFFF" d="M296.697,38.584L302.588,41l-6.879,16.786l-5.892-2.416
	L296.697,38.584L296.697,38.584z M302.225,32.922l5.065,2.076l-6.609,2.823l-2.813-1.154L302.225,32.922L302.225,32.922z"/>
<path fill-rule="evenodd" clip-rule="evenodd" fill="#FFFFFF" d="M317.064,40.065l-2.953,6.204l3.167,1.506l-2.183,4.589
	l-3.167-1.507l-2.763,5.811c-0.337,0.699-0.492,1.189-0.478,1.474c0.018,0.438,0.264,0.769,0.732,0.993
	c0.419,0.198,1.075,0.347,1.972,0.444l-1.641,4.518c-1.579-0.335-2.988-0.798-4.23-1.389c-1.427-0.678-2.382-1.38-2.868-2.102
	s-0.703-1.57-0.642-2.543c0.062-0.971,0.524-2.372,1.392-4.198l2.742-5.76l-2.101-0.999l2.183-4.586l2.101,0.998l1.424-2.994
	L317.064,40.065L317.064,40.065z"/>
<path fill-rule="evenodd" clip-rule="evenodd" fill="#FFFFFF" d="M324.166,43.666l5.593,3.045l-2.259,4.148l-5.596-3.048
	L324.166,43.666L324.166,43.666z M320.878,49.698l5.59,3.047l-8.681,15.929l-5.59-3.048L320.878,49.698L320.878,49.698z"/>
<path fill-rule="evenodd" clip-rule="evenodd" fill="#FFFFFF" d="M331.487,55.189l4.925,3.325l-1.485,2.203
	c1.324-0.437,2.479-0.602,3.46-0.502c0.981,0.103,1.983,0.497,3.003,1.184c1.104,0.747,1.834,1.548,2.188,2.405
	s0.454,1.841,0.296,2.953c1.488-0.42,2.692-0.576,3.615-0.466c0.92,0.107,1.881,0.498,2.88,1.172
	c1.477,0.999,2.312,2.256,2.493,3.773c0.185,1.518-0.413,3.294-1.79,5.331l-6.369,9.434l-5.276-3.563l5.795-8.584
	c0.46-0.681,0.677-1.271,0.656-1.768c0.003-0.754-0.261-1.313-0.788-1.668c-0.624-0.422-1.292-0.514-2.01-0.281
	c-0.712,0.234-1.436,0.895-2.171,1.982l-5.25,7.777l-5.279-3.565l5.59-8.278c0.448-0.661,0.712-1.134,0.797-1.421
	c0.138-0.454,0.152-0.891,0.029-1.307c-0.114-0.417-0.366-0.754-0.744-1.008c-0.606-0.412-1.277-0.498-2.004-0.264
	c-0.732,0.234-1.482,0.923-2.256,2.064l-5.18,7.671l-5.276-3.565L331.487,55.189L331.487,55.189z"/>
<path fill-rule="evenodd" clip-rule="evenodd" fill="#FFFFFF" d="M360.309,83.082c0.97-0.188,1.808,0.029,2.514,0.647
	c0.662,0.58,0.964,1.355,0.908,2.322c-0.059,0.97-0.601,2.042-1.632,3.221c-1.107,1.264-2.136,1.986-3.076,2.169
	c-0.946,0.185-1.767-0.029-2.461-0.64c-0.688-0.602-1.008-1.392-0.952-2.367c0.056-0.977,0.615-2.071,1.679-3.284
	C358.334,83.955,359.342,83.266,360.309,83.082L360.309,83.082z M350.014,88.355c0.267,2.2,1.409,4.182,3.425,5.946
	c2.265,1.98,4.62,2.862,7.069,2.641c2.449-0.22,4.591-1.377,6.425-3.473c1.632-1.862,2.493-3.883,2.581-6.059
	c0.1-2.708-1.104-5.162-3.618-7.362c-2.194-1.922-4.526-2.773-6.996-2.556s-4.614,1.367-6.437,3.445
	C350.509,83.169,349.695,85.642,350.014,88.355L350.014,88.355z"/>
<polygon fill-rule="evenodd" clip-rule="evenodd" fill="#FFFFFF" points="100.087,508.153 84.095,508.153 81.432,551.949 
	92.358,551.949 93.757,518.524 101.02,551.023 110.347,551.023 119.344,518.524 119.476,518.524 120.275,551.949 131.735,551.949 
	129.47,508.153 113.946,508.153 106.683,535.83 106.417,535.83 100.087,508.153 "/>
<path fill-rule="evenodd" clip-rule="evenodd" fill="#FFFFFF" d="M156.52,549.04l0.601,2.909h10.528l-0.466-18.63
	c0-15.454-14.925-14.136-14.925-14.136l-8.329,1.058c-2.726,0.349-4.929,1.852-4.929,1.852l1.998,7.462c0,0,1.831-1.189,4.132-1.717
	l4.995-0.727c0,0,5.484-0.489,5.329,3.038h-2.197c0,0-16.761-0.217-16.589,12.352c0,0,0.038,10.028,10.551,10.034
	c0,0,5.836,0.076,8.571-3.167C156.029,549.083,156.52,549.04,156.52,549.04L156.52,549.04z M151.79,544.458
	c-3.652,0.041-3.53-2.839-3.53-2.839c0-4.365,5.663-4.336,5.663-4.336h1.866v2.511C155.789,544.267,151.79,544.458,151.79,544.458
	L151.79,544.458z"/>
<path fill-rule="evenodd" clip-rule="evenodd" fill="#FFFFFF" d="M196.431,547.522l0.533,4.427h10.46l-0.267-46.175h-11.859v16.45
	c0,0-1.897-3.041-7.995-3.041s-14.459,4.298-14.459,16.91c0,0-0.16,16.447,13.727,16.447
	C186.571,552.541,193.195,552.497,196.431,547.522L196.431,547.522z M190.567,543.16c-5.952,0-5.72-7.553-5.72-7.553
	c0-7.228,5.161-7.438,5.161-7.438c5.008,0,5.291,4.093,5.291,4.093l-0.133,7.201C194.527,543.034,190.567,543.16,190.567,543.16
	L190.567,543.16z"/>
<path fill-rule="evenodd" clip-rule="evenodd" fill="#FFFFFF" d="M229.478,519.183c-16.635,0-16.658,17.045-16.658,17.045
	c0,17.291,17.725,16.313,17.725,16.313c7.409,0,11.994-1.98,11.994-1.98l-1.403-7.86c-17.279,3.296-17.186-2.643-17.186-2.643
	h19.852C247.077,518.246,229.478,519.183,229.478,519.183L229.478,519.183z M233.474,532.129h-9.659c0,0,0.255-5.215,5.191-5.215
	C229.006,526.915,233.474,526.862,233.474,532.129L233.474,532.129z"/>
<polygon fill-rule="evenodd" clip-rule="evenodd" fill="#FFFFFF" points="261.461,519.913 249.734,519.913 249.734,551.949 
	261.461,551.949 261.461,519.913 "/>
<path fill-rule="evenodd" clip-rule="evenodd" fill="#FFFFFF" d="M280.513,536.093v15.855h-11.789l-0.202-32.036h9.993l0.469,5.81
	c0,0,2.317-7.764,11.127-6.275v10.901C290.111,530.348,280.513,527.99,280.513,536.093L280.513,536.093z"/>
<path fill-rule="evenodd" clip-rule="evenodd" fill="#FFFFFF" d="M262.059,510.491c0,3.319-2.93,6.012-6.542,6.012
	c-3.615,0-6.545-2.692-6.545-6.012c0-3.322,2.93-6.012,6.545-6.012C259.129,504.479,262.059,507.168,262.059,510.491
	L262.059,510.491z"/>
<path fill-rule="evenodd" clip-rule="evenodd" fill="#FFFFFF" d="M312.239,549.04l0.598,2.909h10.529l-0.466-18.63
	c0-15.454-14.924-14.136-14.924-14.136l-8.329,1.058c-2.728,0.349-4.931,1.852-4.931,1.852l1.998,7.462c0,0,1.834-1.189,4.131-1.717
	l4.998-0.727c0,0,5.481-0.489,5.329,3.038h-2.2c0,0-16.758-0.217-16.588,12.352c0,0,0.041,10.028,10.553,10.034
	c0,0,5.836,0.076,8.569-3.167C311.75,549.083,312.239,549.04,312.239,549.04L312.239,549.04z M307.507,544.458
	c-3.65,0.041-3.53-2.839-3.53-2.839c0-4.365,5.663-4.336,5.663-4.336h1.866v2.511C311.506,544.267,307.507,544.458,307.507,544.458
	L307.507,544.458z"/>
</svg>
