<?xml version="1.0" encoding="utf-8"?>
<!-- Generator: Adobe Illustrator 13.0.0, SVG Export Plug-In . SVG Version: 6.00 Build 14948)  -->
<!DOCTYPE svg PUBLIC "-//W3C//DTD SVG 1.1 Tiny//EN" "http://www.w3.org/Graphics/SVG/1.1/DTD/svg11-tiny.dtd">
<svg version="1.1" baseProfile="tiny" id="Ebene_1" xmlns="http://www.w3.org/2000/svg" xmlns:xlink="http://www.w3.org/1999/xlink"
	 x="0px" y="0px" width="247.354px" height="561.259px" viewBox="0 0 247.354 561.259" xml:space="preserve">
<path fill-rule="evenodd" fill="#DBB447" d="M0,163.241v329.587c0,42.577,72.71,68.432,123.709,68.432
	c50.936,0,123.645-25.854,123.645-68.432V163.241H0L0,163.241z"/>
<path fill-rule="evenodd" fill="#FFFFFF" d="M15.294,492.957l0.517,4.925c1.491,5.64,3.954,9.398,7.712,13.869
	c15.229,15.747,36.938,23.783,57.74,29.227c9.656,2.203,19.116,3.823,28.967,4.86l9.072,0.519
	c14.32,0.261,27.864-1.362,41.927-4.277l9.656-2.396c13.737-3.955,26.376-8.88,38.622-16.269l6.545-4.6
	c5.25-4.277,9.398-8.361,12.961-14.127c1.491-3.111,2.399-5.64,2.918-9.009l0.108-266.08H15.294V492.957L15.294,492.957z"/>
<polygon fill-rule="evenodd" fill="#DBB447" points="43.354,140.298 204,140.298 204,158.12 43.354,158.12 43.354,140.298 "/>
<polygon fill-rule="evenodd" fill="#00468C" points="15.294,178.534 232.061,178.534 232.061,214.304 15.294,214.304 
	15.294,178.534 "/>
<path fill-rule="evenodd" fill="#DBB447" d="M49.704,245.279v144.318c0,22.356,43.419,38.947,74.005,38.947
	c30.521,0,73.939-16.591,73.939-38.947V245.279H49.704L49.704,245.279z"/>
<path fill-rule="evenodd" fill="#00468C" d="M65.063,389.143c0.195,4.081,5.508,7.775,8.553,9.85
	c13.285,8.555,29.486,12.832,45.17,14.063c17.43,0.844,35.706-3.434,51.195-11.73c4.274-2.525,8.748-5.312,11.534-9.589
	c0.519-0.973,0.776-1.491,0.841-2.593V260.574H65.063V389.143L65.063,389.143z"/>
<path fill-rule="evenodd" fill="#DBB447" d="M136.995,334.903c-1.298,2.01-2.982,3.694-4.992,4.925l3.111,65.71h-22.875l3.111-65.71
	c-2.008-1.23-3.694-2.915-4.991-4.925l-35.124,3.044v-22.939l35.124,2.982c1.296-1.945,2.982-3.63,4.925-4.86l-3.045-47.826h22.875
	l-3.044,47.826c1.942,1.23,3.627,2.915,4.925,4.86l35.121-2.982v22.939L136.995,334.903L136.995,334.903z"/>
<path fill-rule="evenodd" fill="#FFFFFF" d="M105.63,206.852c-0.388-0.971-0.973-2.074-1.749-3.305
	c-0.715-1.167-1.556-2.333-2.528-3.435c-0.907-1.037-1.944-1.879-2.981-2.462c2.462-0.519,4.342-1.425,5.574-2.722
	c1.166-1.296,1.813-2.981,1.813-5.186c0-1.036-0.193-2.008-0.582-2.979c-0.325-0.908-0.844-1.75-1.557-2.464
	c-0.713-0.712-1.49-1.23-2.396-1.62c-0.778-0.324-1.622-0.582-2.528-0.712c-0.973-0.064-2.073-0.129-3.369-0.129h-1.362H85.8
	c-1.296,0-2.205,0.259-2.788,0.841c-0.519,0.584-0.842,1.491-0.842,2.723v22.292c0,1.166,0.259,2.01,0.778,2.657
	c0.519,0.583,1.23,0.907,2.203,0.907c0.842,0,1.556-0.324,2.074-0.907c0.583-0.584,0.842-1.491,0.842-2.657v-9.333h2.008
	c1.037,0,1.944,0.13,2.593,0.454c0.454,0.129,0.842,0.39,1.295,0.778c0.261,0.195,0.52,0.454,0.713,0.712
	c0.713,0.778,1.425,1.879,2.269,3.306l2.396,3.888c0.52,0.908,0.973,1.62,1.296,2.074c0.324,0.519,0.713,0.907,1.167,1.166
	c0.388,0.325,0.971,0.519,1.62,0.519c0.583,0,1.036-0.129,1.49-0.324c0.39-0.259,0.713-0.519,0.973-0.908
	c0.259-0.388,0.388-0.776,0.388-1.166C106.277,208.537,106.018,207.825,105.63,206.852L105.63,206.852z M96.816,193.827
	c-0.778,0.193-1.749,0.324-2.852,0.324c-0.259,0-0.453,0-0.647,0h-5.249v-7.906h5.379c0.193,0,0.324,0,0.517,0
	c1.752,0,2.918,0.129,3.565,0.388c0.713,0.324,1.232,0.778,1.685,1.361c0.388,0.649,0.583,1.361,0.583,2.139
	c0,1.036-0.259,1.815-0.778,2.398C98.566,193.113,97.789,193.566,96.816,193.827L96.816,193.827z"/>
<path fill-rule="evenodd" fill="#FFFFFF" d="M161.619,188.317c-1.102-2.203-2.786-3.952-4.925-5.184
	c-2.074-1.166-4.667-1.813-7.582-1.813c-0.064,0-0.064,0-0.129,0c-2.203,0-4.148,0.322-5.897,1.036s-3.24,1.685-4.406,2.982
	c-1.233,1.295-2.142,2.915-2.786,4.73c-0.65,1.879-0.973,3.888-0.973,6.157c0,2.137,0.322,4.147,0.908,6.026
	c0.645,1.879,1.553,3.5,2.719,4.796c1.233,1.361,2.722,2.332,4.474,3.11c1.813,0.713,3.823,1.102,6.091,1.102
	s4.277-0.388,6.029-1.102c1.811-0.712,3.302-1.749,4.468-3.045c1.23-1.361,2.139-2.981,2.722-4.796
	c0.65-1.815,0.908-3.823,0.908-6.091C163.239,193.244,162.721,190.586,161.619,188.317L161.619,188.317z M156.176,201.992
	c-0.712,1.556-1.749,2.722-2.982,3.435c-1.23,0.776-2.59,1.166-4.081,1.166h-0.064c-1.166,0-2.203-0.259-3.176-0.649
	c-1.037-0.453-1.881-1.102-2.657-2.008c-0.712-0.842-1.295-1.944-1.749-3.305c-0.39-1.296-0.583-2.788-0.583-4.406
	c0-1.686,0.193-3.111,0.583-4.408c0.454-1.361,0.973-2.396,1.685-3.24c0.779-0.842,1.62-1.49,2.593-1.944s2.071-0.649,3.24-0.649
	c0.064,0,0.064,0,0.129,0c1.556,0,2.982,0.39,4.277,1.167c1.23,0.842,2.203,2.01,2.915,3.564c0.647,1.556,1.037,3.371,1.037,5.509
	C157.342,198.492,156.952,200.436,156.176,201.992L156.176,201.992z"/>
<path fill-rule="evenodd" fill="#DBB447" d="M123.839,41.474c-11.922-11.405-29.615-22.422-48.668-11.082
	C54.435,16.135,8.75,39.725,6.546,73.746v5.249c0.647,9.785,4.923,20.218,14.256,30.847l22.551,25.337h160.972l22.485-25.337
	c9.396-10.629,13.673-21.062,14.323-30.847v-5.249c-2.268-34.021-47.892-57.611-68.628-43.354
	c-18.987-11.275-36.612-0.454-48.472,10.887C123.968,41.345,123.904,41.41,123.839,41.474L123.839,41.474z"/>
<path fill-rule="evenodd" fill="#C70119" d="M191.429,45.362c4.213,9.59,4.925,23.978,3.563,37.327h-10.172
	c3.434-38.105-30.976-46.399-54.823-33.762L129.8,82.689h-6.091h-6.091l-0.258-33.762c-23.849-12.637-58.26-4.343-54.825,33.762
	H52.361C51,69.34,51.713,54.952,55.926,45.362c-19.767,1.23-45.882,32.077-25.144,56.897l18.921,22.746h74.005h73.939l18.923-22.746
	C237.311,77.439,211.192,46.592,191.429,45.362L191.429,45.362z"/>
<path fill-rule="evenodd" fill="#00468C" d="M169.591,484.663c0-25.274-20.675-45.946-45.882-45.946
	c-25.271,0-45.945,20.672-45.945,45.946c0,25.271,20.673,45.882,45.945,45.882C148.916,530.544,169.591,509.934,169.591,484.663
	L169.591,484.663z"/>
<path fill-rule="evenodd" fill="#FFFFFF" d="M129.217,464.055c-1.685-0.193-3.369-0.325-5.183-0.325
	c-20.414,0-37.975,14.517-41.928,34.605c0.583,1.816,1.296,3.501,2.073,5.186c3.371-6.87,8.685-12.507,15.23-16.266
	c7.062-4.084,15.294-5.769,23.395-4.86c3.886-5.379,6.088-11.795,6.413-18.404V464.055L129.217,464.055z"/>
<path fill-rule="evenodd" fill="#FFFFFF" d="M103.102,490.106c6.675,15.812,22.163,26.051,39.27,26.051
	c4.731,0,9.463-0.779,13.934-2.332c1.23-1.427,2.399-2.851,3.437-4.342c-7.582,0.451-15.1-1.298-21.645-5.054
	c-7.063-4.084-12.573-10.307-15.877-17.757c-1.166-0.196-2.398-0.261-3.628-0.261C113.212,486.412,107.897,487.709,103.102,490.106
	L103.102,490.106z"/>
<path fill-rule="evenodd" fill="#FFFFFF" d="M138.68,499.762c5.572-7.389,8.619-16.462,8.619-25.729
	c0-12.375-5.379-24.105-14.71-32.206c-1.816-0.387-3.63-0.647-5.444-0.844c4.211,6.352,6.417,13.74,6.417,21.258
	c0,8.165-2.657,16.069-7.39,22.679c2.592,6.094,6.998,11.276,12.573,14.906L138.68,499.762L138.68,499.762z"/>
<path fill-rule="evenodd" fill="#FFFFFF" d="M121.896,440.919c-23.458,0.973-41.993,20.285-41.993,43.743
	c0,1.62,0.129,3.305,0.324,4.925c7.646-19.957,27.866-32.206,48.99-29.81C128.699,452.911,126.171,446.363,121.896,440.919
	L121.896,440.919z"/>
<path fill-rule="evenodd" fill="#FFFFFF" d="M86.771,508.121c8.036,12.7,21.968,20.35,36.938,20.35
	c9.331,0,18.469-3.047,25.986-8.619c-21.062,3.369-41.732-7.972-50.287-27.542c-5.704,3.823-10.11,9.331-12.637,15.747V508.121
	L86.771,508.121z"/>
<path fill-rule="evenodd" fill="#FFFFFF" d="M162.463,504.945c3.24-6.349,4.989-13.283,4.989-20.282
	c0-17.432-10.304-33.179-26.247-40.113c6.677,8.361,10.371,18.729,10.371,29.484c0,10.046-3.176,19.767-9.138,27.864
	c4.664,2.271,9.785,3.437,14.903,3.437C159.091,505.334,160.775,505.206,162.463,504.945L162.463,504.945z"/>
<path fill-rule="evenodd" fill="#DBB447" d="M123.775,37.521c-3.5-3.823-7.194-6.48-11.407-8.943
	c1.167-3.888,3.565-8.294,8.167-9.785v-6.091h-8.295V6.35h8.295V0h6.415v6.35h8.294v6.352h-8.294v6.091
	c4.603,1.491,6.999,5.897,8.165,9.785C130.904,31.04,127.145,33.697,123.775,37.521L123.775,37.521z"/>
<path fill-rule="evenodd" fill="#DBB447" d="M132.457,100.77c0.908-1.557,1.427-3.24,1.427-5.121
	c0-5.637-4.603-10.238-10.175-10.238c-5.638,0-10.173,4.601-10.173,10.238c0,1.881,0.453,3.564,1.361,5.121c0,0,0,0-0.064,0
	c-5.572,0-10.175,4.535-10.175,10.173s4.603,10.238,10.175,10.238c3.823,0,7.128-2.073,8.877-5.183
	c1.75,3.11,4.99,5.183,8.815,5.183c5.572,0,10.172-4.6,10.172-10.238s-4.6-10.173-10.172-10.173
	C132.457,100.77,132.457,100.77,132.457,100.77L132.457,100.77z"/>
<path fill-rule="evenodd" fill="#DBB447" d="M185.531,100.77c0.908-1.557,1.362-3.24,1.362-5.121
	c0-5.637-4.538-10.238-10.175-10.238s-10.239,4.601-10.239,10.238c0,1.881,0.519,3.564,1.424,5.121h-0.064
	c-5.572,0-10.172,4.535-10.172,10.173s4.6,10.238,10.172,10.238c3.823,0,7.131-2.073,8.88-5.183c1.749,3.11,5.054,5.183,8.813,5.183
	c5.637,0,10.239-4.6,10.239-10.238S191.168,100.77,185.531,100.77L185.531,100.77z"/>
<path fill-rule="evenodd" fill="#DBB447" d="M82.56,100.77c0.842-1.557,1.361-3.24,1.361-5.121c0-5.637-4.603-10.238-10.239-10.238
	c-5.574,0-10.173,4.601-10.173,10.238c0,1.881,0.517,3.564,1.359,5.121c-5.638,0-10.239,4.535-10.239,10.173
	s4.601,10.238,10.239,10.238c3.759,0,7.063-2.073,8.814-5.183c1.813,3.11,5.118,5.183,8.878,5.183c5.637,0,10.173-4.6,10.173-10.238
	S88.197,100.77,82.56,100.77L82.56,100.77z"/>
<path fill-rule="evenodd" fill="#DBB447" d="M70.636,105.823c0,0.064,0,0.064,0,0.064S70.636,105.888,70.636,105.823L70.636,105.823
	z"/>
</svg>
