<?xml version="1.0" encoding="utf-8"?>
<!-- Generator: Adobe Illustrator 13.0.2, SVG Export Plug-In . SVG Version: 6.00 Build 14948)  -->
<!DOCTYPE svg PUBLIC "-//W3C//DTD SVG 1.0//EN" "http://www.w3.org/TR/2001/REC-SVG-20010904/DTD/svg10.dtd">
<svg version="1.0" id="Ebene_1" xmlns="http://www.w3.org/2000/svg" xmlns:xlink="http://www.w3.org/1999/xlink" x="0px" y="0px"
	 width="433.872px" height="566.928px" viewBox="0 0 433.872 566.928" enable-background="new 0 0 433.872 566.928"
	 xml:space="preserve">
<path d="M216.936,566.928C97.488,566.856,0,468.936,0,349.2V0h433.872v349.2C433.872,468.936,336.384,566.856,216.936,566.928z"/>
<rect x="5.832" y="5.904" fill="#E2001A" width="422.208" height="135.648"/>
<rect x="203.112" y="167.76" fill="#FBE000" width="27.648" height="65.952"/>
<polygon fill="#FBE000" points="134.64,186.912 160.2,176.328 185.472,237.24 159.84,247.824 "/>
<polygon fill="#FBE000" points="78.696,230.832 98.28,211.176 144.936,257.832 125.28,277.416 "/>
<polygon fill="#FBE000" points="43.776,292.68 54.36,267.192 115.272,292.32 104.688,317.952 "/>
<rect x="35.208" y="335.592" fill="#FBE000" width="65.952" height="27.72"/>
<polygon fill="#FBE000" points="54.36,431.784 43.776,406.152 104.688,380.952 115.272,406.584 "/>
<polygon fill="#FBE000" points="98.28,487.728 78.696,468.144 125.28,421.488 144.864,441.144 "/>
<polygon fill="#FBE000" points="160.2,522.648 134.64,512.064 159.84,451.08 185.472,461.736 "/>
<polygon fill="#FBE000" points="299.232,512.064 273.672,522.648 248.4,461.736 274.032,451.08 "/>
<polygon fill="#FBE000" points="355.176,468.144 335.592,487.728 288.936,441.144 308.592,421.488 "/>
<polygon fill="#FBE000" points="390.096,406.152 379.512,431.784 318.6,406.584 329.184,380.952 "/>
<rect x="332.712" y="335.592" fill="#FBE000" width="65.952" height="27.72"/>
<polygon fill="#FBE000" points="379.512,267.192 390.096,292.68 329.184,317.952 318.6,292.32 "/>
<polygon fill="#FBE000" points="335.592,211.176 355.176,230.832 308.592,277.416 288.936,257.832 "/>
<polygon fill="#FBE000" points="273.672,176.328 299.232,186.912 274.032,247.824 248.4,237.24 "/>
<path fill="#E2001A" d="M216.936,448.344c54.432,0,98.856-44.424,98.856-98.928c0-54.432-44.424-98.784-98.856-98.784
	c-54.432,0-98.856,44.352-98.856,98.784C118.08,403.92,162.504,448.344,216.936,448.344z"/>
<path d="M58.392,102.384H33.264v3.456h20.664c-1.368,6.048-7.632,11.304-14.976,11.304c-9.072,0-16.2-7.128-16.2-16.2
	c0-9.144,7.056-16.2,16.128-16.2c5.76,0,10.512,2.664,13.104,7.344h4.104c-2.448-6.48-9.432-10.872-17.496-10.872
	c-11.016,0-19.584,8.64-19.584,19.656c0,11.16,8.784,19.8,20.088,19.8C49.968,120.672,57.816,112.032,58.392,102.384z"/>
<path d="M74.736,94.896v-3.744c-3.96,0.216-6.336,1.584-7.776,4.68V91.8h-3.672v28.152h3.672v-16.416
	C66.96,98.28,69.552,95.4,74.736,94.896z"/>
<path d="M106.128,105.984c0-8.64-6.264-14.832-14.832-14.832c-8.496,0-15.048,6.336-15.048,14.544c0,8.64,6.48,14.976,15.336,14.976
	C100.008,120.672,106.128,114.408,106.128,105.984L106.128,105.984z M102.24,106.056c0,6.408-4.536,11.088-10.728,11.088
	c-6.624,0-11.304-4.752-11.304-11.304c0-6.408,4.752-11.232,11.088-11.232C97.56,94.608,102.24,99.504,102.24,106.056z"/>
<path d="M129.96,99.936c3.096-1.8,4.032-4.248,4.032-7.992c0-6.12-4.824-10.728-11.376-10.728c-7.344,0-11.016,4.464-11.016,13.968
	v24.768h3.96v-5.616c2.016,4.176,6.12,6.336,10.728,6.336C139.968,120.672,144.072,104.256,129.96,99.936L129.96,99.936z
	 M126.216,117.144c-4.104,0-7.776-3.168-7.848-7.632h-2.808V95.184c0-7.416,2.304-10.44,7.128-10.44
	c4.176,0,7.272,3.024,7.272,6.984c0,4.536-2.16,7.272-7.776,7.272h-0.504v3.384c1.8-0.072,2.088-0.072,2.448-0.072
	C138.672,102.312,138.168,117.144,126.216,117.144z"/>
<path d="M172.368,119.952V91.8h-3.744v4.968c-2.664-3.888-6.048-5.616-10.8-5.616c-8.208,0-14.4,6.408-14.4,14.832
	c0,8.352,6.264,14.688,14.688,14.688c4.608,0,7.632-1.584,10.512-5.616v4.896H172.368L172.368,119.952z M168.624,105.768
	c0,6.408-4.608,11.376-10.512,11.376c-6.192,0-10.944-4.968-10.944-11.448c0-6.12,4.824-11.088,10.8-11.088
	S168.624,99.504,168.624,105.768z"/>
<path d="M194.904,111.888c0-3.456-1.584-5.832-4.752-7.2c-4.176-1.728-4.392-1.872-5.184-2.304
	c-1.656-0.864-2.448-2.016-2.448-3.672c0-2.304,1.728-4.104,3.96-4.104c2.376,0,3.96,1.44,3.96,4.176h3.744
	c0-4.536-3.312-7.632-7.704-7.632c-4.464,0-7.776,3.312-7.776,7.92c0,2.016,0.72,3.744,2.088,5.04c1.08,1.08,1.224,1.152,5.04,2.736
	c3.96,1.656,5.328,2.592,5.328,5.4c0,2.88-1.944,4.896-4.608,4.896c-3.024,0-5.184-2.016-5.184-5.472h-3.6c0,5.472,3.528,9,8.784,9
	C191.448,120.672,194.904,117.072,194.904,111.888z"/>
<path d="M230.256,105.984c0-8.424-6.984-14.832-15.048-14.832c-4.68,0-8.496,1.944-10.8,5.472V91.8h-3.672v38.088h3.672v-14.76
	c2.448,3.6,6.12,5.544,10.728,5.544C223.2,120.672,230.256,114.192,230.256,105.984L230.256,105.984z M226.512,105.984
	c0,6.336-5.4,11.16-11.376,11.16c-6.264,0-10.944-4.896-10.944-11.376c0-6.264,4.824-11.16,10.872-11.16
	S226.512,99.504,226.512,105.984z"/>
<path d="M264.024,119.952V91.8h-3.744v4.968c-2.664-3.888-6.048-5.616-10.8-5.616c-8.208,0-14.4,6.408-14.4,14.832
	c0,8.352,6.264,14.688,14.688,14.688c4.608,0,7.632-1.584,10.512-5.616v4.896H264.024L264.024,119.952z M260.28,105.768
	c0,6.408-4.608,11.376-10.512,11.376c-6.192,0-10.944-4.968-10.944-11.448c0-6.12,4.824-11.088,10.8-11.088
	S260.28,99.504,260.28,105.768z"/>
<path d="M298.944,111.672h-4.248c-2.88,3.96-5.616,5.472-9.504,5.472c-6.192,0-11.088-4.968-11.088-11.232
	c0-6.336,4.752-11.304,10.944-11.304c4.104,0,7.488,2.016,9.648,5.76h4.176c-2.232-5.688-7.56-9.216-13.752-9.216
	c-8.28,0-14.832,6.48-14.832,14.688c0,8.352,6.552,14.832,15.048,14.832C291.096,120.672,295.56,118.152,298.944,111.672z"/>
<path d="M329.544,119.952v-15.12c0-9.432-4.752-13.68-12.024-13.68c-3.816,0-6.984,1.512-8.856,4.32V81.936h-3.744v38.016h3.744
	v-15.408c0-6.912,3.672-9.936,8.496-9.936c5.112,0,8.64,3.24,8.64,10.224v15.12H329.544z"/>
<path d="M380.88,107.136c0-9.936-6.624-15.984-15.408-15.984c-8.64,0-15.408,6.408-15.408,14.616c0,8.352,6.84,14.904,15.624,14.904
	c6.768,0,12.528-4.608,14.472-9.936h-4.176c-1.728,3.816-5.904,6.408-10.368,6.408c-6.048,0-11.232-4.392-11.52-10.008H380.88
	L380.88,107.136z M376.848,103.68h-22.68c1.08-5.4,5.616-9.072,11.232-9.072C371.16,94.608,375.552,98.064,376.848,103.68z"/>
<polygon points="414.864,81.936 410.904,81.936 397.8,115.272 384.84,81.936 380.736,81.936 395.928,119.952 399.6,119.952 "/>
<path d="M86.832,38.16H61.704v3.456h20.664C81,47.664,74.664,52.92,67.392,52.92c-9.072,0-16.2-7.128-16.2-16.2
	c0-9.144,7.056-16.2,16.128-16.2c5.76,0,10.512,2.664,13.104,7.344h4.104c-2.448-6.552-9.432-10.872-17.496-10.872
	c-11.016,0-19.584,8.64-19.584,19.656c0,11.088,8.784,19.8,20.088,19.8C78.408,56.448,86.256,47.736,86.832,38.16z"/>
<path d="M41.616,45.144c0-3.384-1.368-6.336-3.672-8.136c-1.512-1.152-3.096-1.872-6.912-3.024c-3.312-1.08-4.464-1.512-5.4-2.376
	c-1.08-0.936-1.8-2.664-1.8-4.464c0-3.816,2.736-6.624,6.408-6.624c3.744,0,6.624,2.664,6.624,6.768h3.888
	c0-6.192-4.32-10.296-10.368-10.296c-5.976,0-10.296,4.32-10.296,10.296c0,2.592,0.936,5.112,2.592,6.696
	c1.512,1.44,2.592,2.016,6.912,3.384c6.408,2.016,8.28,3.816,8.28,7.992c0,4.392-3.096,7.56-7.344,7.56
	c-4.104,0-7.128-2.736-7.704-7.848h-3.888c0.288,6.84,4.896,11.376,11.52,11.376C36.864,56.448,41.616,51.624,41.616,45.144z"/>
<path d="M160.848,45.144c0-3.384-1.368-6.336-3.672-8.136c-1.512-1.152-3.096-1.872-6.912-3.024c-3.312-1.08-4.464-1.512-5.4-2.376
	c-1.08-0.936-1.8-2.664-1.8-4.464c0-3.816,2.736-6.624,6.408-6.624c3.744,0,6.624,2.664,6.624,6.768h3.888
	c0-6.192-4.32-10.296-10.368-10.296c-5.976,0-10.296,4.32-10.296,10.296c0,2.592,0.936,5.112,2.592,6.696
	c1.512,1.44,2.664,2.016,6.912,3.384c6.408,2.016,8.28,3.816,8.28,7.992c0,4.392-3.096,7.56-7.344,7.56
	c-4.104,0-7.128-2.736-7.704-7.848h-3.888c0.288,6.84,4.896,11.376,11.52,11.376C156.096,56.448,160.848,51.624,160.848,45.144z"/>
<path d="M196.272,41.76c0-8.64-6.336-14.832-14.976-14.832c-8.496,0-15.048,6.336-15.048,14.544c0,8.64,6.408,14.976,15.408,14.976
	C190.008,56.448,196.272,50.184,196.272,41.76L196.272,41.76z M192.312,41.76c0,6.48-4.536,11.16-10.8,11.16
	c-6.624,0-11.376-4.752-11.376-11.304c0-6.408,4.824-11.232,11.16-11.232S192.312,35.28,192.312,41.76z"/>
<path d="M296.28,42.912c0-10.008-6.48-15.984-14.904-15.984c-8.352,0-14.904,6.408-14.904,14.616c0,8.352,6.696,14.904,15.12,14.904
	c6.48,0,12.096-4.608,13.968-9.936h-4.032c-1.656,3.816-5.688,6.408-10.008,6.408c-5.904,0-10.872-4.464-11.16-10.008H296.28
	L296.28,42.912z M292.392,39.456h-21.96c1.08-5.4,5.4-9.072,10.872-9.072C286.848,30.384,291.096,33.84,292.392,39.456z"/>
<path d="M327.168,55.728v-14.76c0-9.864-5.544-14.04-12.456-14.04c-3.6,0-6.48,1.44-8.784,4.32v-3.672h-3.672v28.152h3.672v-15.48
	c0-6.912,3.384-9.864,8.352-9.864c5.04,0,9.216,2.88,9.216,10.584v14.76H327.168z"/>
<path d="M359.424,55.728v-15.12c0-9.432-4.752-13.68-11.952-13.68c-3.816,0-6.912,1.512-8.784,4.32V17.712h-3.744v38.016h3.744
	V40.32c0-6.912,3.6-9.936,8.424-9.936c5.112,0,8.568,3.24,8.568,10.224v15.12H359.424z"/>
<path d="M396,41.76c0-8.64-6.336-14.832-14.904-14.832c-8.424,0-14.976,6.336-14.976,14.544c0,8.64,6.408,14.976,15.336,14.976
	C389.808,56.448,396,50.184,396,41.76L396,41.76z M392.04,41.76c0,6.48-4.464,11.16-10.728,11.16
	c-6.552,0-11.304-4.752-11.304-11.304c0-6.408,4.752-11.232,11.088-11.232C387.36,30.384,392.04,35.28,392.04,41.76z"/>
<path d="M414.936,31.032v-3.456h-6.768c-0.072-4.68,1.728-6.48,6.768-6.48v-3.384c-7.056,0-10.584,3.312-10.512,9.864h-4.248v3.456
	h4.248v24.696h3.744V31.032H414.936z"/>
<path d="M227.808,55.728v-14.76c0-9.864-5.616-14.04-12.384-14.04c-3.6,0-6.552,1.44-8.856,4.32v-3.672h-3.672v28.152h3.672v-15.48
	c0-6.912,3.456-9.864,8.424-9.864c4.968,0,9.144,2.88,9.144,10.584v14.76H227.808z"/>
<path d="M259.56,55.728v-14.76c0-9.864-5.616-14.04-12.456-14.04c-3.6,0-6.552,1.44-8.856,4.32v-3.672h-3.672v28.152h3.672v-15.48
	c0-6.912,3.456-9.864,8.352-9.864c5.112,0,9.216,2.88,9.216,10.584v14.76H259.56z"/>
<path fill="#FFFFFF" d="M176.544,291.456c7.344,0,14.04,2.16,19.152,5.832c-2.952-3.816-4.752-8.496-4.752-13.608
	c0-31.608,51.984-31.608,51.984,0c0,5.112-1.8,9.792-4.824,13.608c5.184-3.672,11.88-5.832,19.224-5.832
	c16.056,0,29.088,10.512,29.088,23.472c0,10.512-8.568,19.44-20.376,22.392c13.392-0.288,30.024,8.064,30.024,23.544
	c0,16.92-19.368,25.056-33.768,23.184c7.2,4.32,11.808,11.232,11.808,19.008c0,13.032-13.176,23.616-29.376,23.616
	c-6.336,0-11.88-1.656-16.344-4.464l0.216,64.152l25.632,28.44l-26.352-9.936l-10.944,34.92l-10.944-34.92L179.64,514.8
	l25.632-28.44l0.216-64.152c-4.464,2.808-10.008,4.464-16.344,4.464c-16.2,0-29.376-10.584-29.376-23.616
	c0-7.776,4.608-14.688,11.808-19.008c-14.4,1.872-33.768-6.264-33.768-23.184c0-15.48,16.632-23.832,30.024-23.544
	c-11.808-2.952-20.376-11.88-20.376-22.392C147.456,301.968,160.488,291.456,176.544,291.456z"/>
</svg>
