<?xml version="1.0" encoding="utf-8"?>
<!-- Generator: Adobe Illustrator 13.0.2, SVG Export Plug-In . SVG Version: 6.00 Build 14948)  -->
<!DOCTYPE svg PUBLIC "-//W3C//DTD SVG 1.0//EN" "http://www.w3.org/TR/2001/REC-SVG-20010904/DTD/svg10.dtd">
<svg version="1.0" id="Ebene_1" xmlns="http://www.w3.org/2000/svg" xmlns:xlink="http://www.w3.org/1999/xlink" x="0px" y="0px"
	 width="467.717px" height="371.875px" viewBox="0 0 467.717 371.875" enable-background="new 0 0 467.717 371.875"
	 xml:space="preserve">
<polygon fill-rule="evenodd" clip-rule="evenodd" fill="#FFFFFF" points="142.404,250.747 145.387,250.852 148.315,251.164 
	151.182,251.675 153.977,252.378 156.697,253.264 159.331,254.328 161.875,255.566 164.32,256.963 166.66,258.518 168.887,260.223 
	170.994,262.068 172.971,264.045 174.817,266.152 176.52,268.379 178.074,270.718 179.473,273.162 180.708,275.705 181.772,278.342 
	182.659,281.06 183.363,283.857 183.874,286.724 184.185,289.653 184.291,292.635 184.185,295.62 183.874,298.547 183.363,301.414 
	182.659,304.211 181.772,306.932 180.708,309.565 179.473,312.107 178.074,314.553 176.52,316.893 174.817,319.119 172.971,321.226 
	170.994,323.205 168.887,325.049 166.66,326.753 164.32,328.309 161.875,329.707 159.331,330.939 156.697,332.004 153.977,332.893 
	151.182,333.596 148.315,334.106 145.387,334.419 142.404,334.523 139.419,334.419 136.491,334.106 133.625,333.596 
	130.828,332.893 128.109,332.004 125.474,330.939 122.931,329.707 120.485,328.309 118.145,326.753 115.918,325.049 
	113.811,323.205 111.833,321.226 109.988,319.119 108.285,316.893 106.731,314.553 105.332,312.107 104.097,309.565 
	103.031,306.932 102.144,304.211 101.442,301.414 100.93,298.547 100.619,295.62 100.513,292.635 100.619,289.653 100.93,286.724 
	101.442,283.857 102.144,281.06 103.031,278.342 104.097,275.705 105.332,273.162 106.731,270.718 108.285,268.379 109.988,266.152 
	111.833,264.045 113.811,262.068 115.918,260.223 118.145,258.518 120.485,256.963 122.931,255.566 125.474,254.328 
	128.109,253.264 130.828,252.378 133.625,251.675 136.491,251.164 139.419,250.852 142.404,250.747 "/>
<path fill-rule="evenodd" clip-rule="evenodd" fill="#E59D60" d="M167.562,43.661c68.317,0,124.037,55.721,124.037,124.039
	c0,68.315-55.72,124.036-124.037,124.036c-68.317,0-124.038-55.721-124.038-124.036C43.524,99.382,99.245,43.661,167.562,43.661
	L167.562,43.661z"/>
<polygon fill-rule="evenodd" clip-rule="evenodd" points="102.672,334.246 360.738,334.246 360.738,371.875 102.672,371.875 
	102.672,334.246 "/>
<path fill-rule="evenodd" clip-rule="evenodd" fill="#FFFFFF" d="M134.73,341.994l5.175,21.907h-4.398l-2.847-11.95l-5.174,12.172
	h-1.553l-5.174-12.172l-2.847,11.95h-4.398l5.176-21.907h2.588l5.434,14.827l5.433-14.827H134.73L134.73,341.994z M162.821,363.901
	h-5.173l-1.812-4.424h-8.798l-1.812,4.424h-5.175l10.351-22.349h2.069L162.821,363.901L162.821,363.901z M154.542,356.379
	l-3.104-7.966l-3.106,7.966H154.542L154.542,356.379z M184.822,341.994l-8.539,12.838v9.069h-4.655v-9.069l-8.799-12.838h4.917
	l6.209,9.295l5.951-9.295H184.822L184.822,341.994z M204.032,345.314H192.13v5.311h8.537v3.32h-8.537v6.416h11.643v3.54h-16.301
	v-21.907h16.56V345.314L204.032,345.314z M226.818,364.123h-2.069l-12.419-13.939v13.718h-4.398v-21.907h2.328l12.161,13.277
	v-13.277h4.398V364.123L226.818,364.123z M250.823,364.123h-2.067l-12.421-13.939v13.718h-4.398v-21.907h2.328l12.159,13.277
	v-13.277h4.399V364.123L250.823,364.123z M272.5,345.314h-11.898v5.311h8.537v3.32h-8.537v6.416h11.641v3.54H255.94v-21.907h16.56
	V345.314L272.5,345.314z M304.309,345.314H291.89v5.311h9.057v3.32h-9.057v9.956h-4.656v-21.907h17.075V345.314L304.309,345.314z
	 M308.736,361.912c0-1.551,1.293-2.656,3.105-2.656c1.811,0,3.105,1.105,3.105,2.656c0,1.547-1.295,2.653-3.105,2.653
	C310.029,364.565,308.736,363.459,308.736,361.912L308.736,361.912z M339.019,343.104l-1.814,3.098
	c-1.033-0.664-2.586-1.108-4.914-1.108c-4.397,0-7.246,3.32-7.246,7.966c0,4.871,2.59,7.744,6.986,7.744
	c2.33,0,4.141-0.661,5.693-2.211l2.068,3.098c-1.809,1.77-4.656,2.656-8.276,2.656c-6.987,0-11.387-4.426-11.387-11.287
	c0-6.638,4.915-11.506,11.901-11.506C334.878,341.553,337.205,341.994,339.019,343.104L339.019,343.104z M343.943,361.912
	c0-1.551,1.294-2.656,3.105-2.656s3.105,1.105,3.105,2.656c0,1.547-1.294,2.653-3.105,2.653S343.943,363.459,343.943,361.912
	L343.943,361.912z"/>
<path fill="none" stroke="#000000" stroke-width="2.3279" stroke-miterlimit="2.6131" d="M153.844,69.556h2.222l0.889,37.593h-3.11
	 M153.844,107.148c-3.109-18.915-16.658-31.445-30.43-31.445c-10.661,0-17.324,7.329-17.324,15.131c0,2.601,0.445,4.73,1.556,6.621
	c1.553,2.601,3.997,5.202,7.329,7.804c2.441,1.89,8.216,4.963,17.102,9.692c12.216,6.621,20.657,12.769,25.098,18.442
	c4.221,5.911,6.441,12.295,6.441,19.862c0,18.915-15.548,34.518-36.87,34.518c-6.662,0-11.55-1.181-20.656-5.199
	c-2.443-0.946-4.442-1.656-6.22-1.656c-2.665,0-5.996,2.363-7.996,6.855 M91.875,187.773h-2.887v-42.794h2.887 M91.875,144.979
	c4.665,24.117,19.324,37.12,34.648,37.12c11.551,0,19.103-8.038,19.103-17.022c0-5.438-2.666-10.404-7.996-14.896
	c-2.888-2.128-7.552-5.201-14.438-8.748c-19.323-10.167-25.986-16.078-30.65-24.827c-2.222-4.492-3.331-9.221-3.331-14.423
	c0-18.207,13.771-32.628,32.65-32.628c3.553,0,6.885,0.473,10.217,1.418c4.887,1.182,13.549,6.384,16.213,6.384
	c2.666,0,3.999-0.946,5.553-7.803 M237.712,184.63h3.037l-3.645,39.724h-86.091v-3.074h3.241 M154.255,221.279
	c2.836,0,5.063-0.711,6.887-1.658c1.214-0.944,2.228-2.126,2.835-4.018c0.404-1.419,0.811-4.964,0.811-10.641 M164.789,204.963
	v-74.24 M164.789,130.723c0-11.587-0.811-12.532-4.051-14.659c-1.621-1.183-3.646-1.655-6.482-1.655 M154.255,114.408h-3.241v-3.074
	h51.654v3.074h-4.254 M198.415,114.408c-2.633,0-5.065,0.472-6.685,1.655c-1.216,0.944-2.229,2.127-2.836,4.02
	c-0.608,1.418-0.811,4.965-0.811,10.64 M188.083,130.723V202.6 M188.083,202.6c0,11.585,0.811,13.004,4.052,14.658
	c1.214,0.475,4.254,0.709,8.711,0.709 M200.846,217.967h8.103 M208.949,217.967c10.33,0,16.813-4.02,21.673-13.004
	c2.633-4.729,4.862-11.348,7.091-20.333"/>
<polygon fill-rule="evenodd" clip-rule="evenodd" points="189,36.309 162.093,34.693 164.176,0 175.504,0.68 173.962,26.405 
	189.539,27.34 189,36.309 "/>
<path fill-rule="evenodd" clip-rule="evenodd" d="M206.569,41.269c-10.853-3.322-15.488-12.407-12.236-23.034
	c1.523-4.973,4.42-8.784,7.738-10.736c3.317-1.952,6.445-2.479,9.888-2.414c1.652,0.259,3.303,0.518,5.112,1.072
	c6.556,2.007,11.604,6.518,12.951,12.618c0.526,3.128,0.531,6.344-0.576,9.961c-2.007,6.557-6.381,11.152-12.62,12.952
	C213.628,42.44,210.186,42.375,206.569,41.269L206.569,41.269z M208.903,32.834c2.487,0.76,4.869,0.252,7.056-2.044
	c1.162-1.374,1.942-3.114,2.565-5.15c0.898-2.938,0.983-5.632,0.493-7.266c-0.715-1.703-2.178-3.386-4.212-4.01
	c-2.487-0.761-5.094-0.322-7.123,2.271c-1.094,1.148-1.874,2.888-2.498,4.923c-0.968,3.165-1.051,5.859-0.248,8.083
	C205.651,31.344,207.093,32.279,208.903,32.834L208.903,32.834z"/>
<polygon fill-rule="evenodd" clip-rule="evenodd" points="237.125,54.799 227.007,49.155 243.938,18.8 254.052,24.443 
	237.125,54.799 "/>
<path fill-rule="evenodd" clip-rule="evenodd" d="M280.52,55.982l-8.35-6.97c0.85-1.757,0.518-3.572-1.479-5.239
	c-1.089-0.908-2.117-1.151-2.967-1.243c-0.664,0.06-1.149,0.271-1.452,0.634c-0.456,0.546-0.576,1.06-0.547,1.393
	c0.241,0.817,0.847,1.938,2.178,3.666l2.51,3.633c5.142,6.755,4.896,11.477,1.865,15.108c-2.575,3.086-6.149,4.414-9.026,4.17
	c-3.207-0.213-7.23-2.033-10.5-4.759c-3.811-3.182-6.32-6.818-6.984-10.452c-0.332-1.816-0.149-3.511,0.215-5.055
	c0.395-1.21,0.941-2.603,1.82-4.025l8.531,7.121c-1.152,2.12-0.82,3.937,1.901,6.208c1.272,1.06,2.331,1.637,2.998,1.576
	c0.847,0.092,1.331-0.12,1.784-0.664c0.908-1.089,1.004-1.936-1.477-5.238l-2.48-3.302c-2.661-3.453-4.354-7.33-4.141-10.538
	c0.184-1.694,0.881-3.27,2.246-4.904c2.422-2.903,5.813-4.383,9.053-3.835c3.391,0.366,6.567,2.092,9.473,4.517
	c3.267,2.729,5.564,5.878,6.291,8.331c0.723,2.451,0.602,4.813-0.068,6.72C281.49,53.712,281.096,54.922,280.52,55.982
	L280.52,55.982z"/>
<polygon fill-rule="evenodd" clip-rule="evenodd" points="160.078,34.711 133.451,38.894 128.054,4.56 139.266,2.797 
	143.267,28.257 158.683,25.834 160.078,34.711 "/>
<path fill-rule="evenodd" clip-rule="evenodd" d="M108.224,49.546l-10.209,4.387l-2.205-36.881l10.643-4.574l25.233,26.99
	l-10.427,4.479l-3.078-3.566l-10.427,4.479L108.224,49.546L108.224,49.546z M113.551,34.391l-8.422-10.02l1.688,12.914
	L113.551,34.391L113.551,34.391z"/>
<polygon fill-rule="evenodd" clip-rule="evenodd" points="82.661,65.696 52.236,45.151 61.278,38.291 80.368,52.895 71.261,30.718 
	80.491,23.715 91.891,58.694 82.661,65.696 "/>
<path fill-rule="evenodd" clip-rule="evenodd" d="M61.028,89.303l-7.013,8.62L34.964,66.267l7.313-8.987l34.868,12.216l-7.162,8.802
	l-4.38-1.735l-7.162,8.803L61.028,89.303L61.028,89.303z M58.723,73.406l-12.108-4.974l7.483,10.659L58.723,73.406L58.723,73.406z"
	/>
<polygon fill-rule="evenodd" clip-rule="evenodd" points="53.035,100.234 41.77,124.722 10.194,110.196 14.938,99.887 
	38.35,110.657 44.872,96.48 53.035,100.234 "/>
<polygon fill-rule="evenodd" clip-rule="evenodd" points="36.502,141.511 34.689,170.538 0,168.369 1.769,140.05 9.792,140.552 
	8.716,157.779 13.672,158.09 14.586,143.458 22.373,143.945 21.458,158.577 27.122,158.931 28.242,140.996 36.502,141.511 "/>
<path fill-rule="evenodd" clip-rule="evenodd" d="M36.969,189.436l2.787,15.115l-34.178,6.307l-2.874-15.579
	c-1.286-6.976-0.371-12.434,4.419-16.445c2.301-1.865,5.429-3.163,9.147-3.85c5.115-0.942,9.558-0.321,12.501,1.301
	c2.902,1.388,4.64,2.991,6.256,6.539C35.836,184.599,36.454,186.646,36.969,189.436L36.969,189.436z M11.932,198.384l17.205-3.174
	l-0.514-2.79c-0.771-4.186-2.044-5.875-5.05-6.521c-1.48-0.209-3.193-0.372-5.287,0.014c-2.324,0.428-4.753,1.598-5.745,2.742
	c-0.611,0.594-1.181,1.419-1.285,2.161c-0.292,1.016-0.225,2.686,0.161,4.778L11.932,198.384L11.932,198.384z"/>
<path fill-rule="evenodd" clip-rule="evenodd" d="M50.57,229.49l4.696,10.072l-36.796,3.333l-4.896-10.501l26.204-26.047
	l4.796,10.285l-3.472,3.187l4.798,10.283L50.57,229.49L50.57,229.49z M35.26,224.631l-9.759,8.724l12.856-2.083L35.26,224.631
	L35.26,224.631z"/>
<polygon fill-rule="evenodd" clip-rule="evenodd" points="50.996,276.079 43.862,281.543 24.456,256.199 31.589,250.734 
	37.771,258.809 58.232,243.14 65.133,252.148 44.671,267.82 50.996,276.079 "/>
<path fill-rule="evenodd" clip-rule="evenodd" d="M54.113,278.088l8.209,7.135c-0.884,1.738-0.59,3.562,1.373,5.268
	c1.073,0.931,2.095,1.191,2.942,1.299c0.666-0.043,1.156-0.246,1.466-0.603c0.465-0.537,0.596-1.048,0.572-1.382
	c-0.225-0.822-0.807-1.953-2.103-3.709l-2.437-3.682c-5.005-6.857-4.665-11.574-1.564-15.144c2.637-3.032,6.235-4.29,9.105-3.989
	c3.204,0.278,7.192,2.178,10.405,4.971c3.746,3.254,6.184,6.938,6.775,10.586c0.295,1.824,0.08,3.514-0.317,5.049
	c-0.417,1.206-0.991,2.586-1.899,3.989l-8.387-7.29c1.195-2.095,0.898-3.918-1.777-6.245c-1.249-1.084-2.296-1.68-2.965-1.634
	c-0.845-0.109-1.333,0.094-1.798,0.628c-0.931,1.071-1.04,1.917,1.375,5.269l2.412,3.35c2.593,3.506,4.208,7.414,3.928,10.617
	c-0.215,1.692-0.944,3.252-2.34,4.856c-2.483,2.858-5.902,4.271-9.13,3.657c-3.382-0.432-6.524-2.225-9.38-4.705
	c-3.213-2.793-5.446-5.988-6.123-8.454c-0.675-2.466-0.505-4.824,0.2-6.719C53.097,280.337,53.514,279.136,54.113,278.088
	L54.113,278.088z"/>
<polygon fill-rule="evenodd" clip-rule="evenodd" fill="#FFFFFF" points="142.404,250.747 145.387,250.852 148.315,251.164 
	151.182,251.675 153.977,252.378 156.697,253.264 159.331,254.328 161.875,255.566 164.32,256.963 166.66,258.518 168.887,260.223 
	170.994,262.068 172.971,264.045 174.817,266.152 176.52,268.379 178.074,270.718 179.473,273.162 180.708,275.705 181.772,278.342 
	182.659,281.06 183.363,283.857 183.874,286.724 184.185,289.653 184.291,292.635 184.185,295.62 183.874,298.547 183.363,301.414 
	182.659,304.211 181.772,306.932 180.708,309.565 179.473,312.107 178.074,314.553 176.52,316.893 174.817,319.119 172.971,321.226 
	170.994,323.205 168.887,325.049 166.66,326.753 164.32,328.309 161.875,329.707 159.331,330.939 156.697,332.004 153.977,332.893 
	151.182,333.596 148.315,334.106 145.387,334.419 142.404,334.523 139.419,334.419 136.491,334.106 133.625,333.596 
	130.828,332.893 128.109,332.004 125.474,330.939 122.931,329.707 120.485,328.309 118.145,326.753 115.918,325.049 
	113.811,323.205 111.833,321.226 109.988,319.119 108.285,316.893 106.731,314.553 105.332,312.107 104.097,309.565 
	103.031,306.932 102.144,304.211 101.442,301.414 100.93,298.547 100.619,295.62 100.513,292.635 100.619,289.653 100.93,286.724 
	101.442,283.857 102.144,281.06 103.031,278.342 104.097,275.705 105.332,273.162 106.731,270.718 108.285,268.379 109.988,266.152 
	111.833,264.045 113.811,262.068 115.918,260.223 118.145,258.518 120.485,256.963 122.931,255.566 125.474,254.328 
	128.109,253.264 130.828,252.378 133.625,251.675 136.491,251.164 139.419,250.852 142.404,250.747 "/>
<polygon fill="none" stroke="#000000" stroke-width="2.3279" stroke-miterlimit="2.6131" points="142.404,250.747 145.387,250.852 
	148.315,251.164 151.182,251.675 153.977,252.378 156.697,253.264 159.331,254.328 161.875,255.566 164.32,256.963 166.66,258.518 
	168.887,260.223 170.994,262.068 172.971,264.045 174.817,266.152 176.52,268.379 178.074,270.718 179.473,273.162 180.708,275.705 
	181.772,278.342 182.659,281.06 183.363,283.857 183.874,286.724 184.185,289.653 184.291,292.635 184.185,295.62 183.874,298.547 
	183.363,301.414 182.659,304.211 181.772,306.932 180.708,309.565 179.473,312.107 178.074,314.553 176.52,316.893 174.817,319.119 
	172.971,321.226 170.994,323.205 168.887,325.049 166.66,326.753 164.32,328.309 161.875,329.707 159.331,330.939 156.697,332.004 
	153.977,332.893 151.182,333.596 148.315,334.106 145.387,334.419 142.404,334.523 139.419,334.419 136.491,334.106 
	133.625,333.596 130.828,332.893 128.109,332.004 125.474,330.939 122.931,329.707 120.485,328.309 118.145,326.753 
	115.918,325.049 113.811,323.205 111.833,321.226 109.988,319.119 108.285,316.893 106.731,314.553 105.332,312.107 
	104.097,309.565 103.031,306.932 102.144,304.211 101.442,301.414 100.93,298.547 100.619,295.62 100.513,292.635 100.619,289.653 
	100.93,286.724 101.442,283.857 102.144,281.06 103.031,278.342 104.097,275.705 105.332,273.162 106.731,270.718 108.285,268.379 
	109.988,266.152 111.833,264.045 113.811,262.068 115.918,260.223 118.145,258.518 120.485,256.963 122.931,255.566 
	125.474,254.328 128.109,253.264 130.828,252.378 133.625,251.675 136.491,251.164 139.419,250.852 142.404,250.747 "/>
<path fill-rule="evenodd" clip-rule="evenodd" d="M274.993,158.462c-15.498,12.214-27.266,47.749-29.456,91.123
	c0.367,0.898,1.463,1.565,2.984,1.924c-0.071,0.796-0.174,1.585-0.309,2.363c-0.004,0.032-0.01,0.063-0.014,0.095
	c-0.039,0.223-0.078,0.447-0.123,0.67c-0.01,0.041-0.02,0.08-0.026,0.121c-0.02,0.098-0.039,0.193-0.059,0.289h-0.003
	c-1.511,7.178-5.58,13.562-11.316,18.356l-6.587,8.063c-8.467,12.959-18.517,24.827-29.882,35.335
	c-0.658,0.505-1.448,0.931-2.329,1.23c-8.748,2.236-15.973,8.274-19.75,16.214h45.963c0.017-0.306,0.024-0.613,0.024-0.926
	c0-2.998-0.804-5.635-2.015-7.129c8.101-6.658,14.833-14.16,19.886-22.295l6.484-7.48c7.894-6.223,14.28-13.416,18.746-21.284
	c0.217-0.53,0.385-1.177,0.482-1.899c0.654-13.186,4.635-23.379,9.417-23.379c0.036,0,0.068,0,0.104,0
	c0.309-0.096,0.615-0.197,0.924-0.298c13.537-6.353,24.26-14.619,30.568-23.345c0.059-0.158,0.117-0.317,0.174-0.479
	c0.944-1.655,2.348-3.133,4.099-4.266c14.834-8.918,31.726-16.184,50.095-21.394c-1.146-8.396-12.178-15.017-25.541-15.017
	c-0.574,0-1.143,0.013-1.707,0.037c-0.691-1.02-1.089-2.214-1.089-3.491c0-2.375,1.382-4.47,3.462-5.681
	c2.795-0.559,5.037-4.143,5.488-8.7c-0.186-2.653-0.174-5.496,0.066-8.451c1.159-14.336,7.233-26.029,13.52-26.029
	c1.395,0,2.686,0.574,3.838,1.626c2.957,1.685,7.076,3.1,11.722,3.857c5.762,0.941,11.067,0.672,14.554-0.505l0.414-4.66
	c0.869-0.384,2.105-0.545,3.443-0.383c1.084,0.132,2.058,0.457,2.787,0.886l28.182,24.583l13.836,9.125l8.498,10.511l7.355,0.82
	c0.677,0.291,1.217,0.867,1.49,1.585c0.469,2.615,1.992,4.821,4.057,6.055l0.01,0.021l0.328,0.208l0.056-0.011
	c1.035,0.538,2.19,0.841,3.405,0.841c1.736,0,3.348-0.615,4.661-1.656c1.077-1.409,1.807-4.068,1.807-7.108
	c0-0.982-0.078-1.926-0.22-2.8c-0.08-1.414-0.33-2.903-0.767-4.409c-0.713-2.448-1.819-4.596-3.12-6.258
	c-2.414-4.474-7.205-6.639-12.996-6.467l-15.158-11.168l-19.634-23.053c-2.731-2.517-6.494-4.952-10.942-6.998
	c-0.246-0.099-0.508-0.19-0.781-0.268c-0.449-0.129-0.891-0.213-1.301-0.259c-0.059,0.001-0.115,0.003-0.176,0.003
	c-2.496,0-4.609-1.176-5.286-2.778c-6.966-10.667-16.938-20.366-29.253-28.677h-0.098c-0.061-0.066-0.129-0.132-0.195-0.197
	c-0.945-0.633-1.904-1.261-2.876-1.88c-2.227-1.007-5.14-1.619-8.32-1.619c-0.366,0-0.728,0.009-1.084,0.025
	c-0.61,0.13-1.237,0.208-1.878,0.229v0.034l-0.336-0.026c-0.016,0-0.032,0-0.049,0c-0.608,0-1.207-0.05-1.79-0.148l-8.474-0.681
	c-2.171-0.401-4.046-1.991-5.191-4.229h5.26c-1.502-0.078-2.926-0.271-4.231-0.564c1.196-0.047,2.451-0.172,3.733-0.374
	c2.292-0.364,4.418-0.938,6.244-1.653l-0.017-0.002c0.306-0.116,0.522-0.32,0.576-0.583c0.098-0.47-0.356-0.973-1.04-1.185
	c-0.451-0.015-0.903-0.041-1.362-0.075c-2.939-0.228-5.657-0.847-7.942-1.733c1.191,0.132,2.449,0.199,3.746,0.19
	c2.038-0.012,3.969-0.205,5.705-0.542l0.027,0.005c1.547-0.555,2.937-1.155,4.115-1.765l-0.014,0.004
	c0.014-0.008,0.029-0.015,0.041-0.022v-0.697c-0.256-0.115-0.646-0.178-1.082-0.167c-0.43,0.083-0.861,0.16-1.306,0.232
	c-2.842,0.465-5.608,0.667-8.057,0.637c1.165-0.166,2.368-0.382,3.587-0.646c0.134-0.031,0.268-0.06,0.4-0.089l0.395-0.16h0.003
	l1.563-0.609l1.81-0.991c0.215-0.259,0.427-0.51,0.642-0.759l0.859-1.095c-0.015-0.068-0.026-0.135-0.042-0.202
	c-0.422-0.023-0.912,0.015-1.428,0.124c-0.383,0.082-0.737,0.195-1.045,0.326c-2.603,1.388-5.225,2.324-7.627,2.803
	c1.076-0.528,2.173-1.147,3.264-1.852c1.951-1.259,3.662-2.646,5.045-4.036l-0.016,0.005c0.232-0.229,0.348-0.504,0.291-0.767
	c-0.1-0.469-0.721-0.744-1.431-0.664c-0.417,0.17-0.843,0.33-1.279,0.483c-2.778,0.98-5.515,1.513-7.962,1.625
	c1.143-0.361,2.32-0.808,3.506-1.339c1.855-0.836,3.545-1.792,4.998-2.804l0.096-0.02l0.322-0.275h-0.057l1.23-1.024h-0.057
	c0.498-0.423,1.002-0.825,1.51-1.206l1.068-0.889c0.003-0.071,0.003-0.138,0.003-0.208c-0.407-0.112-0.896-0.178-1.423-0.178
	c-0.391,0-0.76,0.037-1.092,0.099c-2.832,0.809-5.596,1.172-8.042,1.135c1.159-0.289,2.363-0.664,3.579-1.122
	c2.17-0.823,4.136-1.816,5.779-2.886h-0.016c0.273-0.176,0.445-0.417,0.445-0.686c0-0.481-0.545-0.88-1.258-0.95
	c-0.444,0.076-0.894,0.143-1.353,0.202c-2.923,0.373-5.71,0.318-8.128-0.087c1.194-0.111,2.439-0.3,3.709-0.571
	c2.363-0.505,4.531-1.23,6.367-2.084c-0.01-0.017-0.018-0.034-0.024-0.051c-0.394,0.021-0.796,0.03-1.204,0.03
	c-1.904,0-3.656-0.232-5.017-0.615c-0.29-0.063-0.625-0.1-0.977-0.104c-0.065-0.001-0.134,0-0.2,0.002
	c-1.372,0.193-2.695,0.277-3.938,0.259c1.162-0.29,2.365-0.665,3.578-1.124c1.229-0.464,2.389-0.984,3.465-1.541
	c-0.386-0.641-1.777-1.117-3.43-1.117c-0.23,0-0.457,0.01-0.677,0.028c-1.909,0.356-4.03,0.555-6.265,0.555
	c-1.147,0-2.264-0.052-3.338-0.152v0.146c-1.494,0.228-2.854,0.707-3.977,1.366c-0.1-1.118-0.256-2.204-0.459-3.247h-0.024
	c-0.052-0.642-0.442-1.2-0.999-1.514c-0.891,0.041-1.732,0.138-2.5,0.28c-0.192,0.178-0.349,0.394-0.456,0.631
	c-0.11,0.797-0.241,1.581-0.388,2.349c-3.678-1.075-8.523-1.524-13.792-1.099c-0.208,0.017-0.413,0.035-0.618,0.054
	c-0.02-0.001-0.036-0.002-0.053-0.002c-0.013,0.002-0.022,0.008-0.035,0.012c-7.563,0.717-14.025,3.077-17.191,5.974
	c-1.055,1.105-1.754,3.018-1.754,5.184c0,0.337,0.016,0.666,0.049,0.986l0.396,2.031l1.391,5.283h0.035
	c0.183,1.154,0.41,2.278,0.671,3.364l0.003,0.026l0.002-0.001c0.125,0.521,0.259,1.033,0.4,1.537
	c0.096,0.186,0.195,0.37,0.301,0.551c0.225,0.63,0.544,1.156,0.92,1.514c0.578,0.418,0.994,1.129,1.17,1.974l0.014-0.023l0.01,0.149
	c0.059,0.342,0.081,0.705,0.057,1.079l0.073,1.305c0.015,0.029,0.032,0.056,0.044,0.084l0.193,3.551
	c-0.016,0.205,0.195,0.405,0.48,0.456c0.1,0.016,0.203,0.015,0.291-0.008l1.074-0.103v-0.002h0.017l0.017-0.001
	c0.029-0.002,0.059,0,0.091,0.003c0.01,0.001,0.02,0.004,0.029,0.006l0.361,0.022c0.212,0.281,0.43,0.561,0.647,0.837
	c0.49,1.436,1.02,2.781,1.579,4.017l-3.159,0.287c-0.305,0.361-0.715,0.582-1.164,0.582c-0.084,0-0.166-0.006-0.247-0.021
	c-0.052,0.008-0.103,0.015-0.151,0.021c-5.972,0.875-11.199,5.116-15.054,11.419c-4.004,6.544-6.67,15.632-6.897,25.975
	c-0.17,7.695,1.012,15.166,3.287,21.717c1.003,1.75,1.633,4.275,1.633,7.077C278.699,153.652,277.119,157.395,274.993,158.462
	L274.993,158.462z"/>
<path fill-rule="evenodd" clip-rule="evenodd" d="M160.215,255.254l1.33,0.666l1.302,0.711l1.272,0.757l1.244,0.801l1.212,0.845
	l1.182,0.884l1.148,0.928l1.116,0.964l1.078,1.002l1.043,1.039l1.006,1.08l0.97,1.11l0.928,1.146l0.887,1.179l0.685,0.979
	l-3.695,6.672l4.048,16.245l6.725,3.581l-0.113,1.266l-0.196,1.547l-0.254,1.531l-0.311,1.512l-0.365,1.491l-0.417,1.468
	l-0.47,1.447l-0.522,1.424l-0.571,1.396l-0.621,1.374l-0.669,1.345l-0.714,1.321l-0.763,1.286l-0.806,1.26l-0.85,1.227l-0.733,0.983
	l-9.033-1.26l-10.38,8.101l-0.747,7.479c-0.675,0.217-1.362,0.42-2.052,0.609l-1.588,0.394l-1.611,0.332l-1.635,0.269l-1.654,0.2
	l-1.673,0.14l-1.691,0.068h-1.721l-1.728-0.074l-1.707-0.141l-1.689-0.213l-1.664-0.278L133.103,333l-1.619-0.407
	c-0.68-0.195-1.36-0.397-2.034-0.618l0.658-7.385l-10.031-7.612l-11.001,0.198l-0.786-1.097l-0.875-1.321l-0.825-1.354l-0.775-1.39
	l-0.721-1.42l-0.668-1.451l-0.613-1.481l-0.558-1.507l-0.499-1.535l-0.44-1.558l-0.38-1.585l-0.32-1.605l-0.252-1.631l-0.192-1.648
	l-0.127-1.662L101,293.604l10.224-2.72l4.351-14.766l-4.722-10.264l0.886-1.013l1.125-1.194l1.168-1.146l1.214-1.101l1.258-1.052
	l1.296-1.002l1.338-0.951l1.375-0.898l1.413-0.846l1.447-0.791l1.482-0.734l1.514-0.676l1.544-0.615l1.575-0.555l1.602-0.493
	l1.281-0.337l4.805,9.077h13.497l8.442-6.78L160.215,255.254L160.215,255.254z M157.833,271.47l-7.778,11.11l4.204,13.855
	l12.193,3.445l8.969-8.86l-4.135-16.526L157.833,271.47L157.833,271.47z M119.499,314.861l9.994,7.695l12.786-4.99v-0.003
	l0.415-0.127v-12.173l-0.872-0.461v0.002l-11.312-6.945l-11.736,2.207L119.499,314.861L119.499,314.861z M134.071,282.141h15.405
	l7.655-11.146l-7.062-10.32h-13.754l-6.651,10.568L134.071,282.141L134.071,282.141z M148.115,319.224l6.772,3.474l10.394-8.246
	l0.971-13.88l-11.985-3.435l-9.424,7.38l-0.945,0.703v11.927L148.115,319.224L148.115,319.224z M129.066,271.906l-13.43,3.184
	l-4.266,14.021l-0.199,0.522l7.539,9.612l11.758-2.236l2.939-14.847l-0.189-0.381l0.01-0.052L129.066,271.906L129.066,271.906z"/>
</svg>
