<?xml version="1.0" encoding="UTF-8" standalone="no"?>
<!-- Created with Inkscape (http://www.inkscape.org/) -->
<svg
   xmlns:svg="http://www.w3.org/2000/svg"
   xmlns="http://www.w3.org/2000/svg"
   version="1.0"
   width="780.73224"
   height="791.36218"
   id="svg10571"
   xml:space="preserve"><defs
     id="defs10574"><clipPath
       id="clipPath10586"><path
         d="M 0,841 L 595,841 L 595,0 L 0,0 L 0,841 z"
         id="path10588" /></clipPath><clipPath
       id="clipPath10592"><path
         d="M 0.36,841.68 L 595.8,841.68 L 595.8,0 L 0.36,0 L 0.36,841.68 z"
         id="path10594" /></clipPath><clipPath
       id="clipPath10682"><path
         d="M 399.685,682.251 L 467.716,682.251 L 467.716,612.251 L 399.685,612.251 L 399.685,682.251 z"
         id="path10684" /></clipPath><clipPath
       id="clipPath10688"><path
         d="M 0,841 L 595,841 L 595,0 L 0,0 L 0,841 z"
         id="path10690" /></clipPath><clipPath
       id="clipPath10694"><path
         d="M 0.36,841.68 L 595.8,841.68 L 595.8,0 L 0.36,0 L 0.36,841.68 z"
         id="path10696" /></clipPath><clipPath
       id="clipPath10786"><path
         d="M 484.724,682.251 L 552.756,682.251 L 552.756,612.251 L 484.724,612.251 L 484.724,682.251 z"
         id="path10788" /></clipPath><clipPath
       id="clipPath10792"><path
         d="M 0,841 L 595,841 L 595,0 L 0,0 L 0,841 z"
         id="path10794" /></clipPath><clipPath
       id="clipPath10798"><path
         d="M 0.36,841.68 L 595.8,841.68 L 595.8,0 L 0.36,0 L 0.36,841.68 z"
         id="path10800" /></clipPath><radialGradient
       cx="0"
       cy="0"
       r="1"
       fx="0"
       fy="0"
       id="radialGradient10838"
       gradientUnits="userSpaceOnUse"
       gradientTransform="matrix(15.4865,-15.4865,-15.4865,-15.4865,511.748,669.5154)"
       spreadMethod="pad"><stop
         id="stop10840"
         style="stop-color:#ffffff;stop-opacity:1"
         offset="0" /><stop
         id="stop10842"
         style="stop-color:#696a6c;stop-opacity:1"
         offset="1" /></radialGradient><clipPath
       id="clipPath10850"><path
         d="M 484.724,682.251 L 552.756,682.251 L 552.756,612.251 L 484.724,612.251 L 484.724,682.251 z"
         id="path10852" /></clipPath><clipPath
       id="clipPath10856"><path
         d="M 0,841 L 595,841 L 595,0 L 0,0 L 0,841 z"
         id="path10858" /></clipPath><clipPath
       id="clipPath10862"><path
         d="M 0.36,841.68 L 595.8,841.68 L 595.8,0 L 0.36,0 L 0.36,841.68 z"
         id="path10864" /></clipPath><clipPath
       id="clipPath10888"><path
         d="M 147.567,682.251 L 215.598,682.251 L 215.598,612.251 L 147.567,612.251 L 147.567,682.251 z"
         id="path10890" /></clipPath><clipPath
       id="clipPath10894"><path
         d="M 0,841 L 595,841 L 595,0 L 0,0 L 0,841 z"
         id="path10896" /></clipPath><clipPath
       id="clipPath10900"><path
         d="M 0.36,841.68 L 595.8,841.68 L 595.8,0 L 0.36,0 L 0.36,841.68 z"
         id="path10902" /></clipPath><clipPath
       id="clipPath10964"><path
         d="M 229.606,682.251 L 297.638,682.251 L 297.638,612.251 L 229.606,612.251 L 229.606,682.251 z"
         id="path10966" /></clipPath><clipPath
       id="clipPath10970"><path
         d="M 0,841 L 595,841 L 595,0 L 0,0 L 0,841 z"
         id="path10972" /></clipPath><clipPath
       id="clipPath10976"><path
         d="M 0.36,841.68 L 595.8,841.68 L 595.8,0 L 0.36,0 L 0.36,841.68 z"
         id="path10978" /></clipPath><clipPath
       id="clipPath11100"><path
         d="M 314.646,682.251 L 382.677,682.251 L 382.677,612.251 L 314.646,612.251 L 314.646,682.251 z"
         id="path11102" /></clipPath><clipPath
       id="clipPath11106"><path
         d="M 0,841 L 595,841 L 595,0 L 0,0 L 0,841 z"
         id="path11108" /></clipPath><clipPath
       id="clipPath11112"><path
         d="M 0.36,841.68 L 595.8,841.68 L 595.8,0 L 0.36,0 L 0.36,841.68 z"
         id="path11114" /></clipPath><clipPath
       id="clipPath11212"><path
         d="M 399.685,574.543 L 467.716,574.543 L 467.716,504.544 L 399.685,504.544 L 399.685,574.543 z"
         id="path11214" /></clipPath><clipPath
       id="clipPath11218"><path
         d="M 0,841 L 595,841 L 595,0 L 0,0 L 0,841 z"
         id="path11220" /></clipPath><clipPath
       id="clipPath11224"><path
         d="M 0.36,841.68 L 595.8,841.68 L 595.8,0 L 0.36,0 L 0.36,841.68 z"
         id="path11226" /></clipPath><clipPath
       id="clipPath11234"><path
         d="M 455.345,545.226 C 455.621,547.816 457.943,549.692 460.532,549.416 C 463.12,549.141 464.995,546.819 464.719,544.229 C 464.444,541.639 462.122,539.763 459.534,540.038 C 456.945,540.314 455.07,542.636 455.345,545.226"
         id="path11236" /></clipPath><clipPath
       id="clipPath11756"><path
         d="M 399.685,574.543 L 467.716,574.543 L 467.716,504.544 L 399.685,504.544 L 399.685,574.543 z"
         id="path11758" /></clipPath><clipPath
       id="clipPath11762"><path
         d="M 0,841 L 595,841 L 595,0 L 0,0 L 0,841 z"
         id="path11764" /></clipPath><clipPath
       id="clipPath11768"><path
         d="M 0.36,841.68 L 595.8,841.68 L 595.8,0 L 0.36,0 L 0.36,841.68 z"
         id="path11770" /></clipPath><clipPath
       id="clipPath11816"><path
         d="M 484.724,574.543 L 552.756,574.543 L 552.756,504.544 L 484.724,504.544 L 484.724,574.543 z"
         id="path11818" /></clipPath><clipPath
       id="clipPath11822"><path
         d="M 0,841 L 595,841 L 595,0 L 0,0 L 0,841 z"
         id="path11824" /></clipPath><clipPath
       id="clipPath11828"><path
         d="M 0.36,841.68 L 595.8,841.68 L 595.8,0 L 0.36,0 L 0.36,841.68 z"
         id="path11830" /></clipPath><clipPath
       id="clipPath11900"><path
         d="M 149.105,574.543 L 215.598,574.543 L 215.598,504.544 L 149.105,504.544 L 149.105,574.543 z"
         id="path11902" /></clipPath><clipPath
       id="clipPath11906"><path
         d="M 0,841 L 595,841 L 595,0 L 0,0 L 0,841 z"
         id="path11908" /></clipPath><clipPath
       id="clipPath11912"><path
         d="M 0.36,841.68 L 595.8,841.68 L 595.8,0 L 0.36,0 L 0.36,841.68 z"
         id="path11914" /></clipPath><clipPath
       id="clipPath12580"><path
         d="M 229.606,574.543 L 297.638,574.543 L 297.638,504.544 L 229.606,504.544 L 229.606,574.543 z"
         id="path12582" /></clipPath><clipPath
       id="clipPath12586"><path
         d="M 0,841 L 595,841 L 595,0 L 0,0 L 0,841 z"
         id="path12588" /></clipPath><clipPath
       id="clipPath12592"><path
         d="M 0.36,841.68 L 595.8,841.68 L 595.8,0 L 0.36,0 L 0.36,841.68 z"
         id="path12594" /></clipPath><clipPath
       id="clipPath12730"><path
         d="M 269.913,547.204 C 266.697,547.204 264.09,544.596 264.09,541.38 C 264.09,538.165 266.697,535.557 269.913,535.557 C 273.129,535.557 275.736,538.165 275.736,541.38 C 275.736,544.596 273.129,547.204 269.913,547.204"
         id="path12732" /></clipPath><clipPath
       id="clipPath12946"><path
         d="M 229.606,574.543 L 297.638,574.543 L 297.638,504.544 L 229.606,504.544 L 229.606,574.543 z"
         id="path12948" /></clipPath><clipPath
       id="clipPath12952"><path
         d="M 0,841 L 595,841 L 595,0 L 0,0 L 0,841 z"
         id="path12954" /></clipPath><clipPath
       id="clipPath12958"><path
         d="M 0.36,841.68 L 595.8,841.68 L 595.8,0 L 0.36,0 L 0.36,841.68 z"
         id="path12960" /></clipPath><clipPath
       id="clipPath12984"><path
         d="M 314.646,574.543 L 382.677,574.543 L 382.677,504.544 L 314.646,504.544 L 314.646,574.543 z"
         id="path12986" /></clipPath><clipPath
       id="clipPath12990"><path
         d="M 0,841 L 595,841 L 595,0 L 0,0 L 0,841 z"
         id="path12992" /></clipPath><clipPath
       id="clipPath12996"><path
         d="M 0.36,841.68 L 595.8,841.68 L 595.8,0 L 0.36,0 L 0.36,841.68 z"
         id="path12998" /></clipPath><clipPath
       id="clipPath13096"><path
         d="M 337.923,562.831 L 339.952,562.831 L 339.952,562.729 L 340.256,562.731 L 340.561,562.729 L 340.561,562.628 L 340.763,562.632 L 340.967,562.628 L 340.967,562.526 L 341.271,562.526 L 341.271,562.425 L 341.423,562.427 L 341.576,562.425 L 341.576,562.323 L 341.725,562.33 L 341.88,562.323 L 341.88,562.222 L 342.083,562.222 L 342.083,562.12 L 342.286,562.12 L 342.286,562.019 L 342.489,562.019 L 342.489,561.917 L 342.692,561.917 L 342.692,561.816 L 342.895,561.816 L 342.895,561.714 L 343.061,561.667 L 343.199,561.613 L 343.199,561.511 L 343.402,561.511 L 343.504,561.309 L 343.707,561.309 L 343.707,561.207 L 343.857,561.107 L 344.011,561.004 L 344.011,560.903 L 344.214,560.903 L 344.214,560.801 L 344.379,560.688 L 344.656,560.409 L 344.823,560.294 L 344.823,560.193 L 344.924,560.193 L 345.025,559.99 L 345.127,559.99 L 345.127,559.786 L 345.33,559.786 L 345.33,559.584 L 345.44,559.535 L 345.533,559.482 L 345.533,559.279 L 345.736,559.178 L 345.784,558.974 L 345.837,558.772 L 345.938,558.72 L 346.04,558.671 L 346.04,558.468 L 346.15,558.421 L 346.243,558.366 L 346.257,558.297 L 346.25,558.215 L 346.243,558.062 L 346.345,558.062 L 346.386,557.856 L 346.446,557.656 L 346.547,557.656 L 346.551,557.504 L 346.547,557.352 L 346.649,557.352 L 346.649,557.047 L 346.75,557.047 L 346.747,556.899 L 346.75,556.743 L 346.852,556.743 L 346.85,556.49 L 346.852,556.235 L 346.953,556.235 L 346.953,555.829 L 347.055,555.829 L 347.055,554.713 L 347.157,554.713 L 347.055,553.191 L 346.953,553.191 L 346.956,552.939 L 346.953,552.684 L 346.852,552.684 L 346.852,552.278 L 346.75,552.278 L 346.753,552.077 L 346.75,551.872 L 346.649,551.872 L 346.649,551.67 L 346.547,551.67 L 346.498,551.365 L 346.446,551.061 L 346.345,551.061 L 346.289,550.866 L 346.243,550.655 L 346.142,550.655 L 346.142,550.452 L 346.037,550.4 L 345.938,550.35 L 345.884,550.146 L 345.837,549.945 L 345.634,549.843 L 345.634,549.64 L 345.33,549.437 L 345.33,549.234 L 345.229,549.234 L 345.229,549.133 L 345.024,548.982 L 344.823,548.828 L 344.823,548.727 L 344.721,548.727 L 344.721,548.626 L 344.526,548.49 L 344.365,548.322 L 344.204,548.154 L 344.011,548.017 L 344.011,547.915 L 343.808,547.915 L 343.605,547.611 L 343.402,547.611 L 343.301,547.408 L 343.096,547.358 L 342.895,547.306 L 342.793,547.103 L 342.59,547.103 L 342.59,547.002 L 342.378,546.957 L 342.185,546.901 L 342.185,546.799 L 342.032,546.806 L 341.88,546.799 L 341.88,546.698 L 341.677,546.698 L 341.677,546.596 L 341.473,546.598 L 341.271,546.596 L 341.271,546.495 L 340.967,546.495 L 340.967,546.393 L 340.761,546.398 L 340.561,546.393 L 340.561,546.292 L 340.155,546.292 L 340.155,546.19 L 340.063,546.207 L 340.055,546.252 L 340.056,546.275 L 340.046,546.292 L 339.952,546.292 L 339.952,546.19 L 339.596,546.188 L 339.242,546.19 L 339.242,546.089 L 338.025,546.089 L 338.025,546.19 L 337.92,546.182 L 337.914,546.164 L 337.922,546.142 L 337.929,546.12 L 337.924,546.101 L 337.822,546.089 L 337.822,546.19 L 336.908,546.19 L 336.908,546.292 L 336.704,546.289 L 336.503,546.292 L 336.503,546.393 L 336.193,546.439 L 335.894,546.495 L 335.894,546.596 L 335.742,546.592 L 335.59,546.596 L 335.59,546.698 L 335.385,546.75 L 335.183,546.799 L 335.082,547.002 L 334.879,547.002 L 334.879,547.103 L 334.676,547.103 L 334.676,547.205 L 334.466,547.252 L 334.27,547.306 L 334.27,547.408 L 334.067,547.408 L 333.965,547.561 L 333.865,547.712 L 333.715,547.765 L 333.56,547.814 L 333.56,547.915 L 333.357,547.915 L 333.357,548.118 L 333.154,548.118 L 333.053,548.321 L 332.951,548.321 L 332.951,548.423 L 332.747,548.576 L 332.545,548.727 L 332.545,548.828 L 332.444,548.828 L 332.444,549.031 L 332.347,549.082 L 332.241,549.133 L 332.038,549.437 L 331.937,549.437 L 331.937,549.64 L 331.835,549.64 L 331.789,549.694 L 331.772,549.774 L 331.734,549.945 L 331.642,550.004 L 331.531,550.046 L 331.531,550.249 L 331.429,550.249 L 331.429,550.452 L 331.226,550.553 L 331.174,550.694 L 331.167,550.796 L 331.165,550.903 L 331.125,551.061 L 331.024,551.061 L 331.024,551.264 L 330.922,551.264 L 330.925,551.416 L 330.922,551.568 L 330.821,551.568 L 330.823,551.72 L 330.821,551.872 L 330.719,551.872 L 330.673,552.181 L 330.618,552.481 L 330.516,552.481 L 330.508,552.735 L 330.516,552.989 L 330.415,552.989 L 330.415,553.8 L 330.313,553.8 L 330.313,553.902 L 330.387,553.936 L 330.418,553.958 L 330.415,554.104 L 330.313,554.104 L 330.313,554.713 L 330.415,554.713 L 330.415,555.829 L 330.516,555.829 L 330.508,556.086 L 330.516,556.337 L 330.618,556.337 L 330.618,556.641 L 330.719,556.641 L 330.722,556.797 L 330.719,556.946 L 330.821,556.946 L 330.864,557.257 L 330.922,557.554 L 331.024,557.554 L 331.02,557.709 L 331.024,557.859 L 331.125,557.859 L 331.166,558.066 L 331.226,558.265 L 331.328,558.265 L 331.328,558.468 L 331.531,558.569 L 331.531,558.772 L 331.632,558.772 L 331.632,558.975 L 331.734,558.975 L 331.734,559.178 L 331.883,559.281 L 332.038,559.381 L 332.038,559.584 L 332.14,559.584 L 332.444,559.99 L 332.545,559.99 L 332.545,560.193 L 332.647,560.193 L 332.647,560.294 L 332.849,560.447 L 333.053,560.598 L 333.053,560.7 L 333.256,560.7 L 333.256,560.801 L 333.458,560.955 L 333.662,561.106 L 333.662,561.207 L 333.823,561.255 L 333.895,561.269 L 333.966,561.309 L 334.067,561.511 L 334.217,561.516 L 334.372,561.511 L 334.473,561.714 L 334.669,561.772 L 334.879,561.816 L 334.879,561.917 L 335.084,561.961 L 335.285,562.019 L 335.285,562.12 L 335.437,562.127 L 335.59,562.12 L 335.59,562.222 L 335.792,562.222 L 335.792,562.323 L 335.943,562.328 L 336.097,562.323 L 336.097,562.425 L 336.401,562.425 L 336.401,562.526 L 336.79,562.592 L 337.213,562.628 L 337.213,562.729 L 337.521,562.715 L 337.675,562.706 L 337.822,562.729 L 337.906,562.766 L 337.919,562.779 L 337.917,562.79 L 337.826,562.808 L 337.776,562.811 L 337.758,562.813 L 337.923,562.831"
         id="path13098" /></clipPath><clipPath
       id="clipPath13108"><path
         d="M 399.685,468.15 L 467.716,468.15 L 467.716,398.15 L 399.685,398.15 L 399.685,468.15 z"
         id="path13110" /></clipPath><clipPath
       id="clipPath13114"><path
         d="M 0,841 L 595,841 L 595,0 L 0,0 L 0,841 z"
         id="path13116" /></clipPath><clipPath
       id="clipPath13120"><path
         d="M 0.36,841.68 L 595.8,841.68 L 595.8,0 L 0.36,0 L 0.36,841.68 z"
         id="path13122" /></clipPath><clipPath
       id="clipPath13176"><path
         d="M 457.87,446.123 C 457.422,442.625 456.655,438.31 455.342,433.732 C 453.482,427.243 450.905,421.506 447.682,416.677 C 443.819,410.886 439.006,406.397 433.373,403.315 C 431.568,404.548 425.634,408.885 420.025,416.094 C 416.117,421.117 413.128,426.535 411.142,432.197 C 409.564,436.69 408.62,441.35 408.312,446.123 L 457.87,446.123"
         id="path13178" /></clipPath><clipPath
       id="clipPath13196"><path
         d="M 399.685,468.15 L 467.716,468.15 L 467.716,398.15 L 399.685,398.15 L 399.685,468.15 z"
         id="path13198" /></clipPath><clipPath
       id="clipPath13202"><path
         d="M 0,841 L 595,841 L 595,0 L 0,0 L 0,841 z"
         id="path13204" /></clipPath><clipPath
       id="clipPath13208"><path
         d="M 0.36,841.68 L 595.8,841.68 L 595.8,0 L 0.36,0 L 0.36,841.68 z"
         id="path13210" /></clipPath><clipPath
       id="clipPath13220"><path
         d="M 484.724,468.15 L 552.756,468.15 L 552.756,398.15 L 484.724,398.15 L 484.724,468.15 z"
         id="path13222" /></clipPath><clipPath
       id="clipPath13226"><path
         d="M 0,841 L 595,841 L 595,0 L 0,0 L 0,841 z"
         id="path13228" /></clipPath><clipPath
       id="clipPath13232"><path
         d="M 0.36,841.68 L 595.8,841.68 L 595.8,0 L 0.36,0 L 0.36,841.68 z"
         id="path13234" /></clipPath><clipPath
       id="clipPath13348"><path
         d="M 149.105,468.15 L 215.598,468.15 L 215.598,398.15 L 149.105,398.15 L 149.105,468.15 z"
         id="path13350" /></clipPath><clipPath
       id="clipPath13354"><path
         d="M 0,841 L 595,841 L 595,0 L 0,0 L 0,841 z"
         id="path13356" /></clipPath><clipPath
       id="clipPath13360"><path
         d="M 0.36,841.68 L 595.8,841.68 L 595.8,0 L 0.36,0 L 0.36,841.68 z"
         id="path13362" /></clipPath><clipPath
       id="clipPath13440"><path
         d="M 229.606,468.15 L 297.638,468.15 L 297.638,398.15 L 229.606,398.15 L 229.606,468.15 z"
         id="path13442" /></clipPath><clipPath
       id="clipPath13446"><path
         d="M 0,841 L 595,841 L 595,0 L 0,0 L 0,841 z"
         id="path13448" /></clipPath><clipPath
       id="clipPath13452"><path
         d="M 0.36,841.68 L 595.8,841.68 L 595.8,0 L 0.36,0 L 0.36,841.68 z"
         id="path13454" /></clipPath><linearGradient
       x1="0"
       y1="0"
       x2="1"
       y2="0"
       id="linearGradient13554"
       gradientUnits="userSpaceOnUse"
       gradientTransform="matrix(0,-31.3668,-55.4292,0,377.1228,452.6494)"
       spreadMethod="pad"><stop
         id="stop13556"
         style="stop-color:#ffffff;stop-opacity:1"
         offset="0" /><stop
         id="stop13558"
         style="stop-color:#231f20;stop-opacity:1"
         offset="1" /></linearGradient><clipPath
       id="clipPath13566"><path
         d="M 314.646,468.15 L 382.677,468.15 L 382.677,398.15 L 314.646,398.15 L 314.646,468.15 z"
         id="path13568" /></clipPath><clipPath
       id="clipPath13572"><path
         d="M 0,841 L 595,841 L 595,0 L 0,0 L 0,841 z"
         id="path13574" /></clipPath><clipPath
       id="clipPath13578"><path
         d="M 0.36,841.68 L 595.8,841.68 L 595.8,0 L 0.36,0 L 0.36,841.68 z"
         id="path13580" /></clipPath><clipPath
       id="clipPath13656"><path
         d="M 399.685,361.567 L 467.716,361.567 L 467.716,291.567 L 399.685,291.567 L 399.685,361.567 z"
         id="path13658" /></clipPath><clipPath
       id="clipPath13662"><path
         d="M 0,841 L 595,841 L 595,0 L 0,0 L 0,841 z"
         id="path13664" /></clipPath><clipPath
       id="clipPath13668"><path
         d="M 0.36,841.68 L 595.8,841.68 L 595.8,0 L 0.36,0 L 0.36,841.68 z"
         id="path13670" /></clipPath><clipPath
       id="clipPath13738"><path
         d="M 484.724,361.567 L 552.756,361.567 L 552.756,291.567 L 484.724,291.567 L 484.724,361.567 z"
         id="path13740" /></clipPath><clipPath
       id="clipPath13744"><path
         d="M 0,841 L 595,841 L 595,0 L 0,0 L 0,841 z"
         id="path13746" /></clipPath><clipPath
       id="clipPath13750"><path
         d="M 0.36,841.68 L 595.8,841.68 L 595.8,0 L 0.36,0 L 0.36,841.68 z"
         id="path13752" /></clipPath><radialGradient
       cx="0"
       cy="0"
       r="1"
       fx="0"
       fy="0"
       id="radialGradient13766"
       gradientUnits="userSpaceOnUse"
       gradientTransform="matrix(16.8629,0,0,-16.8629,518.789,332.9843)"
       spreadMethod="pad"><stop
         id="stop13768"
         style="stop-color:#ffffff;stop-opacity:1"
         offset="0" /><stop
         id="stop13770"
         style="stop-color:#231f20;stop-opacity:1"
         offset="1" /></radialGradient><clipPath
       id="clipPath13778"><path
         d="M 484.724,361.567 L 552.756,361.567 L 552.756,291.567 L 484.724,291.567 L 484.724,361.567 z"
         id="path13780" /></clipPath><clipPath
       id="clipPath13784"><path
         d="M 0,841 L 595,841 L 595,0 L 0,0 L 0,841 z"
         id="path13786" /></clipPath><clipPath
       id="clipPath13790"><path
         d="M 0.36,841.68 L 595.8,841.68 L 595.8,0 L 0.36,0 L 0.36,841.68 z"
         id="path13792" /></clipPath><clipPath
       id="clipPath13876"><path
         d="M 147.567,361.567 L 215.598,361.567 L 215.598,291.567 L 147.567,291.567 L 147.567,361.567 z"
         id="path13878" /></clipPath><clipPath
       id="clipPath13882"><path
         d="M 0,841 L 595,841 L 595,0 L 0,0 L 0,841 z"
         id="path13884" /></clipPath><clipPath
       id="clipPath13888"><path
         d="M 0.36,841.68 L 595.8,841.68 L 595.8,0 L 0.36,0 L 0.36,841.68 z"
         id="path13890" /></clipPath><clipPath
       id="clipPath14086"><path
         d="M 229.606,361.567 L 297.638,361.567 L 297.638,291.567 L 229.606,291.567 L 229.606,361.567 z"
         id="path14088" /></clipPath><clipPath
       id="clipPath14092"><path
         d="M 0,841 L 595,841 L 595,0 L 0,0 L 0,841 z"
         id="path14094" /></clipPath><clipPath
       id="clipPath14098"><path
         d="M 0.36,841.68 L 595.8,841.68 L 595.8,0 L 0.36,0 L 0.36,841.68 z"
         id="path14100" /></clipPath><clipPath
       id="clipPath14192"><path
         d="M 314.646,361.567 L 382.677,361.567 L 382.677,291.567 L 314.646,291.567 L 314.646,361.567 z"
         id="path14194" /></clipPath><clipPath
       id="clipPath14198"><path
         d="M 0,841 L 595,841 L 595,0 L 0,0 L 0,841 z"
         id="path14200" /></clipPath><clipPath
       id="clipPath14204"><path
         d="M 0.36,841.68 L 595.8,841.68 L 595.8,0 L 0.36,0 L 0.36,841.68 z"
         id="path14206" /></clipPath><clipPath
       id="clipPath14342"><path
         d="M 0,841 L 595,841 L 595,0 L 0,0 L 0,841 z"
         id="path14344" /></clipPath><clipPath
       id="clipPath14348"><path
         d="M 0.36,841.68 L 595.8,841.68 L 595.8,0 L 0.36,0 L 0.36,841.68 z"
         id="path14350" /></clipPath></defs><g
     transform="matrix(1.25,0,0,-1.25,-1.4019695,1049.4847)"
     id="g10580"><g
       transform="matrix(9.6908116,0,0,9.6908116,-1439.7746,-3682.0999)"
       id="g13344"><g
         clip-path="url(#clipPath13348)"
         id="g13346"><g
           clip-path="url(#clipPath13354)"
           id="g13352"><g
             clip-path="url(#clipPath13360)"
             id="g13358"><path
               d="M 150.733,433.534 C 150.733,450.352 164.366,463.985 181.184,463.985 C 198.002,463.985 211.636,450.352 211.636,433.534 C 211.636,416.716 198.002,403.082 181.184,403.082 C 164.366,403.082 150.733,416.716 150.733,433.534 z M 207.861,444.982 C 209.37,441.47 210.206,437.599 210.206,433.534 C 210.206,417.505 197.213,404.512 181.184,404.512 C 165.156,404.512 152.163,417.505 152.163,433.534 C 152.163,437.645 153.018,441.557 154.56,445.101 M 203.533,443.538 C 204.902,440.484 205.664,437.098 205.664,433.534 C 205.664,420.014 194.704,409.055 181.184,409.055 C 167.665,409.055 156.705,420.014 156.705,433.534 C 156.705,437 157.426,440.299 158.725,443.287"
               id="path13364"
               style="fill:none;stroke:#d2232a;stroke-width:0.331;stroke-linecap:butt;stroke-linejoin:miter;stroke-miterlimit:4;stroke-dasharray:none;stroke-opacity:1" /><path
               d="M 158.153,433.534 C 158.153,446.254 168.464,456.566 181.184,456.566 C 193.905,456.566 204.216,446.254 204.216,433.534 C 204.216,420.814 193.905,410.502 181.184,410.502 C 168.464,410.502 158.153,420.814 158.153,433.534 z"
               id="path13366"
               style="fill:#d2232a;fill-opacity:1;fill-rule:nonzero;stroke:#d2232a;stroke-width:0.331;stroke-linecap:butt;stroke-linejoin:miter;stroke-miterlimit:4;stroke-dasharray:none;stroke-opacity:1" /><path
               d="M 158.41,445.577 L 158.42,445.662 C 158.511,445.648 158.595,445.638 158.684,445.635 C 159.085,445.632 159.413,445.78 159.601,445.996 C 159.802,446.22 159.867,446.478 159.827,446.699 C 159.721,447.233 159.241,447.407 158.63,447.075 C 158.547,447.034 158.454,446.975 158.07,446.721 C 157.475,446.321 156.892,446.31 156.359,446.64 C 155.571,447.123 155.378,448.169 156.13,449.157 C 156.335,449.429 156.591,449.637 156.9,449.78 C 156.936,449.799 156.973,449.819 157.011,449.828 C 157.051,449.771 157.081,449.712 157.121,449.655 C 157.249,449.471 157.396,449.292 157.551,449.125 L 157.513,449.048 C 157.448,449.063 157.381,449.062 157.315,449.061 C 156.64,449.048 156.224,448.549 156.335,448.104 C 156.454,447.645 156.873,447.508 157.402,447.798 L 157.452,447.826 L 157.931,448.13 C 159.046,448.833 160.153,448.47 160.451,447.27 C 160.576,446.767 160.46,446.219 160.041,445.632 C 159.842,445.357 159.579,445.112 159.23,444.902 C 159.194,444.883 159.154,444.857 159.118,444.838 C 158.911,445.111 158.671,445.354 158.41,445.577"
               id="path13368"
               style="fill:#d2232a;fill-opacity:1;fill-rule:nonzero;stroke:none" /><path
               d="M 157.624,450.317 L 157.482,450.444 C 157.372,450.543 157.274,450.624 157.15,450.717 C 157.371,450.964 157.587,451.216 157.798,451.462 C 158.451,452.222 159.072,452.999 159.677,453.779 C 159.826,453.638 159.984,453.508 160.146,453.384 C 160.2,453.349 160.249,453.309 160.302,453.274 C 159.962,452.96 159.64,452.613 159.344,452.254 C 159.7,451.943 160.061,451.637 160.421,451.332 C 161.178,450.709 161.959,450.104 162.746,449.529 C 162.451,449.215 162.178,448.882 161.918,448.521 C 161.542,448.876 161.169,449.21 160.775,449.552 C 160.064,450.164 159.345,450.756 158.602,451.34 C 158.292,450.974 158.013,450.591 157.767,450.191 L 157.624,450.317"
               id="path13370"
               style="fill:#d2232a;fill-opacity:1;fill-rule:nonzero;stroke:none" /><path
               d="M 162.797,452.756 L 162.159,454.505 L 163.743,453.603 C 163.669,453.527 163.589,453.447 163.51,453.376 C 163.279,453.159 163.043,452.958 162.797,452.756 z M 163.078,450.074 C 163.254,450.269 163.454,450.448 163.661,450.596 L 163.431,451.128 C 163.289,451.456 163.154,451.808 163.028,452.139 C 163.339,452.437 163.644,452.719 163.959,452.992 C 164.064,453.086 164.173,453.175 164.279,453.269 C 164.578,453.092 164.887,452.896 165.177,452.71 L 165.417,452.547 L 165.663,452.388 C 165.997,452.734 166.359,453.059 166.751,453.362 C 165.907,453.733 165.092,454.158 163.098,455.317 C 162.861,455.455 162.624,455.593 162.392,455.735 L 162.262,455.817 L 162.045,455.954 C 161.922,455.816 161.795,455.683 161.653,455.556 C 161.516,455.434 161.381,455.331 161.23,455.225 L 161.314,455.026 L 161.354,454.929 C 161.464,454.668 161.569,454.402 161.67,454.142 C 162.306,452.459 162.745,451.186 162.919,450.622 L 162.982,450.414 L 163.078,450.074"
               id="path13372"
               style="fill:#d2232a;fill-opacity:1;fill-rule:nonzero;stroke:none" /><path
               d="M 165.847,458.069 L 165.938,458.138 L 166.048,458.201 C 166.111,458.246 166.185,458.289 166.252,458.327 C 167.225,458.841 168.043,458.597 168.683,457.46 C 169.383,456.236 169.129,455.323 168.099,454.752 L 167.942,454.67 L 167.847,454.623 C 167.182,455.745 166.497,456.93 165.847,458.069 z M 167.025,453.537 C 167.396,453.784 167.622,453.914 168.191,454.211 C 168.256,454.24 168.323,454.279 168.39,454.318 C 169.797,455.082 170.32,456.109 170.033,457.352 C 169.576,459.369 167.775,459.99 165.782,458.675 C 165.229,458.307 164.93,458.134 164.488,457.927 C 165.261,456.786 165.962,455.602 166.688,454.205 C 166.799,453.985 166.914,453.758 167.025,453.537"
               id="path13374"
               style="fill:#d2232a;fill-opacity:1;fill-rule:nonzero;stroke:none" /><path
               d="M 170.324,460.179 C 170.235,460.41 170.139,460.637 170.043,460.865 C 170.959,461.131 171.856,461.449 172.728,461.819 C 172.797,461.604 172.87,461.398 172.959,461.19 C 172.555,461.084 172.156,460.965 171.759,460.816 L 171.587,460.755 L 171.423,460.689 C 171.504,460.441 171.593,460.188 171.683,459.936 L 171.806,459.59 L 171.935,459.247 L 172.09,459.295 L 172.243,459.349 C 172.629,459.486 173,459.641 173.362,459.822 C 173.416,459.608 173.494,459.389 173.587,459.19 C 173.201,459.076 172.831,458.959 172.452,458.825 L 172.286,458.766 L 172.12,458.707 L 172.271,458.281 L 172.417,457.847 L 172.563,457.457 L 172.703,457.065 L 172.856,457.12 L 172.999,457.178 C 173.402,457.329 173.811,457.504 174.203,457.688 C 174.222,457.59 174.258,457.49 174.287,457.388 C 174.329,457.269 174.378,457.151 174.427,457.034 C 173.742,456.813 173.076,456.584 172.4,456.337 L 172.064,456.21 L 171.736,456.078 C 171.365,457.398 170.936,458.645 170.324,460.179"
               id="path13376"
               style="fill:#d2232a;fill-opacity:1;fill-rule:nonzero;stroke:none" /><path
               d="M 178.361,462.329 L 178.473,462.35 L 178.6,462.358 C 178.677,462.369 178.761,462.375 178.838,462.379 C 179.939,462.405 180.562,461.822 180.628,460.518 C 180.707,459.11 180.072,458.407 178.896,458.356 L 178.719,458.352 L 178.613,458.352 C 178.519,459.654 178.435,461.019 178.361,462.329 z M 177.393,457.747 C 177.835,457.803 178.095,457.819 178.737,457.83 C 178.808,457.827 178.886,457.832 178.963,457.837 C 180.563,457.893 181.489,458.579 181.787,459.82 C 182.278,461.828 180.944,463.188 178.573,462.9 C 177.914,462.817 177.569,462.796 177.081,462.808 C 177.264,461.441 177.363,460.07 177.389,458.496 C 177.39,458.249 177.392,457.994 177.393,457.747"
               id="path13378"
               style="fill:#d2232a;fill-opacity:1;fill-rule:nonzero;stroke:none" /><path
               d="M 183.31,462.223 C 183.333,462.469 183.348,462.716 183.363,462.963 C 184.302,462.794 185.247,462.681 186.192,462.625 C 186.158,462.402 186.133,462.185 186.12,461.959 C 185.711,462.044 185.3,462.114 184.879,462.157 L 184.697,462.179 L 184.521,462.192 C 184.483,461.934 184.451,461.668 184.42,461.402 L 184.377,461.038 L 184.34,460.673 L 184.5,460.647 L 184.661,460.628 C 185.068,460.579 185.469,460.553 185.874,460.554 C 185.827,460.34 185.799,460.108 185.795,459.889 C 185.398,459.957 185.015,460.017 184.616,460.065 L 184.441,460.086 L 184.266,460.107 L 184.212,459.659 L 184.151,459.204 L 184.109,458.79 L 184.059,458.377 L 184.22,458.358 L 184.375,458.346 C 184.803,458.303 185.248,458.278 185.68,458.269 C 185.654,458.173 185.642,458.068 185.622,457.963 C 185.607,457.837 185.599,457.711 185.591,457.584 C 184.879,457.69 184.18,457.78 183.465,457.858 L 183.107,457.894 L 182.755,457.922 C 183.008,459.269 183.178,460.577 183.31,462.223"
               id="path13380"
               style="fill:#d2232a;fill-opacity:1;fill-rule:nonzero;stroke:none" /><path
               d="M 190.747,458.919 L 191.414,460.573 C 191.44,460.563 191.463,460.562 191.491,460.558 C 192.112,460.402 192.293,460.056 192.068,459.433 C 191.837,458.796 191.404,458.604 190.879,458.851 L 190.804,458.889 L 190.747,458.919 z M 188.589,456.856 C 188.905,456.753 189.209,456.639 189.499,456.509 C 189.603,456.467 189.706,456.419 189.801,456.373 C 189.956,456.858 190.13,457.35 190.315,457.815 L 190.429,458.119 L 190.555,458.418 C 190.696,457.838 190.812,457.253 190.884,456.67 C 190.912,456.416 190.94,456.162 190.961,455.911 C 191.456,455.744 191.934,455.553 192.409,455.334 C 192.317,455.599 192.234,455.867 192.16,456.139 C 191.96,456.856 191.807,457.54 191.721,458.03 L 191.711,458.117 L 191.687,458.248 L 191.774,458.237 L 191.867,458.222 C 192.451,458.164 192.973,458.465 193.206,458.994 C 193.573,459.819 193.115,460.632 191.681,461.09 C 191.073,461.279 190.856,461.365 190.473,461.563 C 190.392,461.322 190.313,461.088 190.226,460.85 C 189.721,459.411 189.191,458.119 188.589,456.856"
               id="path13382"
               style="fill:#d2232a;fill-opacity:1;fill-rule:nonzero;stroke:none" /><path
               d="M 194.871,458.842 C 194.992,459.057 195.107,459.276 195.223,459.494 C 196.009,458.955 196.824,458.463 197.663,458.024 C 197.54,457.834 197.427,457.647 197.323,457.447 C 196.985,457.692 196.639,457.924 196.273,458.137 L 196.116,458.231 L 195.962,458.316 C 195.821,458.096 195.683,457.867 195.545,457.637 L 195.355,457.323 L 195.172,457.005 L 195.307,456.916 L 195.446,456.832 C 195.797,456.621 196.152,456.432 196.522,456.266 C 196.391,456.09 196.271,455.891 196.176,455.693 C 195.842,455.918 195.517,456.13 195.173,456.338 L 195.022,456.429 L 194.871,456.52 L 194.638,456.133 L 194.396,455.744 L 194.187,455.384 L 193.972,455.028 L 194.111,454.944 L 194.248,454.87 C 194.62,454.654 195.015,454.449 195.405,454.263 C 195.342,454.186 195.288,454.095 195.227,454.008 C 195.161,453.9 195.102,453.787 195.043,453.675 C 194.437,454.064 193.837,454.434 193.217,454.8 L 192.905,454.979 L 192.596,455.149 C 193.381,456.273 194.073,457.396 194.871,458.842"
               id="path13384"
               style="fill:#d2232a;fill-opacity:1;fill-rule:nonzero;stroke:none" /><path
               d="M 198.337,456.565 C 198.488,456.77 198.627,456.983 198.772,457.192 C 199.092,456.88 199.443,456.606 199.818,456.376 C 199.65,456.185 199.482,456.003 199.32,455.807 C 198.305,454.632 197.47,453.539 196.694,452.383 C 196.366,452.674 196.016,452.947 195.654,453.194 C 196.595,454.24 197.473,455.343 198.337,456.565"
               id="path13386"
               style="fill:#d2232a;fill-opacity:1;fill-rule:nonzero;stroke:none" /><path
               d="M 198.04,452.607 C 199.411,453.424 200.493,454.162 201.544,454.975 C 201.698,454.763 201.882,454.558 202.077,454.383 C 201.646,453.492 201.349,452.779 200.92,451.643 L 200.747,451.192 L 200.659,450.942 L 200.831,450.993 L 201.368,451.145 C 202.59,451.485 203.255,451.705 204.167,452.052 C 204.247,451.953 204.336,451.843 204.421,451.749 C 204.511,451.649 204.601,451.56 204.701,451.47 C 203.778,450.524 202.923,449.545 201.923,448.285 C 201.736,448.05 201.554,447.819 201.372,447.579 C 201.091,447.944 200.784,448.284 200.451,448.601 C 201.202,449.306 201.911,450.068 202.562,450.862 C 202.335,450.81 202.107,450.747 201.879,450.684 C 201.018,450.459 200.16,450.179 199.319,449.869 C 199.226,449.984 199.126,450.094 199.017,450.194 C 199.496,451.243 199.931,452.299 200.336,453.366 C 200.156,453.251 199.979,453.13 199.798,453.005 C 199.115,452.541 198.46,452.046 197.828,451.515 C 197.66,451.753 197.467,451.958 197.257,452.149 C 197.519,452.3 197.782,452.451 198.04,452.607"
               id="path13388"
               style="fill:#d2232a;fill-opacity:1;fill-rule:nonzero;stroke:none" /><path
               d="M 202.722,447.666 L 202.791,447.617 C 202.736,447.544 202.687,447.475 202.641,447.399 C 202.445,447.049 202.417,446.69 202.516,446.421 C 202.616,446.136 202.811,445.956 203.024,445.884 C 203.543,445.721 203.926,446.058 203.93,446.754 C 203.934,446.845 203.927,446.956 203.888,447.415 C 203.824,448.128 204.095,448.644 204.641,448.954 C 205.443,449.412 206.453,449.078 206.958,447.943 C 207.098,447.633 207.156,447.308 207.133,446.968 C 207.133,446.927 207.132,446.886 207.122,446.848 C 207.053,446.84 206.986,446.842 206.917,446.835 C 206.694,446.811 206.466,446.768 206.246,446.713 L 206.197,446.783 C 206.241,446.833 206.272,446.892 206.303,446.951 C 206.616,447.549 206.379,448.153 205.935,448.271 C 205.476,448.387 205.154,448.085 205.154,447.482 L 205.155,447.425 L 205.19,446.859 C 205.27,445.543 204.42,444.746 203.225,445.063 C 202.723,445.195 202.299,445.56 201.986,446.211 C 201.84,446.517 201.752,446.866 201.736,447.272 C 201.736,447.314 201.733,447.361 201.734,447.402 C 202.072,447.452 202.401,447.545 202.722,447.666"
               id="path13390"
               style="fill:#d2232a;fill-opacity:1;fill-rule:nonzero;stroke:none" /><path
               d="M 167.097,439.955 L 167.298,440.032 C 167.389,439.848 167.481,439.679 167.59,439.51 C 168.12,438.758 168.886,438.313 169.616,438.205 C 170.383,438.083 171.04,438.251 171.478,438.574 C 172.518,439.372 172.263,440.462 170.711,441.229 C 170.511,441.336 170.255,441.444 169.178,441.874 C 167.499,442.534 166.696,443.608 166.714,444.974 C 166.732,446.985 168.795,448.52 171.989,448.228 C 172.865,448.151 173.668,447.906 174.398,447.491 C 174.49,447.445 174.581,447.399 174.654,447.338 C 174.581,447.2 174.49,447.077 174.417,446.939 C 174.18,446.494 173.979,446.018 173.814,445.542 L 173.595,445.527 C 173.541,445.665 173.449,445.788 173.358,445.91 C 172.427,447.154 170.766,447.369 169.927,446.662 C 169.069,445.926 169.324,444.99 170.675,444.329 L 170.803,444.268 L 172.117,443.715 C 175.165,442.426 175.84,439.955 173.577,438.052 C 172.628,437.254 171.259,436.855 169.397,436.977 C 168.521,437.039 167.627,437.254 166.696,437.668 C 166.605,437.714 166.495,437.76 166.404,437.806 C 166.732,438.497 166.951,439.218 167.097,439.955"
               id="path13392"
               style="fill:#ffffff;fill-opacity:1;fill-rule:nonzero;stroke:none" /><path
               d="M 190.144,442.994 L 190.159,446.877 C 190.221,446.877 190.267,446.893 190.328,446.908 C 191.71,447.092 192.354,446.54 192.401,445.097 C 192.447,443.623 191.725,442.887 190.467,442.963 L 190.282,442.979 L 190.144,442.994 z M 187.443,437.085 C 188.164,437.131 188.87,437.146 189.561,437.116 C 189.806,437.116 190.052,437.1 190.282,437.085 C 190.206,438.19 190.159,439.326 190.159,440.415 L 190.144,441.122 L 190.159,441.828 C 190.912,440.768 191.618,439.679 192.232,438.558 C 192.493,438.067 192.754,437.576 192.999,437.085 C 194.135,437.146 195.256,437.146 196.391,437.085 C 195.992,437.545 195.609,438.021 195.24,438.512 C 194.258,439.802 193.398,441.06 192.83,441.981 L 192.738,442.15 L 192.585,442.395 L 192.769,442.442 L 192.968,442.488 C 194.196,442.841 195.01,443.869 195.056,445.128 C 195.132,447.092 193.552,448.366 190.282,448.136 C 188.901,448.029 188.394,448.029 187.458,448.121 C 187.489,447.568 187.52,447.031 187.535,446.478 C 187.673,443.163 187.642,440.124 187.443,437.085"
               id="path13394"
               style="fill:#ffffff;fill-opacity:1;fill-rule:nonzero;stroke:none" /><path
               d="M 187.235,419.47 C 187.235,416.129 184.527,413.421 181.186,413.421 C 177.845,413.421 175.136,416.129 175.136,419.47 C 175.136,422.811 177.845,425.52 181.186,425.52 C 184.527,425.52 187.235,422.811 187.235,419.47 z"
               id="path13396"
               style="fill:none;stroke:#ffffff;stroke-width:0.34099999;stroke-linecap:butt;stroke-linejoin:miter;stroke-miterlimit:4;stroke-dasharray:none;stroke-opacity:1" /><path
               d="M 182.674,423.022 L 179.63,423.022 C 179.63,423.022 178.852,421.027 178.886,420.418 C 178.886,420.418 180.695,418.901 181.126,418.881 C 181.558,418.862 183.452,420.316 183.418,420.452 C 183.418,420.452 183.52,421.196 182.674,423.022"
               id="path13398"
               style="fill:#ffffff;fill-opacity:1;fill-rule:nonzero;stroke:none" /><path
               d="M 175.334,420.722 L 176.586,419.234 C 176.586,419.234 176.484,417.407 176.619,416.663 C 176.619,416.663 176.078,416.494 175.943,416.596 C 175.808,416.697 174.793,418.118 175.334,420.722"
               id="path13400"
               style="fill:#ffffff;fill-opacity:1;fill-rule:nonzero;stroke:none" /><path
               d="M 187.088,420.722 L 185.837,419.234 C 185.837,419.234 185.938,417.407 185.803,416.663 C 185.803,416.663 186.344,416.494 186.479,416.596 C 186.614,416.697 187.629,418.118 187.088,420.722"
               id="path13402"
               style="fill:#ffffff;fill-opacity:1;fill-rule:nonzero;stroke:none" /><path
               d="M 179.799,422.921 C 179.799,422.921 179.122,424.139 178.209,424.679 M 182.503,422.921 C 182.503,422.921 183.179,424.139 184.093,424.679 M 176.417,419.132 C 176.417,419.132 177.769,420.215 179.122,420.452 M 185.95,419.132 C 185.95,419.132 184.597,420.215 183.243,420.452 M 176.45,416.967 C 176.45,416.967 177.093,415.783 179.292,414.87 M 185.885,416.967 C 185.885,416.967 185.243,415.783 183.044,414.87 M 179.968,413.551 C 179.968,413.551 179.325,414.228 179.122,414.972 C 179.122,414.972 180.656,415.547 181.126,416.007 C 181.126,416.007 182.674,415.006 183.181,414.904 C 183.181,414.904 182.978,413.889 182.268,413.551 C 182.268,413.551 181.118,413.111 179.968,413.551 z"
               id="path13404"
               style="fill:none;stroke:#ffffff;stroke-width:0.168;stroke-linecap:butt;stroke-linejoin:miter;stroke-miterlimit:4;stroke-dasharray:none;stroke-opacity:1" /><path
               d="M 163.819,439.129 C 163.819,439.129 162.252,437.681 162.213,435.676 C 162.174,433.671 164.301,429.573 170.163,429.734 C 170.163,429.734 176.063,429.469 180.961,434.849 L 180.561,435.454 L 180.961,436.08 C 180.961,436.08 178.603,438.276 178.532,441.884 C 178.532,441.884 178.567,445.925 180.961,446.049 L 180.961,447.192 C 180.961,447.192 178.067,447.351 178.067,441.956 C 178.067,441.956 177.817,439.062 180.389,435.453 C 180.389,435.453 176.245,430.987 170.278,431.237 C 170.278,431.237 167.563,431.058 165.419,432.666 C 165.419,432.666 160.79,435.552 163.819,439.129"
               id="path13406"
               style="fill:#ffffff;fill-opacity:1;fill-rule:nonzero;stroke:none" /><path
               d="M 198.101,439.129 C 198.101,439.129 199.668,437.681 199.708,435.676 C 199.747,433.671 197.62,429.573 191.758,429.734 C 191.758,429.734 185.857,429.469 180.958,434.849 L 181.358,435.454 L 180.958,436.08 C 180.958,436.08 183.316,438.276 183.387,441.884 C 183.387,441.884 183.352,445.925 180.958,446.049 L 180.958,447.192 C 180.958,447.192 183.852,447.351 183.852,441.956 C 183.852,441.956 184.102,439.062 181.529,435.453 C 181.529,435.453 185.675,430.987 191.642,431.237 C 191.642,431.237 194.358,431.058 196.502,432.666 C 196.502,432.666 201.131,435.552 198.101,439.129"
               id="path13408"
               style="fill:#ffffff;fill-opacity:1;fill-rule:nonzero;stroke:none" /><path
               d="M 168.762,434.123 C 168.762,434.123 169.869,435.73 172.942,435.73 C 176.015,435.73 179.94,433.556 180.961,428.711 L 180.961,427.531 C 180.961,427.531 179.838,434.443 172.37,434.907 C 172.37,434.907 170.155,434.978 168.976,433.978 C 168.976,433.978 168.619,433.803 168.762,434.123"
               id="path13410"
               style="fill:#ffffff;fill-opacity:1;fill-rule:nonzero;stroke:none" /><path
               d="M 193.18,434.123 C 193.18,434.123 192.073,435.73 189,435.73 C 185.927,435.73 182.002,433.556 180.981,428.711 L 180.981,427.531 C 180.981,427.531 182.104,434.443 189.572,434.907 C 189.572,434.907 191.787,434.978 192.966,433.978 C 192.966,433.978 193.323,433.803 193.18,434.123"
               id="path13412"
               style="fill:#ffffff;fill-opacity:1;fill-rule:nonzero;stroke:none" /><path
               d="M 174.174,408.42 L 174.215,408.415 L 174.261,408.404 C 174.289,408.399 174.319,408.391 174.347,408.384 C 174.737,408.27 174.89,407.995 174.767,407.529 C 174.638,407.025 174.335,406.849 173.916,406.963 L 173.853,406.982 L 173.816,406.994 C 173.929,407.462 174.053,407.952 174.174,408.42 z M 173.319,406.918 C 173.481,406.888 173.574,406.864 173.801,406.796 C 173.826,406.787 173.854,406.78 173.881,406.773 C 174.45,406.614 174.853,406.751 175.097,407.154 C 175.495,407.805 175.178,408.432 174.312,408.597 C 174.071,408.642 173.948,408.673 173.777,408.732 C 173.689,408.231 173.569,407.738 173.402,407.182 C 173.375,407.095 173.347,407.005 173.319,406.918"
               id="path13414"
               style="fill:#d2232a;fill-opacity:1;fill-rule:nonzero;stroke:none" /><path
               d="M 175.714,407.989 C 175.728,408.079 175.739,408.17 175.751,408.26 C 176.092,408.176 176.438,408.113 176.785,408.07 C 176.767,407.989 176.752,407.909 176.742,407.827 C 176.594,407.867 176.444,407.903 176.29,407.928 L 176.224,407.94 L 176.159,407.95 C 176.139,407.855 176.121,407.758 176.103,407.661 L 176.079,407.528 L 176.057,407.394 L 176.115,407.381 L 176.174,407.37 C 176.323,407.343 176.47,407.324 176.619,407.315 C 176.597,407.237 176.582,407.152 176.575,407.072 C 176.43,407.106 176.29,407.137 176.144,407.164 L 176.08,407.176 L 176.016,407.187 L 175.986,407.024 L 175.953,406.858 L 175.928,406.706 L 175.9,406.555 L 175.959,406.544 L 176.016,406.537 C 176.172,406.51 176.336,406.491 176.495,406.478 C 176.483,406.443 176.476,406.404 176.466,406.366 C 176.458,406.32 176.452,406.274 176.446,406.227 C 176.186,406.283 175.931,406.333 175.669,406.378 L 175.538,406.399 L 175.409,406.418 C 175.534,406.908 175.627,407.386 175.714,407.989"
               id="path13416"
               style="fill:#d2232a;fill-opacity:1;fill-rule:nonzero;stroke:none" /><path
               d="M 177.432,407.089 L 177.521,407.773 L 177.544,407.77 L 177.588,407.765 C 177.691,407.749 177.746,407.721 177.784,407.677 C 177.833,407.621 177.851,407.543 177.834,407.403 C 177.803,407.158 177.68,407.058 177.476,407.081 C 177.46,407.083 177.447,407.085 177.432,407.089 z M 176.853,406.163 C 177.017,406.153 177.177,406.133 177.336,406.102 C 177.344,406.29 177.36,406.482 177.379,406.668 L 177.392,406.774 L 177.405,406.878 L 177.434,406.874 L 177.493,406.864 C 177.869,406.814 178.121,406.934 178.227,407.157 C 178.425,407.554 178.199,407.903 177.696,407.951 C 177.662,407.955 177.626,407.957 177.589,407.959 C 177.36,407.972 177.254,407.985 177.091,408.019 C 177.087,407.925 177.078,407.835 177.072,407.744 C 177.021,407.162 176.953,406.662 176.853,406.163"
               id="path13418"
               style="fill:#d2232a;fill-opacity:1;fill-rule:nonzero;stroke:none" /><path
               d="M 178.957,407.807 C 178.996,407.807 179.037,407.807 179.077,407.807 C 179.047,407.619 179.028,407.432 179.014,407.243 L 178.985,406.752 C 178.958,406.284 179.143,406.07 179.532,406.133 C 179.759,406.171 179.895,406.359 179.92,406.774 L 179.937,407.055 L 179.944,407.188 C 179.954,407.349 179.96,407.536 179.957,407.755 C 180.022,407.741 180.087,407.737 180.152,407.738 C 180.173,407.737 180.193,407.738 180.215,407.74 C 180.19,407.556 180.169,407.364 180.158,407.175 L 180.156,407.144 L 180.139,406.86 L 180.126,406.598 C 180.111,406.26 179.897,405.999 179.533,405.914 C 179.376,405.876 179.213,405.886 179.057,405.942 C 178.684,406.076 178.553,406.274 178.538,406.601 L 178.564,406.941 L 178.575,407.13 L 178.583,407.268 C 178.593,407.429 178.596,407.614 178.593,407.836 C 178.715,407.818 178.834,407.809 178.957,407.807"
               id="path13420"
               style="fill:#d2232a;fill-opacity:1;fill-rule:nonzero;stroke:none" /><path
               d="M 180.569,407.46 C 180.567,407.554 180.56,407.648 180.555,407.741 C 180.719,407.722 180.883,407.721 181.044,407.738 C 181.039,407.645 181.03,407.554 181.027,407.46 C 180.995,406.888 180.997,406.38 181.03,405.867 C 180.869,405.879 180.705,405.88 180.544,405.87 C 180.583,406.388 180.592,406.908 180.569,407.46"
               id="path13422"
               style="fill:#d2232a;fill-opacity:1;fill-rule:nonzero;stroke:none" /><path
               d="M 181.488,406.355 L 181.516,406.369 C 181.53,406.338 181.544,406.31 181.561,406.282 C 181.641,406.157 181.753,406.086 181.858,406.072 C 181.968,406.055 182.06,406.087 182.121,406.144 C 182.264,406.285 182.22,406.468 181.994,406.59 C 181.965,406.607 181.928,406.624 181.772,406.691 C 181.528,406.794 181.407,406.972 181.401,407.203 C 181.391,407.544 181.675,407.815 182.132,407.783 C 182.257,407.775 182.373,407.737 182.48,407.671 C 182.493,407.664 182.506,407.656 182.517,407.646 C 182.508,407.623 182.495,407.601 182.486,407.577 C 182.455,407.501 182.429,407.419 182.409,407.338 L 182.378,407.334 C 182.369,407.357 182.355,407.377 182.342,407.398 C 182.201,407.603 181.963,407.631 181.848,407.506 C 181.73,407.377 181.773,407.22 181.969,407.115 L 181.988,407.105 L 182.179,407.019 C 182.621,406.817 182.733,406.402 182.423,406.067 C 182.293,405.927 182.1,405.852 181.834,405.863 C 181.709,405.868 181.58,405.9 181.445,405.965 C 181.432,405.972 181.416,405.98 181.402,405.987 C 181.445,406.106 181.472,406.229 181.488,406.355"
               id="path13424"
               style="fill:#d2232a;fill-opacity:1;fill-rule:nonzero;stroke:none" /><path
               d="M 184.467,407.948 C 184.527,407.99 184.584,408.031 184.641,408.078 C 184.678,407.54 184.74,407.012 184.842,406.417 C 184.857,406.324 184.874,406.235 184.892,406.143 C 184.73,406.137 184.567,406.115 184.409,406.079 C 184.402,406.175 184.395,406.268 184.387,406.365 C 184.356,406.757 184.305,407.144 184.241,407.532 L 184.055,407.389 L 184.024,407.443 L 183.99,407.499 C 183.966,407.545 183.942,407.589 183.917,407.639 C 184.11,407.725 184.293,407.828 184.467,407.948"
               id="path13426"
               style="fill:#d2232a;fill-opacity:1;fill-rule:nonzero;stroke:none" /><path
               d="M 185.51,407.562 C 185.484,407.708 185.488,407.802 185.509,407.874 C 185.538,407.967 185.637,408.016 185.725,407.985 C 185.799,407.956 185.871,407.863 185.911,407.643 C 185.938,407.492 185.926,407.386 185.889,407.311 C 185.843,407.215 185.707,407.191 185.635,407.268 C 185.583,407.319 185.542,407.402 185.51,407.562 z M 185.554,406.253 C 185.605,406.247 185.656,406.245 185.706,406.249 C 186.007,406.277 186.249,406.493 186.351,406.889 C 186.382,407.011 186.396,407.138 186.389,407.267 C 186.353,407.948 186.025,408.243 185.592,408.175 C 185.325,408.132 185.132,407.941 185.095,407.696 C 185.04,407.342 185.248,407.039 185.506,406.985 C 185.718,406.939 185.907,407.021 185.999,407.172 C 186.011,407.09 186.015,407.008 186.006,406.927 C 185.977,406.605 185.832,406.457 185.626,406.454 C 185.57,406.455 185.516,406.466 185.465,406.494 L 185.449,406.47 C 185.493,406.401 185.53,406.328 185.554,406.253"
               id="path13428"
               style="fill:#d2232a;fill-opacity:1;fill-rule:nonzero;stroke:none" /><path
               d="M 187.145,407.094 L 187.176,407.096 C 187.178,407.089 187.179,407.084 187.184,407.077 C 187.237,406.948 187.283,406.895 187.337,406.86 C 187.454,406.79 187.623,406.84 187.686,406.966 C 187.719,407.038 187.728,407.132 187.699,407.248 C 187.636,407.49 187.479,407.574 187.28,407.487 C 187.261,407.48 187.242,407.469 187.226,407.458 C 187.215,407.533 187.197,407.608 187.168,407.679 C 187.184,407.678 187.203,407.68 187.221,407.682 C 187.371,407.703 187.461,407.816 187.447,407.971 C 187.425,408.244 187.303,408.343 187.179,408.315 C 187.067,408.29 187.005,408.183 187.045,407.96 C 187.047,407.949 187.05,407.939 187.052,407.932 L 187.023,407.917 C 187.006,407.931 186.986,407.948 186.964,407.961 C 186.892,408.013 186.815,408.055 186.731,408.088 C 186.766,408.284 186.922,408.452 187.189,408.524 C 187.32,408.559 187.435,408.558 187.534,408.529 C 187.816,408.449 187.941,408.118 187.789,407.876 C 187.76,407.832 187.725,407.791 187.68,407.758 C 187.661,407.745 187.64,407.732 187.616,407.721 C 187.669,407.723 187.724,407.721 187.78,407.708 C 188.04,407.646 188.195,407.398 188.123,407.107 C 188.07,406.887 187.866,406.694 187.576,406.633 C 187.339,406.582 187.157,406.622 187.02,406.731 C 187.081,406.845 187.122,406.968 187.145,407.094"
               id="path13430"
               style="fill:#d2232a;fill-opacity:1;fill-rule:nonzero;stroke:none" /><path
               d="M 188.526,408.832 C 188.578,408.883 188.628,408.934 188.677,408.989 C 188.8,408.464 188.946,407.953 189.142,407.382 C 189.172,407.293 189.203,407.207 189.235,407.119 C 189.076,407.087 188.919,407.04 188.769,406.978 C 188.746,407.072 188.724,407.163 188.701,407.257 C 188.608,407.639 188.495,408.013 188.369,408.385 L 188.209,408.215 L 188.17,408.263 L 188.128,408.313 C 188.096,408.355 188.065,408.394 188.033,408.439 C 188.21,408.555 188.374,408.686 188.526,408.832"
               id="path13432"
               style="fill:#d2232a;fill-opacity:1;fill-rule:nonzero;stroke:none" /><path
               d="M 181.197,419.136 L 181.197,415.877"
               id="path13434"
               style="fill:none;stroke:#ffffff;stroke-width:0.168;stroke-linecap:butt;stroke-linejoin:miter;stroke-miterlimit:4;stroke-dasharray:none;stroke-opacity:1" /></g></g></g></g></g></svg>