<?xml version="1.0" encoding="UTF-8"?>
<!DOCTYPE svg PUBLIC "-//W3C//DTD SVG 1.1//EN" "http://www.w3.org/Graphics/SVG/1.1/DTD/svg11.dtd">
<!-- Creator: CorelDRAW -->
<svg xmlns="http://www.w3.org/2000/svg" xml:space="preserve" width="2019px" height="2362px" shape-rendering="geometricPrecision" text-rendering="geometricPrecision" image-rendering="optimizeQuality" fill-rule="evenodd" clip-rule="evenodd"
viewBox="0 0 2019.52 2363.39"
 xmlns:xlink="http://www.w3.org/1999/xlink">
 <g id="Ebene_x0020_1">
  <metadata id="CorelCorpID_0Corel-Layer"/>
  <path fill="#1F1A17" d="M1041.43 2348.25l-31.6753 15.1351 -31.6363 -15.1186c-236.674,-112.774 -448.235,-267.988 -614.828,-471.466 -114.796,-140.217 -202.489,-297.741 -264.065,-468.049 -86.9609,-240.51 -111.704,-495.32 -93.771,-749.429 10.4131,-147.52 37.8863,-292.356 82.9762,-433.224l10.6612 -33.3143 32.6408 -12.5732c136.676,-52.6433 278.499,-95.4336 421.599,-126.668 148.956,-32.5143 303.791,-53.5449 456.429,-53.5449 151.323,-0.00118169 304.284,18.5502 452.246,49.7564 145.488,30.6851 289.873,74.3959 427.362,131.094l31.3681 12.936 10.3422 32.3122c45.0911,140.87 72.5631,285.706 82.9762,433.227 17.9346,254.106 -6.8101,508.919 -93.7686,749.429 -61.5781,170.307 -149.272,327.831 -264.067,468.049 -166.579,203.464 -378.148,358.689 -614.789,471.45z"/>
  <path fill="white" d="M1033.57 2331.78l-23.81 11.375 -23.7792 -11.362c-234.377,-111.681 -443.576,-265.04 -608.558,-466.554 -113.651,-138.82 -200.069,-294.1 -261.023,-462.691 -86.1715,-238.325 -110.498,-490.158 -92.7287,-741.937 10.3434,-146.528 37.3581,-288.999 82.1526,-428.944l7.99652 -24.9846 24.48 -9.4311c265.596,-102.303 585.592,-178.994 871.466,-178.994 288.569,-0.00236339 606.495,69.7129 872.648,179.472l23.5275 9.70053 7.75546 24.2342c44.7957,139.948 71.8092,282.42 82.1526,428.947 17.7691,251.778 -6.55722,503.613 -92.7264,741.937 -60.9553,168.591 -147.375,323.872 -261.026,462.691 -164.982,201.514 -374.193,354.878 -608.528,466.541z"/>
  <path fill="#CE2726" d="M1009.97 2282.35c240.261,-114.485 437.77,-266.179 589.75,-451.811 110.015,-134.378 193.005,-283.738 251.897,-446.62 83.6852,-231.447 106.833,-475.282 89.5996,-719.458 -9.26448,-131.246 -32.5498,-268.859 -79.6805,-416.105 -254.197,-104.828 -567.843,-175.334 -851.769,-175.334 -283.927,-0.00236339 -603.854,79.8376 -851.78,175.334 -47.1307,147.246 -70.416,284.859 -79.6805,416.105 -17.2338,244.175 5.91438,488.011 89.5996,719.458 58.8921,162.882 141.882,312.243 251.897,446.62 151.98,185.632 349.491,337.326 589.752,451.811l0.206796 0.0980806 0.207978 -0.0980806z"/>
  <path fill="#D82525" d="M1009.76 73.024c-283.927,0 -603.854,79.84 -851.78,175.336 -47.1307,147.246 -70.416,284.859 -79.6805,416.105 -17.2338,244.175 5.91438,488.011 89.5996,719.458 58.8921,162.882 141.882,312.243 251.897,446.62 151.98,185.632 349.491,337.326 589.752,451.811l0.212705 0.0945355 0 -2209.43z"/>
  <path fill="white" d="M223.834 277.448c-41.8733,141.333 -61.6868,300.667 -74.3215,442.006 22.0138,-92.1142 61.6041,-225.617 116.639,-308.042 38.2703,-57.3204 83.8554,-96.2573 125.463,-126.237 48.8217,-35.1814 103.008,-69.3087 144.351,-108.641 -102.221,27.1152 -209.915,57.0995 -312.131,100.914z"/>
  <path fill="white" d="M1009.76 2143.22l0 80.5714c79.4228,-48.0619 156.343,-98.9562 223.931,-145.467 139.757,-96.1757 255.911,-189.782 333.12,-284.008 -101.262,81.492 -204.088,156.103 -305.347,219.071 -83.9003,52.1706 -174.055,109.645 -251.703,129.833z"/>
  <path fill="white" d="M512.351 848.518l169.069 0c47.3978,-90.1715 134.418,-185.453 242.283,-259.019 104.289,-71.1262 225.301,-114.427 346.443,-128.665 56.4661,-6.63758 124.892,-13.8435 181.987,-4.07684 20.2649,3.46355 34.8103,36.8511 69.5072,42.8813 49.5886,8.6181 118.081,0.873272 171.093,1.34359 33.2623,0.296605 65.3678,0.548306 99.9524,7.32532 19.6847,3.85469 36.72,9.9735 58.9476,15.362 12.8994,3.12558 8.91116,-21.677 3.13622,-26.6047 -22.9048,-19.5547 -47.2571,-28.6159 -71.4653,-43.4615 -18.8303,-11.5487 -33.3769,-26.7335 -50.6663,-41.8627 10.3753,-29.2564 -74.9194,-79.8601 -136.586,-83.8648 -56.7497,-3.68807 -126.523,15.7236 -203.894,36.1244 17.7431,-0.00118169 33.1394,3.90668 50.8826,3.90668 -3.25793,13.0282 -13.5209,9.91914 -21.2398,10.2819 -147.201,6.91055 -272.463,41.1454 -371.904,76.055 -268.565,94.2826 -453.404,239.766 -537.544,394.275z"/>
  <path fill="#1F1A17" d="M1590.86 367.214c3.90786,5.46888 6.13063,11.1174 11.7189,14.8397 6.04082,4.02249 14.2004,0.385232 20.3169,4.29309 10.2406,6.54422 20.3866,17.0589 26.1733,27.7509 8.89461,16.4315 8.18914,32.9527 12.4621,48.4802 3.7377,13.5718 10.4887,26.9556 17.5883,38.4405 4.62988,-0.0614481 9.1794,-0.0768101 13.6143,-0.0366325 33.2623,0.296605 65.369,0.549488 99.9524,7.32532 11.993,2.34566 22.503,5.48897 33.8626,8.67482 7.28278,2.04197 14.9189,3.88187 23.5181,6.29488 0.36987,0.102807 0.733832,0.173709 1.09189,0.219795 -1.18406,-7.08071 -8.44202,-11.8382 -27.9459,-18.8433 -17.2835,-6.20744 -38.8517,-6.7132 -57.9113,-10.5833 -21.5966,-4.38527 -39.5017,-13.2527 -58.6983,-20.8805 -15.9127,-6.32088 -31.1223,-14.276 -35.2665,-17.6722 -3.87596,-3.17758 -1.36486,-6.87628 1.26678,-8.38648 7.29342,-4.1832 10.0101,-11.1788 13.1747,-18.8882 5.42161,-13.2042 -3.27211,-32.3855 5.48542,-42.2692 7.50967,-8.47038 13.0754,5.6355 15.9399,9.37083 5.60596,7.31114 14.5455,13.5257 25.859,16.7871l0.00709016 -0.0165437 -0.430137 -0.375779c5.80094,-16.3558 -18.308,-39.3729 -51.4675,-57.2023 -18.048,0.319057 -31.914,5.203 -44.7968,11.6976 -5.37671,2.70844 -8.47629,-0.772828 -5.46888,-3.90314 2.51346,-2.61627 3.89368,-2.03606 7.92799,-5.2349 0.987896,-0.778736 0.451407,-3.21775 -0.707835,-3.55808 -6.28779,-1.85171 -11.8394,1.18997 -18.3423,-0.335601 -8.3593,-1.96398 -8.70318,-7.18943 -16.9975,-5.71822 -2.69072,0.477404 -7.40095,3.14449 -9.83288,4.81422 -5.75958,3.96222 -10.3493,7.38322 -17.3307,9.03878 1.38731,2.71553 6.29134,3.5309 9.81515,2.15659 7.76019,-3.02632 14.7416,-7.79209 22.6082,-8.00007 2.81834,-0.0768101 8.83671,5.19355 9.81515,8.44202 0.588484,1.94625 -0.635751,2.41656 -5.44761,2.66827 -7.20243,0.380506 -14.0267,0.408866 -21.5541,0.609754z"/>
  <polygon fill="#1F1A17" points="1713.63,418.023 1743.39,456.459 1754.35,453.321 "/>
  <polygon fill="#1F1A17" points="374.201,1147.07 506.499,887.373 682.646,887.373 424.774,1351.02 252.682,1351.02 191.887,887.373 353.913,887.373 "/>
  <polygon fill="white" points="660.916,900.154 417.259,1338.24 263.896,1338.24 206.453,900.154 342.093,900.154 364.993,1193.3 514.331,900.154 "/>
  <path fill="#1F1A17" d="M812.592 1262.17l-128.321 0 -47.965 88.8114 -175.942 0 276.893 -463.648 169.913 0 75.6662 463.56 -159.672 0.938265 -10.5726 -89.661zm-14.6235 -124.013l-8.3723 -71.0056 -38.3495 71.0056 46.7218 0z"/>
  <path fill="white" d="M482.88 1338.2l261.629 -438.088 151.798 0 71.509 438.088 -133.299 0.784645 -10.5655 -89.5937 -147.304 0 -47.9661 88.809 -145.802 0zm329.463 -187.263l-14.7889 -125.413 -67.7347 125.413 82.5236 0z"/>
  <polygon fill="#1F1A17" points="1251.73,1016.36 1242.74,1059.07 1406.1,1059.07 1380.11,1182.75 1219.03,1182.75 1182.78,1351.25 1024.92,1351.25 1123.3,887.034 1448.47,887.034 1420.43,1016.36 "/>
  <polygon fill="white" points="1410.12,1003.58 1241.36,1003.58 1226.99,1071.85 1390.36,1071.85 1369.74,1169.97 1208.71,1169.97 1172.46,1338.47 1040.69,1338.47 1133.66,899.814 1432.62,899.814 "/>
  <path fill="#1F1A17" d="M1763.03 1338.31c-35.1897,15.7508 -80.9815,21.3638 -119.208,21.3638 -72.4875,-0.00118169 -146.49,-19.7957 -194.055,-77.9753 -36.2804,-44.3797 -48.5594,-101.23 -46.2846,-157.495 3.69752,-91.4773 58.3414,-171.652 139.486,-213.143 49.4303,-25.2717 100.938,-33.1548 156.047,-31.4449 45.7954,1.41921 104.722,11.0453 146.073,31.2428l9.79034 4.78113 -40.4659 132.981 -14.5254 -10.6104c-25.7479,-18.8031 -62.6073,-30.2927 -94.5946,-30.2927 -29.0779,-0.00118169 -59.9781,6.15426 -84.9898,21.4678 -38.535,23.5961 -54.1878,63.1474 -57.4575,106.803 -1.8269,24.4103 3.07831,49.3795 20.0463,67.8824 19.7922,21.5801 49.7576,27.7355 77.941,26.0764 38.9439,-2.2913 71.1451,-10.6589 105.989,-28.6041l21.677 -11.1694 -18.9426 145.217 -6.52531 2.91997z"/>
  <path fill="white" d="M1757.81 1326.64c-26.7441,11.9694 -67.7312,20.246 -113.984,20.246 -152.01,-0.00118169 -233.002,-87.872 -227.573,-222.173 3.35719,-83.053 51.9567,-161.08 132.535,-202.281 42.2054,-21.5813 89.3668,-31.9258 149.833,-30.0505 41.9206,1.29986 100.626,10.2996 140.861,29.9524l-32.057 105.348c-38.3034,-27.9731 -83.645,-32.7518 -102.13,-32.7518 -46.8376,-0.00118169 -145.865,15.5653 -155.19,140.095 -5.15219,68.8183 40.0606,111.876 111.479,107.67 39.8302,-2.34448 73.5156,-10.6447 111.091,-30.0008l-14.8657 113.946z"/>
 </g>
</svg>
